<?xml version="1.0" encoding="UTF-8" standalone="no"?>
<!-- Created with Inkscape (http://www.inkscape.org/) -->

<svg
   xmlns:dc="http://purl.org/dc/elements/1.1/"
   xmlns:cc="http://creativecommons.org/ns#"
   xmlns:rdf="http://www.w3.org/1999/02/22-rdf-syntax-ns#"
   xmlns:svg="http://www.w3.org/2000/svg"
   xmlns="http://www.w3.org/2000/svg"
   xmlns:xlink="http://www.w3.org/1999/xlink"
   xmlns:sodipodi="http://sodipodi.sourceforge.net/DTD/sodipodi-0.dtd"
   xmlns:inkscape="http://www.inkscape.org/namespaces/inkscape"
   width="48"
   height="48"
   id="svg2"
   version="1.1"
   inkscape:version="0.48.2 r9819"
   sodipodi:docname="ic_launcher_phone.svg">
  <defs
     id="defs4">
    <linearGradient
       id="linearGradient3628">
      <stop
         id="stop3630"
         offset="0"
         style="stop-color:#007d84;stop-opacity:1;" />
      <stop
         id="stop3632"
         offset="1"
         style="stop-color:#00344c;stop-opacity:1;" />
    </linearGradient>
    <linearGradient
       inkscape:collect="always"
       id="linearGradient3612">
      <stop
         style="stop-color:#000000;stop-opacity:1;"
         offset="0"
         id="stop3614" />
      <stop
         style="stop-color:#000000;stop-opacity:0;"
         offset="1"
         id="stop3616" />
    </linearGradient>
    <linearGradient
       id="linearGradient3590">
      <stop
         style="stop-color:#02c5d0;stop-opacity:1;"
         offset="0"
         id="stop3592" />
      <stop
         style="stop-color:#007bb5;stop-opacity:1;"
         offset="1"
         id="stop3594" />
    </linearGradient>
    <inkscape:perspective
       sodipodi:type="inkscape:persp3d"
       inkscape:vp_x="0 : 526.18109 : 1"
       inkscape:vp_y="0 : 1000 : 0"
       inkscape:vp_z="744.09448 : 526.18109 : 1"
       inkscape:persp3d-origin="372.04724 : 350.78739 : 1"
       id="perspective10" />
    <linearGradient
       inkscape:collect="always"
       xlink:href="#linearGradient3590"
       id="linearGradient3596"
       x1="348.57141"
       y1="332.36218"
       x2="348.57141"
       y2="688.07648"
       gradientUnits="userSpaceOnUse"
       gradientTransform="matrix(0.11836835,0,0,0.11836835,129.36479,627.15986)" />
    <inkscape:perspective
       id="perspective3606"
       inkscape:persp3d-origin="0.5 : 0.33333333 : 1"
       inkscape:vp_z="1 : 0.5 : 1"
       inkscape:vp_y="0 : 1000 : 0"
       inkscape:vp_x="0 : 0.5 : 1"
       sodipodi:type="inkscape:persp3d" />
    <linearGradient
       inkscape:collect="always"
       xlink:href="#linearGradient3612"
       id="linearGradient3618"
       x1="551.14288"
       y1="323.79077"
       x2="923.14288"
       y2="323.79077"
       gradientUnits="userSpaceOnUse" />
    <inkscape:perspective
       id="perspective3667"
       inkscape:persp3d-origin="0.5 : 0.33333333 : 1"
       inkscape:vp_z="1 : 0.5 : 1"
       inkscape:vp_y="0 : 1000 : 0"
       inkscape:vp_x="0 : 0.5 : 1"
       sodipodi:type="inkscape:persp3d" />
    <linearGradient
       inkscape:collect="always"
       xlink:href="#linearGradient3590-1"
       id="linearGradient3596-9"
       x1="348.57141"
       y1="332.36218"
       x2="348.57141"
       y2="688.07648"
       gradientUnits="userSpaceOnUse" />
    <linearGradient
       id="linearGradient3590-1">
      <stop
         style="stop-color:#02c5d0;stop-opacity:1;"
         offset="0"
         id="stop3592-4" />
      <stop
         style="stop-color:#007bb5;stop-opacity:1;"
         offset="1"
         id="stop3594-0" />
    </linearGradient>
    <linearGradient
       inkscape:collect="always"
       xlink:href="#linearGradient3628-7"
       id="linearGradient3626-4"
       x1="226.27144"
       y1="330.06219"
       x2="228.57143"
       y2="688.94788"
       gradientUnits="userSpaceOnUse" />
    <linearGradient
       id="linearGradient3628-7">
      <stop
         id="stop3630-8"
         offset="0"
         style="stop-color:#007d84;stop-opacity:1;" />
      <stop
         id="stop3632-7"
         offset="1"
         style="stop-color:#00344c;stop-opacity:1;" />
    </linearGradient>
    <inkscape:perspective
       id="perspective3721"
       inkscape:persp3d-origin="0.5 : 0.33333333 : 1"
       inkscape:vp_z="1 : 0.5 : 1"
       inkscape:vp_y="0 : 1000 : 0"
       inkscape:vp_x="0 : 0.5 : 1"
       sodipodi:type="inkscape:persp3d" />
    <filter
       inkscape:collect="always"
       id="filter3787"
       color-interpolation-filters="sRGB">
      <feGaussianBlur
         inkscape:collect="always"
         stdDeviation="3.9975469"
         id="feGaussianBlur3789" />
    </filter>
    <inkscape:perspective
       id="perspective3850"
       inkscape:persp3d-origin="0.5 : 0.33333333 : 1"
       inkscape:vp_z="1 : 0.5 : 1"
       inkscape:vp_y="0 : 1000 : 0"
       inkscape:vp_x="0 : 0.5 : 1"
       sodipodi:type="inkscape:persp3d" />
    <filter
       inkscape:collect="always"
       id="filter3868"
       color-interpolation-filters="sRGB">
      <feGaussianBlur
         inkscape:collect="always"
         stdDeviation="2.7164621"
         id="feGaussianBlur3870" />
    </filter>
    <inkscape:perspective
       id="perspective3908"
       inkscape:persp3d-origin="0.5 : 0.33333333 : 1"
       inkscape:vp_z="1 : 0.5 : 1"
       inkscape:vp_y="0 : 1000 : 0"
       inkscape:vp_x="0 : 0.5 : 1"
       sodipodi:type="inkscape:persp3d" />
    <filter
       inkscape:collect="always"
       id="filter3935"
       color-interpolation-filters="sRGB">
      <feGaussianBlur
         inkscape:collect="always"
         stdDeviation="1.5342262"
         id="feGaussianBlur3937" />
    </filter>
  </defs>
  <sodipodi:namedview
     id="base"
     pagecolor="#ffffff"
     bordercolor="#666666"
     borderopacity="1.0"
     inkscape:pageopacity="0.0"
     inkscape:pageshadow="2"
     inkscape:zoom="3.959798"
     inkscape:cx="-25.565373"
     inkscape:cy="32.243288"
     inkscape:document-units="px"
     inkscape:current-layer="layer1"
     showgrid="false"
     showguides="true"
     inkscape:guide-bbox="true"
     inkscape:window-width="1440"
     inkscape:window-height="850"
     inkscape:window-x="0"
     inkscape:window-y="23"
     inkscape:window-maximized="1" />
  <metadata
     id="metadata7">
    <rdf:RDF>
      <cc:Work
         rdf:about="">
        <dc:format>image/svg+xml</dc:format>
        <dc:type
           rdf:resource="http://purl.org/dc/dcmitype/StillImage" />
        <dc:title />
      </cc:Work>
    </rdf:RDF>
  </metadata>
  <g
     inkscape:label="Calque 1"
     inkscape:groupmode="layer"
     id="layer1"
     transform="translate(-146.62464,-663.46912)">
    <rect
       style="fill:url(#linearGradient3596);fill-opacity:1;stroke:none"
       id="rect2816"
       width="41.936214"
       height="41.936214"
       x="149.65652"
       y="666.50092"
       ry="1.6064279" />
    <rect
       style="fill:none;stroke:#ffffff;stroke-width:1.84784806;stroke-miterlimit:4;stroke-opacity:1;stroke-dasharray:none"
       id="rect2816-6"
       width="43.216709"
       height="43.216709"
       x="149.01633"
       y="665.8609"
       ry="1.6554788" />
    <path
       style="font-size:medium;font-style:normal;font-variant:normal;font-weight:normal;font-stretch:normal;text-indent:0;text-align:start;text-decoration:none;line-height:normal;letter-spacing:normal;word-spacing:normal;text-transform:none;direction:ltr;block-progression:tb;writing-mode:lr-tb;text-anchor:start;color:#000000;fill:#ffffff;fill-opacity:1;stroke:#000000;stroke-width:4;stroke-miterlimit:4;stroke-opacity:1;stroke-dasharray:none;marker:none;visibility:visible;display:inline;overflow:visible;filter:url(#filter3787);enable-background:accumulate;font-family:AlArabiya;-inkscape-font-specification:AlArabiya"
       d="m 203.04651,296.10974 c -11.93738,0 -21.78125,9.84387 -21.78125,21.78125 l 0,337.125 c 0,11.93738 9.84387,21.8125 21.78125,21.8125 l 337.125,0 c 11.93738,0 21.8125,-9.87512 21.8125,-21.8125 l 0,-337.125 c 0,-11.93738 -9.87512,-21.78125 -21.8125,-21.78125 l -337.125,0 z m 0,15.59375 337.125,0 c 3.55891,0 6.1875,2.62859 6.1875,6.1875 l 0,337.125 c 0,3.55891 -2.62859,6.1875 -6.1875,6.1875 l -337.125,0 c -3.55891,0 -6.1875,-2.62859 -6.1875,-6.1875 l 0,-337.125 c 0,-3.55891 2.62859,-6.1875 6.1875,-6.1875 z"
       id="rect2816-6-4"
       inkscape:connector-curvature="0"
       transform="matrix(0.11836835,0,0,0.11836835,126.63606,629.8866)" />
    <path
       id="path3791"
       d="m 150.67032,664.93659 c -1.41297,0 -2.57821,1.16524 -2.57821,2.57821 l 0,39.90494 c 0,1.41299 1.16524,2.5819 2.57821,2.5819 l 39.90494,0 c 1.41299,0 2.5819,-1.16891 2.5819,-2.5819 l 0,-39.90494 c 0,-1.41297 -1.16891,-2.57821 -2.5819,-2.57821 l -39.90494,0 z m 0,1.8458 39.90494,0 c 0.42125,0 0.73242,0.31117 0.73242,0.73241 l 0,39.90494 c 0,0.42125 -0.31117,0.73242 -0.73242,0.73242 l -39.90494,0 c -0.42124,0 -0.73241,-0.31117 -0.73241,-0.73242 l 0,-39.90494 c 0,-0.42124 0.31117,-0.73241 0.73241,-0.73241 z"
       style="font-size:medium;font-style:normal;font-variant:normal;font-weight:normal;font-stretch:normal;text-indent:0;text-align:start;text-decoration:none;line-height:normal;letter-spacing:normal;word-spacing:normal;text-transform:none;direction:ltr;block-progression:tb;writing-mode:lr-tb;text-anchor:start;color:#000000;fill:#ffffff;fill-opacity:1;stroke:none;stroke-width:0.69999999;marker:none;visibility:visible;display:inline;overflow:visible;enable-background:accumulate;font-family:AlArabiya;-inkscape-font-specification:AlArabiya"
       inkscape:connector-curvature="0" />
    <path
       style="fill:#ffffff;fill-opacity:1;stroke:#000000;stroke-width:3;stroke-linecap:butt;stroke-linejoin:miter;stroke-miterlimit:4;stroke-opacity:1;stroke-dasharray:none;filter:url(#filter3868)"
       d="m 292.90263,622.90878 c 0,0 -51.04109,-11.65267 -55.71429,-55.71429 -5,-47.14285 13.75821,-90.08822 73.44888,-146.06092 58.15301,-54.53082 96.12596,-70.07179 130.83683,-71.08194 34.71087,-1.01015 56.28392,32.71457 65.35715,59.64286 -22.79771,16.79885 -49.35666,36.56633 -73.57143,54.28572 -17.49736,-11.34839 -23.39967,-28.97642 -28.92857,-52.50001 -18.0043,7.67668 -45.21513,20.44796 -67.14286,45.71429 -18.21079,20.98346 -27.60839,37.67977 -38.57143,64.28571 21.09783,2.01759 34.02893,8.59826 47.14285,29.28571 -16.55507,22.19648 -52.85713,72.14287 -52.85713,72.14287 z"
       id="path3793-3"
       sodipodi:nodetypes="csszcccsccc"
       inkscape:connector-curvature="0"
       transform="matrix(0.11836835,0,0,0.11836835,126.63606,629.8866)" />
    <path
       style="fill:#ffffff;fill-opacity:1;stroke:none"
       d="m 161.30645,703.61927 c 0,0 -6.04165,-1.37933 -6.59482,-6.59483 -0.59185,-5.58019 1.62856,-10.66358 8.69405,-17.28899 6.88347,-6.45471 11.37824,-8.29427 15.48693,-8.41387 4.10868,-0.11952 6.66222,3.87242 7.73622,7.05988 -2.69852,1.98841 -5.84229,4.32825 -8.70855,6.42571 -2.07114,-1.34332 -2.76978,-3.4299 -3.42422,-6.21435 -2.13114,0.90867 -5.35205,2.4204 -7.94759,5.41114 -2.15559,2.48374 -3.26797,4.46007 -4.56563,7.60934 2.49731,0.23885 4.02797,1.01778 5.58022,3.46653 -1.9596,2.62734 -6.25661,8.53944 -6.25661,8.53944 z"
       id="path3793"
       sodipodi:nodetypes="csszcccsccc"
       inkscape:connector-curvature="0" />
    <flowRoot
       xml:space="preserve"
       id="flowRoot3872-7"
       style="font-size:128px;font-style:normal;font-weight:normal;fill:#ffffff;fill-opacity:1;stroke:#000000;stroke-width:3;stroke-miterlimit:4;stroke-opacity:1;stroke-dasharray:none;filter:url(#filter3935);font-family:Bitstream Vera Sans"
       transform="matrix(0.11836835,0,0,0.11836835,133.15997,626.00646)"><flowRegion
         id="flowRegion3874-6"><rect
           id="rect3876-7"
           width="190.91884"
           height="145.46198"
           x="335.37064"
           y="528.09302"
           style="font-size:128px;fill:#ffffff;fill-opacity:1;stroke:#000000;stroke-width:3;stroke-miterlimit:4;stroke-opacity:1;stroke-dasharray:none" /></flowRegion><flowPara
         id="flowPara3878-4">IP</flowPara></flowRoot>    <g
       transform="matrix(0.11836835,0,0,0.11836835,133.15997,626.00646)"
       style="font-size:128px;font-style:normal;font-weight:normal;fill:#ffffff;fill-opacity:1;stroke:none;font-family:Bitstream Vera Sans"
       id="flowRoot3872">
      <path
         d="m 347.9375,562.36514 12.625,0 0,93.3125 -12.625,0 0,-93.3125"
         style=""
         id="path3028" />
      <path
         d="m 398.3125,572.74014 0,35.0625 15.875,0 c 5.87495,5e-5 10.41662,-1.52078 13.625,-4.5625 3.20828,-3.04161 4.81244,-7.37494 4.8125,-13 -6e-5,-5.58326 -1.60422,-9.89576 -4.8125,-12.9375 -3.20838,-3.04158 -7.75005,-4.56241 -13.625,-4.5625 l -15.875,0 m -12.625,-10.375 28.5,0 c 10.45828,10e-5 18.35411,2.37509 23.6875,7.125 5.37493,4.70842 8.06243,11.62508 8.0625,20.75 -7e-5,9.20839 -2.68757,16.16672 -8.0625,20.875 -5.33339,4.70838 -13.22922,7.06254 -23.6875,7.0625 l -15.875,0 0,37.5 -12.625,0 0,-93.3125"
         style=""
         id="path3030" />
    </g>
  </g>
</svg>
