<?xml version="1.0" encoding="UTF-8" standalone="no"?>
<!-- Created with Inkscape (http://www.inkscape.org/) -->

<svg
   xmlns:dc="http://purl.org/dc/elements/1.1/"
   xmlns:cc="http://creativecommons.org/ns#"
   xmlns:rdf="http://www.w3.org/1999/02/22-rdf-syntax-ns#"
   xmlns:svg="http://www.w3.org/2000/svg"
   xmlns="http://www.w3.org/2000/svg"
   xmlns:xlink="http://www.w3.org/1999/xlink"
   version="1.1"
   width="48"
   height="48"
   id="svg2">
  <defs
     id="defs4">
    <linearGradient
       id="linearGradient30312">
      <stop
         id="stop30314"
         style="stop-color:#003356;stop-opacity:1"
         offset="0" />
      <stop
         id="stop30574"
         style="stop-color:#00415c;stop-opacity:0.96862745"
         offset="0.19676811" />
      <stop
         id="stop30318"
         style="stop-color:#071426;stop-opacity:1"
         offset="1" />
    </linearGradient>
    <linearGradient
       id="linearGradient3628">
      <stop
         id="stop3630"
         style="stop-color:#007d84;stop-opacity:1"
         offset="0" />
      <stop
         id="stop3632"
         style="stop-color:#00344c;stop-opacity:1"
         offset="1" />
    </linearGradient>
    <linearGradient
       id="linearGradient3612">
      <stop
         id="stop3614"
         style="stop-color:#000000;stop-opacity:1"
         offset="0" />
      <stop
         id="stop3616"
         style="stop-color:#000000;stop-opacity:0"
         offset="1" />
    </linearGradient>
    <linearGradient
       id="linearGradient3590">
      <stop
         id="stop3592"
         style="stop-color:#02c5d0;stop-opacity:1"
         offset="0" />
      <stop
         id="stop3594"
         style="stop-color:#007bb5;stop-opacity:1"
         offset="1" />
    </linearGradient>
    <linearGradient
       x1="551.14288"
       y1="323.79077"
       x2="923.14288"
       y2="323.79077"
       id="linearGradient3618"
       xlink:href="#linearGradient3612"
       gradientUnits="userSpaceOnUse" />
    <linearGradient
       x1="348.57141"
       y1="332.36218"
       x2="348.57141"
       y2="688.07648"
       id="linearGradient3596-9"
       xlink:href="#linearGradient3590-1"
       gradientUnits="userSpaceOnUse" />
    <linearGradient
       id="linearGradient3590-1">
      <stop
         id="stop3592-4"
         style="stop-color:#02c5d0;stop-opacity:1"
         offset="0" />
      <stop
         id="stop3594-0"
         style="stop-color:#007bb5;stop-opacity:1"
         offset="1" />
    </linearGradient>
    <linearGradient
       x1="226.27144"
       y1="330.06219"
       x2="228.57143"
       y2="688.94788"
       id="linearGradient3626-4"
       xlink:href="#linearGradient3628-7"
       gradientUnits="userSpaceOnUse" />
    <linearGradient
       id="linearGradient3628-7">
      <stop
         id="stop3630-8"
         style="stop-color:#007d84;stop-opacity:1"
         offset="0" />
      <stop
         id="stop3632-7"
         style="stop-color:#00344c;stop-opacity:1"
         offset="1" />
    </linearGradient>
    <filter
       color-interpolation-filters="sRGB"
       id="filter3787">
      <feGaussianBlur
         id="feGaussianBlur3789"
         stdDeviation="3.9975469" />
    </filter>
    <filter
       color-interpolation-filters="sRGB"
       id="filter3868">
      <feGaussianBlur
         id="feGaussianBlur3870"
         stdDeviation="2.7164621" />
    </filter>
    <filter
       color-interpolation-filters="sRGB"
       id="filter3935">
      <feGaussianBlur
         id="feGaussianBlur3937"
         stdDeviation="1.5342262" />
    </filter>
    <radialGradient
       cx="80"
       cy="64"
       r="42"
       fx="80"
       fy="64"
       id="radialGradient3837"
       xlink:href="#linearGradient3700"
       gradientUnits="userSpaceOnUse"
       gradientTransform="matrix(2.6666667,-2.5000001e-7,1.4285714e-7,1.5238095,-200.12911,20.030991)" />
    <linearGradient
       id="linearGradient3700">
      <stop
         id="stop3702"
         style="stop-color:#00004e;stop-opacity:1"
         offset="0" />
      <stop
         id="stop3067"
         style="stop-color:#6d92ee;stop-opacity:1"
         offset="0.75" />
      <stop
         id="stop3704"
         style="stop-color:#1572b1;stop-opacity:1"
         offset="1" />
    </linearGradient>
    <radialGradient
       cx="74"
       cy="34"
       r="2"
       fx="74"
       fy="34"
       id="radialGradient4381"
       xlink:href="#linearGradient4307"
       gradientUnits="userSpaceOnUse" />
    <radialGradient
       cx="74"
       cy="34"
       r="2"
       fx="74"
       fy="34"
       id="radialGradient4377"
       xlink:href="#linearGradient4307"
       gradientUnits="userSpaceOnUse" />
    <radialGradient
       cx="74"
       cy="34"
       r="2"
       fx="74"
       fy="34"
       id="radialGradient4373"
       xlink:href="#linearGradient4307"
       gradientUnits="userSpaceOnUse" />
    <radialGradient
       cx="74"
       cy="34"
       r="2"
       fx="74"
       fy="34"
       id="radialGradient4365"
       xlink:href="#linearGradient4307"
       gradientUnits="userSpaceOnUse" />
    <radialGradient
       cx="74"
       cy="34"
       r="2"
       fx="74"
       fy="34"
       id="radialGradient4359"
       xlink:href="#linearGradient4307"
       gradientUnits="userSpaceOnUse" />
    <radialGradient
       cx="74"
       cy="34"
       r="2"
       fx="74"
       fy="34"
       id="radialGradient4355"
       xlink:href="#linearGradient4307"
       gradientUnits="userSpaceOnUse" />
    <radialGradient
       cx="74"
       cy="34"
       r="2"
       fx="74"
       fy="34"
       id="radialGradient4347"
       xlink:href="#linearGradient4307"
       gradientUnits="userSpaceOnUse" />
    <radialGradient
       cx="74"
       cy="34"
       r="2"
       fx="74"
       fy="34"
       id="radialGradient4343"
       xlink:href="#linearGradient4307"
       gradientUnits="userSpaceOnUse" />
    <radialGradient
       cx="74"
       cy="34"
       r="2"
       fx="74"
       fy="34"
       id="radialGradient4339"
       xlink:href="#linearGradient4307"
       gradientUnits="userSpaceOnUse" />
    <radialGradient
       cx="74"
       cy="34"
       r="2"
       fx="74"
       fy="34"
       id="radialGradient4335"
       xlink:href="#linearGradient4307"
       gradientUnits="userSpaceOnUse" />
    <radialGradient
       cx="74"
       cy="34"
       r="2"
       fx="74"
       fy="34"
       id="radialGradient4329"
       xlink:href="#linearGradient4307"
       gradientUnits="userSpaceOnUse" />
    <radialGradient
       cx="74"
       cy="34"
       r="2"
       fx="74"
       fy="34"
       id="radialGradient4325"
       xlink:href="#linearGradient4307"
       gradientUnits="userSpaceOnUse" />
    <radialGradient
       cx="74"
       cy="34"
       r="2"
       fx="74"
       fy="34"
       id="radialGradient4321"
       xlink:href="#linearGradient4307"
       gradientUnits="userSpaceOnUse" />
    <radialGradient
       cx="74"
       cy="34"
       r="2"
       fx="74"
       fy="34"
       id="radialGradient4313"
       xlink:href="#linearGradient4307"
       gradientUnits="userSpaceOnUse" />
    <linearGradient
       x1="19"
       y1="34"
       x2="61"
       y2="34"
       id="linearGradient4300"
       xlink:href="#linearGradient4294"
       gradientUnits="userSpaceOnUse"
       gradientTransform="matrix(-0.5,-0.8660254,0.8660254,-0.5,30.555136,85.641016)" />
    <linearGradient
       x1="56.475861"
       y1="46.313442"
       x2="42.910873"
       y2="30.987566"
       id="linearGradient4283"
       xlink:href="#linearGradient4277"
       gradientUnits="userSpaceOnUse"
       gradientTransform="matrix(1.0207109,0,0,1.0045564,-0.41421777,-0.24604444)" />
    <linearGradient
       x1="63.409294"
       y1="58.674362"
       x2="34.415993"
       y2="30.141926"
       id="linearGradient4261"
       xlink:href="#linearGradient4255"
       gradientUnits="userSpaceOnUse" />
    <radialGradient
       cx="54.042862"
       cy="39.908237"
       r="26.382498"
       fx="54.042862"
       fy="39.908237"
       id="radialGradient4253"
       xlink:href="#linearGradient4155"
       gradientUnits="userSpaceOnUse"
       gradientTransform="matrix(0.65330802,0.37119195,-0.7866021,1.3407781,48.838684,-29.015462)" />
    <linearGradient
       x1="51.933491"
       y1="51.563755"
       x2="36.575184"
       y2="24.962385"
       id="linearGradient4251"
       xlink:href="#linearGradient4245"
       gradientUnits="userSpaceOnUse"
       gradientTransform="matrix(1.0207109,0,0,1.0045564,-0.41421777,-0.24604444)" />
    <linearGradient
       x1="62.264961"
       y1="67.318283"
       x2="46.5467"
       y2="47.997498"
       id="linearGradient4234"
       xlink:href="#linearGradient4228"
       gradientUnits="userSpaceOnUse" />
    <radialGradient
       cx="51.509827"
       cy="25.675396"
       r="32"
       fx="51.509827"
       fy="25.675396"
       id="radialGradient4149"
       xlink:href="#linearGradient3899"
       gradientUnits="userSpaceOnUse"
       gradientTransform="matrix(1.0329582,1.0165387,-1.0839147,1.0666853,25.963659,-59.149268)" />
    <filter
       color-interpolation-filters="sRGB"
       id="filter4082">
      <feGaussianBlur
         id="feGaussianBlur4084"
         stdDeviation="0.3846875" />
    </filter>
    <filter
       color-interpolation-filters="sRGB"
       id="filter4057">
      <feGaussianBlur
         id="feGaussianBlur4059"
         stdDeviation="0.4121875" />
    </filter>
    <filter
       color-interpolation-filters="sRGB"
       id="filter4045">
      <feGaussianBlur
         id="feGaussianBlur4047"
         stdDeviation="0.46710064" />
    </filter>
    <linearGradient
       id="linearGradient3899">
      <stop
         id="stop3901"
         style="stop-color:#c8c8c8;stop-opacity:0.828125"
         offset="0" />
      <stop
         id="stop4236"
         style="stop-color:#9b9b9b;stop-opacity:0.7109375"
         offset="0.54884583" />
      <stop
         id="stop3903"
         style="stop-color:#aeaeae;stop-opacity:1"
         offset="0.80000001" />
      <stop
         id="stop3905"
         style="stop-color:#ffffff;stop-opacity:1"
         offset="1" />
    </linearGradient>
    <linearGradient
       x1="69.565727"
       y1="71.944916"
       x2="69.565727"
       y2="89.17498"
       id="linearGradient4006"
       xlink:href="#linearGradient3847"
       gradientUnits="userSpaceOnUse" />
    <linearGradient
       x1="22.575186"
       y1="77.19799"
       x2="25.554522"
       y2="66.078964"
       id="linearGradient3983"
       xlink:href="#linearGradient3970"
       gradientUnits="userSpaceOnUse" />
    <radialGradient
       cx="80"
       cy="64"
       r="42"
       fx="80"
       fy="64"
       id="radialGradient3837-5"
       xlink:href="#linearGradient3700-9"
       gradientUnits="userSpaceOnUse"
       gradientTransform="matrix(2.6666667,-2.5000001e-7,1.4285714e-7,1.5238095,-133.33334,-33.52379)" />
    <linearGradient
       x1="32.251034"
       y1="6.1317081"
       x2="32.251034"
       y2="90.238609"
       id="linearGradient3026"
       xlink:href="#ButtonShadow-0"
       gradientUnits="userSpaceOnUse"
       gradientTransform="matrix(1.0238095,0,0,1.0119048,-1.1428571,-98.071429)" />
    <linearGradient
       x1="32.251034"
       y1="6.1317081"
       x2="32.251034"
       y2="90.238609"
       id="linearGradient3721"
       xlink:href="#ButtonShadow-0"
       gradientUnits="userSpaceOnUse"
       gradientTransform="translate(0,-97)" />
    <linearGradient
       x1="32.251034"
       y1="6.1317081"
       x2="32.251034"
       y2="90.238609"
       id="linearGradient3725"
       xlink:href="#ButtonShadow-0"
       gradientUnits="userSpaceOnUse"
       gradientTransform="matrix(1.0238095,0,0,1.0119048,-1.1428571,-98.071429)" />
    <linearGradient
       x1="32.251034"
       y1="6.1317081"
       x2="32.251034"
       y2="90.238609"
       id="linearGradient3772"
       xlink:href="#ButtonShadow-0"
       gradientUnits="userSpaceOnUse"
       gradientTransform="matrix(1.0238095,0,0,1.0119048,-1.1428571,-98.071429)" />
    <linearGradient
       x1="32.251034"
       y1="6.1317081"
       x2="32.251034"
       y2="90.238609"
       id="linearGradient3780"
       xlink:href="#ButtonShadow-0"
       gradientUnits="userSpaceOnUse"
       gradientTransform="matrix(1.0238095,0,0,1.0119048,-1.1428571,-98.071429)" />
    <linearGradient
       x1="45.447727"
       y1="92.539597"
       x2="45.447727"
       y2="7.0165396"
       id="ButtonShadow-0"
       gradientUnits="userSpaceOnUse"
       gradientTransform="matrix(1.0058652,0,0,0.994169,100,0)">
      <stop
         id="stop3750-8"
         style="stop-color:#000000;stop-opacity:1"
         offset="0" />
      <stop
         id="stop3752-5"
         style="stop-color:#000000;stop-opacity:0.58823532"
         offset="1" />
    </linearGradient>
    <clipPath
       id="clipPath3613">
      <rect
         width="84"
         height="84"
         rx="6"
         ry="6"
         x="6"
         y="6"
         id="rect3615"
         style="fill:#ffffff;fill-opacity:1;fill-rule:nonzero;stroke:none" />
    </clipPath>
    <radialGradient
       cx="48"
       cy="90.171875"
       r="42"
       fx="48"
       fy="90.171875"
       id="radialGradient3619"
       xlink:href="#linearGradient3737"
       gradientUnits="userSpaceOnUse"
       gradientTransform="matrix(1.1573129,0,0,0.99590774,-7.5510206,0.19713193)" />
    <linearGradient
       x1="48"
       y1="20.220806"
       x2="48"
       y2="138.66119"
       id="linearGradient3613"
       xlink:href="#linearGradient3737"
       gradientUnits="userSpaceOnUse" />
    <filter
       x="-0.192"
       y="-0.192"
       width="1.3839999"
       height="1.3839999"
       color-interpolation-filters="sRGB"
       id="filter3794">
      <feGaussianBlur
         id="feGaussianBlur3796"
         stdDeviation="5.28" />
    </filter>
    <linearGradient
       x1="36.357143"
       y1="6"
       x2="36.357143"
       y2="63.893143"
       id="linearGradient3188"
       xlink:href="#linearGradient3737"
       gradientUnits="userSpaceOnUse" />
    <filter
       color-interpolation-filters="sRGB"
       id="filter3174">
      <feGaussianBlur
         id="feGaussianBlur3176"
         stdDeviation="1.71" />
    </filter>
    <linearGradient
       id="linearGradient3700-9">
      <stop
         id="stop3702-7"
         style="stop-color:#fbe3cb;stop-opacity:1"
         offset="0" />
      <stop
         id="stop3841-5"
         style="stop-color:#f6c9a0;stop-opacity:1"
         offset="0.2370095" />
      <stop
         id="stop3065-9"
         style="stop-color:#9d7d88;stop-opacity:1"
         offset="0.44841665" />
      <stop
         id="stop3067-7"
         style="stop-color:#3e3574;stop-opacity:1"
         offset="0.75" />
      <stop
         id="stop3704-8"
         style="stop-color:#211650;stop-opacity:1"
         offset="1" />
    </linearGradient>
    <linearGradient
       id="linearGradient3737">
      <stop
         id="stop3739"
         style="stop-color:#ffffff;stop-opacity:1"
         offset="0" />
      <stop
         id="stop3741"
         style="stop-color:#ffffff;stop-opacity:0"
         offset="1" />
    </linearGradient>
    <linearGradient
       x1="45.447727"
       y1="92.539597"
       x2="45.447727"
       y2="7.0165396"
       id="ButtonShadow"
       gradientUnits="userSpaceOnUse"
       gradientTransform="scale(1.0058652,0.994169)">
      <stop
         id="stop3750"
         style="stop-color:#000000;stop-opacity:1"
         offset="0" />
      <stop
         id="stop3752"
         style="stop-color:#000000;stop-opacity:0.58823532"
         offset="1" />
    </linearGradient>
    <linearGradient
       id="linearGradient3847">
      <stop
         id="stop3849"
         style="stop-color:#1a0822;stop-opacity:1"
         offset="0" />
      <stop
         id="stop3851"
         style="stop-color:#49434d;stop-opacity:1"
         offset="1" />
    </linearGradient>
    <linearGradient
       id="linearGradient3970">
      <stop
         id="stop3972"
         style="stop-color:#58546e;stop-opacity:1"
         offset="0" />
      <stop
         id="stop3978"
         style="stop-color:#2e303f;stop-opacity:1"
         offset="0.86341965" />
      <stop
         id="stop3974"
         style="stop-color:#40404a;stop-opacity:1"
         offset="1" />
    </linearGradient>
    <linearGradient
       id="linearGradient4155">
      <stop
         id="stop4157"
         style="stop-color:#473d79;stop-opacity:1"
         offset="0" />
      <stop
         id="stop4159"
         style="stop-color:#473d79;stop-opacity:0"
         offset="1" />
    </linearGradient>
    <linearGradient
       id="linearGradient4228">
      <stop
         id="stop4230"
         style="stop-color:#ffffff;stop-opacity:1"
         offset="0" />
      <stop
         id="stop4232"
         style="stop-color:#ffffff;stop-opacity:0"
         offset="1" />
    </linearGradient>
    <linearGradient
       id="linearGradient4245">
      <stop
         id="stop4247"
         style="stop-color:#ffffff;stop-opacity:1"
         offset="0" />
      <stop
         id="stop4249"
         style="stop-color:#ffffff;stop-opacity:0"
         offset="1" />
    </linearGradient>
    <linearGradient
       id="linearGradient4255">
      <stop
         id="stop4257"
         style="stop-color:#715a84;stop-opacity:1"
         offset="0" />
      <stop
         id="stop4259"
         style="stop-color:#715a84;stop-opacity:0"
         offset="1" />
    </linearGradient>
    <linearGradient
       id="linearGradient4277">
      <stop
         id="stop4279"
         style="stop-color:#ffffff;stop-opacity:1"
         offset="0" />
      <stop
         id="stop4281"
         style="stop-color:#ffffff;stop-opacity:0"
         offset="1" />
    </linearGradient>
    <linearGradient
       id="linearGradient4294">
      <stop
         id="stop4296"
         style="stop-color:#3b306c;stop-opacity:1"
         offset="0" />
      <stop
         id="stop4298"
         style="stop-color:#3b306c;stop-opacity:0"
         offset="1" />
    </linearGradient>
    <linearGradient
       id="linearGradient4307">
      <stop
         id="stop4309"
         style="stop-color:#ffffff;stop-opacity:1"
         offset="0" />
      <stop
         id="stop4315"
         style="stop-color:#ffffff;stop-opacity:1"
         offset="0.25" />
      <stop
         id="stop4331"
         style="stop-color:#ffffff;stop-opacity:0.39215687"
         offset="0.5" />
      <stop
         id="stop4317"
         style="stop-color:#ffffff;stop-opacity:0.11764706"
         offset="0.75" />
      <stop
         id="stop4311"
         style="stop-color:#ffffff;stop-opacity:0"
         offset="1" />
    </linearGradient>
    <radialGradient
       cx="74"
       cy="34"
       r="2"
       fx="74"
       fy="34"
       id="radialGradient29519-7"
       xlink:href="#linearGradient4307-6"
       gradientUnits="userSpaceOnUse"
       gradientTransform="matrix(1.5,0,0,1.5,-648.14286,124.71429)" />
    <linearGradient
       id="linearGradient4307-6">
      <stop
         id="stop4309-9"
         style="stop-color:#ffffff;stop-opacity:1"
         offset="0" />
      <stop
         id="stop4315-3"
         style="stop-color:#ffffff;stop-opacity:1"
         offset="0.25" />
      <stop
         id="stop4331-3"
         style="stop-color:#ffffff;stop-opacity:0.39215687"
         offset="0.5" />
      <stop
         id="stop4317-6"
         style="stop-color:#ffffff;stop-opacity:0.11764706"
         offset="0.75" />
      <stop
         id="stop4311-4"
         style="stop-color:#ffffff;stop-opacity:0"
         offset="1" />
    </linearGradient>
    <radialGradient
       cx="74"
       cy="34"
       r="2"
       fx="74"
       fy="34"
       id="radialGradient29513-3"
       xlink:href="#linearGradient4307-5"
       gradientUnits="userSpaceOnUse"
       gradientTransform="matrix(0.5,0,0,0.5,-580.14286,160.71429)" />
    <linearGradient
       id="linearGradient4307-5">
      <stop
         id="stop4309-94"
         style="stop-color:#ffffff;stop-opacity:1"
         offset="0" />
      <stop
         id="stop4315-38"
         style="stop-color:#ffffff;stop-opacity:1"
         offset="0.25" />
      <stop
         id="stop4331-5"
         style="stop-color:#ffffff;stop-opacity:0.39215687"
         offset="0.5" />
      <stop
         id="stop4317-5"
         style="stop-color:#ffffff;stop-opacity:0.11764706"
         offset="0.75" />
      <stop
         id="stop4311-2"
         style="stop-color:#ffffff;stop-opacity:0"
         offset="1" />
    </linearGradient>
    <mask
       id="mask30503">
      <path
         d="m -596.07635,170.41965 67.95957,0 c 3.2509,0 5.86805,2.59708 5.86805,5.82305 l 0,68.99458 c 0,3.22598 -2.61715,5.82305 -5.86805,5.82305 l -67.95957,0 c -3.2509,0 -5.86805,-2.59707 -5.86805,-5.82305 l 0,-68.99458 c 0,-3.22597 2.61715,-5.82305 5.86805,-5.82305 z"
         id="path30505"
         style="fill:#ffffff;fill-opacity:1;fill-rule:nonzero;stroke:none" />
    </mask>
    <radialGradient
       cx="77.779442"
       cy="79.664001"
       r="42"
       fx="77.779442"
       fy="79.664001"
       id="radialGradient3326"
       xlink:href="#linearGradient30312"
       gradientUnits="userSpaceOnUse"
       gradientTransform="matrix(1.3540676,0,0,0.73952044,-68.097224,387.25804)" />
    <linearGradient
       x1="45.447727"
       y1="92.539597"
       x2="45.447727"
       y2="7.0165396"
       id="linearGradient3328"
       xlink:href="#ButtonShadow"
       gradientUnits="userSpaceOnUse"
       gradientTransform="scale(1.0058652,0.994169)" />
    <linearGradient
       x1="48"
       y1="20.220806"
       x2="48"
       y2="138.66119"
       id="linearGradient3330"
       xlink:href="#linearGradient3737"
       gradientUnits="userSpaceOnUse" />
    <radialGradient
       cx="74"
       cy="34"
       r="2"
       fx="74"
       fy="34"
       id="radialGradient3332"
       xlink:href="#linearGradient4307"
       gradientUnits="userSpaceOnUse"
       gradientTransform="matrix(1.5,0,0,1.5,-642.14286,146.71429)" />
    <radialGradient
       cx="74"
       cy="34"
       r="2"
       fx="74"
       fy="34"
       id="radialGradient3334"
       xlink:href="#linearGradient4307"
       gradientUnits="userSpaceOnUse"
       gradientTransform="matrix(1.5,0,0,1.5,-676.06823,126.03674)" />
    <radialGradient
       cx="74"
       cy="34"
       r="2"
       fx="74"
       fy="34"
       id="radialGradient3336"
       xlink:href="#linearGradient4307"
       gradientUnits="userSpaceOnUse"
       gradientTransform="matrix(0.75,0,0,0.75,-584.14286,157.71429)" />
    <radialGradient
       cx="74"
       cy="34"
       r="2"
       fx="74"
       fy="34"
       id="radialGradient3338"
       xlink:href="#linearGradient4307"
       gradientUnits="userSpaceOnUse"
       gradientTransform="matrix(0.5,0,0,0.5,-562.14286,182.71429)" />
    <radialGradient
       cx="74"
       cy="34"
       r="2"
       fx="74"
       fy="34"
       id="radialGradient3340"
       xlink:href="#linearGradient4307"
       gradientUnits="userSpaceOnUse"
       gradientTransform="matrix(0.5,0,0,0.5,-643.52595,183.56327)" />
    <radialGradient
       cx="74"
       cy="34"
       r="2"
       fx="74"
       fy="34"
       id="radialGradient3342"
       xlink:href="#linearGradient4307"
       gradientUnits="userSpaceOnUse"
       gradientTransform="matrix(0.5,0,0,0.5,-628.79709,186.93237)" />
    <linearGradient
       x1="19"
       y1="34"
       x2="61"
       y2="34"
       id="linearGradient3344"
       xlink:href="#linearGradient4294"
       gradientUnits="userSpaceOnUse"
       gradientTransform="matrix(-0.5,-0.8660254,0.8660254,-0.5,-602.97081,229.20429)" />
    <radialGradient
       cx="51.509827"
       cy="25.675396"
       r="32"
       fx="51.509827"
       fy="25.675396"
       id="radialGradient3346"
       xlink:href="#linearGradient3899"
       gradientUnits="userSpaceOnUse"
       gradientTransform="matrix(0.64555372,0.63533669,-0.67739931,0.66667831,-617.2984,120.59498)" />
    <linearGradient
       x1="51.933491"
       y1="51.563755"
       x2="36.575184"
       y2="24.962385"
       id="linearGradient3348"
       xlink:href="#linearGradient4245"
       gradientUnits="userSpaceOnUse"
       gradientTransform="matrix(1.0207109,0,0,1.0045564,-633.94017,143.31723)" />
    <radialGradient
       cx="54.042862"
       cy="39.908237"
       r="26.382498"
       fx="54.042862"
       fy="39.908237"
       id="radialGradient3350"
       xlink:href="#linearGradient4155"
       gradientUnits="userSpaceOnUse"
       gradientTransform="matrix(0.65330802,0.37119195,-0.7866021,1.3407781,48.838684,-29.015462)" />
    <linearGradient
       x1="63.409294"
       y1="58.674362"
       x2="34.415993"
       y2="30.141926"
       id="linearGradient3352"
       xlink:href="#linearGradient4255"
       gradientUnits="userSpaceOnUse" />
    <linearGradient
       x1="62.264961"
       y1="67.318283"
       x2="46.5467"
       y2="47.997498"
       id="linearGradient3354"
       xlink:href="#linearGradient4228"
       gradientUnits="userSpaceOnUse" />
    <linearGradient
       x1="56.475861"
       y1="46.313442"
       x2="42.910873"
       y2="30.987566"
       id="linearGradient3356"
       xlink:href="#linearGradient4277"
       gradientUnits="userSpaceOnUse"
       gradientTransform="matrix(1.0207109,0,0,1.0045564,-633.94017,143.31723)" />
    <radialGradient
       cx="74"
       cy="34"
       r="2"
       fx="74"
       fy="34"
       id="radialGradient3358"
       xlink:href="#linearGradient4307"
       gradientUnits="userSpaceOnUse"
       gradientTransform="matrix(0.75,0,0,0.75,-666.52595,171.56327)" />
    <radialGradient
       cx="74"
       cy="34"
       r="2"
       fx="74"
       fy="34"
       id="radialGradient3360"
       xlink:href="#linearGradient4307"
       gradientUnits="userSpaceOnUse"
       gradientTransform="matrix(0.5,0,0,0.5,-649.52595,141.56327)" />
    <radialGradient
       cx="74"
       cy="34"
       r="2"
       fx="74"
       fy="34"
       id="radialGradient3362"
       xlink:href="#linearGradient4307"
       gradientUnits="userSpaceOnUse"
       gradientTransform="matrix(0.5,0,0,0.5,-580.14286,160.71429)" />
    <radialGradient
       cx="74"
       cy="34"
       r="2"
       fx="74"
       fy="34"
       id="radialGradient3364"
       xlink:href="#linearGradient4307"
       gradientUnits="userSpaceOnUse"
       gradientTransform="matrix(0.5,0,0,0.5,-607.52595,171.56327)" />
    <radialGradient
       cx="74"
       cy="34"
       r="2"
       fx="74"
       fy="34"
       id="radialGradient3366"
       xlink:href="#linearGradient4307"
       gradientUnits="userSpaceOnUse"
       gradientTransform="matrix(1.5,0,0,1.5,-654.14286,136.71429)" />
    <radialGradient
       cx="74"
       cy="34"
       r="2"
       fx="74"
       fy="34"
       id="radialGradient3368"
       xlink:href="#linearGradient4307"
       gradientUnits="userSpaceOnUse"
       gradientTransform="matrix(1.5,0,0,1.5,-648.14286,124.71429)" />
    <radialGradient
       cx="74"
       cy="34"
       r="2"
       fx="74"
       fy="34"
       id="radialGradient3370"
       xlink:href="#linearGradient4307"
       gradientUnits="userSpaceOnUse"
       gradientTransform="matrix(0.75,0,0,0.75,-627.52595,130.56327)" />
    <radialGradient
       cx="74"
       cy="34"
       r="2"
       fx="74"
       fy="34"
       id="radialGradient3372"
       xlink:href="#linearGradient4307-6"
       gradientUnits="userSpaceOnUse"
       gradientTransform="matrix(1.5,0,0,1.5,-662.99467,129.46343)" />
    <radialGradient
       cx="74"
       cy="34"
       r="2"
       fx="74"
       fy="34"
       id="radialGradient3374"
       xlink:href="#linearGradient4307-5"
       gradientUnits="userSpaceOnUse"
       gradientTransform="matrix(0.5,0,0,0.5,-576.54156,191.20461)" />
  </defs>
  <metadata
     id="metadata7">
    <rdf:RDF>
      <cc:Work
         rdf:about="">
        <dc:format>image/svg+xml</dc:format>
        <dc:type
           rdf:resource="http://purl.org/dc/dcmitype/StillImage" />
        <dc:title></dc:title>
      </cc:Work>
    </rdf:RDF>
  </metadata>
  <g
     transform="translate(0,-402)"
     id="layer2">
    <rect
       width="42.853878"
       height="42.525269"
       rx="3.060992"
       ry="3.0375168"
       x="2.4901054"
       y="404.72464"
       id="rect2419"
       style="fill:url(#radialGradient3326);fill-opacity:1;fill-rule:nonzero;stroke:none" />
    <g
       transform="matrix(0.13711559,0,0,0.13711559,105.69432,386.5232)"
       id="g29354">
      <g
         id="layer2-3"
         style="display:none">
        <rect
           width="86"
           height="85"
           rx="6"
           ry="6"
           x="5"
           y="7"
           id="rect3745"
           style="opacity:0.9;fill:url(#linearGradient3328);fill-opacity:1;fill-rule:nonzero;stroke:none;filter:url(#filter3174)" />
      </g>
      <g
         id="layer5"
         style="display:none">
        <rect
           width="66"
           height="66"
           rx="12"
           ry="12"
           x="15"
           y="15"
           clip-path="url(#clipPath3613)"
           id="rect3171"
           style="opacity:0.1;fill:url(#linearGradient3330);fill-opacity:1;fill-rule:nonzero;stroke:#ffffff;stroke-width:0.5;stroke-linecap:round;stroke-linejoin:miter;stroke-miterlimit:4;stroke-opacity:1;stroke-dasharray:none;stroke-dashoffset:0;filter:url(#filter3794)" />
      </g>
      <g
         transform="matrix(3.8043604,0,0,3.8043604,1542.6055,-510.31813)"
         id="g29458">
        <path
           d="m -528.14286,197.71429 a 3,3 0 0 1 -6,0 3,3 0 1 1 6,0 z"
           id="path4305"
           style="opacity:0.8;color:#000000;fill:url(#radialGradient3332);fill-opacity:1;fill-rule:nonzero;stroke:none;stroke-width:1;marker:none;visibility:visible;display:inline;overflow:visible;enable-background:accumulate" />
        <path
           d="m -562.06823,177.03674 a 3,3 0 0 1 -6,0 3,3 0 1 1 6,0 z"
           id="path4319"
           style="color:#000000;fill:url(#radialGradient3334);fill-opacity:1;fill-rule:nonzero;stroke:none;stroke-width:1;marker:none;visibility:visible;display:inline;overflow:visible;enable-background:accumulate" />
        <path
           d="m -527.14286,183.21429 a 1.5,1.5 0 0 1 -3,0 1.5,1.5 0 1 1 3,0 z"
           id="path4323"
           style="color:#000000;fill:url(#radialGradient3336);fill-opacity:1;fill-rule:nonzero;stroke:none;stroke-width:1;marker:none;visibility:visible;display:inline;overflow:visible;enable-background:accumulate" />
        <path
           d="m -524.14286,199.71429 a 1,1 0 0 1 -2,0 1,1 0 1 1 2,0 z"
           id="path4327"
           style="color:#000000;fill:url(#radialGradient3338);fill-opacity:1;fill-rule:nonzero;stroke:none;stroke-width:1;marker:none;visibility:visible;display:inline;overflow:visible;enable-background:accumulate" />
        <path
           d="m -605.52595,200.56327 a 1,1 0 0 1 -2,0 1,1 0 1 1 2,0 z"
           id="path4341"
           style="color:#000000;fill:url(#radialGradient3340);fill-opacity:1;fill-rule:nonzero;stroke:none;stroke-width:1;marker:none;visibility:visible;display:inline;overflow:visible;enable-background:accumulate" />
        <path
           d="m -590.79709,203.93237 a 1,1 0 0 1 -2,0 1,1 0 1 1 2,0 z"
           id="path4345"
           style="color:#000000;fill:url(#radialGradient3342);fill-opacity:1;fill-rule:nonzero;stroke:none;stroke-width:1;marker:none;visibility:visible;display:inline;overflow:visible;enable-background:accumulate" />
        <g
           transform="matrix(1.0106049,0,0,1.0106049,6.517037,-1.6603041)"
           mask="url(#mask30503)"
           id="g30426">
          <path
             d="m -611.71248,188.06327 c 5.79899,10.04415 18.64239,13.48552 28.68653,7.68653 10.04414,-5.79899 13.48552,-18.64238 7.68653,-28.68653 -5.79899,-10.04415 -18.64239,-13.48552 -28.68653,-7.68653 -10.04414,5.79899 -13.48552,18.64238 -7.68653,28.68653 z m 0.86602,-0.5 c -5.52285,-9.56585 -2.24534,-21.79766 7.32051,-27.32051 9.56585,-5.52285 21.79766,-2.24534 27.32051,7.32051 5.52285,9.56585 2.24534,21.79766 -7.32051,27.32051 -9.56585,5.52285 -21.79766,2.24534 -27.32051,-7.32051 z"
             id="path4285"
             style="opacity:0.1;color:#000000;fill:url(#linearGradient3344);fill-opacity:1;fill-rule:nonzero;stroke:none;stroke-width:1.5;marker:none;visibility:visible;display:inline;overflow:visible;enable-background:accumulate" />
          <path
             d="m -573.52875,177.56327 a 19.998601,20 0 0 1 -39.9972,0 19.998601,20 0 1 1 39.9972,0 z"
             id="path3695"
             style="color:#000000;fill:url(#radialGradient3346);fill-opacity:1;fill-rule:nonzero;stroke:none;stroke-width:1.5;marker:none;visibility:visible;display:inline;overflow:visible;enable-background:accumulate" />
          <path
             d="m -573.52875,177.56327 c 0,-11.0457 -8.95368,-20 -19.9986,-20 -11.04492,0 -19.9986,8.9543 -19.9986,20 0,11.0457 8.95368,20 19.9986,20 11.04492,0 19.9986,-8.9543 19.9986,-20 z m -0.74069,0 c 0,10.63659 -8.62206,19.25926 -19.25791,19.25926 -10.63585,0 -19.25791,-8.62267 -19.25791,-19.25926 0,-10.63659 8.62206,-19.25926 19.25791,-19.25926 10.63585,0 19.25791,8.62267 19.25791,19.25926 z"
             id="path3695-8"
             style="opacity:0.6;color:#000000;fill:url(#linearGradient3348);fill-opacity:1;fill-rule:nonzero;stroke:none;stroke-width:1.5;marker:none;visibility:visible;display:inline;overflow:visible;enable-background:accumulate" />
          <path
             d="m 41.125,16.875 c -2.630101,0.690191 -5.091436,1.788247 -7.34375,3.1875 -0.685588,0.944015 -1.324069,1.909274 -2,2.8125 -0.448353,0.974739 -1.840597,0.834982 -3,1.1875 -0.06669,0.06767 -0.152773,0.119135 -0.21875,0.1875 -1.587159,2.086129 -3.499806,4.030995 -4.5,6.46875 -1.285455,2.533351 4.17355,2.003438 1.4375,4.5 -1.040132,1.50918 -0.613715,4.813765 1.25,5.875 1.601016,1.56141 -3.18156,3.170417 -1,5.15625 2.037804,0.735887 4.28976,-0.988193 6.21875,-0.25 1.305401,1.421772 -0.798205,3.011322 0.59375,4.34375 -1.770141,-0.07326 -3.575367,0.430797 -2.96875,2.65625 -0.291967,2.750305 4.47922,2.620909 3.875,-0.3125 0.109805,-1.372076 1.504925,-2.798878 2.34375,-0.84375 -0.121232,2.071337 3.797242,0.923911 2.03125,3.25 -3.679952,0.0401 -1.412164,5.562321 0.84375,3.625 0.197855,-2.179228 2.263653,-1.916895 3.53125,-1.0625 3.159889,-0.747172 -0.339503,-4.40457 0.78125,-6.0625 1.160505,0.02707 1.328428,2.549015 2.375,0.3125 1.465887,-2.6601 -0.733259,-4.89604 -3.15625,-5.625 -2.39905,-0.835181 -0.764095,-3.148469 -1,-4.5625 -2.174892,-1.68835 -3.151208,0.849775 -2.96875,2.59375 -2.624287,0.401248 -1.980251,-3.000432 -3.9375,-4.09375 -1.35872,-0.98452 -4.425029,-0.966831 -2.5625,-3.5625 1.882879,-0.8553 4.158864,-1.600028 3.46875,-4.25 0.902932,-2.521754 -4.201748,-1.529453 -2.0625,-3.8125 2.726854,-0.04313 4.493802,-2.20369 3.78125,-4.90625 0.618601,-1.876155 3.381203,-1.415663 4.28125,-2.9375 0.24257,0.339366 0.515761,0.675485 0.875,0.90625 0.517494,0.488587 1.331487,0.07499 1.84375,-0.25 0.03671,-0.5471 0.08066,-1.44506 0.9375,-1.25 0.894583,0.08748 1.805269,0.04968 2.65625,-0.1875 0.132435,-0.626976 -0.828572,-1.41793 -1.59375,-1.34375 -0.690888,0.2469 -1.575433,-0.278904 -2.125,0.25 -0.683608,5.91e-4 -1.378892,1.85e-4 -2.0625,0 0.03031,-0.719645 -0.215572,-1.434032 -0.625,-2 z m 12.15625,2.875 c -0.49783,0.141269 -0.77761,0.558057 -0.6875,1.09375 0.281817,0.502926 0.655379,0.804761 1,1.46875 0.725532,0.77285 1.171906,1.606179 1.5625,2.5625 0.679147,0.636154 0.924962,2.058217 2.125,1.78125 0.892259,-0.137057 1.751122,0.04415 2.625,0.1875 0.817318,-0.115946 1.519086,1.011445 2.34375,0.5625 1.218771,0.20939 1.179599,-1.245059 0.53125,-1.875 -0.727645,-0.829026 -2.018925,-0.218679 -3,-0.40625 -0.674295,0.40594 -2.768203,0.259163 -1.96875,-0.8125 0.06822,-1.344825 -0.958201,-2.078481 -2.21875,-2.21875 C 54.8782,21.754621 55.38299,21.472207 55.8125,21.25 55.966804,19.946504 54.177616,20.00739 53.28125,19.75 z M 50.375,22.5625 c -1.769141,0.208149 -1.56966,3.320817 -2.53125,4.46875 -1.781415,0.710714 -2.789571,-1.270952 -2.53125,-2.625 -0.953571,-0.686659 -1.393914,-0.983804 -1.625,0.28125 -1.481128,0.995809 -2.779537,-1.901827 -4.40625,-1.28125 1.650433,-0.293359 -2.379296,1.441133 -0.96875,2.65625 0.882566,1.33371 0.547806,2.809625 -1.21875,2.78125 -1.7682,0.779809 -0.9348,2.371552 0.625,2.375 1.927772,2.271602 -2.146198,3.93859 -0.96875,6.40625 0.829099,2.813717 4.293621,-0.08276 2.75,-2.125 -0.63476,-3.10378 3.516721,-2.051905 3.1875,0.46875 1.097519,0.714628 4.24373,0.757575 2.8125,3.125 -1.989848,0.413595 -1.634938,3.006853 0,3.65625 -1.273387,0.81022 -1.070396,4.5212 0.6875,2.59375 2.55027,-2.293965 2.238448,3.344948 5.03125,1.8125 1.476046,-2.155094 -1.922476,-3.293673 -2.9375,-4.71875 -1.695694,-2.320236 3.513393,-1.258113 1.46875,-3.21875 -2.216777,-1.074422 -0.915227,-3.662476 1.28125,-2.625 2.597876,0.488165 -1.249792,-3.775239 1.46875,-2.65625 0.214769,1.835369 3.629602,1.425826 1.59375,-0.375 -0.552584,-2.038676 2.837465,-3.72511 0.75,-5.875 C 52.34479,26.944576 52.890566,24.054146 51.25,22.65625 50.907174,22.552954 50.627734,22.532764 50.375,22.5625 z m 14.5,9.1875 c -0.159178,0.0062 -0.352477,0.04505 -0.53125,0.09375 -1.136166,1.200973 -2.450606,1.577632 -4.0625,1.125 -0.453339,-0.253393 -1.492458,-0.720511 -1.90625,-0.5625 -1.601394,-0.157183 -1.201009,1.584828 -1.375,2.40625 -1.083557,0.169035 -1.858615,0.989385 -0.90625,1.96875 0.594657,1.888 -1.750095,0.547452 -2.5625,0.75 -1.542901,0.590516 0.945234,1.323628 -0.34375,2.1875 -1.148895,0.115664 -3.084109,1.538809 -1.625,2.46875 1.059642,0.318947 3.365937,-0.856163 3,1.28125 -0.631074,1.457681 2.555896,3.103532 1.90625,0.90625 -0.553648,-1.030964 -1.964814,-3.649478 0.34375,-3.125 0.43383,0.710752 0.811435,1.161934 1.875,0.78125 0.294337,-1.511991 2.424562,-1.123197 3.4375,-0.40625 1.814834,0.381382 0.407292,-2.753929 2.3125,-2.9375 1.284082,-1.052793 0.568742,-3.004553 -0.75,-3.625 0.192352,-1.517215 2.591074,-1.418626 3.6875,-1.6875 -0.73147,-0.757193 -1.385752,-1.668208 -2.5,-1.625 z m 9.78125,7 c -0.25994,0.02868 -0.53625,0.300121 -0.6875,0.5 -0.290975,0.598198 -1.000971,0.52622 -1.21875,0.9375 -0.141526,0.378034 -0.495053,0.103173 -0.6875,0.46875 -0.190992,-0.139558 -1.307323,-0.02574 -0.8125,0.25 -0.686197,0.343353 -0.160287,1.299026 -0.3125,1.90625 -0.173032,0.703538 0.449682,1.058172 0.65625,1.625 0.164894,0.176371 0.424371,-0.04738 0.53125,0.3125 0.0051,0.324459 0.591153,0.02429 0.625,0.375 -0.435588,0.208293 0.822731,0.487097 0.875,0 0.285348,-0.363186 0.636657,-1.014653 0.96875,-1.40625 C 74.657,43.572231 74.822821,43.516955 75,43.46875 75.0027,43.310623 75,43.158778 75,43 75,41.557164 74.874205,40.131577 74.65625,38.75 z m -8.1875,0.875 c -0.379961,0.04703 -0.733594,0.293261 -0.875,0.75 -0.497161,0.769009 -0.637857,2.066548 -1.75,2.09375 -0.565353,0.263697 -1.069569,0.833672 -1.75,0.75 -0.853113,-0.527825 -2.050569,-0.578786 -2.90625,-0.03125 -0.979637,0.626591 0.920951,1.64524 -0.28125,2 -1.181569,0.04876 -1.29007,1.363851 -0.53125,2.03125 0.782696,0.698177 2.146893,0.712795 2.5625,1.8125 0.276152,0.729315 0.987013,1.463438 0.65625,2.3125 -0.472508,0.902539 -1.536122,0.133068 -2.25,0.4375 -1.029882,0.430939 -0.523316,1.833188 0.53125,1.5 1.213637,0.138306 1.873078,1.52494 1.53125,2.625 -0.05927,0.961604 -1.450639,1.480801 -0.96875,2.5 0.355822,0.698291 1.623059,1.131583 2.03125,0.28125 0.0049,-0.93472 0.773269,-1.64856 0.875,-2.59375 0.161083,-0.882589 0.162057,-1.909684 -0.3125,-2.6875 -0.954862,-0.70967 -0.233236,-1.917683 0.46875,-2.5 0.579353,-0.410831 1.08788,-1.286263 1.625,-1.5 0.57674,0.354217 1.476139,1.663795 1.8125,0.34375 0.423086,-1.033062 0.172364,-2.301686 0.9375,-3.1875 0.510831,-0.513588 2.083862,-0.107235 1.65625,-1.25 C 69.005246,44.579198 67.688633,45.172395 67.6875,44.03125 67.443477,42.743005 68.043921,41.371278 67.5,40.125 c -0.247692,-0.407483 -0.651289,-0.547031 -1.03125,-0.5 z m 8.21875,7.4375 c -0.09061,0.0746 -0.09338,0.09269 -0.3125,0.25 L 74.5625,47.25 c -0.07924,0.07122 -0.07566,0.05184 -0.1875,0.15625 -1.076962,0.994669 -1.656361,2.529228 -2.84375,3.1875 -1.889048,0.0592 -0.738358,-2.535049 -2,-3 -1.647316,0.06331 -0.882766,2.233296 -1.8125,3.03125 -1.08203,0.629022 -2.498698,1.726224 -1.15625,2.9375 0.876005,1.046739 0.495851,2.491589 0.34375,3.71875 -0.571705,0.717294 -0.305346,2.418257 0.84375,1.5625 0.395003,-1.24068 -0.227373,-2.968437 1,-3.90625 0.759731,-1.188761 2.482549,-0.540261 3.59375,-1.15625 0.141322,0.04149 0.251629,0.04979 0.375,0.0625 0.922843,-2.099956 1.605799,-4.317103 1.96875,-6.65625 l -0.09375,0.03125 c 0.0398,-0.03553 0.05177,-0.05233 0.09375,-0.09375 0.003,-0.01994 -0.003,-0.04254 0,-0.0625 z"
             transform="matrix(0.72565985,0,0,0.73738093,-628.76481,145.9466)"
             id="path3907"
             style="opacity:0.4;fill:url(#radialGradient3350);fill-opacity:1;stroke:none;filter:url(#filter4045)" />
          <path
             d="m 62.25,24.09375 c -0.762098,0 -1.375,0.612902 -1.375,1.375 0,0.762098 0.612902,1.375 1.375,1.375 0.762098,0 1.375,-0.612902 1.375,-1.375 0,-0.762098 -0.612902,-1.375 -1.375,-1.375 z m -20.40625,1.625 c -0.628797,0.128671 -1.09375,0.708164 -1.09375,1.375 0,0.762098 0.612902,1.375 1.375,1.375 0.762098,0 1.375,-0.612902 1.375,-1.375 0,-0.762098 -0.612902,-1.375 -1.375,-1.375 -0.09526,0 -0.191422,-0.01838 -0.28125,0 z M 31.90625,25.875 C 31.413128,25.875 31,26.256878 31,26.75 c 0,0.493122 0.413128,0.90625 0.90625,0.90625 0.493122,0 0.875,-0.413128 0.875,-0.90625 0,-0.493122 -0.381878,-0.875 -0.875,-0.875 z m 28,2.59375 c -0.806927,0 -1.46875,0.661823 -1.46875,1.46875 0,0.806927 0.661823,1.4375 1.46875,1.4375 0.806927,0 1.46875,-0.630573 1.46875,-1.4375 0,-0.806927 -0.661823,-1.46875 -1.46875,-1.46875 z m -3.96875,2.75 c -0.403464,0 -0.75,0.346536 -0.75,0.75 0,0.403464 0.346536,0.71875 0.75,0.71875 0.403464,0 0.71875,-0.315286 0.71875,-0.71875 0,-0.403464 -0.315286,-0.75 -0.71875,-0.75 z M 45.875,31.375 c -0.403464,0 -0.75,0.346536 -0.75,0.75 0,0.403464 0.346536,0.71875 0.75,0.71875 0.403464,0 0.71875,-0.315286 0.71875,-0.71875 0,-0.403464 -0.315286,-0.75 -0.71875,-0.75 z m -15.4375,0.5 c -1.031074,0 -1.875,0.843926 -1.875,1.875 0,1.031074 0.843926,1.84375 1.875,1.84375 1.031074,0 1.875,-0.812676 1.875,-1.84375 0,-1.031074 -0.843926,-1.875 -1.875,-1.875 z m 38,4.875 c -0.582781,0 -1.0625,0.479719 -1.0625,1.0625 0,0.582781 0.479719,1.03125 1.0625,1.03125 0.582781,0 1.03125,-0.448469 1.03125,-1.03125 0,-0.582781 -0.448469,-1.0625 -1.03125,-1.0625 z M 37.34375,39.5 c -0.62761,0 -1.15625,0.52864 -1.15625,1.15625 0,0.62761 0.52864,1.125 1.15625,1.125 0.62761,0 1.125,-0.49739 1.125,-1.125 0,-0.62761 -0.49739,-1.15625 -1.125,-1.15625 z m 26.375,0.65625 c -0.851757,0 -1.53125,0.679493 -1.53125,1.53125 0,0.851757 0.679493,1.5625 1.53125,1.5625 0.851757,0 1.53125,-0.710743 1.53125,-1.5625 0,-0.851757 -0.679493,-1.53125 -1.53125,-1.53125 z m -34.6875,3.25 c -0.435212,0 -0.78125,0.199774 -0.78125,0.46875 0,0.268976 0.346038,0.5 0.78125,0.5 0.435212,0 0.78125,-0.231024 0.78125,-0.5 0,-0.268976 -0.346038,-0.46875 -0.78125,-0.46875 z m 9.59375,2.75 c -0.717269,0 -1.28125,0.595231 -1.28125,1.3125 0,0.717269 0.563981,1.28125 1.28125,1.28125 0.717269,0 1.3125,-0.563981 1.3125,-1.28125 0,-0.717269 -0.595231,-1.3125 -1.3125,-1.3125 z M 28.5,47.9375 c -0.493122,0 -0.90625,0.413128 -0.90625,0.90625 0,0.493122 0.413128,0.875 0.90625,0.875 0.493122,0 0.875,-0.381878 0.875,-0.875 0,-0.493122 -0.381878,-0.90625 -0.875,-0.90625 z m 29.375,0 c -0.493122,0 -0.90625,0.413128 -0.90625,0.90625 0,0.493122 0.413128,0.875 0.90625,0.875 0.493122,0 0.90625,-0.381878 0.90625,-0.875 0,-0.493122 -0.413128,-0.90625 -0.90625,-0.90625 z m -4.3125,0.5 c -0.806927,0 -1.4375,0.661823 -1.4375,1.46875 0,0.806927 0.630573,1.4375 1.4375,1.4375 0.806927,0 1.46875,-0.630573 1.46875,-1.4375 0,-0.806927 -0.661823,-1.46875 -1.46875,-1.46875 z m 4.0625,6.15625 c -0.448293,0 -0.8125,0.364207 -0.8125,0.8125 0,0.448293 0.364207,0.8125 0.8125,0.8125 0.448293,0 0.8125,-0.364207 0.8125,-0.8125 0,-0.448293 -0.364207,-0.8125 -0.8125,-0.8125 z M 29.78125,55.25 c -0.851757,0 -1.53125,0.679493 -1.53125,1.53125 0,0.851757 0.679493,1.5625 1.53125,1.5625 0.851757,0 1.5625,-0.710743 1.5625,-1.5625 0,-0.851757 -0.710743,-1.53125 -1.5625,-1.53125 z m 5.375,3.09375 c -0.403464,0 -0.75,0.315286 -0.75,0.71875 0,0.403464 0.346536,0.75 0.75,0.75 0.403464,0 0.71875,-0.346536 0.71875,-0.75 0,-0.403464 -0.315286,-0.71875 -0.71875,-0.71875 z m 17.6875,3.875 c -0.672439,0 -1.21875,0.546311 -1.21875,1.21875 0,0.672439 0.546311,1.21875 1.21875,1.21875 0.672439,0 1.21875,-0.546311 1.21875,-1.21875 0,-0.672439 -0.546311,-1.21875 -1.21875,-1.21875 z"
             transform="matrix(0.74068891,0,0,0.74074072,-629.08042,145.71142)"
             id="path3986"
             style="opacity:0.4;color:#000000;fill:url(#linearGradient3352);fill-opacity:1;fill-rule:nonzero;stroke:none;stroke-width:1.5;marker:none;visibility:visible;display:inline;overflow:visible;filter:url(#filter4057);enable-background:accumulate" />
          <path
             d="m 57.46875,28.46875 c -0.537952,0 -0.96875,0.430798 -0.96875,0.96875 0,0.537952 0.430798,0.96875 0.96875,0.96875 0.537952,0 0.96875,-0.430798 0.96875,-0.96875 0,-0.537952 -0.430798,-0.96875 -0.96875,-0.96875 z M 42.4375,36.25 c -1.210391,0 -2.1875,0.977109 -2.1875,2.1875 0,1.210391 0.977109,2.21875 2.1875,2.21875 1.210391,0 2.21875,-1.008359 2.21875,-2.21875 0,-1.210391 -1.008359,-2.1875 -2.21875,-2.1875 z M 34.5,36.75 c -0.582781,0 -1.0625,0.479719 -1.0625,1.0625 0,0.582781 0.479719,1.03125 1.0625,1.03125 0.582781,0 1.0625,-0.448469 1.0625,-1.03125 0,-0.582781 -0.479719,-1.0625 -1.0625,-1.0625 z m -10.40625,3.09375 c -1.031074,0 -1.84375,0.812676 -1.84375,1.84375 0,1.031074 0.812676,1.875 1.84375,1.875 1.031074,0 1.875,-0.843926 1.875,-1.875 0,-1.031074 -0.843926,-1.84375 -1.875,-1.84375 z M 24.75,45.1875 c -0.672439,0 -1.21875,0.546311 -1.21875,1.21875 0,0.672439 0.546311,1.21875 1.21875,1.21875 0.672439,0 1.21875,-0.546311 1.21875,-1.21875 0,-0.672439 -0.546311,-1.21875 -1.21875,-1.21875 z m 30.4375,0.15625 c -0.537952,0 -0.96875,0.430798 -0.96875,0.96875 0,0.537952 0.430798,1 0.96875,1 0.537952,0 0.96875,-0.462048 0.96875,-1 0,-0.537952 -0.430798,-0.96875 -0.96875,-0.96875 z m -5.84375,7 c -0.806927,0 -1.4375,0.630573 -1.4375,1.4375 0,0.806927 0.630573,1.46875 1.4375,1.46875 0.806927,0 1.46875,-0.661823 1.46875,-1.46875 0,-0.806927 -0.661823,-1.4375 -1.46875,-1.4375 z m -3.96875,6.8125 c -1.389708,0 -2.53125,1.110292 -2.53125,2.5 0,1.389708 1.141542,2.53125 2.53125,2.53125 1.389708,0 2.53125,-1.141542 2.53125,-2.53125 0,-1.389708 -1.141542,-2.5 -2.53125,-2.5 z m 15.5,0.46875 c -0.806927,0 -1.46875,0.661823 -1.46875,1.46875 0,0.806927 0.661823,1.46875 1.46875,1.46875 0.806927,0 1.46875,-0.661823 1.46875,-1.46875 0,-0.806927 -0.661823,-1.46875 -1.46875,-1.46875 z m -21.09375,1.78125 c -1.075903,0 -1.96875,0.892847 -1.96875,1.96875 0,1.075903 0.892847,1.9375 1.96875,1.9375 1.075903,0 1.9375,-0.861597 1.9375,-1.9375 0,-1.075903 -0.861597,-1.96875 -1.9375,-1.96875 z"
             transform="matrix(0.74068891,0,0,0.74074072,-629.08042,145.71142)"
             id="path4061"
             style="opacity:0.6;color:#000000;fill:url(#linearGradient3354);fill-opacity:1;fill-rule:nonzero;stroke:none;stroke-width:1.5;marker:none;visibility:visible;display:inline;overflow:visible;filter:url(#filter4082);enable-background:accumulate" />
          <path
             d="m -594.03675,160.01797 c -0.58497,0.13941 -1.20984,0.18507 -1.81814,0.12557 -0.63466,-0.14448 -0.64265,0.50512 -0.66984,0.91038 -0.37943,0.24074 -0.98828,0.55027 -1.37158,0.18836 -0.26609,-0.17094 -0.45828,-0.40786 -0.63795,-0.65924 -0.66665,1.12728 -2.73153,0.77633 -3.18972,2.16607 0.0344,0.1304 0.0447,0.25004 0.0638,0.37671 0.54503,-1.22966 2.48235,-0.95224 3.12593,-2.0405 0.17967,0.25138 0.37186,0.4883 0.63794,0.65924 0.3833,0.36191 0.99215,0.0524 1.37158,-0.18836 0.0272,-0.40526 0.0352,-1.05487 0.66984,-0.91038 0.66261,0.0648 1.34732,0.0187 1.97763,-0.15696 0.0331,-0.15692 -0.0445,-0.31564 -0.15949,-0.47089 z m 3.98715,0.72203 c -0.0527,0.12242 -0.0903,0.25075 -0.0638,0.4081 0.20874,0.37254 0.47838,0.60689 0.73364,1.09873 0.53739,0.57249 0.85899,1.17516 1.1483,1.88355 0.50303,0.47122 0.67411,1.52364 1.56296,1.31848 0.66089,-0.10153 1.29846,0.0508 1.94573,0.15696 0.60538,-0.0859 1.14353,0.74065 1.75435,0.4081 0.64927,0.11156 0.80575,-0.40122 0.66984,-0.87899 -0.0747,0.25739 -0.26745,0.44585 -0.66984,0.37671 -0.61082,0.33255 -1.14897,-0.49399 -1.75435,-0.4081 -0.64727,-0.10618 -1.28484,-0.25848 -1.94573,-0.15696 -0.88885,0.20516 -1.05993,-0.84726 -1.56296,-1.31848 -0.28931,-0.70839 -0.61091,-1.31106 -1.1483,-1.88354 -0.23156,-0.44619 -0.46974,-0.68844 -0.66984,-1.00456 z m 2.23281,0.25114 c -0.29902,0.15894 -0.589,0.33125 -0.0957,0.56506 0.0555,-0.0327 0.10197,-0.0644 0.15948,-0.0942 0.0229,-0.19311 0.0117,-0.34865 -0.0638,-0.47088 z m 1.53106,2.32304 c -0.10525,0.18819 -0.10408,0.33505 0,0.43949 0.01,-0.0144 0.0208,-0.0165 0.0319,-0.0314 0.007,-0.14847 -0.006,-0.2797 -0.0319,-0.4081 z m -9.25019,0.43949 c 0.004,0.0631 0.0218,0.12501 0.0319,0.18835 0.005,-0.0498 -0.009,-0.10902 0,-0.15696 -0.0136,-0.01 -0.0186,-0.0218 -0.0319,-0.0314 z m -6.09237,0.0628 c -0.0986,1.47088 -1.2616,2.54822 -2.90265,2.57417 -0.41786,0.44599 -0.4355,0.70963 -0.28707,0.91038 0.0623,-0.12004 0.13853,-0.24955 0.28707,-0.4081 1.82241,-0.0288 3.06474,-1.35099 2.90265,-3.07645 z m 0.76553,0.53367 c -0.0875,0.22596 -0.0821,0.45109 0.15949,0.65924 0.16343,0.24698 0.27074,0.51232 0.31897,0.75342 0.0725,-0.37042 -0.033,-0.82348 -0.31897,-1.2557 -0.0653,-0.0563 -0.12366,-0.0982 -0.15949,-0.15696 z m 12.88648,2.69974 c -0.1638,1.00971 -1.31119,1.92813 -1.05261,2.98228 0.14698,-1.00949 1.26551,-1.94937 1.05261,-2.98228 z m -14.28995,0.65924 c -0.1966,0.54541 0.30688,1.12834 1.1164,1.13013 0.22266,0.26239 0.3128,0.50885 0.35087,0.75341 0.0902,-0.40178 0.0269,-0.81049 -0.35087,-1.25569 -0.55657,-0.001 -0.96485,-0.27932 -1.1164,-0.62785 z m -9.09071,1.00456 c -0.34577,1.11778 1.28888,1.32647 1.65866,1.94632 0.42564,-0.93653 -1.38706,-1.064 -1.65866,-1.94632 z m 8.38897,0.34531 c -0.0124,0.0521 -0.0116,0.1002 -0.0319,0.15696 0.0336,0.12923 0.0485,0.2279 0.0638,0.34532 0.0437,-0.18972 0.0131,-0.36603 -0.0319,-0.50228 z m 23.38066,0.94177 c -0.8868,0.13183 -2.20528,0.18953 -2.3285,1.16152 0.0546,0.0257 0.10787,0.0626 0.15949,0.0942 0.48411,-0.68455 1.89128,-0.64639 2.58367,-0.8162 -0.13545,-0.14022 -0.28014,-0.29785 -0.41466,-0.43949 z m -23.34876,0.0942 c -0.1455,1.25504 -1.46281,1.73657 -2.61558,2.26025 -0.40093,0.55879 -0.50977,0.95818 -0.41466,1.2557 0.0578,-0.21308 0.20367,-0.45935 0.41466,-0.75342 1.29468,-0.58815 2.80964,-1.12093 2.61558,-2.76253 z m 3.73197,0 c -0.41768,0.0923 -0.71978,0.47785 -0.63795,1.19291 0.27027,-1.36555 2.60567,-0.56641 2.3923,1.06734 0.60969,0.39702 2.0503,0.51351 2.2966,1.28709 0.33021,-1.24583 -1.57344,-1.31846 -2.2966,-1.78936 0.1524,-1.16697 -0.9897,-1.9269 -1.75435,-1.75798 z m 8.45276,0.0942 c -0.2538,0.0135 -0.21318,0.2587 -0.12759,0.56507 0.0991,-0.0754 0.2923,-0.0612 0.66984,0.0942 0.1392,1.18959 2.11876,1.12147 1.59487,0.18835 -0.31443,0.38442 -1.48881,0.21572 -1.59487,-0.69063 -0.2517,-0.10361 -0.42371,-0.16328 -0.54225,-0.15696 z m 2.96644,1.91494 c -0.0971,0.24304 -0.0564,0.52718 0.25518,0.84759 0.0116,0.0367 -0.009,0.0607 0,0.0942 0.0703,-0.11526 0.0932,-0.30061 0,-0.59645 -0.12079,-0.12422 -0.20414,-0.22983 -0.25518,-0.34532 z m -4.08284,0.0314 c -0.8424,-0.0922 -1.36226,0.59286 -1.1802,1.25569 0.14773,-0.59169 0.83722,-0.99828 1.75435,-0.56506 0.72158,0.1356 0.78275,-0.23218 0.66984,-0.69063 -0.0695,0.17039 -0.25929,0.2655 -0.66984,0.18835 -0.20336,-0.0961 -0.3953,-0.16878 -0.57415,-0.18835 z m -10.14332,0.43949 c -0.0618,0.31643 -0.009,0.65134 0.15949,1.00456 0.53734,1.8237 2.56298,0.42245 2.2966,-0.97317 -0.22089,1.17867 -1.82699,2.06471 -2.2966,0.47089 -0.082,-0.17193 -0.13934,-0.33998 -0.15949,-0.50228 z m 21.11596,0.47089 c -0.0512,0.29943 -0.16943,0.58897 -0.44656,0.8162 -1.41117,0.13598 -0.37822,2.44858 -1.72245,2.16607 -0.75027,-0.53107 -2.33377,-0.80607 -2.55178,0.31393 -0.78777,0.28198 -1.05024,-0.07 -1.37158,-0.59646 -0.87057,-0.1978 -1.03536,0.23809 -0.92502,0.78481 0.0819,-0.26074 0.35211,-0.38131 0.92502,-0.25114 0.32134,0.52648 0.58381,0.84705 1.37158,0.56506 0.21802,-1.11999 1.80151,-0.84499 2.55178,-0.31392 1.34423,0.28251 0.31128,-2.0301 1.72245,-2.16607 0.4362,-0.35766 0.53361,-0.84007 0.44656,-1.31848 z m -29.66441,0.0628 c -0.0745,1.14616 0.34992,2.49959 1.30779,3.04506 0.0937,0.0914 0.11995,0.19059 0.15948,0.28253 0.098,-0.26553 0.10631,-0.52557 -0.15948,-0.78481 -0.81921,-0.4665 -1.24295,-1.53108 -1.30779,-2.54278 z m 20.86078,0.53367 c -0.28415,0.23227 0.0495,0.50034 0.22328,0.78481 0.18896,-0.281 -0.0586,-0.54498 -0.22328,-0.78481 z m -2.2966,1.38126 c -0.4213,0.38174 -1.8881,0.37371 -1.49917,1.28709 0.37036,-0.58923 2.12791,-0.43984 1.49917,-1.28709 z m -4.36992,0.62785 c -0.0882,0.55134 0.16538,1.17904 0.66984,1.53823 0.0836,-0.12982 0.20108,-0.23891 0.31898,-0.31393 -0.53661,-0.21315 -0.89316,-0.71145 -0.98882,-1.2243 z m 5.16735,0.53367 c -0.0908,0.26548 -0.0473,0.55133 0.31897,0.78481 0.66451,0.20003 1.97422,-0.3975 2.20091,0.37671 0.20687,-1.48429 -1.42826,-0.64641 -2.20091,-0.87899 -0.13509,-0.0861 -0.25639,-0.18761 -0.31897,-0.28253 z m 12.28043,0.18835 c -0.0282,0.361 -0.0795,0.70991 -0.0638,1.06734 0.0234,-0.36166 0.0663,-0.70946 0.0638,-1.06734 z m 2.39229,0.0314 c -0.0212,0.15356 -0.0216,0.32756 0,0.50228 0.0375,-0.14967 0.0221,-0.32167 0,-0.50228 z m -22.00908,0.21975 c -0.0675,0.57399 -0.32699,1.22256 -0.25518,1.78937 0.0685,-0.61988 0.33983,-1.28194 0.25518,-1.78937 z m 22.00908,0.62785 c -0.002,0.0567 0.0128,0.10585 0,0.15696 -0.12816,0.52114 0.32546,0.80443 0.47846,1.2243 0.12213,0.13065 0.3036,-0.0468 0.38276,0.21975 0.004,0.24034 0.45339,0.0227 0.47846,0.28253 -0.32263,0.15429 0.59923,0.36081 0.63795,0 0.21135,-0.26902 0.48765,-0.74588 0.73363,-1.03595 0.0469,-0.10853 0.15584,-0.15264 0.28708,-0.18835 0.002,-0.11713 0,-0.2277 0,-0.34532 0,-0.0523 4.4e-4,-0.10471 0,-0.15696 -0.13124,0.0357 -0.24023,0.0798 -0.28708,0.18835 -0.24598,0.29008 -0.52228,0.76693 -0.73363,1.03595 -0.0387,0.36082 -0.96058,0.15429 -0.63795,0 -0.0251,-0.25978 -0.47468,-0.0422 -0.47846,-0.28253 -0.0792,-0.26658 -0.26063,-0.0891 -0.38276,-0.21974 -0.11475,-0.31491 -0.39563,-0.56557 -0.47846,-0.87899 z m -8.83553,0.56506 c -0.18628,0.23568 -0.0352,0.53035 0.0957,0.78481 0.2572,-0.17733 0.042,-0.4928 -0.0957,-0.78481 z m -15.37446,0.0314 c -0.007,0.0614 -0.0284,0.12709 -0.0319,0.18836 0.0109,-10e-4 0.0208,0.002 0.0319,0 -0.006,-0.0603 0.003,-0.12585 0,-0.18836 z m 12.05715,0.0628 c -0.4546,1.05014 1.75584,2.21802 1.43538,0.78481 -0.25275,0.43645 -1.25301,-0.0955 -1.43538,-0.78481 z m -5.32683,0.47089 c -0.23426,-0.0208 -0.50705,0.0895 -0.86123,0.4081 -0.68343,0.7494 -1.02727,0.35473 -1.0845,-0.28253 -0.12167,0.87327 0.22957,1.72227 1.0845,0.78481 1.88896,-1.69924 1.66338,2.48502 3.73197,1.34987 0.25651,-0.37453 0.29484,-0.70046 0.22329,-1.00456 -0.0399,0.15921 -0.10257,0.32602 -0.22329,0.50228 -1.68073,0.92231 -1.85564,-1.66778 -2.87074,-1.75797 z m -16.39517,0.53367 c -0.0863,0.33666 -0.0212,0.69959 0.38276,1.06734 1.50938,0.5451 3.19632,-0.73516 4.6251,-0.18836 0.19492,0.21231 0.25549,0.40802 0.28708,0.62785 0.065,-0.39209 0.057,-0.75532 -0.28708,-1.13012 -1.42878,-0.54681 -3.11572,0.70206 -4.6251,0.15696 -0.20198,-0.18387 -0.32267,-0.35804 -0.38276,-0.53367 z m 32.79033,0.31392 c -0.23066,0.26506 -0.93527,0.19255 -1.21209,0.47089 -0.56673,0.65616 -0.35647,1.5892 -0.66984,2.35443 -0.24914,0.97781 -0.9125,0.0112 -1.33968,-0.25114 -0.39784,0.15832 -0.78298,0.79441 -1.2121,1.09873 -0.40688,0.33754 -0.81526,0.96926 -0.63794,1.47544 0.097,-0.36461 0.36267,-0.7448 0.63794,-0.97316 0.42912,-0.30432 0.81426,-0.94041 1.2121,-1.09873 0.42718,0.26238 1.09054,1.22895 1.33968,0.25114 0.31337,-0.76524 0.10311,-1.69828 0.66984,-2.35443 0.37837,-0.38044 1.56072,-0.0953 1.24399,-0.94178 -0.005,-0.007 0.005,-0.0249 0,-0.0314 -0.005,-0.007 -0.0267,0.006 -0.0319,0 z m -8.54845,0.4395 c -0.1066,0.32672 0.009,0.7318 0.31897,1.00455 0.57974,0.51717 1.5741,0.53528 1.88194,1.34988 0.14231,0.37586 0.4246,0.75472 0.51035,1.16151 0.19244,-0.60458 -0.3121,-1.14018 -0.51035,-1.66379 -0.30784,-0.8146 -1.3022,-0.83271 -1.88194,-1.34988 -0.16172,-0.14225 -0.26725,-0.31436 -0.31897,-0.50227 z m 12.40802,0.91037 c -0.0242,0.0199 -0.0779,0.047 -0.0957,0.0628 -0.004,0.0206 0.004,0.0422 0,0.0628 -0.28465,1.53238 -0.76034,3.00394 -1.37158,4.39494 -0.0914,-0.009 -0.1824,-0.032 -0.28708,-0.0628 -0.82305,0.45629 -2.08474,-0.033 -2.64747,0.84759 -0.9091,0.69468 -0.44106,2.00047 -0.73363,2.91949 -0.45373,0.33793 -0.74221,0.12145 -0.82933,-0.21974 -0.11204,0.56375 0.16846,1.21422 0.82933,0.72202 0.29257,-0.91902 -0.17547,-2.19342 0.73363,-2.8881 0.56273,-0.88056 1.82442,-0.4227 2.64747,-0.87898 0.10468,0.0307 0.1957,0.0534 0.28708,0.0628 0.68354,-1.55553 1.19844,-3.19591 1.46727,-4.92861 l -0.0638,0 c 0.0295,-0.0263 0.0327,-0.0321 0.0638,-0.0628 0.002,-0.0148 -0.002,-0.0166 0,-0.0314 z m -31.54635,1.2557 c -0.0399,0.22616 -0.0327,0.44221 0.0319,0.65924 0.0979,-0.001 0.18874,-0.004 0.28708,0 -0.21793,-0.20863 -0.28411,-0.43657 -0.31898,-0.65924 z m 10.17521,0.84759 c -0.0397,0.31456 -0.1652,0.63622 -0.35087,0.97317 -0.77518,1.65668 -0.89477,-0.1997 -1.75434,-0.21975 -0.16096,0.23812 -0.16304,0.52463 -0.12759,0.8476 0.0261,-0.12451 0.0566,-0.24022 0.12759,-0.34532 0.85957,0.02 0.97916,1.87642 1.75434,0.21975 0.28449,-0.5163 0.39327,-1.01672 0.35087,-1.47545 z m -8.22948,0.21975 c -0.46157,0.0454 -0.87419,0.68326 -0.92502,1.31848 0.0237,0.11504 0.0294,0.24193 0.0319,0.34532 0.16801,-0.96054 1.10178,-1.8119 1.69056,-0.4395 -0.0649,1.10855 1.44371,0.95509 1.78624,1.44405 0.46301,-1.11667 -1.86678,-0.60162 -1.78624,-1.97772 -0.233,-0.54309 -0.52049,-0.71786 -0.79744,-0.69063 z m -3.85956,1.2243 c -0.0424,0.23807 -0.0283,0.50966 0.0638,0.8476 -0.21522,2.02752 3.27845,1.923 2.87075,-0.21975 -0.17481,1.64935 -3.06803,1.57598 -2.87075,-0.28253 -0.0344,-0.12623 -0.0495,-0.23365 -0.0638,-0.34532 z m 27.08073,0.21975 c -0.12343,0.32241 -0.0584,0.66661 0.35087,1.03595 0.26526,0.31698 0.3534,0.68296 0.38277,1.06734 0.0381,-0.56634 -0.002,-1.11429 -0.38277,-1.56962 -0.19955,-0.18006 -0.29741,-0.36253 -0.35087,-0.53367 z m -5.32683,0.0314 c -0.2213,0.41952 0.12903,1.00724 0.73364,0.8162 0.63962,0.0729 1.04361,0.59329 1.1483,1.19291 0.11629,-0.77012 -0.32717,-1.633 -1.1483,-1.72658 -0.353,0.11154 -0.61401,-0.054 -0.73364,-0.28253 z m 3.34921,1.88354 c -0.0113,0.17227 -0.034,0.33884 -0.0638,0.50228 -0.0754,0.70014 -0.63427,1.22255 -0.63795,1.91494 -0.30234,0.62987 -1.23561,0.2975 -1.49917,-0.21975 -0.0116,-0.0246 -0.0231,-0.039 -0.0319,-0.0628 -0.0685,0.17096 -0.0697,0.35019 0.0319,0.56506 0.26356,0.51726 1.19683,0.84963 1.49917,0.21975 0.004,-0.69238 0.5626,-1.21479 0.63795,-1.91494 0.0579,-0.31726 0.0884,-0.6702 0.0638,-1.00455 z m -14.70462,0.72203 c -0.0591,0.42387 -0.32163,0.784 -0.98881,0.94177 -0.9389,-0.63289 -2.46903,-0.82943 -2.61557,0.78481 -0.9399,0.80722 -1.8816,-0.14686 -2.04143,-1.13013 -0.16985,1.11236 0.93402,2.58349 2.04143,1.63241 0.14654,-1.61424 1.67667,-1.4177 2.61557,-0.78481 0.91801,-0.21709 1.08433,-0.78313 0.98881,-1.44405 z"
             id="path4271"
             style="opacity:0.4;fill:url(#linearGradient3356);fill-opacity:1;stroke:none" />
          <path
             d="m -609.52595,197.06327 a 1.5,1.5 0 0 1 -3,0 1.5,1.5 0 1 1 3,0 z"
             id="path4337"
             style="color:#000000;fill:url(#radialGradient3358);fill-opacity:1;fill-rule:nonzero;stroke:none;stroke-width:1;marker:none;visibility:visible;display:inline;overflow:visible;enable-background:accumulate" />
          <path
             d="m -611.52595,158.56327 a 1,1 0 0 1 -2,0 1,1 0 1 1 2,0 z"
             id="path4353"
             style="color:#000000;fill:url(#radialGradient3360);fill-opacity:1;fill-rule:nonzero;stroke:none;stroke-width:1;marker:none;visibility:visible;display:inline;overflow:visible;enable-background:accumulate" />
        </g>
        <path
           d="m -542.14286,177.71429 a 1,1 0 0 1 -2,0 1,1 0 1 1 2,0 z"
           id="path4357"
           style="color:#000000;fill:url(#radialGradient3362);fill-opacity:1;fill-rule:nonzero;stroke:none;stroke-width:1;marker:none;visibility:visible;display:inline;overflow:visible;enable-background:accumulate" />
        <path
           d="m -569.52595,188.56327 a 1,1 0 0 1 -2,0 1,1 0 1 1 2,0 z"
           id="path4363"
           style="color:#000000;fill:url(#radialGradient3364);fill-opacity:1;fill-rule:nonzero;stroke:none;stroke-width:1;marker:none;visibility:visible;display:inline;overflow:visible;enable-background:accumulate" />
        <path
           d="m -540.14286,187.71429 a 3,3 0 0 1 -6,0 3,3 0 1 1 6,0 z"
           id="path4371"
           style="color:#000000;fill:url(#radialGradient3366);fill-opacity:1;fill-rule:nonzero;stroke:none;stroke-width:1;marker:none;visibility:visible;display:inline;overflow:visible;enable-background:accumulate" />
        <path
           d="m -534.14286,175.71429 a 3,3 0 0 1 -6,0 3,3 0 1 1 6,0 z"
           id="path4375"
           style="color:#000000;fill:url(#radialGradient3368);fill-opacity:1;fill-rule:nonzero;stroke:none;stroke-width:1;marker:none;visibility:visible;display:inline;overflow:visible;enable-background:accumulate" />
        <path
           d="m -570.52595,156.06327 a 1.5,1.5 0 0 1 -3,0 1.5,1.5 0 1 1 3,0 z"
           id="path4379"
           style="color:#000000;fill:url(#radialGradient3370);fill-opacity:1;fill-rule:nonzero;stroke:none;stroke-width:1;marker:none;visibility:visible;display:inline;overflow:visible;enable-background:accumulate" />
        <path
           d="m -548.99467,180.46343 a 3.0000001,3.0000001 0 0 1 -6,0 3.0000001,3.0000001 0 1 1 6,0 z"
           id="path4375-9"
           style="color:#000000;fill:url(#radialGradient3372);fill-opacity:1;fill-rule:nonzero;stroke:none;stroke-width:1;marker:none;visibility:visible;display:inline;overflow:visible;enable-background:accumulate" />
        <path
           d="m -538.54156,208.20461 a 1,1 0 0 1 -2,0 1,1 0 1 1 2,0 z"
           id="path4357-8"
           style="color:#000000;fill:url(#radialGradient3374);fill-opacity:1;fill-rule:nonzero;stroke:none;stroke-width:1;marker:none;visibility:visible;display:inline;overflow:visible;enable-background:accumulate" />
      </g>
    </g>
  </g>
  <g
     transform="translate(-146.62464,-663.46912)"
     id="layer1"
     style="display:inline">
    <rect
       width="41.994919"
       height="41.994919"
       ry="1.6086764"
       x="149.62636"
       y="666.70575"
       id="rect2816-6"
       style="fill:none;stroke:#ffffff;stroke-width:1.79560709;stroke-miterlimit:4;stroke-opacity:1;stroke-dasharray:none" />
    <path
       d="m 203.04651,296.10974 c -11.93738,0 -21.78125,9.84387 -21.78125,21.78125 l 0,337.125 c 0,11.93738 9.84387,21.8125 21.78125,21.8125 l 337.125,0 c 11.93738,0 21.8125,-9.87512 21.8125,-21.8125 l 0,-337.125 c 0,-11.93738 -9.87512,-21.78125 -21.8125,-21.78125 l -337.125,0 z m 0,15.59375 337.125,0 c 3.55891,0 6.1875,2.62859 6.1875,6.1875 l 0,337.125 c 0,3.55891 -2.62859,6.1875 -6.1875,6.1875 l -337.125,0 c -3.55891,0 -6.1875,-2.62859 -6.1875,-6.1875 l 0,-337.125 c 0,-3.55891 2.62859,-6.1875 6.1875,-6.1875 z"
       transform="matrix(0.1150219,0,0,0.1150219,127.87891,631.74838)"
       id="rect2816-6-4"
       style="font-size:medium;font-style:normal;font-variant:normal;font-weight:normal;font-stretch:normal;text-indent:0;text-align:start;text-decoration:none;line-height:normal;letter-spacing:normal;word-spacing:normal;text-transform:none;direction:ltr;block-progression:tb;writing-mode:lr-tb;text-anchor:start;color:#000000;fill:#ffffff;fill-opacity:1;stroke:#000000;stroke-width:4;stroke-miterlimit:4;stroke-opacity:1;stroke-dasharray:none;marker:none;visibility:visible;display:inline;overflow:visible;filter:url(#filter3787);enable-background:accumulate;font-family:AlArabiya;-inkscape-font-specification:AlArabiya" />
    <path
       d="m 151.23366,665.8075 c -1.37307,0 -2.50532,1.13225 -2.50532,2.50534 l 0,38.77678 c 0,1.37307 1.13225,2.50887 2.50532,2.50887 l 38.7768,0 c 1.37303,0 2.50887,-1.1358 2.50887,-2.50887 l 0,-38.77678 c 0,-1.37309 -1.13584,-2.50534 -2.50887,-2.50534 l -38.7768,0 z m 0,1.7937 38.7768,0 c 0.40935,0 0.71173,0.30211 0.71173,0.71164 l 0,38.77678 c 0,0.40935 -0.30222,0.71173 -0.71173,0.71173 l -38.7768,0 c -0.40935,0 -0.71162,-0.30222 -0.71162,-0.71173 l 0,-38.77678 c 0,-0.40937 0.30211,-0.71164 0.71162,-0.71164 z"
       id="path3791"
       style="font-size:medium;font-style:normal;font-variant:normal;font-weight:normal;font-stretch:normal;text-indent:0;text-align:start;text-decoration:none;line-height:normal;letter-spacing:normal;word-spacing:normal;text-transform:none;direction:ltr;block-progression:tb;writing-mode:lr-tb;text-anchor:start;color:#000000;fill:#ffffff;fill-opacity:1;stroke:none;stroke-width:0.69999999;marker:none;visibility:visible;display:inline;overflow:visible;enable-background:accumulate;font-family:AlArabiya;-inkscape-font-specification:AlArabiya" />
    <path
       d="m 292.90263,622.90878 c 0,0 -51.04109,-11.65267 -55.71429,-55.71429 -5,-47.14285 13.75821,-90.08822 73.44888,-146.06092 58.15301,-54.53082 96.12596,-70.07179 130.83683,-71.08194 34.71087,-1.01015 56.28392,32.71457 65.35715,59.64286 -22.79771,16.79885 -49.35666,36.56633 -73.57143,54.28572 -17.49736,-11.34839 -23.39967,-28.97642 -28.92857,-52.50001 -18.0043,7.67668 -45.21513,20.44796 -67.14286,45.71429 -18.21079,20.98346 -27.60839,37.67977 -38.57143,64.28571 21.09783,2.01759 34.02893,8.59826 47.14285,29.28571 -16.55507,22.19648 -52.85713,72.14287 -52.85713,72.14287 z"
       transform="matrix(0.1150219,0,0,0.1150219,127.87891,631.74838)"
       id="path3793-3"
       style="fill:#ffffff;fill-opacity:1;stroke:#000000;stroke-width:3;stroke-linecap:butt;stroke-linejoin:miter;stroke-miterlimit:4;stroke-opacity:1;stroke-dasharray:none;filter:url(#filter3868)" />
    <path
       d="m 161.56913,703.39654 c 0,0 -5.87093,-1.34029 -6.40842,-6.40834 -0.57506,-5.42239 1.58248,-10.36212 8.44826,-16.80021 6.68891,-6.27219 11.05656,-8.05973 15.04916,-8.17596 3.99245,-0.11588 6.47382,3.76295 7.51745,6.86026 -2.62224,1.9322 -5.67713,4.20589 -8.4623,6.24404 -2.01259,-1.30533 -2.69154,-3.33296 -3.32744,-6.03866 -2.07089,0.88304 -5.20077,2.35195 -7.72294,5.25811 -2.09464,2.41359 -3.17549,4.33398 -4.43655,7.39431 2.4267,0.23187 3.91403,0.98896 5.42248,3.36845 -1.90414,2.55313 -6.0797,8.298 -6.0797,8.298 z"
       id="path3793"
       style="fill:#ffffff;fill-opacity:1;stroke:none" />
    <g
       transform="matrix(0.1150219,0,0,0.1150219,134.21839,627.97804)"
       id="flowRoot3872-7"
       style="font-size:128px;font-style:normal;font-weight:normal;fill:#ffffff;fill-opacity:1;stroke:#000000;stroke-width:3;stroke-miterlimit:4;stroke-opacity:1;filter:url(#filter3935);font-family:Bitstream Vera Sans">
      <path
         d="m 347.9375,562.36514 12.625,0 0,93.3125 -12.625,0 0,-93.3125"
         id="path3201" />
      <path
         d="m 398.3125,572.74014 0,35.0625 15.875,0 c 5.87495,5e-5 10.41662,-1.52078 13.625,-4.5625 3.20828,-3.04161 4.81244,-7.37494 4.8125,-13 -6e-5,-5.58326 -1.60422,-9.89576 -4.8125,-12.9375 -3.20838,-3.04158 -7.75005,-4.56241 -13.625,-4.5625 l -15.875,0 m -12.625,-10.375 28.5,0 c 10.45828,10e-5 18.35411,2.37509 23.6875,7.125 5.37493,4.70842 8.06243,11.62508 8.0625,20.75 -7e-5,9.20839 -2.68757,16.16672 -8.0625,20.875 -5.33339,4.70838 -13.22922,7.06254 -23.6875,7.0625 l -15.875,0 0,37.5 -12.625,0 0,-93.3125"
         id="path3203" />
    </g>
    <g
       transform="matrix(0.1150219,0,0,0.1150219,134.21839,627.97804)"
       id="flowRoot3872"
       style="font-size:128px;font-style:normal;font-weight:normal;fill:#ffffff;fill-opacity:1;stroke:none;font-family:Bitstream Vera Sans">
      <path
         d="m 347.9375,562.36514 12.625,0 0,93.3125 -12.625,0 0,-93.3125"
         id="path3202" />
      <path
         d="m 398.3125,572.74014 0,35.0625 15.875,0 c 5.87495,5e-5 10.41662,-1.52078 13.625,-4.5625 3.20828,-3.04161 4.81244,-7.37494 4.8125,-13 -6e-5,-5.58326 -1.60422,-9.89576 -4.8125,-12.9375 -3.20838,-3.04158 -7.75005,-4.56241 -13.625,-4.5625 l -15.875,0 m -12.625,-10.375 28.5,0 c 10.45828,10e-5 18.35411,2.37509 23.6875,7.125 5.37493,4.70842 8.06243,11.62508 8.0625,20.75 -7e-5,9.20839 -2.68757,16.16672 -8.0625,20.875 -5.33339,4.70838 -13.22922,7.06254 -23.6875,7.0625 l -15.875,0 0,37.5 -12.625,0 0,-93.3125"
         id="path3204" />
    </g>
  </g>
</svg>
