<?xml version="1.0" encoding="UTF-8" standalone="no"?>
<!-- Created with Inkscape (http://www.inkscape.org/) -->

<svg
   xmlns:dc="http://purl.org/dc/elements/1.1/"
   xmlns:cc="http://creativecommons.org/ns#"
   xmlns:rdf="http://www.w3.org/1999/02/22-rdf-syntax-ns#"
   xmlns:svg="http://www.w3.org/2000/svg"
   xmlns="http://www.w3.org/2000/svg"
   xmlns:sodipodi="http://sodipodi.sourceforge.net/DTD/sodipodi-0.dtd"
   xmlns:inkscape="http://www.inkscape.org/namespaces/inkscape"
   width="64"
   height="64"
   id="svg2"
   version="1.1"
   inkscape:version="0.48.2 r9819"
   sodipodi:docname="ic_ab_switch_digit.svg">
  <defs
     id="defs4" />
  <sodipodi:namedview
     id="base"
     pagecolor="#ffffff"
     bordercolor="#666666"
     borderopacity="1.0"
     inkscape:pageopacity="0"
     inkscape:pageshadow="2"
     inkscape:zoom="5.6"
     inkscape:cx="12.306888"
     inkscape:cy="61.319845"
     inkscape:document-units="px"
     inkscape:current-layer="layer1"
     showgrid="false"
     showguides="true"
     inkscape:guide-bbox="true"
     inkscape:window-width="1440"
     inkscape:window-height="850"
     inkscape:window-x="0"
     inkscape:window-y="23"
     inkscape:window-maximized="1">
    <sodipodi:guide
       orientation="0,1"
       position="0,20"
       id="guide2985" />
    <sodipodi:guide
       orientation="0,1"
       position="0,44"
       id="guide2991" />
  </sodipodi:namedview>
  <metadata
     id="metadata7">
    <rdf:RDF>
      <cc:Work
         rdf:about="">
        <dc:format>image/svg+xml</dc:format>
        <dc:type
           rdf:resource="http://purl.org/dc/dcmitype/StillImage" />
        <dc:title />
      </cc:Work>
    </rdf:RDF>
  </metadata>
  <g
     inkscape:label="Calque 1"
     inkscape:groupmode="layer"
     id="layer1"
     transform="translate(0,-988.36218)">
    <g
       style="font-size:40px;font-style:normal;font-variant:normal;font-weight:bold;font-stretch:normal;line-height:125%;letter-spacing:0px;word-spacing:0px;opacity:0.7;fill:#ffffff;fill-opacity:1;stroke:#262626;stroke-width:1.39999998;stroke-miterlimit:4;stroke-opacity:1;font-family:Roboto;-inkscape-font-specification:Roboto Bold"
       id="text2987"
       transform="translate(-1,0)">
      <path
         d="m 16.921875,1032.3622 -4.546875,0 0,-18.7813 -4.703125,0 0,-3.4843 9.25,-0.8125 0,23.0781"
         style="font-size:32px;fill:#ffffff;fill-opacity:1;stroke:#262626;stroke-opacity:1"
         id="path3824"
         inkscape:connector-curvature="0" />
      <path
         d="m 39.890625,1032.3622 -15.265625,0 0,-2.9844 7.046875,-7.9687 c 1.052073,-1.2396 1.796864,-2.2865 2.234375,-3.1407 0.447905,-0.8645 0.671863,-1.6562 0.671875,-2.375 -1.2e-5,-0.9374 -0.234387,-1.6874 -0.703125,-2.25 -0.468761,-0.5624 -1.171885,-0.8437 -2.109375,-0.8437 -0.989591,0 -1.755216,0.3594 -2.296875,1.0781 -0.541673,0.7188 -0.812506,1.6302 -0.8125,2.7344 l -4.4375,0 -0.03125,-0.094 c -0.05209,-2.0208 0.614581,-3.7291 2,-5.125 1.385412,-1.4062 3.244785,-2.1093 5.578125,-2.1093 2.333322,0 4.14582,0.5989 5.4375,1.7968 1.291651,1.1876 1.937484,2.7865 1.9375,4.7969 -1.6e-5,1.3646 -0.364599,2.6094 -1.09375,3.7344 -0.718765,1.125 -1.963555,2.6823 -3.734375,4.6719 l -3.75,4.5 0.03125,0.078 9.296875,0 0,3.5 z"
         style="font-size:32px;fill:#ffffff;fill-opacity:1;stroke:#262626;stroke-opacity:1"
         id="path3826"
         inkscape:connector-curvature="0"
         sodipodi:nodetypes="cccccccscccccsccccccccc" />
      <path
         d="m 50.21875,1018.9872 c 1.083323,0 1.885406,-0.2813 2.40625,-0.8438 0.531238,-0.5625 0.796863,-1.3541 0.796875,-2.375 -1.2e-5,-0.8541 -0.276054,-1.5624 -0.828125,-2.125 -0.552094,-0.5624 -1.322927,-0.8437 -2.3125,-0.8437 -0.833342,0 -1.536466,0.2552 -2.109375,0.7656 -0.562506,0.5104 -0.843756,1.1615 -0.84375,1.9531 l -4.40625,0 -0.03125,-0.094 c -0.0625,-1.7812 0.624998,-3.25 2.0625,-4.4063 1.437495,-1.1562 3.213535,-1.7343 5.328125,-1.7343 2.354155,0 4.223945,0.5573 5.609375,1.6718 1.385401,1.1042 2.078108,2.6928 2.078125,4.7657 -1.7e-5,1.0416 -0.3021,2 -0.90625,2.875 -0.593765,0.8646 -1.411473,1.5468 -2.453125,2.0468 1.187485,0.448 2.104151,1.1303 2.75,2.0469 0.645816,0.9063 0.968733,2.0052 0.96875,3.2969 -1.7e-5,2.0833 -0.755225,3.7239 -2.265625,4.9219 -1.500013,1.1875 -3.427095,1.7812 -5.78125,1.7812 -2.072924,0 -3.885422,-0.5625 -5.4375,-1.6875 -1.552085,-1.125 -2.302085,-2.7031 -2.25,-4.7344 l 0.03125,-0.094 4.4375,0 c -6e-6,0.8542 0.296869,1.5729 0.890625,2.1562 0.604159,0.573 1.3802,0.8594 2.328125,0.8594 1.041657,0 1.885406,-0.3073 2.53125,-0.9219 0.645821,-0.6145 0.968737,-1.3906 0.96875,-2.3281 -1.3e-5,-1.1979 -0.302096,-2.0833 -0.90625,-2.6562 -0.604178,-0.5834 -1.489594,-0.875 -2.65625,-0.875 l -2.515625,0 0,-3.4219 2.515625,0"
         style="font-size:32px;fill:#ffffff;fill-opacity:1;stroke:#262626;stroke-opacity:1"
         id="path3828"
         inkscape:connector-curvature="0" />
    </g>
  </g>
</svg>
