<?xml version="1.0" encoding="UTF-8" standalone="no"?>
<!-- Created with Inkscape (http://www.inkscape.org/) -->

<svg
   xmlns:dc="http://purl.org/dc/elements/1.1/"
   xmlns:cc="http://creativecommons.org/ns#"
   xmlns:rdf="http://www.w3.org/1999/02/22-rdf-syntax-ns#"
   xmlns:svg="http://www.w3.org/2000/svg"
   xmlns="http://www.w3.org/2000/svg"
   xmlns:sodipodi="http://sodipodi.sourceforge.net/DTD/sodipodi-0.dtd"
   xmlns:inkscape="http://www.inkscape.org/namespaces/inkscape"
   width="32"
   height="32"
   id="svg2"
   version="1.1"
   inkscape:version="0.48.2 r9819"
   sodipodi:docname="ic_menu_switch_txt.svg">
  <defs
     id="defs4" />
  <sodipodi:namedview
     id="base"
     pagecolor="#ffffff"
     bordercolor="#666666"
     borderopacity="1.0"
     inkscape:pageopacity="0"
     inkscape:pageshadow="2"
     inkscape:zoom="2.8"
     inkscape:cx="-46.873321"
     inkscape:cy="16.585002"
     inkscape:document-units="px"
     inkscape:current-layer="layer1"
     showgrid="false"
     showguides="true"
     inkscape:guide-bbox="true"
     inkscape:window-width="1440"
     inkscape:window-height="850"
     inkscape:window-x="0"
     inkscape:window-y="23"
     inkscape:window-maximized="1" />
  <metadata
     id="metadata7">
    <rdf:RDF>
      <cc:Work
         rdf:about="">
        <dc:format>image/svg+xml</dc:format>
        <dc:type
           rdf:resource="http://purl.org/dc/dcmitype/StillImage" />
        <dc:title />
      </cc:Work>
    </rdf:RDF>
  </metadata>
  <g
     inkscape:label="Calque 1"
     inkscape:groupmode="layer"
     id="layer1"
     transform="translate(0,-1020.3622)">
    <g
       style="font-size:40px;font-style:normal;font-variant:normal;font-weight:bold;font-stretch:normal;line-height:125%;letter-spacing:0px;word-spacing:0px;opacity:0.7;fill:#ffffff;fill-opacity:1;stroke:#262626;stroke-width:1.39999998;stroke-miterlimit:4;stroke-opacity:1;font-family:Roboto;-inkscape-font-specification:Roboto Bold"
       id="text2987"
       transform="matrix(0.5,0,0,0.5,-0.49999995,527.30322)">
      <path
         d="m 16.875977,1003.4227 0,5.6934 3.910156,0 0,4.4043 -3.910156,0 0,11.8379 c -10e-6,0.9023 0.186187,1.5469 0.558593,1.9336 0.372385,0.3867 0.873687,0.5801 1.503907,0.58 0.329414,10e-5 0.608711,-0.014 0.83789,-0.043 0.243477,-0.043 0.522773,-0.1074 0.837891,-0.1934 l 0.537109,4.5332 c -0.630222,0.2149 -1.246106,0.3724 -1.847656,0.4727 -0.601574,0.1146 -1.253266,0.1719 -1.955078,0.1719 -2.162769,0 -3.831387,-0.5944 -5.00586,-1.7832 -1.16016,-1.1888 -1.740237,-3.0723 -1.740234,-5.6504 l 0,-11.8594 -3.3945312,0 0,-4.4043 3.3945312,0 0,-5.6934 6.273438,0 z"
         style="font-size:44px;fill:#ffffff;fill-opacity:1;stroke:#262626;stroke-opacity:1"
         id="path3842"
         inkscape:connector-curvature="0"
         sodipodi:nodetypes="ccccccccccccscsccccccc" />
      <path
         d="m 33.333008,1016.5067 0.128906,0 3.566406,-7.3906 7.089844,0 -7.003906,11.4941 7.240234,11.752 -7.068359,0 -3.802735,-7.7129 -3.802734,7.7129 -7.089844,0 7.240235,-11.752 -7.025391,-11.4941 7.046875,0 3.480469,7.3906"
         style="font-size:44px;fill:#ffffff;fill-opacity:1;stroke:#262626;stroke-opacity:1"
         id="path3844"
         inkscape:connector-curvature="0" />
      <path
         d="m 54.516602,1003.4227 0,5.6934 3.910156,0 0,4.4043 -3.910156,0 0,11.8379 c -10e-6,0.9023 0.186187,1.5469 0.558593,1.9336 0.372385,0.3867 0.873687,0.5801 1.503907,0.58 0.329414,10e-5 0.608711,-0.014 0.83789,-0.043 0.243477,-0.043 0.522773,-0.1074 0.837891,-0.1934 l 0.537109,4.5332 c -0.630222,0.2149 -1.246106,0.3724 -1.847656,0.4727 -0.601574,0.1146 -1.253266,0.1719 -1.955078,0.1719 -2.162769,0 -3.831387,-0.5944 -5.00586,-1.7832 -1.16016,-1.1888 -1.740237,-3.0723 -1.740234,-5.6504 l 0,-11.8594 -3.394531,0 0,-4.4043 3.394531,0 0,-5.6934 6.273438,0 z"
         style="font-size:44px;fill:#ffffff;fill-opacity:1;stroke:#262626;stroke-opacity:1"
         id="path3846"
         inkscape:connector-curvature="0"
         sodipodi:nodetypes="ccccccccccccscsccccccc" />
    </g>
  </g>
</svg>
