<?xml version="1.0" encoding="UTF-8" standalone="no"?>
<!-- Created with Inkscape (http://www.inkscape.org/) -->

<svg
   xmlns:dc="http://purl.org/dc/elements/1.1/"
   xmlns:cc="http://creativecommons.org/ns#"
   xmlns:rdf="http://www.w3.org/1999/02/22-rdf-syntax-ns#"
   xmlns:svg="http://www.w3.org/2000/svg"
   xmlns="http://www.w3.org/2000/svg"
   xmlns:xlink="http://www.w3.org/1999/xlink"
   xmlns:sodipodi="http://sodipodi.sourceforge.net/DTD/sodipodi-0.dtd"
   xmlns:inkscape="http://www.inkscape.org/namespaces/inkscape"
   width="48"
   height="48"
   id="svg2"
   version="1.1"
   inkscape:version="0.48.2 r9819"
   sodipodi:docname="Nouveau document 1">
  <defs
     id="defs4">
    <linearGradient
       id="linearGradient3805">
      <stop
         style="stop-color:#d8d8d8;stop-opacity:1;"
         offset="0"
         id="stop3807" />
      <stop
         style="stop-color:#c9c9c9;stop-opacity:1;"
         offset="1"
         id="stop3809" />
    </linearGradient>
    <filter
       id="filter3827"
       inkscape:label="Inner Shadow"
       inkscape:menu="Shadows and Glows"
       inkscape:menu-tooltip="Adds a colorizable drop shadow inside"
       color-interpolation-filters="sRGB">
      <feGaussianBlur
         id="feGaussianBlur3829"
         stdDeviation="1.01"
         result="result8" />
      <feOffset
         id="feOffset3831"
         dx="0"
         dy="1.3"
         result="result11" />
      <feComposite
         id="feComposite3833"
         in2="result11"
         result="result6"
         in="SourceGraphic"
         operator="in"
         stdDeviation="1" />
      <feFlood
         id="feFlood3835"
         result="result10"
         in="result6"
         flood-opacity="0.60000000000000009"
         flood-color="rgb(0,0,0)" />
      <feBlend
         id="feBlend3837"
         in2="result10"
         mode="normal"
         in="result6"
         result="result12" />
      <feComposite
         id="feComposite3839"
         in2="SourceGraphic"
         result="result2"
         operator="in" />
    </filter>
    <linearGradient
       gradientTransform="matrix(4.4444444,0,0,4.4444444,3.555556,-0.958333)"
       gradientUnits="userSpaceOnUse"
       xlink:href="#linearGradient3805"
       id="linearGradient2993"
       y2="2.5"
       x2="16.5"
       y1="19.542921"
       x1="16.5" />
    <linearGradient
       id="linearGradient4081-7">
      <stop
         offset="0"
         style="stop-color:#aaaaaa;stop-opacity:1"
         id="stop4083-8" />
      <stop
         offset="1"
         style="stop-color:#f0f0f0;stop-opacity:1"
         id="stop4085-6" />
    </linearGradient>
    <linearGradient
       gradientTransform="matrix(4.4444444,0,0,4.4444444,3.555556,-0.958333)"
       gradientUnits="userSpaceOnUse"
       xlink:href="#linearGradient3805-8"
       id="linearGradient2993-3"
       y2="2.5"
       x2="16.5"
       y1="19.542921"
       x1="16.5" />
    <linearGradient
       id="linearGradient3805-8">
      <stop
         style="stop-color:#d8d8d8;stop-opacity:1;"
         offset="0"
         id="stop3807-0" />
      <stop
         style="stop-color:#c9c9c9;stop-opacity:1;"
         offset="1"
         id="stop3809-8" />
    </linearGradient>
    <linearGradient
       inkscape:collect="always"
       xlink:href="#linearGradient3805-8"
       id="linearGradient3956"
       gradientUnits="userSpaceOnUse"
       gradientTransform="matrix(4.4444444,0,0,-4.4444444,29.044153,272.68077)"
       x1="16.5"
       y1="19.542921"
       x2="16.5"
       y2="2.5" />
  </defs>
  <sodipodi:namedview
     id="base"
     pagecolor="#ffffff"
     bordercolor="#666666"
     borderopacity="1.0"
     inkscape:pageopacity="0.0"
     inkscape:pageshadow="2"
     inkscape:zoom="3.959798"
     inkscape:cx="50.629795"
     inkscape:cy="39.63551"
     inkscape:document-units="px"
     inkscape:current-layer="layer1"
     showgrid="false"
     inkscape:window-width="1600"
     inkscape:window-height="845"
     inkscape:window-x="0"
     inkscape:window-y="27"
     inkscape:window-maximized="1"
     fit-margin-top="0"
     fit-margin-left="0"
     fit-margin-right="0"
     fit-margin-bottom="0" />
  <metadata
     id="metadata7">
    <rdf:RDF>
      <cc:Work
         rdf:about="">
        <dc:format>image/svg+xml</dc:format>
        <dc:type
           rdf:resource="http://purl.org/dc/dcmitype/StillImage" />
        <dc:title></dc:title>
      </cc:Work>
    </rdf:RDF>
  </metadata>
  <g
     inkscape:label="Calque 1"
     inkscape:groupmode="layer"
     id="layer1"
     transform="translate(-25.488597,-223.72243)">
    <path
       style="fill:url(#linearGradient3956);fill-opacity:1;fill-rule:nonzero;stroke:none;display:inline;filter:url(#filter3827)"
       id="path3536-7"
       inkscape:connector-curvature="0"
       d="m 97.644847,261.56618 -6.09375,-6.375 c 8.01839,-8.01839 12.906253,-19.17425 12.906253,-31.40625 0,-12.37353 -5.004993,-23.61692 -13.187503,-31.65625 l 6.25,-6.25 c 9.817153,9.67447 15.968753,23.04493 15.968753,37.90625 0,14.79067 -6.10862,28.11713 -15.843753,37.78125 z m -10.1875,-10.1875 -6.375,-6.375 c 5.21215,-5.55889 8.46875,-12.97167 8.46875,-21.1875 0,-8.28201 -3.3062,-15.77009 -8.59375,-21.34375 l 6.3125,-6.3125 c 6.90142,7.18723 11.15625,16.9118 11.15625,27.65625 0,10.67076 -4.15454,20.38473 -10.96875,27.5625 z m -31.3125,-5.65625 c -0.242952,4e-5 -0.321146,-0.0414 -0.5625,-0.125 -0.314988,-0.12189 -0.692367,-0.30615 -0.96875,-0.5625 l -8,-7.3125 -8.8125,0 c -2.423441,0 -4.3125,-1.90073 -4.3125,-4.40625 l 0,-19.03125 c 0,-2.50551 1.889059,-4.53125 4.3125,-4.53125 l 8.9375,0 7.875,-7.375 c 0.999696,-0.86787 2.186633,-0.86486 3.1875,0 1.000869,0.86487 1.693988,2.52388 1.6875,4.25 l 0,7.71875 0,18.71875 0,7.6875 c 0.01442,1.47908 -0.47854,2.94641 -1.25,3.875 -0.578596,0.69645 -1.364889,1.09364 -2.09375,1.09375 z m 21,-4.65625 -6.4375,-6.4375 c 2.367766,-2.99903 3.84375,-6.72661 3.84375,-10.84375 0,-4.18155 -1.47476,-7.9821 -3.90625,-11 l 6.375,-6.40625 c 4.014675,4.67552 6.4375,10.76868 6.4375,17.40625 0,6.57474 -2.369266,12.62443 -6.3125,17.28125 z"
       transform="matrix(0.52966053,0,0,0.52966053,10.564587,129.22549)" />
  </g>
</svg>
