<?xml version="1.0" encoding="UTF-8" standalone="no"?>
<!-- Created with Inkscape (http://www.inkscape.org/) -->

<svg
   xmlns:dc="http://purl.org/dc/elements/1.1/"
   xmlns:cc="http://creativecommons.org/ns#"
   xmlns:rdf="http://www.w3.org/1999/02/22-rdf-syntax-ns#"
   xmlns:svg="http://www.w3.org/2000/svg"
   xmlns="http://www.w3.org/2000/svg"
   xmlns:sodipodi="http://sodipodi.sourceforge.net/DTD/sodipodi-0.dtd"
   xmlns:inkscape="http://www.inkscape.org/namespaces/inkscape"
   version="1.1"
   width="96"
   height="96"
   id="svg2"
   xml:space="preserve"
   inkscape:version="0.48.4 r9939"
   sodipodi:docname="ic_wizard_worlddialpoint.svg"
   inkscape:export-filename="/home/r3gis3r/workspaceandroid2/CSipSimple/res/drawable-hdpi/ic_wizard_worlddialpoint.png"
   inkscape:export-xdpi="67.5"
   inkscape:export-ydpi="67.5"><sodipodi:namedview
     pagecolor="#ffffff"
     bordercolor="#666666"
     borderopacity="1"
     objecttolerance="10"
     gridtolerance="10"
     guidetolerance="10"
     inkscape:pageopacity="0"
     inkscape:pageshadow="2"
     inkscape:window-width="1549"
     inkscape:window-height="783"
     id="namedview118"
     showgrid="false"
     fit-margin-top="0"
     fit-margin-left="0"
     fit-margin-right="0"
     fit-margin-bottom="0"
     inkscape:zoom="3.1822222"
     inkscape:cx="87.139788"
     inkscape:cy="35.264179"
     inkscape:window-x="0"
     inkscape:window-y="27"
     inkscape:window-maximized="0"
     inkscape:current-layer="svg2" /><metadata
     id="metadata8"><rdf:RDF><cc:Work
         rdf:about=""><dc:format>image/svg+xml</dc:format><dc:type
           rdf:resource="http://purl.org/dc/dcmitype/StillImage" /><dc:title></dc:title></cc:Work></rdf:RDF></metadata><defs
     id="defs6"><clipPath
       id="clipPath16"><path
         d="M 0,216 360,216 360,0 0,0 0,216 z"
         inkscape:connector-curvature="0"
         id="path18" /></clipPath></defs><g
     transform="matrix(0.33086796,0,0,-0.33086796,-10.476511,83.200215)"
     id="g10"><g
       id="g12"><g
         clip-path="url(#clipPath16)"
         id="g14"><g
           transform="translate(96.7065,97.9492)"
           id="g20"><path
             d="m 0,0 c 5.716,5.715 5.716,14.984 -0.001,20.701 -3.6,3.599 -8.607,4.929 -13.251,3.996 5.201,1.935 11.282,0.816 15.464,-3.365 C 7.929,15.616 7.929,6.348 2.212,0.631 0.096,-1.484 -2.507,-2.816 -5.237,-3.365 -3.327,-2.654 -1.536,-1.535 0,0"
             inkscape:connector-curvature="0"
             id="path22"
             style="fill:#09357a;fill-opacity:1;fill-rule:nonzero;stroke:none" /></g><g
           transform="translate(99.1001,89.1621)"
           id="g24"><path
             d="m 0,0 c 0,0.469 -0.087,0.66 -0.2,0.912 -0.061,0.139 -1.224,2.049 -1.528,2.5 -0.217,0.32 -0.434,0.537 -0.59,0.643 -0.131,0.086 -0.295,0.138 -0.373,0.138 -0.044,0 -0.087,0.018 -0.087,0.061 0,0.035 0.034,0.06 0.112,0.06 0.166,0 0.816,-0.025 0.86,-0.025 0.061,0 0.39,0.025 0.729,0.025 0.096,0 0.113,-0.025 0.113,-0.06 0,-0.035 -0.052,-0.043 -0.13,-0.078 -0.07,-0.035 -0.113,-0.088 -0.113,-0.156 0,-0.104 0.043,-0.209 0.113,-0.338 C -0.955,3.43 0.347,1.189 0.503,0.938 0.668,1.303 1.771,3.203 1.945,3.49 2.058,3.672 2.092,3.82 2.092,3.932 2.092,4.055 2.058,4.15 1.954,4.176 1.875,4.201 1.823,4.219 1.823,4.262 c 0,0.035 0.052,0.052 0.139,0.052 0.226,0 0.504,-0.025 0.573,-0.025 0.052,0 0.677,0.025 0.842,0.025 C 3.438,4.314 3.49,4.297 3.49,4.262 3.49,4.219 3.447,4.193 3.377,4.193 3.282,4.193 3.117,4.158 2.978,4.072 2.804,3.967 2.709,3.863 2.518,3.629 2.231,3.281 1.016,1.24 0.859,0.867 0.729,0.555 0.729,0.285 0.729,0 l 0,-0.748 c 0,-0.139 0,-0.502 0.026,-0.867 0.017,-0.252 0.096,-0.444 0.356,-0.479 0.122,-0.015 0.313,-0.033 0.391,-0.033 0.052,0 0.069,-0.027 0.069,-0.053 0,-0.043 -0.043,-0.07 -0.138,-0.07 -0.478,0 -1.025,0.027 -1.068,0.027 -0.044,0 -0.591,-0.027 -0.851,-0.027 -0.096,0 -0.139,0.018 -0.139,0.07 0,0.026 0.017,0.053 0.069,0.053 0.078,0 0.182,0.018 0.261,0.033 0.173,0.035 0.252,0.227 0.269,0.479 C 0,-1.25 0,-0.887 0,-0.748 L 0,0 z"
             inkscape:connector-curvature="0"
             id="path26"
             style="fill:#000000;fill-opacity:1;fill-rule:nonzero;stroke:none" /></g><g
           transform="translate(105.9478,87.1211)"
           id="g28"><path
             d="m 0,0 c 0.686,0 2.066,0.365 2.066,2.5 0,1.771 -1.076,2.701 -2.283,2.701 -1.276,0 -2.197,-0.799 -2.197,-2.406 C -2.414,1.076 -1.38,0 0,0 m -0.173,5.479 c 1.718,0 3.021,-1.051 3.021,-2.77 0,-1.65 -1.224,-3.012 -3.065,-3.012 -2.093,0 -2.987,1.571 -2.987,2.899 0,1.189 0.921,2.883 3.031,2.883"
             inkscape:connector-curvature="0"
             id="path30"
             style="fill:#000000;fill-opacity:1;fill-rule:nonzero;stroke:none" /></g><g
           transform="translate(110.5811,90.3594)"
           id="g32"><path
             d="m 0,0 c 0,1.146 0,1.355 -0.018,1.59 -0.017,0.234 -0.06,0.373 -0.312,0.408 -0.061,0.008 -0.191,0.018 -0.26,0.018 -0.027,0 -0.061,0.033 -0.061,0.06 0,0.043 0.034,0.061 0.121,0.061 0.348,0 0.808,-0.018 0.877,-0.018 0.07,0 0.547,0.018 0.773,0.018 0.087,0 0.13,-0.018 0.13,-0.061 0,-0.027 -0.035,-0.06 -0.069,-0.06 -0.053,0 -0.096,0 -0.191,-0.018 C 0.79,1.963 0.747,1.832 0.729,1.59 0.712,1.355 0.712,1.146 0.712,0 l 0,-1.033 c 0,-1.069 0.234,-1.51 0.564,-1.805 0.373,-0.34 0.703,-0.4 1.138,-0.4 0.468,0 0.92,0.209 1.18,0.521 0.356,0.426 0.434,1.033 0.434,1.789 L 4.028,0 C 4.028,1.146 4.02,1.355 4.011,1.59 4.002,1.824 3.959,1.963 3.708,1.998 3.646,2.006 3.516,2.016 3.447,2.016 c -0.035,0 -0.061,0.033 -0.061,0.06 0,0.043 0.035,0.061 0.122,0.061 0.338,0 0.781,-0.018 0.825,-0.018 0.051,0 0.416,0.018 0.642,0.018 0.087,0 0.122,-0.018 0.122,-0.061 0,-0.027 -0.027,-0.06 -0.061,-0.06 -0.053,0 -0.096,0 -0.191,-0.018 C 4.636,1.953 4.593,1.832 4.576,1.59 4.558,1.355 4.567,1.146 4.567,0 l 0,-0.789 c 0,-0.799 -0.105,-1.693 -0.712,-2.215 -0.556,-0.476 -1.146,-0.537 -1.598,-0.537 -0.252,0 -1.05,0.016 -1.589,0.52 C 0.295,-2.674 0,-2.162 0,-1.084 L 0,0 z"
             inkscape:connector-curvature="0"
             id="path34"
             style="fill:#000000;fill-opacity:1;fill-rule:nonzero;stroke:none" /></g><g
           transform="translate(118.3311,89.7344)"
           id="g36"><path
             d="m 0,0 c 0,-0.043 0.018,-0.068 0.052,-0.096 0.113,-0.06 0.504,-0.113 0.843,-0.113 0.182,0 0.39,0.01 0.572,0.131 C 1.728,0.096 1.928,0.486 1.928,1.051 1.928,1.971 1.424,2.5 0.608,2.5 0.382,2.5 0.139,2.475 0.061,2.457 0.026,2.439 0,2.414 0,2.371 L 0,0 z m -0.66,0.625 c 0,1.146 0,1.355 -0.017,1.59 -0.017,0.252 -0.061,0.373 -0.313,0.408 -0.06,0.008 -0.191,0.018 -0.26,0.018 -0.026,0 -0.061,0.033 -0.061,0.06 0,0.043 0.035,0.061 0.122,0.061 0.347,0 0.859,-0.018 0.903,-0.018 0.078,0 0.721,0.018 0.955,0.018 0.486,0 1.024,-0.043 1.424,-0.323 0.191,-0.138 0.529,-0.494 0.529,-1.005 0,-0.547 -0.226,-1.079 -0.937,-1.686 0.625,-0.781 1.154,-1.449 1.597,-1.91 0.408,-0.416 0.66,-0.486 0.851,-0.512 0.148,-0.025 0.226,-0.025 0.269,-0.025 0.043,0 0.07,-0.035 0.07,-0.061 0,-0.045 -0.044,-0.062 -0.183,-0.062 l -0.477,0 c -0.435,0 -0.625,0.045 -0.816,0.148 -0.33,0.174 -0.608,0.529 -1.042,1.086 -0.322,0.399 -0.66,0.877 -0.825,1.076 -0.035,0.035 -0.052,0.043 -0.104,0.043 L 0.052,-0.451 C 0.018,-0.451 0,-0.469 0,-0.512 l 0,-0.174 c 0,-0.712 0,-1.285 0.035,-1.589 0.026,-0.217 0.069,-0.356 0.304,-0.391 0.104,-0.016 0.269,-0.033 0.338,-0.033 0.052,0 0.061,-0.035 0.061,-0.061 0,-0.035 -0.034,-0.062 -0.121,-0.062 -0.417,0 -0.903,0.027 -0.938,0.027 -0.009,0 -0.521,-0.027 -0.755,-0.027 -0.078,0 -0.122,0.017 -0.122,0.062 0,0.026 0.017,0.061 0.061,0.061 0.069,0 0.165,0.017 0.234,0.033 0.148,0.035 0.165,0.174 0.2,0.391 0.043,0.304 0.043,0.886 0.043,1.597 l 0,1.303 z"
             inkscape:connector-curvature="0"
             id="path38"
             style="fill:#000000;fill-opacity:1;fill-rule:nonzero;stroke:none" /></g><g
           transform="translate(127.9478,89.4141)"
           id="g40"><path
             d="m 0,0 c 0,-1.277 0.035,-1.832 0.191,-1.988 0.139,-0.139 0.365,-0.201 1.042,-0.201 0.46,0 0.842,0.009 1.05,0.261 0.113,0.139 0.2,0.356 0.226,0.522 0.009,0.068 0.026,0.111 0.078,0.111 0.043,0 0.052,-0.033 0.052,-0.129 0,-0.096 -0.06,-0.617 -0.13,-0.869 -0.061,-0.199 -0.087,-0.234 -0.547,-0.234 -0.625,0 -1.077,0.017 -1.441,0.025 -0.365,0.018 -0.634,0.027 -0.886,0.027 -0.034,0 -0.182,-0.009 -0.356,-0.009 -0.174,-0.008 -0.364,-0.018 -0.495,-0.018 -0.095,0 -0.138,0.018 -0.138,0.07 0,0.026 0.017,0.053 0.069,0.053 0.078,0 0.182,0.018 0.261,0.033 0.173,0.035 0.216,0.227 0.251,0.479 0.044,0.365 0.044,1.051 0.044,1.885 l 0,1.527 c 0,1.353 0,1.598 -0.018,1.875 -0.017,0.295 -0.086,0.434 -0.373,0.494 -0.069,0.018 -0.217,0.027 -0.296,0.027 -0.034,0 -0.069,0.018 -0.069,0.053 0,0.051 0.044,0.069 0.139,0.069 0.391,0 0.938,-0.026 0.981,-0.026 0.044,0 0.678,0.026 0.938,0.026 0.095,0 0.139,-0.018 0.139,-0.069 C 0.712,3.959 0.677,3.941 0.643,3.941 0.582,3.941 0.46,3.932 0.356,3.914 0.104,3.871 0.035,3.725 0.017,3.42 0,3.143 0,2.898 0,1.545 L 0,0 z"
             inkscape:connector-curvature="0"
             id="path42"
             style="fill:#000000;fill-opacity:1;fill-rule:nonzero;stroke:none" /></g><g
           transform="translate(134.6133,87.1211)"
           id="g44"><path
             d="m 0,0 c 0.686,0 2.066,0.365 2.066,2.5 0,1.771 -1.076,2.701 -2.283,2.701 -1.276,0 -2.197,-0.799 -2.197,-2.406 C -2.414,1.076 -1.38,0 0,0 m -0.173,5.479 c 1.718,0 3.021,-1.051 3.021,-2.77 0,-1.65 -1.224,-3.012 -3.065,-3.012 -2.093,0 -2.987,1.571 -2.987,2.899 0,1.189 0.921,2.883 3.031,2.883"
             inkscape:connector-curvature="0"
             id="path46"
             style="fill:#000000;fill-opacity:1;fill-rule:nonzero;stroke:none" /></g><g
           transform="translate(139.6982,87.6074)"
           id="g48"><path
             d="m 0,0 c -0.747,0.643 -0.929,1.484 -0.929,2.188 0,0.496 0.182,1.355 0.859,2.015 0.461,0.442 1.155,0.789 2.327,0.789 0.304,0 0.738,-0.025 1.112,-0.086 C 3.655,4.854 3.898,4.801 4.15,4.793 4.228,4.793 4.246,4.758 4.246,4.715 4.246,4.654 4.228,4.566 4.21,4.297 4.202,4.055 4.202,3.646 4.193,3.543 4.185,3.43 4.15,3.387 4.106,3.387 c -0.052,0 -0.06,0.051 -0.06,0.156 0,0.285 -0.122,0.582 -0.321,0.738 C 3.456,4.506 2.9,4.689 2.223,4.689 1.241,4.689 0.772,4.428 0.503,4.176 -0.061,3.656 -0.183,2.996 -0.183,2.248 c 0,-1.414 1.121,-2.674 2.753,-2.674 0.573,0 0.955,0.043 1.259,0.348 C 3.994,0.086 4.098,0.4 4.124,0.539 4.141,0.617 4.15,0.643 4.202,0.643 4.237,0.643 4.271,0.59 4.271,0.539 4.271,0.486 4.167,-0.156 4.089,-0.408 4.046,-0.547 4.028,-0.572 3.898,-0.625 3.585,-0.746 3.013,-0.789 2.518,-0.789 1.372,-0.789 0.599,-0.521 0,0"
             inkscape:connector-curvature="0"
             id="path50"
             style="fill:#000000;fill-opacity:1;fill-rule:nonzero;stroke:none" /></g><g
           transform="translate(148.1426,89.2754)"
           id="g52"><path
             d="m 0,0 c 0.035,0 0.035,0.016 0.026,0.051 l -0.755,2.023 c -0.043,0.114 -0.087,0.114 -0.13,0 L -1.571,0.051 C -1.58,0.016 -1.571,0 -1.545,0 L 0,0 z m -0.851,3.072 c 0.096,0.244 0.131,0.287 0.183,0.287 0.078,0 0.104,-0.103 0.182,-0.269 0.139,-0.313 1.363,-3.36 1.832,-4.481 0.278,-0.66 0.486,-0.754 0.651,-0.806 0.113,-0.035 0.226,-0.043 0.304,-0.043 0.043,0 0.095,-0.018 0.095,-0.061 0,-0.045 -0.086,-0.062 -0.173,-0.062 -0.113,0 -0.678,0 -1.207,0.017 -0.148,0.01 -0.269,0.01 -0.269,0.053 0,0.035 0.017,0.035 0.052,0.053 0.043,0.017 0.121,0.078 0.069,0.199 l -0.685,1.693 c -0.018,0.035 -0.027,0.043 -0.07,0.043 l -1.762,0 c -0.035,0 -0.061,-0.017 -0.079,-0.06 l -0.434,-1.182 c -0.069,-0.182 -0.112,-0.363 -0.112,-0.494 0,-0.148 0.129,-0.199 0.26,-0.199 l 0.069,0 c 0.061,0 0.078,-0.028 0.078,-0.061 0,-0.045 -0.043,-0.062 -0.112,-0.062 -0.183,0 -0.6,0.027 -0.687,0.027 -0.078,0 -0.459,-0.027 -0.772,-0.027 -0.096,0 -0.147,0.017 -0.147,0.062 0,0.033 0.034,0.061 0.069,0.061 0.052,0 0.165,0.008 0.225,0.017 0.348,0.043 0.496,0.303 0.643,0.676 l 1.797,4.619 z"
             inkscape:connector-curvature="0"
             id="path54"
             style="fill:#000000;fill-opacity:1;fill-rule:nonzero;stroke:none" /></g><g
           transform="translate(152.5859,89.041)"
           id="g56"><path
             d="m 0,0 c 0,-1.086 0.017,-1.529 0.156,-1.66 0.122,-0.121 0.417,-0.172 1.016,-0.172 0.399,0 0.738,0.008 0.92,0.225 0.096,0.113 0.157,0.269 0.182,0.418 0.009,0.05 0.035,0.093 0.079,0.093 0.034,0 0.052,-0.033 0.052,-0.111 0,-0.078 -0.052,-0.522 -0.113,-0.738 -0.052,-0.174 -0.078,-0.2 -0.486,-0.2 -0.547,0 -0.973,0.008 -1.328,0.026 -0.348,0.008 -0.608,0.017 -0.834,0.017 -0.035,0 -0.165,0 -0.313,-0.009 -0.156,-0.008 -0.321,-0.018 -0.442,-0.018 -0.078,0 -0.122,0.018 -0.122,0.063 0,0.025 0.017,0.06 0.061,0.06 0.069,0 0.165,0.018 0.234,0.033 0.147,0.035 0.165,0.174 0.2,0.391 0.043,0.305 0.043,0.887 0.043,1.598 l 0,1.302 c 0,1.147 0,1.356 -0.017,1.59 -0.017,0.252 -0.061,0.373 -0.313,0.408 -0.06,0.008 -0.191,0.018 -0.26,0.018 -0.026,0 -0.061,0.033 -0.061,0.061 0,0.043 0.035,0.06 0.121,0.06 0.348,0 0.826,-0.017 0.869,-0.017 0.035,0 0.607,0.017 0.842,0.017 0.078,0 0.121,-0.017 0.121,-0.06 C 0.607,3.367 0.573,3.342 0.547,3.342 0.495,3.342 0.382,3.334 0.295,3.324 0.069,3.281 0.026,3.168 0.008,2.908 0,2.674 0,2.465 0,1.318 L 0,0 z"
             inkscape:connector-curvature="0"
             id="path58"
             style="fill:#000000;fill-opacity:1;fill-rule:nonzero;stroke:none" /></g><g
           transform="translate(162.1328,87.9727)"
           id="g60"><path
             d="m 0,0 c 0.503,1.162 1.667,4.193 1.858,4.818 0.043,0.131 0.078,0.252 0.078,0.33 0,0.069 -0.026,0.157 -0.113,0.2 -0.104,0.035 -0.234,0.035 -0.33,0.035 -0.052,0 -0.096,0.008 -0.096,0.053 0,0.05 0.053,0.068 0.192,0.068 0.347,0 0.746,-0.025 0.85,-0.025 0.053,0 0.426,0.025 0.678,0.025 0.095,0 0.147,-0.018 0.147,-0.061 0,-0.043 -0.035,-0.06 -0.104,-0.06 -0.061,0 -0.252,0 -0.417,-0.106 C 2.63,5.199 2.5,5.053 2.266,4.463 2.17,4.219 1.736,3.178 1.293,2.109 0.764,0.842 0.373,-0.096 0.173,-0.521 -0.07,-1.043 -0.104,-1.182 -0.191,-1.182 c -0.104,0 -0.148,0.121 -0.313,0.539 L -2.631,4.68 c -0.191,0.486 -0.321,0.582 -0.625,0.668 -0.13,0.035 -0.278,0.035 -0.33,0.035 -0.052,0 -0.069,0.025 -0.069,0.06 0,0.053 0.086,0.061 0.225,0.061 0.417,0 0.912,-0.025 1.016,-0.025 0.087,0 0.477,0.025 0.808,0.025 0.156,0 0.234,-0.018 0.234,-0.061 0,-0.043 -0.026,-0.06 -0.087,-0.06 -0.095,0 -0.251,-0.01 -0.33,-0.043 -0.095,-0.045 -0.113,-0.113 -0.113,-0.174 0,-0.113 0.105,-0.383 0.235,-0.721 L 0,0 z"
             inkscape:connector-curvature="0"
             id="path62"
             style="fill:#000000;fill-opacity:1;fill-rule:nonzero;stroke:none" /></g><g
           transform="translate(169.1187,87.1211)"
           id="g64"><path
             d="m 0,0 c 0.686,0 2.066,0.365 2.066,2.5 0,1.771 -1.076,2.701 -2.283,2.701 -1.276,0 -2.197,-0.799 -2.197,-2.406 C -2.414,1.076 -1.38,0 0,0 m -0.173,5.479 c 1.718,0 3.021,-1.051 3.021,-2.77 0,-1.65 -1.224,-3.012 -3.065,-3.012 -2.093,0 -2.987,1.571 -2.987,2.899 0,1.189 0.921,2.883 3.031,2.883"
             inkscape:connector-curvature="0"
             id="path66"
             style="fill:#000000;fill-opacity:1;fill-rule:nonzero;stroke:none" /></g><g
           transform="translate(174.6035,89.0566)"
           id="g68"><path
             d="m 0,0 c 0,-0.711 0,-1.293 0.035,-1.598 0.026,-0.216 0.051,-0.355 0.278,-0.39 0.112,-0.016 0.277,-0.033 0.347,-0.033 0.043,0 0.06,-0.036 0.06,-0.061 0,-0.035 -0.034,-0.063 -0.121,-0.063 -0.426,0 -0.92,0.028 -0.955,0.028 -0.043,0 -0.521,-0.028 -0.755,-0.028 -0.078,0 -0.122,0.018 -0.122,0.063 0,0.025 0.017,0.061 0.061,0.061 0.069,0 0.165,0.017 0.234,0.033 0.147,0.035 0.174,0.174 0.2,0.39 0.034,0.305 0.043,0.887 0.043,1.598 l 0,1.303 c 0,1.146 0,1.355 -0.017,1.59 -0.017,0.252 -0.079,0.363 -0.243,0.398 -0.087,0.018 -0.183,0.027 -0.234,0.027 -0.036,0 -0.061,0.034 -0.061,0.061 0,0.043 0.034,0.06 0.121,0.06 0.252,0 0.73,-0.017 0.773,-0.017 0.035,0 0.529,0.017 0.764,0.017 0.087,0 0.121,-0.017 0.121,-0.06 0,-0.027 -0.034,-0.061 -0.06,-0.061 -0.052,0 -0.105,0 -0.191,-0.017 C 0.069,3.256 0.026,3.152 0.008,2.893 0,2.658 0,2.449 0,1.303 L 0,0 z"
             inkscape:connector-curvature="0"
             id="path70"
             style="fill:#000000;fill-opacity:1;fill-rule:nonzero;stroke:none" /></g><g
           transform="translate(177.5713,87.6074)"
           id="g72"><path
             d="m 0,0 c -0.747,0.643 -0.929,1.484 -0.929,2.188 0,0.496 0.182,1.355 0.859,2.015 0.461,0.442 1.155,0.789 2.327,0.789 0.305,0 0.738,-0.025 1.111,-0.086 C 3.655,4.854 3.897,4.801 4.149,4.793 4.228,4.793 4.245,4.758 4.245,4.715 4.245,4.654 4.228,4.566 4.21,4.297 4.202,4.055 4.202,3.646 4.192,3.543 4.185,3.43 4.149,3.387 4.106,3.387 c -0.052,0 -0.06,0.051 -0.06,0.156 0,0.285 -0.121,0.582 -0.322,0.738 -0.268,0.225 -0.825,0.408 -1.501,0.408 -0.982,0 -1.451,-0.261 -1.72,-0.513 -0.564,-0.52 -0.686,-1.18 -0.686,-1.928 0,-1.414 1.121,-2.674 2.752,-2.674 0.575,0 0.955,0.043 1.26,0.348 0.164,0.164 0.27,0.478 0.295,0.617 0.018,0.078 0.025,0.104 0.078,0.104 0.035,0 0.069,-0.053 0.069,-0.104 0,-0.053 -0.104,-0.695 -0.182,-0.947 C 4.046,-0.547 4.028,-0.572 3.897,-0.625 3.585,-0.746 3.013,-0.789 2.519,-0.789 1.372,-0.789 0.599,-0.521 0,0"
             inkscape:connector-curvature="0"
             id="path74"
             style="fill:#000000;fill-opacity:1;fill-rule:nonzero;stroke:none" /></g><g
           transform="translate(184.002,90.3594)"
           id="g76"><path
             d="m 0,0 c 0,1.146 0,1.355 -0.018,1.59 -0.017,0.252 -0.06,0.373 -0.312,0.408 -0.061,0.008 -0.191,0.018 -0.262,0.018 -0.025,0 -0.06,0.033 -0.06,0.06 0,0.043 0.035,0.061 0.123,0.061 0.345,0 0.842,-0.018 0.884,-0.018 0.053,0 1.651,-0.01 1.825,0 0.146,0.008 0.285,0.035 0.345,0.043 0.036,0.01 0.071,0.035 0.106,0.035 0.025,0 0.033,-0.035 0.033,-0.07 C 2.664,2.076 2.621,1.988 2.604,1.779 2.596,1.711 2.578,1.381 2.561,1.295 2.553,1.26 2.525,1.217 2.492,1.217 2.447,1.217 2.43,1.25 2.43,1.311 2.43,1.363 2.422,1.484 2.387,1.572 2.336,1.693 2.258,1.746 1.84,1.797 1.711,1.814 0.824,1.824 0.738,1.824 0.703,1.824 0.693,1.797 0.693,1.746 l 0,-2.006 c 0,-0.053 0,-0.078 0.045,-0.078 0.096,0 1.102,0 1.276,0.018 0.181,0.017 0.295,0.025 0.373,0.103 0.052,0.053 0.088,0.096 0.113,0.096 0.025,0 0.043,-0.018 0.043,-0.061 0,-0.043 -0.043,-0.166 -0.061,-0.408 -0.017,-0.148 -0.035,-0.426 -0.035,-0.478 0,-0.061 -0.017,-0.139 -0.068,-0.139 -0.035,0 -0.053,0.027 -0.053,0.07 0,0.069 0,0.147 -0.035,0.242 -0.025,0.106 -0.096,0.192 -0.391,0.227 -0.207,0.025 -1.023,0.035 -1.154,0.035 -0.043,0 -0.053,-0.027 -0.053,-0.053 l 0,-0.617 c 0,-0.252 -0.007,-1.111 0,-1.258 0.018,-0.496 0.157,-0.589 0.912,-0.589 0.2,0 0.565,0 0.764,0.078 0.201,0.086 0.305,0.217 0.348,0.511 0.017,0.086 0.035,0.114 0.078,0.114 0.043,0 0.053,-0.061 0.053,-0.114 0,-0.052 -0.061,-0.556 -0.106,-0.712 -0.051,-0.19 -0.129,-0.19 -0.424,-0.19 -0.574,0 -1.015,0.016 -1.328,0.025 -0.322,0.018 -0.521,0.018 -0.635,0.018 -0.017,0 -0.164,0 -0.33,-0.01 -0.146,-0.008 -0.32,-0.017 -0.443,-0.017 -0.078,0 -0.121,0.017 -0.121,0.062 0,0.026 0.018,0.061 0.06,0.061 0.071,0 0.166,0.025 0.235,0.033 0.148,0.027 0.166,0.174 0.201,0.391 C 0,-2.596 0,-2.014 0,-1.303 L 0,0 z"
             inkscape:connector-curvature="0"
             id="path78"
             style="fill:#000000;fill-opacity:1;fill-rule:nonzero;stroke:none" /></g><g
           transform="translate(191.9434,87.0254)"
           id="g80"><path
             d="m 0,0 c -0.123,0.061 -0.131,0.096 -0.131,0.33 0,0.434 0.035,0.781 0.043,0.92 0.01,0.096 0.025,0.139 0.07,0.139 0.051,0 0.061,-0.026 0.061,-0.094 0,-0.078 0,-0.201 0.025,-0.322 0.131,-0.643 0.703,-0.885 1.286,-0.885 0.834,0 1.242,0.598 1.242,1.154 0,0.6 -0.252,0.946 -1,1.563 L 1.205,3.127 C 0.285,3.881 0.078,4.42 0.078,5.01 c 0,0.929 0.693,1.562 1.797,1.562 0.338,0 0.59,-0.033 0.807,-0.086 C 2.848,6.451 2.916,6.443 2.986,6.443 3.055,6.443 3.072,6.426 3.072,6.383 3.072,6.338 3.037,6.053 3.037,5.461 3.037,5.322 3.02,5.262 2.977,5.262 2.926,5.262 2.916,5.305 2.908,5.375 2.898,5.479 2.848,5.713 2.795,5.809 2.742,5.904 2.508,6.27 1.709,6.27 1.111,6.27 0.641,5.896 0.641,5.262 0.641,4.768 0.867,4.455 1.701,3.803 L 1.943,3.611 C 2.969,2.805 3.211,2.266 3.211,1.572 3.211,1.217 3.072,0.557 2.473,0.131 2.1,-0.129 1.631,-0.234 1.162,-0.234 0.754,-0.234 0.355,-0.174 0,0"
             inkscape:connector-curvature="0"
             id="path82"
             style="fill:#000000;fill-opacity:1;fill-rule:nonzero;stroke:none" /></g><g
           transform="translate(197.5918,90.3594)"
           id="g84"><path
             d="m 0,0 c 0,1.146 0,1.355 -0.018,1.59 -0.017,0.252 -0.06,0.373 -0.312,0.408 -0.061,0.008 -0.19,0.018 -0.26,0.018 -0.025,0 -0.06,0.033 -0.06,0.06 0,0.043 0.035,0.061 0.121,0.061 0.347,0 0.842,-0.018 0.886,-0.018 0.051,0 1.649,-0.01 1.823,0 0.148,0.008 0.287,0.035 0.347,0.043 0.036,0.01 0.069,0.035 0.104,0.035 0.027,0 0.035,-0.035 0.035,-0.07 C 2.666,2.076 2.623,1.988 2.605,1.779 2.596,1.711 2.58,1.381 2.563,1.295 2.553,1.26 2.527,1.217 2.492,1.217 2.449,1.217 2.432,1.25 2.432,1.311 2.432,1.363 2.424,1.484 2.389,1.572 2.336,1.693 2.258,1.746 1.842,1.797 1.711,1.814 0.826,1.824 0.738,1.824 0.703,1.824 0.695,1.797 0.695,1.746 l 0,-2.006 c 0,-0.053 0,-0.078 0.043,-0.078 0.096,0 1.104,0 1.278,0.018 0.181,0.017 0.295,0.025 0.373,0.103 0.05,0.053 0.086,0.096 0.113,0.096 0.025,0 0.043,-0.018 0.043,-0.061 0,-0.043 -0.043,-0.166 -0.061,-0.408 -0.017,-0.148 -0.035,-0.426 -0.035,-0.478 0,-0.061 -0.017,-0.139 -0.07,-0.139 -0.033,0 -0.051,0.027 -0.051,0.07 0,0.069 0,0.147 -0.035,0.242 -0.025,0.106 -0.096,0.192 -0.391,0.227 -0.209,0.025 -1.025,0.035 -1.154,0.035 -0.045,0 -0.053,-0.027 -0.053,-0.053 l 0,-0.617 c 0,-0.252 -0.009,-1.111 0,-1.258 0.018,-0.496 0.157,-0.589 0.912,-0.589 0.2,0 0.565,0 0.764,0.078 0.199,0.086 0.303,0.217 0.348,0.511 0.017,0.086 0.033,0.114 0.078,0.114 0.043,0 0.051,-0.061 0.051,-0.114 0,-0.052 -0.061,-0.556 -0.104,-0.712 -0.053,-0.19 -0.131,-0.19 -0.426,-0.19 -0.572,0 -1.015,0.016 -1.328,0.025 -0.32,0.018 -0.521,0.018 -0.633,0.018 -0.017,0 -0.166,0 -0.33,-0.01 -0.148,-0.008 -0.322,-0.017 -0.443,-0.017 -0.078,0 -0.121,0.017 -0.121,0.062 0,0.026 0.017,0.061 0.06,0.061 0.069,0 0.164,0.025 0.235,0.033 0.146,0.027 0.164,0.174 0.199,0.391 C 0,-2.596 0,-2.014 0,-1.303 L 0,0 z"
             inkscape:connector-curvature="0"
             id="path86"
             style="fill:#000000;fill-opacity:1;fill-rule:nonzero;stroke:none" /></g><g
           transform="translate(203.3809,89.7344)"
           id="g88"><path
             d="m 0,0 c 0,-0.043 0.018,-0.068 0.053,-0.096 0.113,-0.06 0.504,-0.113 0.842,-0.113 0.181,0 0.39,0.01 0.572,0.131 C 1.729,0.096 1.928,0.486 1.928,1.051 1.928,1.971 1.424,2.5 0.607,2.5 0.383,2.5 0.139,2.475 0.061,2.457 0.025,2.439 0,2.414 0,2.371 L 0,0 z m -0.66,0.625 c 0,1.146 0,1.355 -0.018,1.59 -0.017,0.252 -0.06,0.373 -0.312,0.408 -0.061,0.008 -0.19,0.018 -0.26,0.018 -0.025,0 -0.061,0.033 -0.061,0.06 0,0.043 0.036,0.061 0.122,0.061 0.347,0 0.859,-0.018 0.902,-0.018 0.078,0 0.721,0.018 0.955,0.018 0.486,0 1.025,-0.043 1.424,-0.323 0.191,-0.138 0.531,-0.494 0.531,-1.005 0,-0.547 -0.227,-1.079 -0.937,-1.686 0.625,-0.781 1.154,-1.449 1.595,-1.91 0.408,-0.416 0.66,-0.486 0.852,-0.512 0.148,-0.025 0.226,-0.025 0.269,-0.025 0.043,0 0.069,-0.035 0.069,-0.061 0,-0.045 -0.043,-0.062 -0.182,-0.062 l -0.476,0 c -0.436,0 -0.625,0.045 -0.817,0.148 -0.33,0.174 -0.607,0.529 -1.043,1.086 -0.32,0.399 -0.66,0.877 -0.824,1.076 -0.035,0.035 -0.053,0.043 -0.104,0.043 L 0.053,-0.451 C 0.018,-0.451 0,-0.469 0,-0.512 l 0,-0.174 c 0,-0.712 0,-1.285 0.035,-1.589 0.026,-0.217 0.069,-0.356 0.303,-0.391 0.105,-0.016 0.269,-0.033 0.34,-0.033 0.052,0 0.06,-0.035 0.06,-0.061 0,-0.035 -0.035,-0.062 -0.121,-0.062 -0.418,0 -0.904,0.027 -0.937,0.027 -0.01,0 -0.522,-0.027 -0.756,-0.027 -0.078,0 -0.121,0.017 -0.121,0.062 0,0.026 0.017,0.061 0.06,0.061 0.069,0 0.164,0.017 0.235,0.033 0.146,0.035 0.164,0.174 0.199,0.391 0.043,0.304 0.043,0.886 0.043,1.597 l 0,1.303 z"
             inkscape:connector-curvature="0"
             id="path90"
             style="fill:#000000;fill-opacity:1;fill-rule:nonzero;stroke:none" /></g><g
           transform="translate(210.377,87.877)"
           id="g92"><path
             d="M 0,0 C 0.441,0.99 1.441,3.508 1.605,4.037 1.641,4.15 1.676,4.254 1.676,4.314 1.676,4.375 1.648,4.445 1.57,4.471 1.484,4.498 1.396,4.498 1.311,4.498 c -0.043,0 -0.086,0.025 -0.086,0.061 0,0.043 0.05,0.06 0.171,0.06 0.305,0 0.653,-0.017 0.749,-0.017 0.043,0 0.373,0.017 0.597,0.017 0.078,0 0.123,-0.017 0.123,-0.053 0,-0.035 -0.027,-0.068 -0.088,-0.068 -0.05,0 -0.224,0 -0.363,-0.088 C 2.309,4.34 2.188,4.236 1.988,3.732 1.9,3.525 1.527,2.639 1.137,1.736 0.668,0.66 0.33,-0.139 0.156,-0.504 c -0.209,-0.443 -0.252,-0.555 -0.33,-0.555 -0.088,0 -0.139,0.094 -0.287,0.452 L -2.336,3.916 C -2.51,4.332 -2.613,4.41 -2.865,4.471 -2.986,4.498 -3.117,4.498 -3.16,4.498 c -0.045,0 -0.061,0.043 -0.061,0.068 0,0.043 0.078,0.053 0.2,0.053 0.363,0 0.798,-0.017 0.894,-0.017 0.078,0 0.416,0.017 0.711,0.017 0.139,0 0.209,-0.017 0.209,-0.053 0,-0.035 -0.027,-0.068 -0.078,-0.068 -0.088,0 -0.209,-0.01 -0.278,-0.035 C -1.641,4.428 -1.65,4.385 -1.65,4.332 c 0,-0.096 0.095,-0.32 0.209,-0.617 L 0,0 z"
             inkscape:connector-curvature="0"
             id="path94"
             style="fill:#000000;fill-opacity:1;fill-rule:nonzero;stroke:none" /></g><g
           transform="translate(215.4102,89.0566)"
           id="g96"><path
             d="m 0,0 c 0,-0.711 0,-1.293 0.035,-1.598 0.026,-0.216 0.051,-0.355 0.278,-0.39 0.113,-0.016 0.277,-0.033 0.347,-0.033 0.043,0 0.061,-0.036 0.061,-0.061 0,-0.035 -0.035,-0.063 -0.121,-0.063 -0.426,0 -0.922,0.028 -0.955,0.028 -0.045,0 -0.522,-0.028 -0.756,-0.028 -0.078,0 -0.121,0.018 -0.121,0.063 0,0.025 0.017,0.061 0.06,0.061 0.068,0 0.164,0.017 0.234,0.033 0.147,0.035 0.174,0.174 0.2,0.39 0.035,0.305 0.043,0.887 0.043,1.598 l 0,1.303 c 0,1.146 0,1.355 -0.018,1.59 -0.017,0.252 -0.078,0.363 -0.242,0.398 -0.088,0.018 -0.182,0.027 -0.234,0.027 -0.036,0 -0.061,0.034 -0.061,0.061 0,0.043 0.035,0.06 0.121,0.06 0.252,0 0.729,-0.017 0.774,-0.017 0.033,0 0.529,0.017 0.763,0.017 0.086,0 0.121,-0.017 0.121,-0.06 0,-0.027 -0.035,-0.061 -0.06,-0.061 -0.053,0 -0.104,0 -0.192,-0.017 C 0.068,3.256 0.025,3.152 0.008,2.893 0,2.658 0,2.449 0,1.303 L 0,0 z"
             inkscape:connector-curvature="0"
             id="path98"
             style="fill:#000000;fill-opacity:1;fill-rule:nonzero;stroke:none" /></g><g
           transform="translate(218.377,87.6074)"
           id="g100"><path
             d="m 0,0 c -0.746,0.643 -0.928,1.484 -0.928,2.188 0,0.496 0.182,1.355 0.86,2.015 0.459,0.442 1.154,0.789 2.326,0.789 0.305,0 0.738,-0.025 1.111,-0.086 C 3.656,4.854 3.898,4.801 4.15,4.793 4.229,4.793 4.246,4.758 4.246,4.715 4.246,4.654 4.229,4.566 4.211,4.297 4.203,4.055 4.203,3.646 4.193,3.543 4.186,3.43 4.15,3.387 4.107,3.387 c -0.052,0 -0.06,0.051 -0.06,0.156 0,0.285 -0.121,0.582 -0.322,0.738 C 3.457,4.506 2.9,4.689 2.223,4.689 1.242,4.689 0.773,4.428 0.504,4.176 -0.061,3.656 -0.182,2.996 -0.182,2.248 c 0,-1.414 1.12,-2.674 2.752,-2.674 0.575,0 0.955,0.043 1.26,0.348 C 3.994,0.086 4.1,0.4 4.125,0.539 4.143,0.617 4.15,0.643 4.203,0.643 4.238,0.643 4.271,0.59 4.271,0.539 4.271,0.486 4.168,-0.156 4.09,-0.408 4.047,-0.547 4.029,-0.572 3.898,-0.625 3.586,-0.746 3.014,-0.789 2.52,-0.789 1.373,-0.789 0.6,-0.521 0,0"
             inkscape:connector-curvature="0"
             id="path102"
             style="fill:#000000;fill-opacity:1;fill-rule:nonzero;stroke:none" /></g><g
           transform="translate(224.8086,90.3594)"
           id="g104"><path
             d="m 0,0 c 0,1.146 0,1.355 -0.018,1.59 -0.017,0.252 -0.06,0.373 -0.312,0.408 -0.061,0.008 -0.191,0.018 -0.262,0.018 -0.025,0 -0.06,0.033 -0.06,0.06 0,0.043 0.035,0.061 0.123,0.061 0.345,0 0.842,-0.018 0.884,-0.018 0.053,0 1.651,-0.01 1.825,0 0.146,0.008 0.285,0.035 0.345,0.043 0.036,0.01 0.071,0.035 0.106,0.035 0.025,0 0.033,-0.035 0.033,-0.07 C 2.664,2.076 2.621,1.988 2.604,1.779 2.596,1.711 2.578,1.381 2.561,1.295 2.553,1.26 2.525,1.217 2.492,1.217 2.447,1.217 2.43,1.25 2.43,1.311 2.43,1.363 2.422,1.484 2.387,1.572 2.336,1.693 2.258,1.746 1.84,1.797 1.711,1.814 0.824,1.824 0.738,1.824 0.703,1.824 0.693,1.797 0.693,1.746 l 0,-2.006 c 0,-0.053 0,-0.078 0.045,-0.078 0.096,0 1.102,0 1.276,0.018 0.181,0.017 0.295,0.025 0.373,0.103 0.052,0.053 0.088,0.096 0.113,0.096 0.025,0 0.043,-0.018 0.043,-0.061 0,-0.043 -0.043,-0.166 -0.061,-0.408 -0.017,-0.148 -0.035,-0.426 -0.035,-0.478 0,-0.061 -0.017,-0.139 -0.068,-0.139 -0.035,0 -0.053,0.027 -0.053,0.07 0,0.069 0,0.147 -0.035,0.242 -0.025,0.106 -0.096,0.192 -0.391,0.227 -0.207,0.025 -1.023,0.035 -1.154,0.035 -0.043,0 -0.053,-0.027 -0.053,-0.053 l 0,-0.617 c 0,-0.252 -0.007,-1.111 0,-1.258 0.018,-0.496 0.157,-0.589 0.912,-0.589 0.2,0 0.565,0 0.764,0.078 0.201,0.086 0.305,0.217 0.348,0.511 0.017,0.086 0.035,0.114 0.078,0.114 0.043,0 0.053,-0.061 0.053,-0.114 0,-0.052 -0.061,-0.556 -0.106,-0.712 -0.051,-0.19 -0.129,-0.19 -0.424,-0.19 -0.574,0 -1.015,0.016 -1.328,0.025 -0.322,0.018 -0.521,0.018 -0.635,0.018 -0.017,0 -0.164,0 -0.33,-0.01 -0.146,-0.008 -0.32,-0.017 -0.443,-0.017 -0.078,0 -0.121,0.017 -0.121,0.062 0,0.026 0.018,0.061 0.06,0.061 0.071,0 0.166,0.025 0.235,0.033 0.148,0.027 0.166,0.174 0.201,0.391 C 0,-2.596 0,-2.014 0,-1.303 L 0,0 z"
             inkscape:connector-curvature="0"
             id="path106"
             style="fill:#000000;fill-opacity:1;fill-rule:nonzero;stroke:none" /></g><g
           transform="translate(233.3047,90.959)"
           id="g108"><path
             d="m 0,0 c 0,1.354 0,1.598 -0.018,1.875 -0.017,0.295 -0.086,0.434 -0.373,0.494 -0.07,0.018 -0.216,0.027 -0.295,0.027 -0.035,0 -0.07,0.018 -0.07,0.053 0,0.051 0.045,0.069 0.139,0.069 0.39,0 0.912,-0.026 0.982,-0.026 0.192,0 0.694,0.026 1.094,0.026 1.084,0 1.477,-0.366 1.615,-0.495 0.19,-0.183 0.434,-0.574 0.434,-1.033 0,-1.234 -0.903,-2.066 -2.137,-2.066 -0.043,0 -0.139,0 -0.182,0.008 -0.043,0 -0.095,0.017 -0.095,0.06 0,0.07 0.052,0.078 0.234,0.078 0.842,0 1.502,0.617 1.502,1.416 0,0.287 -0.025,0.868 -0.486,1.336 C 1.885,2.291 1.354,2.258 1.154,2.258 1.008,2.258 0.859,2.24 0.781,2.205 0.729,2.188 0.713,2.127 0.713,2.041 l 0,-3.568 c 0,-0.834 0,-1.52 0.043,-1.885 0.025,-0.252 0.078,-0.443 0.338,-0.479 0.121,-0.015 0.312,-0.033 0.39,-0.033 0.053,0 0.071,-0.027 0.071,-0.053 0,-0.043 -0.043,-0.07 -0.139,-0.07 -0.478,0 -1.025,0.027 -1.068,0.027 -0.028,0 -0.575,-0.027 -0.834,-0.027 -0.096,0 -0.139,0.018 -0.139,0.07 0,0.026 0.018,0.053 0.07,0.053 0.078,0 0.182,0.018 0.26,0.033 0.174,0.036 0.217,0.227 0.252,0.479 C 0,-3.047 0,-2.361 0,-1.527 L 0,0 z"
             inkscape:connector-curvature="0"
             id="path110"
             style="fill:#000000;fill-opacity:1;fill-rule:nonzero;stroke:none" /></g><g
           transform="translate(239.5449,89.7344)"
           id="g112"><path
             d="m 0,0 c 0,-0.043 0.018,-0.068 0.053,-0.096 0.113,-0.06 0.504,-0.113 0.842,-0.113 0.181,0 0.39,0.01 0.572,0.131 C 1.729,0.096 1.928,0.486 1.928,1.051 1.928,1.971 1.424,2.5 0.607,2.5 0.383,2.5 0.139,2.475 0.061,2.457 0.025,2.439 0,2.414 0,2.371 L 0,0 z m -0.66,0.625 c 0,1.146 0,1.355 -0.018,1.59 -0.017,0.252 -0.06,0.373 -0.312,0.408 -0.061,0.008 -0.19,0.018 -0.26,0.018 -0.025,0 -0.061,0.033 -0.061,0.06 0,0.043 0.036,0.061 0.122,0.061 0.347,0 0.859,-0.018 0.902,-0.018 0.078,0 0.721,0.018 0.955,0.018 0.486,0 1.025,-0.043 1.424,-0.323 0.191,-0.138 0.531,-0.494 0.531,-1.005 0,-0.547 -0.227,-1.079 -0.937,-1.686 0.625,-0.781 1.154,-1.449 1.595,-1.91 0.408,-0.416 0.66,-0.486 0.852,-0.512 0.148,-0.025 0.226,-0.025 0.269,-0.025 0.043,0 0.069,-0.035 0.069,-0.061 0,-0.045 -0.043,-0.062 -0.182,-0.062 l -0.476,0 c -0.436,0 -0.625,0.045 -0.817,0.148 -0.33,0.174 -0.607,0.529 -1.043,1.086 -0.32,0.399 -0.66,0.877 -0.824,1.076 -0.035,0.035 -0.053,0.043 -0.104,0.043 L 0.053,-0.451 C 0.018,-0.451 0,-0.469 0,-0.512 l 0,-0.174 c 0,-0.712 0,-1.285 0.035,-1.589 0.026,-0.217 0.069,-0.356 0.303,-0.391 0.105,-0.016 0.269,-0.033 0.34,-0.033 0.052,0 0.06,-0.035 0.06,-0.061 0,-0.035 -0.035,-0.062 -0.121,-0.062 -0.418,0 -0.904,0.027 -0.937,0.027 -0.01,0 -0.522,-0.027 -0.756,-0.027 -0.078,0 -0.121,0.017 -0.121,0.062 0,0.026 0.017,0.061 0.06,0.061 0.069,0 0.164,0.017 0.235,0.033 0.146,0.035 0.164,0.174 0.199,0.391 0.043,0.304 0.043,0.886 0.043,1.597 l 0,1.303 z"
             inkscape:connector-curvature="0"
             id="path114"
             style="fill:#000000;fill-opacity:1;fill-rule:nonzero;stroke:none" /></g><g
           transform="translate(247.5215,87.1211)"
           id="g116"><path
             d="m 0,0 c 0.686,0 2.066,0.365 2.066,2.5 0,1.771 -1.078,2.701 -2.285,2.701 -1.275,0 -2.195,-0.799 -2.195,-2.406 C -2.414,1.076 -1.381,0 0,0 m -0.174,5.479 c 1.719,0 3.022,-1.051 3.022,-2.77 0,-1.65 -1.225,-3.012 -3.067,-3.012 -2.092,0 -2.986,1.571 -2.986,2.899 0,1.189 0.92,2.883 3.031,2.883"
             inkscape:connector-curvature="0"
             id="path118"
             style="fill:#000000;fill-opacity:1;fill-rule:nonzero;stroke:none" /></g><g
           transform="translate(254.1426,87.877)"
           id="g120"><path
             d="M 0,0 C 0.443,0.99 1.441,3.508 1.607,4.037 1.641,4.15 1.676,4.254 1.676,4.314 1.676,4.375 1.65,4.445 1.572,4.471 1.484,4.498 1.398,4.498 1.311,4.498 c -0.043,0 -0.086,0.025 -0.086,0.061 0,0.043 0.052,0.06 0.173,0.06 0.305,0 0.651,-0.017 0.747,-0.017 0.043,0 0.373,0.017 0.599,0.017 0.078,0 0.121,-0.017 0.121,-0.053 0,-0.035 -0.025,-0.068 -0.086,-0.068 -0.052,0 -0.226,0 -0.365,-0.088 C 2.311,4.34 2.188,4.236 1.988,3.732 1.902,3.525 1.529,2.639 1.139,1.736 0.67,0.66 0.33,-0.139 0.156,-0.504 c -0.207,-0.443 -0.252,-0.555 -0.33,-0.555 -0.086,0 -0.139,0.094 -0.285,0.452 l -1.877,4.523 c -0.172,0.416 -0.277,0.494 -0.529,0.555 -0.121,0.027 -0.252,0.027 -0.295,0.027 -0.043,0 -0.061,0.043 -0.061,0.068 0,0.043 0.078,0.053 0.2,0.053 0.365,0 0.798,-0.017 0.894,-0.017 0.078,0 0.416,0.017 0.713,0.017 0.139,0 0.207,-0.017 0.207,-0.053 0,-0.035 -0.025,-0.068 -0.078,-0.068 -0.086,0 -0.207,-0.01 -0.278,-0.035 -0.078,-0.035 -0.085,-0.078 -0.085,-0.131 0,-0.096 0.095,-0.32 0.207,-0.617 L 0,0 z"
             inkscape:connector-curvature="0"
             id="path122"
             style="fill:#000000;fill-opacity:1;fill-rule:nonzero;stroke:none" /></g><g
           transform="translate(259.1758,89.0566)"
           id="g124"><path
             d="m 0,0 c 0,-0.711 0,-1.293 0.035,-1.598 0.026,-0.216 0.051,-0.355 0.278,-0.39 0.113,-0.016 0.277,-0.033 0.347,-0.033 0.043,0 0.061,-0.036 0.061,-0.061 0,-0.035 -0.035,-0.063 -0.121,-0.063 -0.426,0 -0.922,0.028 -0.955,0.028 -0.045,0 -0.522,-0.028 -0.756,-0.028 -0.078,0 -0.121,0.018 -0.121,0.063 0,0.025 0.017,0.061 0.06,0.061 0.068,0 0.164,0.017 0.234,0.033 0.147,0.035 0.174,0.174 0.2,0.39 0.035,0.305 0.043,0.887 0.043,1.598 l 0,1.303 c 0,1.146 0,1.355 -0.018,1.59 -0.017,0.252 -0.078,0.363 -0.242,0.398 -0.088,0.018 -0.182,0.027 -0.234,0.027 -0.036,0 -0.061,0.034 -0.061,0.061 0,0.043 0.035,0.06 0.121,0.06 0.252,0 0.729,-0.017 0.774,-0.017 0.033,0 0.529,0.017 0.763,0.017 0.086,0 0.121,-0.017 0.121,-0.06 0,-0.027 -0.035,-0.061 -0.06,-0.061 -0.053,0 -0.104,0 -0.192,-0.017 C 0.068,3.256 0.025,3.152 0.008,2.893 0,2.658 0,2.449 0,1.303 L 0,0 z"
             inkscape:connector-curvature="0"
             id="path126"
             style="fill:#000000;fill-opacity:1;fill-rule:nonzero;stroke:none" /></g><g
           transform="translate(262.7246,89.5605)"
           id="g128"><path
             d="m 0,0 c 0,-0.781 0,-1.467 0.01,-1.605 0.008,-0.184 0.025,-0.452 0.086,-0.53 0.095,-0.138 0.365,-0.295 1.267,-0.295 0.703,0 1.328,0.235 1.789,0.668 0.401,0.373 0.6,1.076 0.6,1.754 0,0.938 -0.408,1.537 -0.721,1.85 C 2.311,2.57 1.469,2.666 0.557,2.666 0.408,2.666 0.166,2.641 0.096,2.613 0.027,2.588 0,2.553 0,2.467 L 0,0 z m -0.693,0.799 c 0,1.146 0,1.355 -0.018,1.59 -0.018,0.252 -0.06,0.373 -0.312,0.408 -0.061,0.008 -0.192,0.017 -0.262,0.017 -0.026,0 -0.061,0.034 -0.061,0.061 0,0.043 0.035,0.061 0.123,0.061 0.346,0 0.842,-0.018 0.885,-0.018 0.086,0 0.572,0.018 1.026,0.018 0.763,0 2.16,0.068 3.064,-0.842 0.381,-0.383 0.746,-1 0.746,-1.877 0,-0.928 -0.398,-1.641 -0.824,-2.074 -0.33,-0.338 -1.016,-0.852 -2.319,-0.852 -0.33,0 -0.738,0.027 -1.068,0.045 -0.33,0.025 -0.59,0.043 -0.625,0.043 -0.017,0 -0.156,-0.01 -0.312,-0.01 -0.157,-0.008 -0.338,-0.017 -0.461,-0.017 -0.078,0 -0.121,0.017 -0.121,0.062 0,0.025 0.017,0.061 0.06,0.061 0.07,0 0.166,0.017 0.234,0.033 0.149,0.035 0.167,0.174 0.202,0.39 0.043,0.305 0.043,0.887 0.043,1.598 l 0,1.303 z"
             inkscape:connector-curvature="0"
             id="path130"
             style="fill:#000000;fill-opacity:1;fill-rule:nonzero;stroke:none" /></g><g
           transform="translate(269.3203,90.3594)"
           id="g132"><path
             d="m 0,0 c 0,1.146 0,1.355 -0.018,1.59 -0.017,0.252 -0.06,0.373 -0.312,0.408 -0.061,0.008 -0.19,0.018 -0.26,0.018 -0.025,0 -0.06,0.033 -0.06,0.06 0,0.043 0.035,0.061 0.121,0.061 0.347,0 0.842,-0.018 0.886,-0.018 0.051,0 1.649,-0.01 1.823,0 0.148,0.008 0.287,0.035 0.347,0.043 0.036,0.01 0.069,0.035 0.104,0.035 0.027,0 0.035,-0.035 0.035,-0.07 C 2.666,2.076 2.623,1.988 2.605,1.779 2.596,1.711 2.58,1.381 2.563,1.295 2.553,1.26 2.527,1.217 2.492,1.217 2.449,1.217 2.432,1.25 2.432,1.311 2.432,1.363 2.424,1.484 2.389,1.572 2.336,1.693 2.258,1.746 1.842,1.797 1.711,1.814 0.826,1.824 0.738,1.824 0.703,1.824 0.695,1.797 0.695,1.746 l 0,-2.006 c 0,-0.053 0,-0.078 0.043,-0.078 0.096,0 1.104,0 1.278,0.018 0.181,0.017 0.295,0.025 0.373,0.103 0.05,0.053 0.086,0.096 0.113,0.096 0.025,0 0.043,-0.018 0.043,-0.061 0,-0.043 -0.043,-0.166 -0.061,-0.408 -0.017,-0.148 -0.035,-0.426 -0.035,-0.478 0,-0.061 -0.017,-0.139 -0.07,-0.139 -0.033,0 -0.051,0.027 -0.051,0.07 0,0.069 0,0.147 -0.035,0.242 -0.025,0.106 -0.096,0.192 -0.391,0.227 -0.209,0.025 -1.025,0.035 -1.154,0.035 -0.045,0 -0.053,-0.027 -0.053,-0.053 l 0,-0.617 c 0,-0.252 -0.009,-1.111 0,-1.258 0.018,-0.496 0.157,-0.589 0.912,-0.589 0.2,0 0.565,0 0.764,0.078 0.199,0.086 0.303,0.217 0.348,0.511 0.017,0.086 0.033,0.114 0.078,0.114 0.043,0 0.051,-0.061 0.051,-0.114 0,-0.052 -0.061,-0.556 -0.104,-0.712 -0.053,-0.19 -0.131,-0.19 -0.426,-0.19 -0.572,0 -1.015,0.016 -1.328,0.025 -0.32,0.018 -0.521,0.018 -0.633,0.018 -0.017,0 -0.166,0 -0.33,-0.01 -0.148,-0.008 -0.322,-0.017 -0.443,-0.017 -0.078,0 -0.121,0.017 -0.121,0.062 0,0.026 0.017,0.061 0.06,0.061 0.069,0 0.164,0.025 0.235,0.033 0.146,0.027 0.164,0.174 0.199,0.391 C 0,-2.596 0,-2.014 0,-1.303 L 0,0 z"
             inkscape:connector-curvature="0"
             id="path134"
             style="fill:#000000;fill-opacity:1;fill-rule:nonzero;stroke:none" /></g><g
           transform="translate(275.1094,89.7344)"
           id="g136"><path
             d="m 0,0 c 0,-0.043 0.018,-0.068 0.053,-0.096 0.113,-0.06 0.504,-0.113 0.842,-0.113 0.181,0 0.39,0.01 0.572,0.131 C 1.729,0.096 1.928,0.486 1.928,1.051 1.928,1.971 1.424,2.5 0.607,2.5 0.383,2.5 0.139,2.475 0.061,2.457 0.025,2.439 0,2.414 0,2.371 L 0,0 z m -0.66,0.625 c 0,1.146 0,1.355 -0.018,1.59 -0.017,0.252 -0.06,0.373 -0.312,0.408 -0.061,0.008 -0.19,0.018 -0.26,0.018 -0.025,0 -0.061,0.033 -0.061,0.06 0,0.043 0.036,0.061 0.122,0.061 0.347,0 0.859,-0.018 0.902,-0.018 0.078,0 0.721,0.018 0.955,0.018 0.486,0 1.025,-0.043 1.424,-0.323 0.191,-0.138 0.531,-0.494 0.531,-1.005 0,-0.547 -0.227,-1.079 -0.937,-1.686 0.625,-0.781 1.154,-1.449 1.595,-1.91 0.408,-0.416 0.66,-0.486 0.852,-0.512 0.148,-0.025 0.226,-0.025 0.269,-0.025 0.043,0 0.069,-0.035 0.069,-0.061 0,-0.045 -0.043,-0.062 -0.182,-0.062 l -0.476,0 c -0.436,0 -0.625,0.045 -0.817,0.148 -0.33,0.174 -0.607,0.529 -1.043,1.086 -0.32,0.399 -0.66,0.877 -0.824,1.076 -0.035,0.035 -0.053,0.043 -0.104,0.043 L 0.053,-0.451 C 0.018,-0.451 0,-0.469 0,-0.512 l 0,-0.174 c 0,-0.712 0,-1.285 0.035,-1.589 0.026,-0.217 0.069,-0.356 0.303,-0.391 0.105,-0.016 0.269,-0.033 0.34,-0.033 0.052,0 0.06,-0.035 0.06,-0.061 0,-0.035 -0.035,-0.062 -0.121,-0.062 -0.418,0 -0.904,0.027 -0.937,0.027 -0.01,0 -0.522,-0.027 -0.756,-0.027 -0.078,0 -0.121,0.017 -0.121,0.062 0,0.026 0.017,0.061 0.06,0.061 0.069,0 0.164,0.017 0.235,0.033 0.146,0.035 0.164,0.174 0.199,0.391 0.043,0.304 0.043,0.886 0.043,1.597 l 0,1.303 z"
             inkscape:connector-curvature="0"
             id="path138"
             style="fill:#000000;fill-opacity:1;fill-rule:nonzero;stroke:none" /></g><g
           transform="translate(82.7515,113.6646)"
           id="g140"><path
             d="m 0,0 c -0.479,-0.155 -0.743,-0.667 -0.589,-1.146 l 3.138,-9.765 c 0.153,-0.478 0.667,-0.742 1.145,-0.589 l 0.493,0.158 1.871,-5.825 c -2.762,0.063 -6.227,4.305 -8.11,10.165 -2.004,6.239 -2.301,10.754 0.674,12.985 L 0.493,0.157 0,0 z"
             inkscape:connector-curvature="0"
             id="path142"
             style="fill:#00a4e4;fill-opacity:1;fill-rule:nonzero;stroke:none" /></g><g
           transform="translate(83.7603,113.8188)"
           id="g144"><path
             d="M 0,0 0.249,6.513 -0.199,6.53 -0.447,0.018 0,0 z"
             inkscape:connector-curvature="0"
             id="path146"
             style="fill:#00a4e4;fill-opacity:1;fill-rule:nonzero;stroke:none" /></g><g
           transform="translate(85.2993,113.7222)"
           id="g148"><path
             d="M 0,0 0.253,6.598 -1.523,6.666 -1.775,0.067 0,0 z"
             inkscape:connector-curvature="0"
             id="path150"
             style="fill:#00a4e4;fill-opacity:1;fill-rule:nonzero;stroke:none" /></g><g
           transform="translate(80.2993,116.0737)"
           id="g152"><path
             d="M 0,0 C -0.4,1.249 -0.021,2.563 0.869,3.412 1.414,3.892 2.091,4.213 2.83,4.309 3.025,4.328 3.22,4.33 3.412,4.315 L 3.158,-2.289 2.826,-2.276 2.813,-2.281 C 1.546,-2.148 0.415,-1.29 0,0"
             inkscape:connector-curvature="0"
             id="path154"
             style="fill:#00a4e4;fill-opacity:1;fill-rule:nonzero;stroke:none" /></g><g
           transform="translate(83.6372,118.4663)"
           id="g156"><path
             d="M 0,0 0.047,1.24 C -1.813,1.158 -2.771,0.177 -3.246,-0.959 -2.256,-0.347 -1.217,-0.018 0,0 M 1.841,-0.08 1.89,1.188 0.112,1.238 0.065,-0.021 1.841,-0.08 z"
             inkscape:connector-curvature="0"
             id="path158"
             style="fill:#00a4e4;fill-opacity:1;fill-rule:nonzero;stroke:none" /></g><g
           transform="translate(87.355,102.627)"
           id="g160"><path
             d="M 0,0 3.995,-5.15 3.642,-5.424 -0.354,-0.275 0,0 z"
             inkscape:connector-curvature="0"
             id="path162"
             style="fill:#00a4e4;fill-opacity:1;fill-rule:nonzero;stroke:none" /></g><g
           transform="translate(88.5503,103.6035)"
           id="g164"><path
             d="M 0,0 4.048,-5.217 2.644,-6.307 -1.403,-1.09 0,0 z"
             inkscape:connector-curvature="0"
             id="path166"
             style="fill:#00a4e4;fill-opacity:1;fill-rule:nonzero;stroke:none" /></g><g
           transform="translate(85.856,98.7793)"
           id="g168"><path
             d="m 0,0 c 0.401,-1.25 1.475,-2.098 2.692,-2.268 0.724,-0.074 1.46,0.059 2.117,0.413 0.17,0.097 0.329,0.209 0.476,0.334 L 1.234,3.699 0.971,3.496 0.957,3.492 C 0.004,2.646 -0.414,1.289 0,0"
             inkscape:connector-curvature="0"
             id="path170"
             style="fill:#00a4e4;fill-opacity:1;fill-rule:nonzero;stroke:none" /></g><g
           transform="translate(86.2583,102.0703)"
           id="g172"><path
             d="M 0,0 0.861,0.275 0.855,0.297 0.32,0.125 c -0.521,-0.166 -1.07,0.088 -1.224,0.57 l -3.161,9.838 c -0.156,0.484 0.141,1.009 0.663,1.177 l 0.535,0.172 -0.006,0.022 -0.861,-0.279 c -0.536,-0.17 -0.844,-0.703 -0.69,-1.186 L -1.25,0.564 C -1.096,0.082 -0.535,-0.172 0,0"
             inkscape:connector-curvature="0"
             id="path174"
             style="fill:#00a4e4;fill-opacity:1;fill-rule:nonzero;stroke:none" /></g><g
           transform="translate(87.9243,96.6523)"
           id="g176"><path
             d="m 0,0 c -2.525,1.012 -5.357,4.936 -7.01,10.078 -2.078,6.47 -2.564,8.526 -0.172,12.278 C -9.616,20.064 -9.383,15.466 -7.225,10.01 -5.196,4.885 -2.584,0.811 0,0"
             inkscape:connector-curvature="0"
             id="path178"
             style="fill:#00a4e4;fill-opacity:1;fill-rule:nonzero;stroke:none" /></g><g
           transform="translate(78.0044,121.8413)"
           id="g180"><path
             d="m 0,0 c -7.037,-7.037 -7.037,-18.445 0,-25.484 4.433,-4.432 10.598,-6.07 16.313,-4.92 -6.403,-2.383 -13.889,-1.006 -19.037,4.143 -7.038,7.037 -7.037,18.447 0,25.483 2.606,2.606 5.81,4.243 9.171,4.921 C 4.097,3.268 1.891,1.89 0,0"
             inkscape:connector-curvature="0"
             id="path182"
             style="fill:#09357a;fill-opacity:1;fill-rule:nonzero;stroke:none" /></g><g
           transform="translate(63.1704,102.5664)"
           id="g184"><path
             d="m 0,0 0.103,0 c 0.686,2.34 3.028,9.718 3.918,12.976 0.254,0.941 0.28,1.298 0.28,1.628 0,0.458 -0.28,0.763 -1.45,0.763 -0.127,0 -0.23,0.077 -0.23,0.179 0,0.126 0.128,0.178 0.433,0.178 1.298,0 2.366,-0.076 2.595,-0.076 0.179,0 1.273,0.076 2.062,0.076 0.228,0 0.355,-0.052 0.355,-0.154 0,-0.126 -0.076,-0.203 -0.228,-0.203 -0.102,0 -0.586,-0.025 -0.865,-0.127 C 6.209,14.96 5.803,13.891 5.318,12.493 4.199,9.261 1.629,1.17 0.637,-1.68 c -0.662,-1.883 -0.789,-2.189 -1.069,-2.189 -0.254,0 -0.407,0.332 -0.763,1.324 l -4.987,14.146 -0.051,0 c -0.916,-2.443 -4.402,-11.753 -5.318,-14.121 -0.408,-1.068 -0.535,-1.349 -0.84,-1.349 -0.254,0 -0.382,0.281 -0.89,2.012 l -4.53,15.087 c -0.407,1.349 -0.738,1.73 -1.399,1.984 -0.331,0.128 -0.968,0.153 -1.145,0.153 -0.127,0 -0.229,0.026 -0.229,0.179 0,0.126 0.152,0.178 0.406,0.178 1.324,0 2.724,-0.076 3.004,-0.076 0.229,0 1.348,0.076 2.62,0.076 0.357,0 0.458,-0.076 0.458,-0.178 0,-0.153 -0.127,-0.179 -0.254,-0.179 -0.204,0 -0.687,0 -0.993,-0.153 -0.152,-0.076 -0.331,-0.279 -0.331,-0.61 0,-0.33 0.23,-1.222 0.485,-2.341 0.38,-1.629 3.027,-10.966 3.409,-12.316 l 0.051,0 5.393,14.504 c 0.383,1.044 0.484,1.171 0.637,1.171 0.178,0 0.331,-0.33 0.636,-1.196 L 0,0 z"
             inkscape:connector-curvature="0"
             id="path186"
             style="fill:#00a4e4;fill-opacity:1;fill-rule:nonzero;stroke:none" /></g><g
           transform="translate(107.9517,108.6973)"
           id="g188"><path
             d="m 0,0 c 0,-0.127 0.052,-0.229 0.179,-0.305 0.382,-0.228 1.551,-0.408 2.672,-0.408 0.61,0 1.323,0.078 1.908,0.484 0.89,0.612 1.552,1.985 1.552,3.918 0,3.182 -1.68,5.09 -4.402,5.09 C 1.146,8.779 0.459,8.703 0.204,8.625 0.077,8.575 0,8.473 0,8.32 L 0,0 z m -2.035,2.212 c 0,3.971 0,4.684 -0.051,5.497 -0.051,0.866 -0.255,1.273 -1.094,1.452 -0.203,0.05 -0.636,0.075 -0.865,0.075 -0.101,0 -0.203,0.053 -0.203,0.154 0,0.152 0.127,0.203 0.406,0.203 1.146,0 2.748,-0.076 2.876,-0.076 0.279,0 2.214,0.076 3.003,0.076 1.602,0 3.307,-0.154 4.656,-1.12 0.635,-0.458 1.755,-1.704 1.755,-3.46 0,-1.883 -0.789,-3.765 -3.079,-5.876 2.086,-2.674 3.817,-4.938 5.293,-6.514 1.374,-1.451 2.468,-1.73 3.104,-1.834 0.484,-0.076 0.839,-0.076 0.992,-0.076 0.129,0 0.23,-0.076 0.23,-0.152 0,-0.153 -0.153,-0.204 -0.611,-0.204 l -1.807,0 c -1.424,0 -2.06,0.127 -2.722,0.483 C 8.754,-8.574 7.863,-7.328 6.412,-5.418 5.344,-4.02 4.147,-2.314 3.639,-1.652 3.537,-1.551 3.461,-1.5 3.309,-1.5 l -3.13,0.051 C 0.052,-1.449 0,-1.525 0,-1.652 l 0,-0.612 c 0,-2.443 0,-4.453 0.128,-5.521 0.076,-0.738 0.229,-1.297 0.992,-1.401 0.357,-0.05 0.917,-0.101 1.146,-0.101 0.152,0 0.203,-0.076 0.203,-0.152 0,-0.127 -0.127,-0.204 -0.407,-0.204 -1.4,0 -3.003,0.077 -3.129,0.077 -0.027,0 -1.629,-0.077 -2.392,-0.077 -0.281,0 -0.408,0.051 -0.408,0.204 0,0.076 0.051,0.152 0.203,0.152 0.23,0 0.535,0.051 0.764,0.101 0.509,0.104 0.636,0.663 0.738,1.401 0.127,1.068 0.127,3.078 0.127,5.521 l 0,4.476 z"
             inkscape:connector-curvature="0"
             id="path190"
             style="fill:#00a4e4;fill-opacity:1;fill-rule:nonzero;stroke:none" /></g><g
           transform="translate(126.73,106.3828)"
           id="g192"><path
             d="m 0,0 c 0,-3.74 0.103,-5.369 0.56,-5.826 0.407,-0.408 1.069,-0.586 3.053,-0.586 1.349,0 2.468,0.025 3.079,0.762 0.331,0.408 0.585,1.045 0.661,1.529 0.027,0.203 0.078,0.33 0.23,0.33 0.127,0 0.152,-0.102 0.152,-0.383 0,-0.279 -0.177,-1.806 -0.382,-2.545 -0.177,-0.584 -0.254,-0.685 -1.602,-0.685 -1.832,0 -3.155,0.05 -4.225,0.076 -1.068,0.051 -1.856,0.076 -2.594,0.076 -0.103,0 -0.535,-0.025 -1.044,-0.025 -0.508,-0.026 -1.069,-0.051 -1.45,-0.051 -0.28,0 -0.408,0.051 -0.408,0.203 0,0.076 0.051,0.152 0.204,0.152 0.23,0 0.535,0.051 0.763,0.102 0.51,0.103 0.637,0.662 0.738,1.4 0.127,1.069 0.127,3.078 0.127,5.522 l 0,4.476 c 0,3.971 0,4.683 -0.05,5.497 -0.051,0.865 -0.254,1.272 -1.094,1.451 -0.203,0.051 -0.637,0.075 -0.865,0.075 -0.102,0 -0.204,0.053 -0.204,0.155 0,0.151 0.127,0.203 0.408,0.203 1.144,0 2.747,-0.076 2.875,-0.076 0.127,0 1.984,0.076 2.748,0.076 0.279,0 0.407,-0.052 0.407,-0.203 0,-0.102 -0.102,-0.155 -0.203,-0.155 -0.179,0 -0.535,-0.024 -0.84,-0.075 C 0.306,11.347 0.103,10.914 0.052,10.024 0,9.21 0,8.498 0,4.527 L 0,0 z"
             inkscape:connector-curvature="0"
             id="path194"
             style="fill:#00a4e4;fill-opacity:1;fill-rule:nonzero;stroke:none" /></g><g
           transform="translate(141.2837,108.1641)"
           id="g196"><path
             d="m 0,0 c 0,-2.697 0.025,-5.039 0.051,-5.521 0.025,-0.637 0.077,-1.655 0.281,-1.934 0.33,-0.484 1.322,-1.018 4.324,-1.018 2.367,0 4.555,0.866 6.057,2.366 1.323,1.296 2.035,3.74 2.035,6.082 0,3.231 -1.399,5.317 -2.442,6.411 C 7.914,8.906 5.014,9.26 1.985,9.26 1.477,9.26 0.535,9.185 0.332,9.083 0.102,8.981 0.025,8.853 0.025,8.575 0,7.709 0,5.113 0,3.154 L 0,0 z m -2.137,2.746 c 0,3.97 0,4.683 -0.051,5.497 -0.05,0.865 -0.253,1.272 -1.094,1.451 -0.202,0.051 -0.636,0.075 -0.865,0.075 -0.102,0 -0.203,0.053 -0.203,0.154 0,0.152 0.127,0.203 0.407,0.203 1.144,0 2.748,-0.076 2.875,-0.076 0.304,0 1.908,0.076 3.435,0.076 2.519,0 7.176,0.229 10.203,-2.901 1.272,-1.323 2.469,-3.434 2.469,-6.461 0,-3.207 -1.324,-5.676 -2.749,-7.176 -1.094,-1.145 -3.384,-2.926 -7.709,-2.926 -1.095,0 -2.442,0.076 -3.538,0.152 -1.119,0.077 -1.984,0.153 -2.111,0.153 -0.051,0 -0.483,0 -1.018,-0.026 -0.509,0 -1.094,-0.05 -1.476,-0.05 -0.28,0 -0.407,0.05 -0.407,0.203 0,0.076 0.051,0.152 0.203,0.152 0.23,0 0.536,0.051 0.764,0.102 0.509,0.103 0.637,0.662 0.738,1.4 0.127,1.068 0.127,3.078 0.127,5.522 l 0,4.476 z"
             inkscape:connector-curvature="0"
             id="path198"
             style="fill:#00a4e4;fill-opacity:1;fill-rule:nonzero;stroke:none" /></g><g
           transform="translate(163.853,108.1641)"
           id="g200"><path
             d="m 0,0 c 0,-2.697 0.026,-5.039 0.051,-5.521 0.026,-0.637 0.076,-1.655 0.28,-1.934 0.33,-0.484 1.323,-1.018 4.325,-1.018 2.366,0 4.556,0.866 6.056,2.366 1.323,1.296 2.036,3.74 2.036,6.082 0,3.231 -1.399,5.317 -2.443,6.411 C 7.914,8.906 5.013,9.26 1.985,9.26 1.476,9.26 0.534,9.185 0.331,9.083 0.103,8.981 0.026,8.853 0.026,8.575 0,7.709 0,5.113 0,3.154 L 0,0 z m -2.136,2.746 c 0,3.97 0,4.683 -0.052,5.497 -0.051,0.865 -0.254,1.272 -1.094,1.451 -0.203,0.051 -0.637,0.075 -0.865,0.075 -0.102,0 -0.204,0.053 -0.204,0.154 0,0.152 0.127,0.203 0.407,0.203 1.144,0 2.748,-0.076 2.875,-0.076 0.305,0 1.908,0.076 3.435,0.076 2.52,0 7.176,0.229 10.204,-2.901 1.271,-1.323 2.467,-3.434 2.467,-6.461 0,-3.207 -1.323,-5.676 -2.748,-7.176 -1.093,-1.145 -3.384,-2.926 -7.708,-2.926 -1.095,0 -2.443,0.076 -3.538,0.152 -1.119,0.077 -1.985,0.153 -2.112,0.153 -0.051,0 -0.483,0 -1.017,-0.026 -0.509,0 -1.095,-0.05 -1.476,-0.05 -0.281,0 -0.408,0.05 -0.408,0.203 0,0.076 0.051,0.152 0.205,0.152 0.229,0 0.534,0.051 0.762,0.102 0.51,0.103 0.636,0.662 0.738,1.4 0.129,1.068 0.129,3.078 0.129,5.522 l 0,4.476 z"
             inkscape:connector-curvature="0"
             id="path202"
             style="fill:#09357a;fill-opacity:1;fill-rule:nonzero;stroke:none" /></g><g
           transform="translate(186.4238,106.4336)"
           id="g204"><path
             d="m 0,0 c 0,-2.443 0,-4.453 0.127,-5.521 0.076,-0.739 0.228,-1.297 0.992,-1.401 0.356,-0.051 0.914,-0.101 1.145,-0.101 0.152,0 0.203,-0.077 0.203,-0.153 0,-0.127 -0.127,-0.203 -0.406,-0.203 -1.401,0 -3.002,0.076 -3.131,0.076 -0.127,0 -1.731,-0.076 -2.493,-0.076 -0.281,0 -0.408,0.051 -0.408,0.203 0,0.076 0.051,0.153 0.205,0.153 0.229,0 0.534,0.05 0.762,0.101 0.51,0.104 0.635,0.662 0.738,1.401 0.127,1.068 0.127,3.078 0.127,5.521 l 0,4.476 c 0,3.971 0,4.684 -0.05,5.497 -0.053,0.865 -0.305,1.298 -0.866,1.425 -0.279,0.077 -0.609,0.102 -0.789,0.102 -0.101,0 -0.203,0.052 -0.203,0.154 0,0.151 0.127,0.203 0.408,0.203 0.838,0 2.442,-0.076 2.569,-0.076 0.129,0 1.73,0.076 2.494,0.076 0.279,0 0.406,-0.052 0.406,-0.203 C 1.83,11.552 1.729,11.5 1.627,11.5 1.449,11.5 1.297,11.475 0.99,11.424 0.305,11.296 0.102,10.863 0.051,9.973 0,9.16 0,8.447 0,4.476 L 0,0 z"
             inkscape:connector-curvature="0"
             id="path206"
             style="fill:#09357a;fill-opacity:1;fill-rule:nonzero;stroke:none" /></g><g
           transform="translate(201.2813,107.4766)"
           id="g208"><path
             d="m 0,0 c 0.127,0 0.127,0.076 0.102,0.178 l -2.416,6.87 c -0.127,0.381 -0.256,0.381 -0.381,0 L -4.938,0.178 C -4.988,0.051 -4.938,0 -4.859,0 L 0,0 z m -2.646,10.177 c 0.306,0.84 0.408,0.992 0.56,0.992 0.152,0 0.254,-0.127 0.559,-0.916 C -1.145,9.287 2.85,-1.221 4.402,-5.09 5.318,-7.354 6.055,-7.76 6.59,-7.914 c 0.383,-0.127 0.764,-0.152 1.017,-0.152 0.153,0 0.256,-0.026 0.256,-0.153 0,-0.152 -0.23,-0.203 -0.509,-0.203 -0.381,0 -2.239,0 -3.997,0.051 -0.482,0.025 -0.761,0.025 -0.761,0.178 0,0.101 0.076,0.152 0.177,0.177 0.153,0.051 0.307,0.282 0.153,0.688 l -2.365,6.26 C 0.51,-0.967 0.459,-0.916 0.332,-0.916 l -5.473,0 c -0.127,0 -0.203,-0.076 -0.254,-0.203 l -1.527,-4.504 c -0.228,-0.637 -0.355,-1.246 -0.355,-1.705 0,-0.508 0.535,-0.738 0.968,-0.738 l 0.254,0 c 0.178,0 0.254,-0.051 0.254,-0.153 0,-0.152 -0.152,-0.203 -0.381,-0.203 -0.611,0 -1.705,0.076 -1.986,0.076 -0.279,0 -1.68,-0.076 -2.875,-0.076 -0.332,0 -0.484,0.051 -0.484,0.203 0,0.102 0.101,0.153 0.23,0.153 0.178,0 0.535,0.025 0.738,0.05 1.17,0.155 1.68,1.121 2.137,2.393 l 5.776,15.8 z"
             inkscape:connector-curvature="0"
             id="path210"
             style="fill:#09357a;fill-opacity:1;fill-rule:nonzero;stroke:none" /></g><g
           transform="translate(214.4102,106.3828)"
           id="g212"><path
             d="m 0,0 c 0,-3.74 0.102,-5.369 0.561,-5.826 0.406,-0.408 1.068,-0.586 3.052,-0.586 1.35,0 2.469,0.025 3.078,0.762 0.332,0.408 0.586,1.045 0.663,1.529 0.025,0.203 0.078,0.33 0.23,0.33 0.125,0 0.15,-0.102 0.15,-0.383 0,-0.279 -0.175,-1.806 -0.38,-2.545 C 7.176,-7.303 7.1,-7.404 5.75,-7.404 c -1.832,0 -3.154,0.05 -4.223,0.076 -1.068,0.051 -1.857,0.076 -2.595,0.076 -0.102,0 -0.536,-0.025 -1.043,-0.025 -0.508,-0.026 -1.069,-0.051 -1.45,-0.051 -0.281,0 -0.408,0.051 -0.408,0.203 0,0.076 0.051,0.152 0.203,0.152 0.229,0 0.536,0.051 0.764,0.102 0.51,0.103 0.637,0.662 0.738,1.4 0.127,1.069 0.127,3.078 0.127,5.522 l 0,4.476 c 0,3.971 0,4.683 -0.051,5.497 -0.05,0.865 -0.253,1.272 -1.095,1.451 -0.203,0.051 -0.635,0.075 -0.863,0.075 -0.102,0 -0.204,0.053 -0.204,0.155 0,0.151 0.127,0.203 0.407,0.203 1.144,0 2.748,-0.076 2.875,-0.076 0.129,0 1.984,0.076 2.748,0.076 0.281,0 0.408,-0.052 0.408,-0.203 0,-0.102 -0.102,-0.155 -0.203,-0.155 -0.18,0 -0.535,-0.024 -0.84,-0.075 C 0.307,11.347 0.102,10.914 0.051,10.024 0,9.21 0,8.498 0,4.527 L 0,0 z"
             inkscape:connector-curvature="0"
             id="path214"
             style="fill:#09357a;fill-opacity:1;fill-rule:nonzero;stroke:none" /></g><g
           transform="translate(224.1934,111.2285)"
           id="g216"><path
             d="m 0,0 c 0,4.08 0,4.813 -0.053,5.649 -0.052,0.89 -0.261,1.308 -1.125,1.491 -0.209,0.052 -0.654,0.079 -0.888,0.079 -0.106,0 -0.209,0.052 -0.209,0.156 0,0.157 0.13,0.21 0.418,0.21 1.177,0 2.746,-0.079 2.955,-0.079 0.576,0 2.091,0.079 3.295,0.079 3.269,0 4.447,-1.099 4.865,-1.491 0.576,-0.549 1.308,-1.726 1.308,-3.112 0,-3.714 -2.72,-6.224 -6.433,-6.224 -0.131,0 -0.42,0 -0.551,0.025 -0.131,0 -0.287,0.053 -0.287,0.184 0,0.209 0.156,0.234 0.707,0.234 2.535,0 4.523,1.858 4.523,4.264 0,0.863 -0.078,2.615 -1.464,4.028 C 5.676,6.905 4.08,6.8 3.479,6.8 3.033,6.8 2.588,6.748 2.354,6.643 2.197,6.591 2.145,6.408 2.145,6.146 l 0,-10.75 c 0,-2.509 0,-4.576 0.13,-5.673 0.079,-0.76 0.235,-1.334 1.02,-1.44 0.365,-0.053 0.941,-0.103 1.178,-0.103 0.156,0 0.209,-0.08 0.209,-0.159 0,-0.13 -0.131,-0.209 -0.42,-0.209 -1.438,0 -3.086,0.079 -3.217,0.079 -0.078,0 -1.725,-0.079 -2.51,-0.079 -0.287,0 -0.418,0.053 -0.418,0.209 0,0.079 0.051,0.159 0.209,0.159 0.235,0 0.549,0.05 0.785,0.103 0.522,0.106 0.653,0.68 0.758,1.44 C 0,-9.18 0,-7.113 0,-4.604 L 0,0 z"
             inkscape:connector-curvature="0"
             id="path218"
             style="fill:#00a4e4;fill-opacity:1;fill-rule:nonzero;stroke:none" /></g><g
           transform="translate(248.332,99.668)"
           id="g220"><path
             d="m 0,0 c 2.354,0 7.219,1.361 7.219,8.971 0,6.278 -3.819,9.651 -7.951,9.651 -4.368,0 -7.637,-2.877 -7.637,-8.604 C -8.369,3.924 -4.707,0 0,0 m -0.549,19.511 c 5.885,0 10.278,-3.713 10.278,-9.808 0,-5.857 -4.133,-10.695 -10.436,-10.695 -7.166,0 -10.147,5.57 -10.147,10.277 0,4.237 3.086,10.226 10.305,10.226"
             inkscape:connector-curvature="0"
             id="path222"
             style="fill:#00a4e4;fill-opacity:1;fill-rule:nonzero;stroke:none" /></g><g
           transform="translate(265.2773,106.625)"
           id="g224"><path
             d="m 0,0 c 0,-2.51 0,-4.576 0.131,-5.674 0.078,-0.76 0.236,-1.334 1.019,-1.439 0.368,-0.053 0.942,-0.104 1.178,-0.104 0.156,0 0.209,-0.08 0.209,-0.158 0,-0.131 -0.131,-0.209 -0.418,-0.209 -1.439,0 -3.086,0.078 -3.217,0.078 -0.131,0 -1.779,-0.078 -2.564,-0.078 -0.287,0 -0.418,0.053 -0.418,0.209 0,0.078 0.053,0.158 0.209,0.158 0.236,0 0.549,0.051 0.785,0.104 0.523,0.105 0.654,0.679 0.758,1.439 0.131,1.098 0.131,3.164 0.131,5.674 l 0,4.604 c 0,4.08 0,4.812 -0.051,5.649 -0.053,0.889 -0.315,1.334 -0.891,1.464 -0.287,0.079 -0.627,0.105 -0.81,0.105 -0.104,0 -0.209,0.053 -0.209,0.157 0,0.157 0.131,0.209 0.418,0.209 0.863,0 2.511,-0.078 2.642,-0.078 0.131,0 1.778,0.078 2.563,0.078 0.287,0 0.418,-0.052 0.418,-0.209 0,-0.104 -0.104,-0.157 -0.209,-0.157 -0.184,0 -0.34,-0.026 -0.654,-0.078 C 0.314,11.613 0.105,11.168 0.053,10.253 0,9.416 0,8.684 0,4.604 L 0,0 z"
             inkscape:connector-curvature="0"
             id="path226"
             style="fill:#00a4e4;fill-opacity:1;fill-rule:nonzero;stroke:none" /></g><g
           transform="translate(274.7695,102.5977)"
           id="g228"><path
             d="m 0,0 c 0.053,-2.145 0.314,-2.824 1.021,-3.033 0.497,-0.131 1.073,-0.156 1.307,-0.156 0.131,0 0.209,-0.053 0.209,-0.159 0,-0.156 -0.156,-0.209 -0.471,-0.209 -1.49,0 -2.537,0.078 -2.771,0.078 -0.236,0 -1.334,-0.078 -2.512,-0.078 -0.262,0 -0.418,0.026 -0.418,0.209 0,0.106 0.078,0.159 0.209,0.159 0.209,0 0.68,0.025 1.072,0.156 0.655,0.183 0.786,0.941 0.786,3.32 l 0.025,14.987 c 0,1.02 0.078,1.308 0.289,1.308 0.209,0 0.652,-0.576 0.914,-0.837 0.393,-0.445 4.289,-4.656 8.317,-8.972 2.589,-2.771 5.441,-5.962 6.277,-6.826 l -0.287,13.287 c -0.026,1.7 -0.209,2.275 -1.02,2.485 -0.47,0.104 -1.072,0.131 -1.281,0.131 -0.184,0 -0.211,0.078 -0.211,0.183 0,0.156 0.211,0.183 0.524,0.183 1.177,0 2.433,-0.079 2.72,-0.079 0.287,0 1.151,0.079 2.223,0.079 0.287,0 0.471,-0.027 0.471,-0.183 0,-0.105 -0.104,-0.183 -0.288,-0.183 -0.13,0 -0.314,0 -0.628,-0.079 C 15.615,15.588 15.51,15.013 15.51,13.443 L 15.457,-1.883 c 0,-1.726 -0.053,-1.857 -0.234,-1.857 -0.209,0 -0.524,0.289 -1.91,1.674 C 13.025,-1.805 9.26,2.041 6.486,5.021 3.453,8.291 0.498,11.586 -0.34,12.528 L 0,0 z"
             inkscape:connector-curvature="0"
             id="path230"
             style="fill:#00a4e4;fill-opacity:1;fill-rule:nonzero;stroke:none" /></g><g
           transform="translate(303.877,106.625)"
           id="g232"><path
             d="m 0,0 c 0,-2.51 0,-4.576 0.131,-5.674 0.078,-0.76 0.234,-1.334 1.019,-1.439 0.368,-0.053 0.942,-0.104 1.178,-0.104 0.156,0 0.209,-0.08 0.209,-0.158 0,-0.131 -0.131,-0.209 -0.418,-0.209 -1.439,0 -3.086,0.078 -3.217,0.078 -0.131,0 -1.779,-0.078 -2.564,-0.078 -0.287,0 -0.418,0.053 -0.418,0.209 0,0.078 0.053,0.158 0.209,0.158 0.236,0 0.549,0.051 0.785,0.104 0.523,0.105 0.654,0.679 0.758,1.439 0.131,1.098 0.131,3.164 0.131,5.674 l 0,11.063 -3.871,-0.052 C -7.689,10.985 -8.316,10.802 -8.734,10.174 -9.023,9.73 -9.102,9.547 -9.18,9.364 -9.258,9.154 -9.336,9.102 -9.441,9.102 c -0.079,0 -0.131,0.079 -0.131,0.235 0,0.262 0.523,2.511 0.576,2.721 0.051,0.156 0.156,0.496 0.262,0.496 0.181,0 0.443,-0.261 1.15,-0.313 0.758,-0.079 1.752,-0.131 2.066,-0.131 l 9.807,0 c 0.838,0 1.44,0.052 1.857,0.131 0.393,0.052 0.627,0.131 0.733,0.131 0.131,0 0.131,-0.158 0.131,-0.314 0,-0.785 -0.078,-2.59 -0.078,-2.877 0,-0.236 -0.08,-0.34 -0.184,-0.34 -0.131,0 -0.184,0.078 -0.209,0.444 L 6.512,9.573 C 6.434,10.357 5.807,10.959 3.295,11.011 L 0,11.063 0,0 z"
             inkscape:connector-curvature="0"
             id="path234"
             style="fill:#00a4e4;fill-opacity:1;fill-rule:nonzero;stroke:none" /></g></g></g></g></svg>