<?xml version="1.0" encoding="UTF-8" standalone="no"?>
<!-- Creator: CorelDRAW X6 -->

<svg
   xmlns:dc="http://purl.org/dc/elements/1.1/"
   xmlns:cc="http://creativecommons.org/ns#"
   xmlns:rdf="http://www.w3.org/1999/02/22-rdf-syntax-ns#"
   xmlns:svg="http://www.w3.org/2000/svg"
   xmlns="http://www.w3.org/2000/svg"
   xmlns:sodipodi="http://sodipodi.sourceforge.net/DTD/sodipodi-0.dtd"
   xmlns:inkscape="http://www.inkscape.org/namespaces/inkscape"
   xml:space="preserve"
   width="96"
   height="96"
   version="1.0"
   style="fill-rule:evenodd"
   viewBox="0 0 2414.2315 2414.0672"
   id="svg2"
   inkscape:version="0.48.4 r9939"
   sodipodi:docname="gtel_rect.svg"
   inkscape:export-filename="/home/r3gis3r/workspaceandroid2/CSipSimple/res/drawable-xhdpi/ic_wizard_gtel.png"
   inkscape:export-xdpi="14.4"
   inkscape:export-ydpi="14.4"><metadata
     id="metadata61"><rdf:RDF><cc:Work
         rdf:about=""><dc:format>image/svg+xml</dc:format><dc:type
           rdf:resource="http://purl.org/dc/dcmitype/StillImage" /><dc:title></dc:title></cc:Work></rdf:RDF></metadata><sodipodi:namedview
     pagecolor="#ffffff"
     bordercolor="#666666"
     borderopacity="1"
     objecttolerance="10"
     gridtolerance="10"
     guidetolerance="10"
     inkscape:pageopacity="0"
     inkscape:pageshadow="2"
     inkscape:window-width="1600"
     inkscape:window-height="849"
     id="namedview59"
     showgrid="false"
     inkscape:zoom="4.6544762"
     inkscape:cx="43.035902"
     inkscape:cy="49.00039"
     inkscape:window-x="0"
     inkscape:window-y="27"
     inkscape:window-maximized="1"
     inkscape:current-layer="svg2" /><defs
     id="defs4"><style
       type="text/css"
       id="style6">
    .str2 {stroke:#FEFEFE;stroke-width:89.1051}
    .str0 {stroke:#E95522;stroke-width:6.78981}
    .str1 {stroke:#FEFEFE;stroke-width:89.1051}
    .fil1 {fill:#E95522}
    .fil0 {fill:#2B2A29}
    .fil2 {fill:#FEFEFE}
   </style></defs><g
     id="Layer_x0020_1"
     transform="matrix(0.16042242,0,0,0.16042242,31.78091,611.70601)"><metadata
       id="CorelCorpID_0Corel-Layer" /><rect
       class="fil0"
       width="14653"
       height="7422"
       rx="1728"
       ry="1728"
       id="rect10"
       x="0"
       y="0"
       style="fill:#2b2a29" /><g
       id="_781387184"><g
         id="g13"><path
           class="fil1 str0"
           d="m 11268,2087 c -43,43 -43,112 0,155 170,170 263,396 263,635 0,240 -93,466 -263,635 -43,43 -43,113 0,155 43,43 112,43 155,0 211,-211 327,-491 327,-790 0,-298 -116,-579 -327,-790 -43,-42 -112,-42 -155,0 z"
           id="path15"
           inkscape:connector-curvature="0"
           style="fill:#e95522;stroke:#e95522;stroke-width:6.78981018" /><path
           class="fil1 str0"
           d="m 11598,1777 c -43,43 -43,112 0,155 521,521 521,1370 0,1891 -43,43 -43,112 0,155 43,42 112,42 155,0 606,-607 606,-1594 0,-2200 -43,-43 -112,-43 -155,0 z"
           id="path17"
           inkscape:connector-curvature="0"
           style="fill:#e95522;stroke:#e95522;stroke-width:6.78981018" /><path
           class="fil1 str0"
           d="m 11948,1514 c -43,43 -43,112 0,155 667,666 667,1751 0,2417 -43,43 -43,112 0,155 43,43 112,43 155,-1 752,-752 753,-1975 0,-2727 -43,-43 -112,-43 -155,0 z"
           id="path19"
           inkscape:connector-curvature="0"
           style="fill:#e95522;stroke:#e95522;stroke-width:6.78981018" /></g><path
         class="fil2"
         d="m 5393,4434 7153,0 c 118,0 135,67 135,105 0,32 -18,108 -135,108 l -7153,0 c -151,0 -151,-214 0,-214 z"
         id="path21"
         inkscape:connector-curvature="0"
         style="fill:#fefefe" /><g
         id="g23"><path
           class="fil2 str1"
           d="m 10478,3658 c 0,15 -7,31 -22,48 -86,103 -210,154 -372,154 -144,0 -268,-52 -371,-155 -103,-103 -154,-227 -154,-371 0,-1624 0,-717 0,-2004 0,-47 23,-71 70,-71 46,0 69,24 69,71 0,1288 0,378 0,2001 0,105 38,195 114,270 76,76 167,113 272,113 68,0 137,-22 210,-65 72,-43 109,-64 112,-64 49,0 73,25 73,73 z"
           id="path25"
           inkscape:connector-curvature="0"
           style="fill:#fefefe;stroke:#fefefe;stroke-width:89.10510254" /><path
           class="fil2 str2"
           d="m 8897,3331 c 0,13 -4,25 -10,39 -87,150 -207,270 -360,358 -153,88 -317,133 -491,133 -272,0 -503,-96 -695,-288 -192,-192 -288,-424 -288,-695 0,-271 96,-503 288,-695 192,-192 424,-288 695,-288 106,0 216,20 328,59 104,38 212,100 324,185 138,105 207,201 207,286 0,27 -12,46 -35,59 l -1516,875 c 167,238 398,357 691,357 254,0 463,-92 626,-277 23,-31 57,-78 102,-140 17,-23 37,-34 60,-34 49,0 73,23 73,69 z m -170,-933 0,0 c -168,-238 -399,-358 -692,-358 -233,0 -432,82 -596,246 -165,164 -247,362 -247,593 0,126 27,245 82,358 l 1453,-839 z"
           id="path27"
           inkscape:connector-curvature="0"
           style="fill:#fefefe;stroke:#fefefe;stroke-width:89.10510254" /><path
           class="fil2 str2"
           d="m 6650,3658 c 0,15 -7,31 -22,48 -86,103 -210,154 -372,154 -144,0 -268,-52 -371,-155 -103,-103 -154,-227 -154,-371 l 0,-1295 -173,0 c -47,0 -71,-24 -71,-73 0,-49 24,-73 71,-73 l 173,0 0,-562 c 0,-47 23,-71 70,-71 46,0 69,24 69,71 l 0,562 565,0 c 48,0 71,25 71,73 0,48 -24,73 -71,73 l -565,0 0,1291 c 0,105 38,195 114,270 76,76 167,113 272,113 68,0 137,-22 210,-65 72,-43 109,-64 112,-64 49,0 73,25 73,73 z"
           id="path29"
           inkscape:connector-curvature="0"
           style="fill:#fefefe;stroke:#fefefe;stroke-width:89.10510254" /></g><path
         class="fil1"
         d="m 4174,3398 c 319,-228 481,-553 481,-968 0,-299 -92,-557 -273,-770 l 303,0 c 138,0 223,-87 223,-226 0,-137 -87,-226 -222,-226 l -1244,0 c -333,0 -622,120 -860,357 -238,237 -358,525 -358,857 0,332 121,621 359,857 238,236 529,356 865,356 281,0 517,98 720,300 203,202 301,437 301,718 0,282 -99,516 -303,718 -204,201 -442,300 -727,300 -286,0 -523,-98 -727,-298 -203,-200 -302,-433 -302,-713 0,-135 -86,-221 -219,-221 -133,0 -219,87 -219,222 0,402 145,750 430,1035 286,283 635,427 1038,427 403,0 753,-144 1038,-427 285,-284 430,-632 430,-1035 0,-293 -84,-566 -250,-812 -128,-189 -291,-341 -483,-452 z m -734,-1738 0,0 c 215,0 394,74 549,227 154,152 228,330 228,542 0,212 -74,389 -228,542 -154,153 -333,227 -549,227 -215,0 -395,-74 -549,-227 -154,-152 -228,-329 -228,-542 0,-212 75,-389 228,-542 154,-153 334,-227 549,-227 z"
         id="path31"
         inkscape:connector-curvature="0"
         style="fill:#e95522" /><g
         id="g33"><path
           class="fil1"
           d="m 7710,5831 c 0,204 -160,361 -362,361 -203,0 -363,-157 -363,-361 0,-204 160,-361 363,-361 203,0 362,157 362,361 z m -595,0 0,0 c 0,128 103,236 232,236 129,0 232,-109 232,-236 0,-129 -103,-236 -232,-236 -129,0 -232,107 -232,236 z"
           id="path35"
           inkscape:connector-curvature="0"
           style="fill:#e95522" /><path
           class="fil1"
           d="m 7913,4911 130,0 0,693 3,0 c 53,-81 135,-133 236,-133 196,0 319,170 319,355 0,194 -116,367 -325,367 -96,0 -178,-52 -230,-129 l -3,0 0,106 -130,0 0,-1259 z m 558,919 0,0 c 0,-132 -80,-244 -220,-244 -135,0 -215,117 -215,244 0,128 77,246 215,246 142,0 220,-113 220,-246 z"
           id="path37"
           inkscape:connector-curvature="0"
           style="fill:#e95522" /><path
           class="fil1"
           d="m 9460,6169 -131,0 0,-106 -3,0 c -52,77 -133,129 -231,129 -207,0 -325,-173 -325,-367 0,-186 123,-355 320,-355 100,0 181,52 235,133 l 3,0 0,-113 131,0 0,679 z m -123,-339 0,0 c 0,-132 -80,-244 -220,-244 -135,0 -215,117 -215,244 0,128 77,246 215,246 142,0 220,-113 220,-246 z"
           id="path39"
           inkscape:connector-curvature="0"
           style="fill:#e95522" /><path
           class="fil2"
           d="m 6767,6169 -131,0 0,-1259 131,0 0,1259 z"
           id="path41"
           inkscape:connector-curvature="0"
           style="fill:#fefefe" /><path
           class="fil2"
           d="m 7710,5831 c 0,204 -160,361 -362,361 -203,0 -363,-157 -363,-361 0,-204 160,-361 363,-361 203,0 362,157 362,361 z m -595,0 0,0 c 0,128 103,236 232,236 129,0 232,-109 232,-236 0,-129 -103,-236 -232,-236 -129,0 -232,107 -232,236 z"
           id="path43"
           inkscape:connector-curvature="0"
           style="fill:#fefefe" /><path
           class="fil2"
           d="m 7913,4911 130,0 0,693 3,0 c 53,-81 135,-133 236,-133 196,0 319,170 319,355 0,194 -116,367 -325,367 -96,0 -178,-52 -230,-129 l -3,0 0,106 -130,0 0,-1259 z m 558,919 0,0 c 0,-132 -80,-244 -220,-244 -135,0 -215,117 -215,244 0,128 77,246 215,246 142,0 220,-113 220,-246 z"
           id="path45"
           inkscape:connector-curvature="0"
           style="fill:#fefefe" /><path
           class="fil2"
           d="m 9460,6169 -131,0 0,-106 -3,0 c -52,77 -133,129 -231,129 -207,0 -325,-173 -325,-367 0,-186 123,-355 320,-355 100,0 181,52 235,133 l 3,0 0,-113 131,0 0,679 z m -123,-339 0,0 c 0,-132 -80,-244 -220,-244 -135,0 -215,117 -215,244 0,128 77,246 215,246 142,0 220,-113 220,-246 z"
           id="path47"
           inkscape:connector-curvature="0"
           style="fill:#fefefe" /><path
           class="fil2"
           d="m 9860,6169 -130,0 0,-1259 130,0 0,1259 z"
           id="path49"
           inkscape:connector-curvature="0"
           style="fill:#fefefe" /><path
           class="fil2"
           d="m 10141,5024 821,860 0,-808 136,0 0,1138 -821,-860 0,815 -136,0 0,-1145 z"
           id="path51"
           inkscape:connector-curvature="0"
           style="fill:#fefefe" /><path
           class="fil2"
           d="m 11450,5852 c 1,116 80,225 204,225 100,0 154,-51 203,-132 l 110,62 c -64,117 -183,186 -315,186 -207,0 -333,-157 -333,-357 0,-209 112,-365 331,-365 216,0 317,159 317,361 l 0,20 -518,0 z m 387,-99 0,0 c -16,-102 -83,-170 -187,-170 -102,0 -177,72 -193,170 l 380,0 z"
           id="path53"
           inkscape:connector-curvature="0"
           style="fill:#fefefe" /><path
           class="fil2"
           d="m 12323,6169 -131,0 0,-557 -71,0 0,-122 71,0 0,-260 131,0 0,260 127,0 0,122 -127,0 0,557 z"
           id="path55"
           inkscape:connector-curvature="0"
           style="fill:#fefefe" /><path
           class="fil2"
           d="m 6416,5618 0,44 c 0,300 -212,531 -518,531 -306,0 -552,-264 -552,-567 0,-315 252,-573 567,-573 170,0 338,77 445,212 l -96,91 c -78,-107 -210,-178 -344,-178 -245,0 -436,199 -436,444 0,229 188,447 425,447 170,0 352,-146 358,-325 l -283,0 0,-125 434,0 z"
           id="path57"
           inkscape:connector-curvature="0"
           style="fill:#fefefe" /></g></g></g></svg>