<?xml version="1.0" encoding="UTF-8" standalone="no"?>
<!-- Creator: CorelDRAW -->

<svg
   xmlns:dc="http://purl.org/dc/elements/1.1/"
   xmlns:cc="http://creativecommons.org/ns#"
   xmlns:rdf="http://www.w3.org/1999/02/22-rdf-syntax-ns#"
   xmlns:svg="http://www.w3.org/2000/svg"
   xmlns="http://www.w3.org/2000/svg"
   xmlns:sodipodi="http://sodipodi.sourceforge.net/DTD/sodipodi-0.dtd"
   xmlns:inkscape="http://www.inkscape.org/namespaces/inkscape"
   xml:space="preserve"
   width="96"
   height="96"
   style="fill-rule:evenodd"
   viewBox="0 0 1.0666666 1.0666667"
   id="svg2"
   version="1.1"
   inkscape:version="0.48.3.1 r9886"
   sodipodi:docname="ic_wizard_clickphone.svg"><metadata
   id="metadata156"><rdf:RDF><cc:Work
       rdf:about=""><dc:format>image/svg+xml</dc:format><dc:type
         rdf:resource="http://purl.org/dc/dcmitype/StillImage" /></cc:Work></rdf:RDF></metadata><sodipodi:namedview
   pagecolor="#ffffff"
   bordercolor="#666666"
   borderopacity="1"
   objecttolerance="10"
   gridtolerance="10"
   guidetolerance="10"
   inkscape:pageopacity="0"
   inkscape:pageshadow="2"
   inkscape:window-width="1179"
   inkscape:window-height="679"
   id="namedview154"
   showgrid="false"
   fit-margin-top="0"
   fit-margin-left="0"
   fit-margin-right="0"
   fit-margin-bottom="0"
   inkscape:zoom="1.6180733"
   inkscape:cx="59.928049"
   inkscape:cy="69.709608"
   inkscape:window-x="0"
   inkscape:window-y="24"
   inkscape:window-maximized="0"
   inkscape:current-layer="svg2" />
 <defs
   id="defs4">
  <style
   type="text/css"
   id="style6">
   
    .fil0 {fill:#D2D3D5}
    .fil1 {fill:#F58634}
    .fil2 {fill:#848688;fill-rule:nonzero}
    .fil3 {fill:#FEFEFE;fill-rule:nonzero}
   
  </style>
 </defs>
 <g
   id="Layer_x0020_1"
   transform="matrix(1.4888415,0,0,1.4888415,-4.3991457,-4.491498)">
  <metadata
   id="CorelCorpID_0Corel-Layer" />
  <path
   class="fil0"
   d="M 3.07725,3.0724 C 3.091919,3.07101 3.108144,3.06946 3.126278,3.06773 3.130518,3.0673284 3.133338,3.07262 3.132508,3.079482 3.129408,3.105238 3.126428,3.130025 3.123618,3.15371 3.1229055,3.15972 3.119188,3.163797 3.115368,3.16283 3.099037,3.15868 3.084301,3.15479 3.070935,3.151192 3.068245,3.1504676 3.066345,3.145932 3.066715,3.141086 c 0.00145,-0.019 0.00294,-0.038535 0.00447,-0.058567 4.016e-4,-0.00528 0.00311,-0.00983 0.00605,-0.010114 z"
   id="path10"
   inkscape:connector-curvature="0"
   style="fill:#d2d3d5" />
  <path
   class="fil0"
   d="M 3.07725,3.0724 C 3.091919,3.07101 3.108144,3.06946 3.126278,3.06773 3.130518,3.0673284 3.133338,3.07262 3.132508,3.079482 3.129408,3.105238 3.126428,3.130025 3.123618,3.15371 3.1229055,3.15972 3.119188,3.163797 3.115368,3.16283 3.099037,3.15868 3.084301,3.15479 3.070935,3.151192 3.068245,3.1504676 3.066345,3.145932 3.066715,3.141086 c 0.00145,-0.019 0.00294,-0.038535 0.00447,-0.058567 4.016e-4,-0.00528 0.00311,-0.00983 0.00605,-0.010114 z"
   id="path12"
   inkscape:connector-curvature="0"
   style="fill:#d2d3d5" />
  <path
   class="fil0"
   d="M 3.07725,3.0724 C 3.091919,3.07101 3.108144,3.06946 3.126278,3.06773 3.130518,3.0673284 3.133338,3.07262 3.132508,3.079482 3.129408,3.105238 3.126428,3.130025 3.123618,3.15371 3.1229055,3.15972 3.119188,3.163797 3.115368,3.16283 3.099037,3.15868 3.084301,3.15479 3.070935,3.151192 3.068245,3.1504676 3.066345,3.145932 3.066715,3.141086 c 0.00145,-0.019 0.00294,-0.038535 0.00447,-0.058567 4.016e-4,-0.00528 0.00311,-0.00983 0.00605,-0.010114 z"
   id="path14"
   inkscape:connector-curvature="0"
   style="fill:#d2d3d5" />
  <path
   class="fil0"
   d="M 3.16502,3.06404 C 3.190642,3.0616 3.220146,3.05878 3.254548,3.0555 3.262658,3.0547284 3.268056,3.06219 3.266013,3.072075 3.258403,3.10887 3.251147,3.14365 3.244446,3.176433 3.242766,3.184653 3.235356,3.190067 3.228359,3.18859 3.198485,3.18227 3.172658,3.176527 3.149957,3.171248 3.145387,3.170188 3.142447,3.164178 3.143287,3.157787 3.146627,3.132523 3.150217,3.106031 3.153972,3.07835 3.154972,3.07098 3.159852,3.064527 3.165019,3.064039 z"
   id="path16"
   inkscape:connector-curvature="0"
   style="fill:#d2d3d5" />
  <path
   class="fil0"
   d="M 3.16502,3.06404 C 3.190642,3.0616 3.220146,3.05878 3.254548,3.0555 3.262658,3.0547284 3.268056,3.06219 3.266013,3.072075 3.258403,3.10887 3.251147,3.14365 3.244446,3.176433 3.242766,3.184653 3.235356,3.190067 3.228359,3.18859 3.198485,3.18227 3.172658,3.176527 3.149957,3.171248 3.145387,3.170188 3.142447,3.164178 3.143287,3.157787 3.146627,3.132523 3.150217,3.106031 3.153972,3.07835 3.154972,3.07098 3.159852,3.064527 3.165019,3.064039 z"
   id="path18"
   inkscape:connector-curvature="0"
   style="fill:#d2d3d5" />
  <path
   class="fil0"
   d="M 3.16502,3.06404 C 3.190642,3.0616 3.220146,3.05878 3.254548,3.0555 3.262658,3.0547284 3.268056,3.06219 3.266013,3.072075 3.258403,3.10887 3.251147,3.14365 3.244446,3.176433 3.242766,3.184653 3.235356,3.190067 3.228359,3.18859 3.198485,3.18227 3.172658,3.176527 3.149957,3.171248 3.145387,3.170188 3.142447,3.164178 3.143287,3.157787 3.146627,3.132523 3.150217,3.106031 3.153972,3.07835 3.154972,3.07098 3.159852,3.064527 3.165019,3.064039 z"
   id="path20"
   inkscape:connector-curvature="0"
   style="fill:#d2d3d5" />
  <path
   class="fil0"
   d="M 3.33292,3.04803 C 3.389333,3.04265 3.459026,3.036002 3.546951,3.027621 3.569782,3.025441 3.583573,3.036301 3.577482,3.051763 3.555065,3.108672 3.534167,3.161767 3.514722,3.211046 3.509872,3.223333 3.490856,3.231404 3.472403,3.228896 3.400576,3.219136 3.342773,3.209935 3.29532,3.201605 3.28624,3.200015 3.280552,3.191471 3.282615,3.182597 3.290845,3.14718 3.299572,3.109499 3.30895,3.069538 3.31148,3.058743 3.322174,3.049054 3.332919,3.04803 z"
   id="path22"
   inkscape:connector-curvature="0"
   style="fill:#d2d3d5" />
  <path
   class="fil0"
   d="M 3.33292,3.04803 C 3.389333,3.04265 3.459026,3.036002 3.546951,3.027621 3.569782,3.025441 3.583573,3.036301 3.577482,3.051763 3.555065,3.108672 3.534167,3.161767 3.514722,3.211046 3.509872,3.223333 3.490856,3.231404 3.472403,3.228896 3.400576,3.219136 3.342773,3.209935 3.29532,3.201605 3.28624,3.200015 3.280552,3.191471 3.282615,3.182597 3.290845,3.14718 3.299572,3.109499 3.30895,3.069538 3.31148,3.058743 3.322174,3.049054 3.332919,3.04803 z"
   id="path24"
   inkscape:connector-curvature="0"
   style="fill:#d2d3d5" />
  <path
   class="fil0"
   d="M 3.33292,3.04803 C 3.389333,3.04265 3.459026,3.036002 3.546951,3.027621 3.569782,3.025441 3.583573,3.036301 3.577482,3.051763 3.555065,3.108672 3.534167,3.161767 3.514722,3.211046 3.509872,3.223333 3.490856,3.231404 3.472403,3.228896 3.400576,3.219136 3.342773,3.209935 3.29532,3.201605 3.28624,3.200015 3.280552,3.191471 3.282615,3.182597 3.290845,3.14718 3.299572,3.109499 3.30895,3.069538 3.31148,3.058743 3.322174,3.049054 3.332919,3.04803 z"
   id="path26"
   inkscape:connector-curvature="0"
   style="fill:#d2d3d5" />
  <path
   class="fil0"
   d="m 3.06857,3.18078 c 0.012933,0.00515 0.027138,0.010713 0.042906,0.016697 0.00367,0.00139 0.00617,0.00705 0.00554,0.012508 -0.00243,0.020878 -0.00478,0.04098 -0.00702,0.060492 -5.669e-4,0.00492 -0.0038,0.00712 -0.00715,0.00493 C 3.088318,3.265877 3.075133,3.2571 3.063141,3.248978 3.060691,3.247328 3.058991,3.242538 3.059311,3.238324 c 0.00127,-0.016677 0.00257,-0.033685 0.0039,-0.051126 3.504e-4,-0.00458 0.00275,-0.00745 0.00536,-0.00641 z"
   id="path28"
   inkscape:connector-curvature="0"
   style="fill:#d2d3d5" />
  <path
   class="fil0"
   d="m 3.06857,3.18078 c 0.012933,0.00515 0.027138,0.010713 0.042906,0.016697 0.00367,0.00139 0.00617,0.00705 0.00554,0.012508 -0.00243,0.020878 -0.00478,0.04098 -0.00702,0.060492 -5.669e-4,0.00492 -0.0038,0.00712 -0.00715,0.00493 C 3.088318,3.265877 3.075133,3.2571 3.063141,3.248978 3.060691,3.247328 3.058991,3.242538 3.059311,3.238324 c 0.00127,-0.016677 0.00257,-0.033685 0.0039,-0.051126 3.504e-4,-0.00458 0.00275,-0.00745 0.00536,-0.00641 z"
   id="path30"
   inkscape:connector-curvature="0"
   style="fill:#d2d3d5" />
  <path
   class="fil0"
   d="m 3.06857,3.18078 c 0.012933,0.00515 0.027138,0.010713 0.042906,0.016697 0.00367,0.00139 0.00617,0.00705 0.00554,0.012508 -0.00243,0.020878 -0.00478,0.04098 -0.00702,0.060492 -5.669e-4,0.00492 -0.0038,0.00712 -0.00715,0.00493 C 3.088318,3.265877 3.075133,3.2571 3.063141,3.248978 3.060691,3.247328 3.058991,3.242538 3.059311,3.238324 c 0.00127,-0.016677 0.00257,-0.033685 0.0039,-0.051126 3.504e-4,-0.00458 0.00275,-0.00745 0.00536,-0.00641 z"
   id="path32"
   inkscape:connector-curvature="0"
   style="fill:#d2d3d5" />
  <path
   class="fil0"
   d="m 3.14468,3.20969 c 0.021665,0.00767 0.046287,0.016075 0.074661,0.025331 0.00661,0.00216 0.011146,0.00997 0.00967,0.017252 C 3.223471,3.279679 3.218235,3.305781 3.213227,3.330777 3.211977,3.336997 3.205897,3.339187 3.200026,3.335697 3.174802,3.320701 3.152695,3.307134 3.133136,3.294858 c -0.004,-0.00251 -0.00661,-0.0087 -0.00595,-0.013862 0.00265,-0.020433 0.00536,-0.041606 0.00824,-0.063595 7.559e-4,-0.00578 0.00484,-0.00927 0.00925,-0.00771 z"
   id="path34"
   inkscape:connector-curvature="0"
   style="fill:#d2d3d5" />
  <path
   class="fil0"
   d="m 3.14468,3.20969 c 0.021665,0.00767 0.046287,0.016075 0.074661,0.025331 0.00661,0.00216 0.011146,0.00997 0.00967,0.017252 C 3.223471,3.279679 3.218235,3.305781 3.213227,3.330777 3.211977,3.336997 3.205897,3.339187 3.200026,3.335697 3.174802,3.320701 3.152695,3.307134 3.133136,3.294858 c -0.004,-0.00251 -0.00661,-0.0087 -0.00595,-0.013862 0.00265,-0.020433 0.00536,-0.041606 0.00824,-0.063595 7.559e-4,-0.00578 0.00484,-0.00927 0.00925,-0.00771 z"
   id="path36"
   inkscape:connector-curvature="0"
   style="fill:#d2d3d5" />
  <path
   class="fil0"
   d="m 3.14468,3.20969 c 0.021665,0.00767 0.046287,0.016075 0.074661,0.025331 0.00661,0.00216 0.011146,0.00997 0.00967,0.017252 C 3.223471,3.279679 3.218235,3.305781 3.213227,3.330777 3.211977,3.336997 3.205897,3.339187 3.200026,3.335697 3.174802,3.320701 3.152695,3.307134 3.133136,3.294858 c -0.004,-0.00251 -0.00661,-0.0087 -0.00595,-0.013862 0.00265,-0.020433 0.00536,-0.041606 0.00824,-0.063595 7.559e-4,-0.00578 0.00484,-0.00927 0.00925,-0.00771 z"
   id="path38"
   inkscape:connector-curvature="0"
   style="fill:#d2d3d5" />
  <path
   class="fil1"
   d="M 3.28256,3.25438 C 3.327005,3.266955 3.380843,3.281065 3.447426,3.29651 3.464371,3.30044 3.474918,3.312073 3.470792,3.322526 3.455241,3.36192 3.44065,3.398987 3.426839,3.43401 3.423419,3.44269 3.409036,3.444707 3.395118,3.43809 3.339433,3.411625 3.293709,3.388011 3.255445,3.367283 3.247965,3.363223 3.243221,3.354421 3.244728,3.347795 3.250778,3.321244 3.257098,3.293401 3.263823,3.264071 3.265613,3.256271 3.273984,3.251953 3.282559,3.254381 z"
   id="path40"
   inkscape:connector-curvature="0"
   style="fill:#f58634" />
  <path
   class="fil1"
   d="M 3.28256,3.25438 C 3.327005,3.266955 3.380843,3.281065 3.447426,3.29651 3.464371,3.30044 3.474918,3.312073 3.470792,3.322526 3.455241,3.36192 3.44065,3.398987 3.426839,3.43401 3.423419,3.44269 3.409036,3.444707 3.395118,3.43809 3.339433,3.411625 3.293709,3.388011 3.255445,3.367283 3.247965,3.363223 3.243221,3.354421 3.244728,3.347795 3.250778,3.321244 3.257098,3.293401 3.263823,3.264071 3.265613,3.256271 3.273984,3.251953 3.282559,3.254381 z"
   id="path42"
   inkscape:connector-curvature="0"
   style="fill:#f58634" />
  <path
   class="fil1"
   d="M 3.28256,3.25438 C 3.327005,3.266955 3.380843,3.281065 3.447426,3.29651 3.464371,3.30044 3.474918,3.312073 3.470792,3.322526 3.455241,3.36192 3.44065,3.398987 3.426839,3.43401 3.423419,3.44269 3.409036,3.444707 3.395118,3.43809 3.339433,3.411625 3.293709,3.388011 3.255445,3.367283 3.247965,3.363223 3.243221,3.354421 3.244728,3.347795 3.250778,3.321244 3.257098,3.293401 3.263823,3.264071 3.265613,3.256271 3.273984,3.251953 3.282559,3.254381 z"
   id="path44"
   inkscape:connector-curvature="0"
   style="fill:#f58634" />
  <path
   class="fil0"
   d="m 3.06108,3.27475 c 0.011709,0.00907 0.024504,0.018886 0.038591,0.029512 0.00325,0.00245 0.00552,0.0082 0.00499,0.012811 -0.002,0.017366 -0.0039,0.034307 -0.00574,0.050697 C 3.0984525,3.37194 3.095581,3.3729 3.092531,3.36992 3.079401,3.357125 3.067385,3.345306 3.05635,3.334404 3.05411,3.332194 3.05251,3.327344 3.05279,3.323589 3.05391,3.308971 3.05505,3.293987 3.05622,3.278676 3.056531,3.274616 3.05868,3.272896 3.06108,3.274746 z"
   id="path46"
   inkscape:connector-curvature="0"
   style="fill:#d2d3d5" />
  <path
   class="fil0"
   d="m 3.06108,3.27475 c 0.011709,0.00907 0.024504,0.018886 0.038591,0.029512 0.00325,0.00245 0.00552,0.0082 0.00499,0.012811 -0.002,0.017366 -0.0039,0.034307 -0.00574,0.050697 C 3.0984525,3.37194 3.095581,3.3729 3.092531,3.36992 3.079401,3.357125 3.067385,3.345306 3.05635,3.334404 3.05411,3.332194 3.05251,3.327344 3.05279,3.323589 3.05391,3.308971 3.05505,3.293987 3.05622,3.278676 3.056531,3.274616 3.05868,3.272896 3.06108,3.274746 z"
   id="path48"
   inkscape:connector-curvature="0"
   style="fill:#d2d3d5" />
  <path
   class="fil0"
   d="m 3.06108,3.27475 c 0.011709,0.00907 0.024504,0.018886 0.038591,0.029512 0.00325,0.00245 0.00552,0.0082 0.00499,0.012811 -0.002,0.017366 -0.0039,0.034307 -0.00574,0.050697 C 3.0984525,3.37194 3.095581,3.3729 3.092531,3.36992 3.079401,3.357125 3.067385,3.345306 3.05635,3.334404 3.05411,3.332194 3.05251,3.327344 3.05279,3.323589 3.05391,3.308971 3.05505,3.293987 3.05622,3.278676 3.056531,3.274616 3.05868,3.272896 3.06108,3.274746 z"
   id="path50"
   inkscape:connector-curvature="0"
   style="fill:#d2d3d5" />
  <path
   class="fil0"
   d="m 3.12898,3.32601 c 0.018882,0.013724 0.040087,0.028909 0.064217,0.045736 0.00562,0.00392 0.00954,0.011839 0.00841,0.017563 -0.00423,0.021429 -0.00826,0.042071 -0.012146,0.061843 -9.842e-4,0.00502 -0.00613,0.00504 -0.011169,3.307e-4 -0.021839,-0.020413 -0.041232,-0.038713 -0.058571,-0.055295 -0.00358,-0.00343 -0.00597,-0.00958 -0.00543,-0.013921 0.00212,-0.016953 0.00439,-0.03452 0.00667,-0.052618 6.023e-4,-0.00479 0.00416,-0.00644 0.00801,-0.00364 z"
   id="path52"
   inkscape:connector-curvature="0"
   style="fill:#d2d3d5" />
  <path
   class="fil0"
   d="m 3.12898,3.32601 c 0.018882,0.013724 0.040087,0.028909 0.064217,0.045736 0.00562,0.00392 0.00954,0.011839 0.00841,0.017563 -0.00423,0.021429 -0.00826,0.042071 -0.012146,0.061843 -9.842e-4,0.00502 -0.00613,0.00504 -0.011169,3.307e-4 -0.021839,-0.020413 -0.041232,-0.038713 -0.058571,-0.055295 -0.00358,-0.00343 -0.00597,-0.00958 -0.00543,-0.013921 0.00212,-0.016953 0.00439,-0.03452 0.00667,-0.052618 6.023e-4,-0.00479 0.00416,-0.00644 0.00801,-0.00364 z"
   id="path54"
   inkscape:connector-curvature="0"
   style="fill:#d2d3d5" />
  <path
   class="fil0"
   d="m 3.12898,3.32601 c 0.018882,0.013724 0.040087,0.028909 0.064217,0.045736 0.00562,0.00392 0.00954,0.011839 0.00841,0.017563 -0.00423,0.021429 -0.00826,0.042071 -0.012146,0.061843 -9.842e-4,0.00502 -0.00613,0.00504 -0.011169,3.307e-4 -0.021839,-0.020413 -0.041232,-0.038713 -0.058571,-0.055295 -0.00358,-0.00343 -0.00597,-0.00958 -0.00543,-0.013921 0.00212,-0.016953 0.00439,-0.03452 0.00667,-0.052618 6.023e-4,-0.00479 0.00416,-0.00644 0.00801,-0.00364 z"
   id="path56"
   inkscape:connector-curvature="0"
   style="fill:#d2d3d5" />
  <path
   class="fil0"
   d="M 3.24595,3.40724 C 3.282111,3.430571 3.325029,3.457153 3.377033,3.487134 3.389899,3.494544 3.398238,3.506591 3.395179,3.514358 3.383832,3.543161 3.373025,3.570563 3.362762,3.596614 3.360172,3.603184 3.349089,3.601214 3.338301,3.592174 3.294222,3.555233 3.257112,3.522922 3.225352,3.494552 3.219062,3.488942 3.214994,3.480147 3.216172,3.474855 3.220812,3.454076 3.225632,3.432375 3.230715,3.40978 3.232075,3.40374 3.238845,3.40266 3.245947,3.40724 z"
   id="path58"
   inkscape:connector-curvature="0"
   style="fill:#d2d3d5" />
  <path
   class="fil0"
   d="M 3.24595,3.40724 C 3.282111,3.430571 3.325029,3.457153 3.377033,3.487134 3.389899,3.494544 3.398238,3.506591 3.395179,3.514358 3.383832,3.543161 3.373025,3.570563 3.362762,3.596614 3.360172,3.603184 3.349089,3.601214 3.338301,3.592174 3.294222,3.555233 3.257112,3.522922 3.225352,3.494552 3.219062,3.488942 3.214994,3.480147 3.216172,3.474855 3.220812,3.454076 3.225632,3.432375 3.230715,3.40978 3.232075,3.40374 3.238845,3.40266 3.245947,3.40724 z"
   id="path60"
   inkscape:connector-curvature="0"
   style="fill:#d2d3d5" />
  <path
   class="fil0"
   d="M 3.24595,3.40724 C 3.282111,3.430571 3.325029,3.457153 3.377033,3.487134 3.389899,3.494544 3.398238,3.506591 3.395179,3.514358 3.383832,3.543161 3.373025,3.570563 3.362762,3.596614 3.360172,3.603184 3.349089,3.601214 3.338301,3.592174 3.294222,3.555233 3.257112,3.522922 3.225352,3.494552 3.219062,3.488942 3.214994,3.480147 3.216172,3.474855 3.220812,3.454076 3.225632,3.432375 3.230715,3.40978 3.232075,3.40374 3.238845,3.40266 3.245947,3.40724 z"
   id="path62"
   inkscape:connector-curvature="0"
   style="fill:#d2d3d5" />
  <path
   class="fil0"
   d="m 3.05454,3.35711 c 0.010787,0.011492 0.0225,0.023933 0.035335,0.037457 0.00296,0.00311 0.00505,0.00883 0.00461,0.012732 -0.00168,0.014909 -0.00327,0.029386 -0.00483,0.043516 -3.937e-4,0.00355 -0.00302,0.00363 -0.00579,2.126e-4 -0.012094,-0.014902 -0.023244,-0.028579 -0.033492,-0.041213 -0.00209,-0.00258 -0.00359,-0.00736 -0.00334,-0.010685 9.921e-4,-0.012988 0.002,-0.026276 0.00304,-0.039862 2.717e-4,-0.00356 0.00228,-0.0045 0.00447,-0.00216 z"
   id="path64"
   inkscape:connector-curvature="0"
   style="fill:#d2d3d5" />
  <path
   class="fil0"
   d="m 3.05454,3.35711 c 0.010787,0.011492 0.0225,0.023933 0.035335,0.037457 0.00296,0.00311 0.00505,0.00883 0.00461,0.012732 -0.00168,0.014909 -0.00327,0.029386 -0.00483,0.043516 -3.937e-4,0.00355 -0.00302,0.00363 -0.00579,2.126e-4 -0.012094,-0.014902 -0.023244,-0.028579 -0.033492,-0.041213 -0.00209,-0.00258 -0.00359,-0.00736 -0.00334,-0.010685 9.921e-4,-0.012988 0.002,-0.026276 0.00304,-0.039862 2.717e-4,-0.00356 0.00228,-0.0045 0.00447,-0.00216 z"
   id="path66"
   inkscape:connector-curvature="0"
   style="fill:#d2d3d5" />
  <path
   class="fil0"
   d="m 3.05454,3.35711 c 0.010787,0.011492 0.0225,0.023933 0.035335,0.037457 0.00296,0.00311 0.00505,0.00883 0.00461,0.012732 -0.00168,0.014909 -0.00327,0.029386 -0.00483,0.043516 -3.937e-4,0.00355 -0.00302,0.00363 -0.00579,2.126e-4 -0.012094,-0.014902 -0.023244,-0.028579 -0.033492,-0.041213 -0.00209,-0.00258 -0.00359,-0.00736 -0.00334,-0.010685 9.921e-4,-0.012988 0.002,-0.026276 0.00304,-0.039862 2.717e-4,-0.00356 0.00228,-0.0045 0.00447,-0.00216 z"
   id="path68"
   inkscape:connector-curvature="0"
   style="fill:#d2d3d5" />
  <path
   class="fil0"
   d="m 3.11629,3.42224 c 0.016811,0.017508 0.035575,0.03685 0.056598,0.05837 0.00486,0.00498 0.00831,0.012965 0.00743,0.017528 -0.00338,0.017469 -0.00664,0.034232 -0.00975,0.050496 -7.756e-4,0.00406 -0.00521,0.00271 -0.00965,-0.00275 C 3.141599,3.522108 3.12428,3.500793 3.108623,3.481526 3.105403,3.477566 3.103203,3.471455 3.103663,3.46777 c 0.00179,-0.014453 0.00361,-0.029319 0.00552,-0.044673 5e-4,-0.00402 0.00367,-0.00443 0.0071,-8.543e-4 z"
   id="path70"
   inkscape:connector-curvature="0"
   style="fill:#d2d3d5" />
  <path
   class="fil0"
   d="m 3.11629,3.42224 c 0.016811,0.017508 0.035575,0.03685 0.056598,0.05837 0.00486,0.00498 0.00831,0.012965 0.00743,0.017528 -0.00338,0.017469 -0.00664,0.034232 -0.00975,0.050496 -7.756e-4,0.00406 -0.00521,0.00271 -0.00965,-0.00275 C 3.141599,3.522108 3.12428,3.500793 3.108623,3.481526 3.105403,3.477566 3.103203,3.471455 3.103663,3.46777 c 0.00179,-0.014453 0.00361,-0.029319 0.00552,-0.044673 5e-4,-0.00402 0.00367,-0.00443 0.0071,-8.543e-4 z"
   id="path72"
   inkscape:connector-curvature="0"
   style="fill:#d2d3d5" />
  <path
   class="fil0"
   d="m 3.11629,3.42224 c 0.016811,0.017508 0.035575,0.03685 0.056598,0.05837 0.00486,0.00498 0.00831,0.012965 0.00743,0.017528 -0.00338,0.017469 -0.00664,0.034232 -0.00975,0.050496 -7.756e-4,0.00406 -0.00521,0.00271 -0.00965,-0.00275 C 3.141599,3.522108 3.12428,3.500793 3.108623,3.481526 3.105403,3.477566 3.103203,3.471455 3.103663,3.46777 c 0.00179,-0.014453 0.00361,-0.029319 0.00552,-0.044673 5e-4,-0.00402 0.00367,-0.00443 0.0071,-8.543e-4 z"
   id="path74"
   inkscape:connector-curvature="0"
   style="fill:#d2d3d5" />
  <path
   class="fil0"
   d="M 3.21799,3.52612 C 3.248191,3.556053 3.283277,3.590258 3.324608,3.629396 3.334667,3.638926 3.341175,3.6514 3.338868,3.657258 3.330168,3.67936 3.321888,3.700408 3.313919,3.720593 3.311939,3.725613 3.303269,3.7211009 3.294742,3.710603 3.25936,3.667068 3.228636,3.629201 3.20175,3.596111 3.19638,3.589501 3.1928,3.580753 3.19374,3.576477 3.19744,3.55965 3.20126,3.542174 3.205272,3.524009 c 0.00106,-0.00481 0.00671,-0.00385 0.01272,0.00211 z"
   id="path76"
   inkscape:connector-curvature="0"
   style="fill:#d2d3d5" />
  <path
   class="fil0"
   d="M 3.21799,3.52612 C 3.248191,3.556053 3.283277,3.590258 3.324608,3.629396 3.334667,3.638926 3.341175,3.6514 3.338868,3.657258 3.330168,3.67936 3.321888,3.700408 3.313919,3.720593 3.311939,3.725613 3.303269,3.7211009 3.294742,3.710603 3.25936,3.667068 3.228636,3.629201 3.20175,3.596111 3.19638,3.589501 3.1928,3.580753 3.19374,3.576477 3.19744,3.55965 3.20126,3.542174 3.205272,3.524009 c 0.00106,-0.00481 0.00671,-0.00385 0.01272,0.00211 z"
   id="path78"
   inkscape:connector-curvature="0"
   style="fill:#d2d3d5" />
  <path
   class="fil0"
   d="M 3.21799,3.52612 C 3.248191,3.556053 3.283277,3.590258 3.324608,3.629396 3.334667,3.638926 3.341175,3.6514 3.338868,3.657258 3.330168,3.67936 3.321888,3.700408 3.313919,3.720593 3.311939,3.725613 3.303269,3.7211009 3.294742,3.710603 3.25936,3.667068 3.228636,3.629201 3.20175,3.596111 3.19638,3.589501 3.1928,3.580753 3.19374,3.576477 3.19744,3.55965 3.20126,3.542174 3.205272,3.524009 c 0.00106,-0.00481 0.00671,-0.00385 0.01272,0.00211 z"
   id="path80"
   inkscape:connector-curvature="0"
   style="fill:#d2d3d5" />
  <path
   class="fil2"
   d="m 3.18576,3.14817 c 0.00684,9.449e-4 0.013953,0.00192 0.02139,0.00294 0.00224,3.071e-4 0.00384,0.00109 0.00482,0.00243 9.449e-4,0.00129 0.00126,0.00291 9.134e-4,0.00485 -3.071e-4,0.00174 -0.00105,0.00317 -0.00219,0.00422 -0.00108,9.96e-4 -0.00262,0.00137 -0.00452,0.00106 -0.010248,-0.00168 -0.02,-0.00335 -0.029256,-0.00496 -0.00181,-3.15e-4 -0.00311,-0.00124 -0.00393,-0.00273 -8.15e-4,-0.00149 -0.00102,-0.00314 -7.638e-4,-0.00493 1.614e-4,-0.00113 7.402e-4,-0.00268 0.00169,-0.0045 9.449e-4,-0.00183 0.00188,-0.00324 0.00287,-0.00427 0.00395,-0.00413 0.0077,-0.00776 0.010992,-0.010858 0.00339,-0.0032 0.00575,-0.00522 0.00717,-0.00623 0.00263,-0.00189 0.00491,-0.00387 0.00681,-0.0059 0.00191,-0.00204 0.00347,-0.00424 0.00467,-0.00649 0.00118,-0.00221 0.00203,-0.00443 0.00239,-0.00664 3.937e-4,-0.00239 3.386e-4,-0.00447 -1.968e-4,-0.00642 -5.394e-4,-0.00196 -0.00149,-0.00343 -0.00283,-0.00448 -0.00134,-0.00105 -0.00291,-0.00157 -0.00468,-0.00156 -0.00371,3.94e-5 -0.00683,0.00211 -0.00956,0.00636 -3.74e-4,5.827e-4 -0.00106,0.00202 -0.00206,0.00434 -0.00104,0.00241 -0.002,0.00419 -0.00301,0.00543 -9.763e-4,0.0012 -0.00222,0.0018 -0.00362,0.00173 -0.00126,-6.3e-5 -0.00223,-6.693e-4 -0.00288,-0.00183 -6.654e-4,-0.00118 -8.504e-4,-0.00269 -5.512e-4,-0.0047 3.425e-4,-0.00231 0.0012,-0.00486 0.00238,-0.00748 0.0012,-0.00267 0.00278,-0.00515 0.00469,-0.00735 0.00194,-0.00224 0.00439,-0.00408 0.00716,-0.00552 0.00281,-0.00146 0.00601,-0.00225 0.00957,-0.00239 0.00452,-1.811e-4 0.00817,5.591e-4 0.01111,0.00235 0.00191,0.00116 0.00356,0.00278 0.0048,0.00493 0.00126,0.00219 0.00204,0.00471 0.00241,0.00759 3.701e-4,0.00289 2.874e-4,0.00594 -2.519e-4,0.00891 -8.583e-4,0.00476 -0.00256,0.00901 -0.00511,0.012795 -0.00252,0.00373 -0.0049,0.00649 -0.00719,0.00849 -0.00222,0.00194 -0.00583,0.00495 -0.010768,0.00888 -0.0049,0.00391 -0.00821,0.00687 -0.01002,0.00895 -7.204e-4,8.307e-4 -0.00157,0.00175 -0.00244,0.00296 z"
   id="path82"
   inkscape:connector-curvature="0"
   style="fill:#848688;fill-rule:nonzero" />
  <path
   class="fil2"
   d="m 3.18576,3.14817 c 0.00684,9.449e-4 0.013953,0.00192 0.02139,0.00294 0.00224,3.071e-4 0.00384,0.00109 0.00482,0.00243 9.449e-4,0.00129 0.00126,0.00291 9.134e-4,0.00485 -3.071e-4,0.00174 -0.00105,0.00317 -0.00219,0.00422 -0.00108,9.96e-4 -0.00262,0.00137 -0.00452,0.00106 -0.010248,-0.00168 -0.02,-0.00335 -0.029256,-0.00496 -0.00181,-3.15e-4 -0.00311,-0.00124 -0.00393,-0.00273 -8.15e-4,-0.00149 -0.00102,-0.00314 -7.638e-4,-0.00493 1.614e-4,-0.00113 7.402e-4,-0.00268 0.00169,-0.0045 9.449e-4,-0.00183 0.00188,-0.00324 0.00287,-0.00427 0.00395,-0.00413 0.0077,-0.00776 0.010992,-0.010858 0.00339,-0.0032 0.00575,-0.00522 0.00717,-0.00623 0.00263,-0.00189 0.00491,-0.00387 0.00681,-0.0059 0.00191,-0.00204 0.00347,-0.00424 0.00467,-0.00649 0.00118,-0.00221 0.00203,-0.00443 0.00239,-0.00664 3.937e-4,-0.00239 3.386e-4,-0.00447 -1.968e-4,-0.00642 -5.394e-4,-0.00196 -0.00149,-0.00343 -0.00283,-0.00448 -0.00134,-0.00105 -0.00291,-0.00157 -0.00468,-0.00156 -0.00371,3.94e-5 -0.00683,0.00211 -0.00956,0.00636 -3.74e-4,5.827e-4 -0.00106,0.00202 -0.00206,0.00434 -0.00104,0.00241 -0.002,0.00419 -0.00301,0.00543 -9.763e-4,0.0012 -0.00222,0.0018 -0.00362,0.00173 -0.00126,-6.3e-5 -0.00223,-6.693e-4 -0.00288,-0.00183 -6.654e-4,-0.00118 -8.504e-4,-0.00269 -5.512e-4,-0.0047 3.425e-4,-0.00231 0.0012,-0.00486 0.00238,-0.00748 0.0012,-0.00267 0.00278,-0.00515 0.00469,-0.00735 0.00194,-0.00224 0.00439,-0.00408 0.00716,-0.00552 0.00281,-0.00146 0.00601,-0.00225 0.00957,-0.00239 0.00452,-1.811e-4 0.00817,5.591e-4 0.01111,0.00235 0.00191,0.00116 0.00356,0.00278 0.0048,0.00493 0.00126,0.00219 0.00204,0.00471 0.00241,0.00759 3.701e-4,0.00289 2.874e-4,0.00594 -2.519e-4,0.00891 -8.583e-4,0.00476 -0.00256,0.00901 -0.00511,0.012795 -0.00252,0.00373 -0.0049,0.00649 -0.00719,0.00849 -0.00222,0.00194 -0.00583,0.00495 -0.010768,0.00888 -0.0049,0.00391 -0.00821,0.00687 -0.01002,0.00895 -7.204e-4,8.307e-4 -0.00157,0.00175 -0.00244,0.00296 z"
   id="path84"
   inkscape:connector-curvature="0"
   style="fill:#848688;fill-rule:nonzero" />
  <path
   class="fil2"
   d="m 3.18576,3.14817 c 0.00684,9.449e-4 0.013953,0.00192 0.02139,0.00294 0.00224,3.071e-4 0.00384,0.00109 0.00482,0.00243 9.449e-4,0.00129 0.00126,0.00291 9.134e-4,0.00485 -3.071e-4,0.00174 -0.00105,0.00317 -0.00219,0.00422 -0.00108,9.96e-4 -0.00262,0.00137 -0.00452,0.00106 -0.010248,-0.00168 -0.02,-0.00335 -0.029256,-0.00496 -0.00181,-3.15e-4 -0.00311,-0.00124 -0.00393,-0.00273 -8.15e-4,-0.00149 -0.00102,-0.00314 -7.638e-4,-0.00493 1.614e-4,-0.00113 7.402e-4,-0.00268 0.00169,-0.0045 9.449e-4,-0.00183 0.00188,-0.00324 0.00287,-0.00427 0.00395,-0.00413 0.0077,-0.00776 0.010992,-0.010858 0.00339,-0.0032 0.00575,-0.00522 0.00717,-0.00623 0.00263,-0.00189 0.00491,-0.00387 0.00681,-0.0059 0.00191,-0.00204 0.00347,-0.00424 0.00467,-0.00649 0.00118,-0.00221 0.00203,-0.00443 0.00239,-0.00664 3.937e-4,-0.00239 3.386e-4,-0.00447 -1.968e-4,-0.00642 -5.394e-4,-0.00196 -0.00149,-0.00343 -0.00283,-0.00448 -0.00134,-0.00105 -0.00291,-0.00157 -0.00468,-0.00156 -0.00371,3.94e-5 -0.00683,0.00211 -0.00956,0.00636 -3.74e-4,5.827e-4 -0.00106,0.00202 -0.00206,0.00434 -0.00104,0.00241 -0.002,0.00419 -0.00301,0.00543 -9.763e-4,0.0012 -0.00222,0.0018 -0.00362,0.00173 -0.00126,-6.3e-5 -0.00223,-6.693e-4 -0.00288,-0.00183 -6.654e-4,-0.00118 -8.504e-4,-0.00269 -5.512e-4,-0.0047 3.425e-4,-0.00231 0.0012,-0.00486 0.00238,-0.00748 0.0012,-0.00267 0.00278,-0.00515 0.00469,-0.00735 0.00194,-0.00224 0.00439,-0.00408 0.00716,-0.00552 0.00281,-0.00146 0.00601,-0.00225 0.00957,-0.00239 0.00452,-1.811e-4 0.00817,5.591e-4 0.01111,0.00235 0.00191,0.00116 0.00356,0.00278 0.0048,0.00493 0.00126,0.00219 0.00204,0.00471 0.00241,0.00759 3.701e-4,0.00289 2.874e-4,0.00594 -2.519e-4,0.00891 -8.583e-4,0.00476 -0.00256,0.00901 -0.00511,0.012795 -0.00252,0.00373 -0.0049,0.00649 -0.00719,0.00849 -0.00222,0.00194 -0.00583,0.00495 -0.010768,0.00888 -0.0049,0.00391 -0.00821,0.00687 -0.01002,0.00895 -7.204e-4,8.307e-4 -0.00157,0.00175 -0.00244,0.00296 z"
   id="path86"
   inkscape:connector-curvature="0"
   style="fill:#848688;fill-rule:nonzero" />
  <path
   class="fil2"
   d="m 3.39827,3.11982 c 0.00582,5.12e-5 0.011224,-0.00136 0.016449,-0.0042 0.00552,-0.00301 0.00925,-0.00717 0.010988,-0.01272 0.00133,-0.00423 5.433e-4,-0.00796 -0.0022,-0.011091 -0.00268,-0.00305 -0.00693,-0.00436 -0.012819,-0.00416 -0.00396,1.338e-4 -0.00742,6.22e-4 -0.010252,0.00161 -0.00287,9.961e-4 -0.00524,0.00235 -0.00715,0.00393 -0.00185,0.00153 -0.00365,0.00348 -0.00554,0.00582 -0.00196,0.00244 -0.00365,0.00459 -0.00526,0.00659 -8.544e-4,0.00107 -0.00217,0.00197 -0.00388,0.00257 -0.00172,5.984e-4 -0.00353,9.527e-4 -0.00552,9.449e-4 -0.00228,-1.19e-5 -0.00425,-8.308e-4 -0.00572,-0.00248 -0.0015,-0.00169 -0.0019,-0.00376 -0.00113,-0.00656 7.48e-4,-0.00273 0.00244,-0.00559 0.00515,-0.00867 0.00273,-0.00309 0.00629,-0.00608 0.010724,-0.00902 0.00435,-0.00287 0.00959,-0.00532 0.015508,-0.00724 0.00633,-0.00205 0.013295,-0.00325 0.020681,-0.00366 0.00648,-3.504e-4 0.012457,5.51e-5 0.017791,0.00132 0.00533,0.00126 0.0097,0.00311 0.012968,0.00583 0.00339,0.00282 0.00564,0.00608 0.0067,0.0098 0.00109,0.00386 8.15e-4,0.00811 -6.496e-4,0.012547 -0.00189,0.00571 -0.00519,0.010524 -0.00982,0.014618 -0.00455,0.00402 -0.010083,0.00781 -0.016917,0.011528 0.00468,0.0025 0.00829,0.00524 0.011291,0.00821 0.00307,0.00304 0.00496,0.0065 0.00578,0.010122 8.307e-4,0.00365 5.669e-4,0.00761 -8.347e-4,0.011748 -0.00169,0.00499 -0.00465,0.00959 -0.00879,0.013839 -0.00415,0.00425 -0.00926,0.00782 -0.015327,0.010898 -0.00574,0.00291 -0.011949,0.00508 -0.018882,0.00628 -0.00683,0.00118 -0.013795,0.00133 -0.02065,5.079e-4 -0.00708,-8.465e-4 -0.013087,-0.00251 -0.017756,-0.00517 -0.00456,-0.00261 -0.00806,-0.00564 -0.010567,-0.009 -0.00252,-0.00338 -0.00424,-0.0067 -0.00497,-0.010043 -7.402e-4,-0.00339 -8.307e-4,-0.00603 -2.717e-4,-0.00812 7.323e-4,-0.00272 0.00233,-0.00494 0.00472,-0.00645 0.0025,-0.00157 0.00542,-0.00238 0.00851,-0.00218 0.00159,9.84e-5 0.00297,6.417e-4 0.00422,0.00159 0.00117,8.977e-4 0.00183,0.00191 0.00198,0.00304 9.37e-4,0.00706 0.00267,0.012217 0.00507,0.015693 0.0025,0.00362 0.00709,0.00564 0.013587,0.00625 0.0037,3.504e-4 0.00749,-1.024e-4 0.011429,-0.00122 0.00418,-0.00119 0.00799,-0.00324 0.011421,-0.00607 0.00352,-0.00291 0.00577,-0.00627 0.00711,-0.010528 0.00192,-0.00609 0.00141,-0.011102 -0.00185,-0.014811 -0.00322,-0.00367 -0.00859,-0.00557 -0.01565,-0.00582 -0.00128,-4.72e-5 -0.00328,7.09e-5 -0.00595,1.457e-4 -0.00267,7.09e-5 -0.00431,1.102e-4 -0.00507,8.66e-5 -0.00346,-1.22e-4 -0.00585,-8.661e-4 -0.00716,-0.00228 -0.00132,-0.00143 -0.00166,-0.00341 -9.448e-4,-0.00592 7.165e-4,-0.0025 0.0024,-0.00453 0.00483,-0.00592 0.00263,-0.00151 0.00621,-0.00236 0.010783,-0.00227 0.0013,2.36e-5 0.00255,2.75e-5 0.00385,7.48e-5 z"
   id="path88"
   inkscape:connector-curvature="0"
   style="fill:#848688;fill-rule:nonzero" />
  <path
   class="fil2"
   d="m 3.39827,3.11982 c 0.00582,5.12e-5 0.011224,-0.00136 0.016449,-0.0042 0.00552,-0.00301 0.00925,-0.00717 0.010988,-0.01272 0.00133,-0.00423 5.433e-4,-0.00796 -0.0022,-0.011091 -0.00268,-0.00305 -0.00693,-0.00436 -0.012819,-0.00416 -0.00396,1.338e-4 -0.00742,6.22e-4 -0.010252,0.00161 -0.00287,9.961e-4 -0.00524,0.00235 -0.00715,0.00393 -0.00185,0.00153 -0.00365,0.00348 -0.00554,0.00582 -0.00196,0.00244 -0.00365,0.00459 -0.00526,0.00659 -8.544e-4,0.00107 -0.00217,0.00197 -0.00388,0.00257 -0.00172,5.984e-4 -0.00353,9.527e-4 -0.00552,9.449e-4 -0.00228,-1.19e-5 -0.00425,-8.308e-4 -0.00572,-0.00248 -0.0015,-0.00169 -0.0019,-0.00376 -0.00113,-0.00656 7.48e-4,-0.00273 0.00244,-0.00559 0.00515,-0.00867 0.00273,-0.00309 0.00629,-0.00608 0.010724,-0.00902 0.00435,-0.00287 0.00959,-0.00532 0.015508,-0.00724 0.00633,-0.00205 0.013295,-0.00325 0.020681,-0.00366 0.00648,-3.504e-4 0.012457,5.51e-5 0.017791,0.00132 0.00533,0.00126 0.0097,0.00311 0.012968,0.00583 0.00339,0.00282 0.00564,0.00608 0.0067,0.0098 0.00109,0.00386 8.15e-4,0.00811 -6.496e-4,0.012547 -0.00189,0.00571 -0.00519,0.010524 -0.00982,0.014618 -0.00455,0.00402 -0.010083,0.00781 -0.016917,0.011528 0.00468,0.0025 0.00829,0.00524 0.011291,0.00821 0.00307,0.00304 0.00496,0.0065 0.00578,0.010122 8.307e-4,0.00365 5.669e-4,0.00761 -8.347e-4,0.011748 -0.00169,0.00499 -0.00465,0.00959 -0.00879,0.013839 -0.00415,0.00425 -0.00926,0.00782 -0.015327,0.010898 -0.00574,0.00291 -0.011949,0.00508 -0.018882,0.00628 -0.00683,0.00118 -0.013795,0.00133 -0.02065,5.079e-4 -0.00708,-8.465e-4 -0.013087,-0.00251 -0.017756,-0.00517 -0.00456,-0.00261 -0.00806,-0.00564 -0.010567,-0.009 -0.00252,-0.00338 -0.00424,-0.0067 -0.00497,-0.010043 -7.402e-4,-0.00339 -8.307e-4,-0.00603 -2.717e-4,-0.00812 7.323e-4,-0.00272 0.00233,-0.00494 0.00472,-0.00645 0.0025,-0.00157 0.00542,-0.00238 0.00851,-0.00218 0.00159,9.84e-5 0.00297,6.417e-4 0.00422,0.00159 0.00117,8.977e-4 0.00183,0.00191 0.00198,0.00304 9.37e-4,0.00706 0.00267,0.012217 0.00507,0.015693 0.0025,0.00362 0.00709,0.00564 0.013587,0.00625 0.0037,3.504e-4 0.00749,-1.024e-4 0.011429,-0.00122 0.00418,-0.00119 0.00799,-0.00324 0.011421,-0.00607 0.00352,-0.00291 0.00577,-0.00627 0.00711,-0.010528 0.00192,-0.00609 0.00141,-0.011102 -0.00185,-0.014811 -0.00322,-0.00367 -0.00859,-0.00557 -0.01565,-0.00582 -0.00128,-4.72e-5 -0.00328,7.09e-5 -0.00595,1.457e-4 -0.00267,7.09e-5 -0.00431,1.102e-4 -0.00507,8.66e-5 -0.00346,-1.22e-4 -0.00585,-8.661e-4 -0.00716,-0.00228 -0.00132,-0.00143 -0.00166,-0.00341 -9.448e-4,-0.00592 7.165e-4,-0.0025 0.0024,-0.00453 0.00483,-0.00592 0.00263,-0.00151 0.00621,-0.00236 0.010783,-0.00227 0.0013,2.36e-5 0.00255,2.75e-5 0.00385,7.48e-5 z"
   id="path90"
   inkscape:connector-curvature="0"
   style="fill:#848688;fill-rule:nonzero" />
  <path
   class="fil2"
   d="m 3.39827,3.11982 c 0.00582,5.12e-5 0.011224,-0.00136 0.016449,-0.0042 0.00552,-0.00301 0.00925,-0.00717 0.010988,-0.01272 0.00133,-0.00423 5.433e-4,-0.00796 -0.0022,-0.011091 -0.00268,-0.00305 -0.00693,-0.00436 -0.012819,-0.00416 -0.00396,1.338e-4 -0.00742,6.22e-4 -0.010252,0.00161 -0.00287,9.961e-4 -0.00524,0.00235 -0.00715,0.00393 -0.00185,0.00153 -0.00365,0.00348 -0.00554,0.00582 -0.00196,0.00244 -0.00365,0.00459 -0.00526,0.00659 -8.544e-4,0.00107 -0.00217,0.00197 -0.00388,0.00257 -0.00172,5.984e-4 -0.00353,9.527e-4 -0.00552,9.449e-4 -0.00228,-1.19e-5 -0.00425,-8.308e-4 -0.00572,-0.00248 -0.0015,-0.00169 -0.0019,-0.00376 -0.00113,-0.00656 7.48e-4,-0.00273 0.00244,-0.00559 0.00515,-0.00867 0.00273,-0.00309 0.00629,-0.00608 0.010724,-0.00902 0.00435,-0.00287 0.00959,-0.00532 0.015508,-0.00724 0.00633,-0.00205 0.013295,-0.00325 0.020681,-0.00366 0.00648,-3.504e-4 0.012457,5.51e-5 0.017791,0.00132 0.00533,0.00126 0.0097,0.00311 0.012968,0.00583 0.00339,0.00282 0.00564,0.00608 0.0067,0.0098 0.00109,0.00386 8.15e-4,0.00811 -6.496e-4,0.012547 -0.00189,0.00571 -0.00519,0.010524 -0.00982,0.014618 -0.00455,0.00402 -0.010083,0.00781 -0.016917,0.011528 0.00468,0.0025 0.00829,0.00524 0.011291,0.00821 0.00307,0.00304 0.00496,0.0065 0.00578,0.010122 8.307e-4,0.00365 5.669e-4,0.00761 -8.347e-4,0.011748 -0.00169,0.00499 -0.00465,0.00959 -0.00879,0.013839 -0.00415,0.00425 -0.00926,0.00782 -0.015327,0.010898 -0.00574,0.00291 -0.011949,0.00508 -0.018882,0.00628 -0.00683,0.00118 -0.013795,0.00133 -0.02065,5.079e-4 -0.00708,-8.465e-4 -0.013087,-0.00251 -0.017756,-0.00517 -0.00456,-0.00261 -0.00806,-0.00564 -0.010567,-0.009 -0.00252,-0.00338 -0.00424,-0.0067 -0.00497,-0.010043 -7.402e-4,-0.00339 -8.307e-4,-0.00603 -2.717e-4,-0.00812 7.323e-4,-0.00272 0.00233,-0.00494 0.00472,-0.00645 0.0025,-0.00157 0.00542,-0.00238 0.00851,-0.00218 0.00159,9.84e-5 0.00297,6.417e-4 0.00422,0.00159 0.00117,8.977e-4 0.00183,0.00191 0.00198,0.00304 9.37e-4,0.00706 0.00267,0.012217 0.00507,0.015693 0.0025,0.00362 0.00709,0.00564 0.013587,0.00625 0.0037,3.504e-4 0.00749,-1.024e-4 0.011429,-0.00122 0.00418,-0.00119 0.00799,-0.00324 0.011421,-0.00607 0.00352,-0.00291 0.00577,-0.00627 0.00711,-0.010528 0.00192,-0.00609 0.00141,-0.011102 -0.00185,-0.014811 -0.00322,-0.00367 -0.00859,-0.00557 -0.01565,-0.00582 -0.00128,-4.72e-5 -0.00328,7.09e-5 -0.00595,1.457e-4 -0.00267,7.09e-5 -0.00431,1.102e-4 -0.00507,8.66e-5 -0.00346,-1.22e-4 -0.00585,-8.661e-4 -0.00716,-0.00228 -0.00132,-0.00143 -0.00166,-0.00341 -9.448e-4,-0.00592 7.165e-4,-0.0025 0.0024,-0.00453 0.00483,-0.00592 0.00263,-0.00151 0.00621,-0.00236 0.010783,-0.00227 0.0013,2.36e-5 0.00255,2.75e-5 0.00385,7.48e-5 z"
   id="path92"
   inkscape:connector-curvature="0"
   style="fill:#848688;fill-rule:nonzero" />
  <path
   class="fil2"
   d="M 3.09431,3.13734 C 3.09542,3.125966 3.09657,3.114305 3.0977,3.102427 c -0.00441,0.00485 -0.00714,0.00717 -0.00844,0.00706 -6.221e-4,-4.73e-5 -0.00108,-5.158e-4 -0.0015,-0.00138 -4.134e-4,-8.543e-4 -5.63e-4,-0.00182 -4.685e-4,-0.00294 1.103e-4,-0.0013 4.095e-4,-0.00222 9.331e-4,-0.00281 5.236e-4,-5.866e-4 0.00146,-0.00133 0.00274,-0.00226 0.00192,-0.00139 0.0035,-0.00296 0.0048,-0.00461 0.00131,-0.00167 0.0025,-0.00351 0.00358,-0.00557 0.00111,-0.00213 0.00177,-0.00342 0.00212,-0.00395 3.189e-4,-4.803e-4 8.386e-4,-7.165e-4 0.00164,-7.441e-4 8.544e-4,-2.75e-5 0.00149,4.961e-4 0.0019,0.0016 4.094e-4,0.00111 5.078e-4,0.00267 3.071e-4,0.00465 -0.00159,0.015528 -0.00311,0.030685 -0.00461,0.045516 -5.236e-4,0.00516 -0.00183,0.00748 -0.00395,0.00703 -9.055e-4,-1.889e-4 -0.00164,-8.464e-4 -0.00208,-0.00196 -4.489e-4,-0.00116 -5.63e-4,-0.00271 -3.662e-4,-0.00472 z"
   id="path94"
   inkscape:connector-curvature="0"
   style="fill:#848688;fill-rule:nonzero" />
  <path
   class="fil2"
   d="M 3.09431,3.13734 C 3.09542,3.125966 3.09657,3.114305 3.0977,3.102427 c -0.00441,0.00485 -0.00714,0.00717 -0.00844,0.00706 -6.221e-4,-4.73e-5 -0.00108,-5.158e-4 -0.0015,-0.00138 -4.134e-4,-8.543e-4 -5.63e-4,-0.00182 -4.685e-4,-0.00294 1.103e-4,-0.0013 4.095e-4,-0.00222 9.331e-4,-0.00281 5.236e-4,-5.866e-4 0.00146,-0.00133 0.00274,-0.00226 0.00192,-0.00139 0.0035,-0.00296 0.0048,-0.00461 0.00131,-0.00167 0.0025,-0.00351 0.00358,-0.00557 0.00111,-0.00213 0.00177,-0.00342 0.00212,-0.00395 3.189e-4,-4.803e-4 8.386e-4,-7.165e-4 0.00164,-7.441e-4 8.544e-4,-2.75e-5 0.00149,4.961e-4 0.0019,0.0016 4.094e-4,0.00111 5.078e-4,0.00267 3.071e-4,0.00465 -0.00159,0.015528 -0.00311,0.030685 -0.00461,0.045516 -5.236e-4,0.00516 -0.00183,0.00748 -0.00395,0.00703 -9.055e-4,-1.889e-4 -0.00164,-8.464e-4 -0.00208,-0.00196 -4.489e-4,-0.00116 -5.63e-4,-0.00271 -3.662e-4,-0.00472 z"
   id="path96"
   inkscape:connector-curvature="0"
   style="fill:#848688;fill-rule:nonzero" />
  <path
   class="fil2"
   d="M 3.09431,3.13734 C 3.09542,3.125966 3.09657,3.114305 3.0977,3.102427 c -0.00441,0.00485 -0.00714,0.00717 -0.00844,0.00706 -6.221e-4,-4.73e-5 -0.00108,-5.158e-4 -0.0015,-0.00138 -4.134e-4,-8.543e-4 -5.63e-4,-0.00182 -4.685e-4,-0.00294 1.103e-4,-0.0013 4.095e-4,-0.00222 9.331e-4,-0.00281 5.236e-4,-5.866e-4 0.00146,-0.00133 0.00274,-0.00226 0.00192,-0.00139 0.0035,-0.00296 0.0048,-0.00461 0.00131,-0.00167 0.0025,-0.00351 0.00358,-0.00557 0.00111,-0.00213 0.00177,-0.00342 0.00212,-0.00395 3.189e-4,-4.803e-4 8.386e-4,-7.165e-4 0.00164,-7.441e-4 8.544e-4,-2.75e-5 0.00149,4.961e-4 0.0019,0.0016 4.094e-4,0.00111 5.078e-4,0.00267 3.071e-4,0.00465 -0.00159,0.015528 -0.00311,0.030685 -0.00461,0.045516 -5.236e-4,0.00516 -0.00183,0.00748 -0.00395,0.00703 -9.055e-4,-1.889e-4 -0.00164,-8.464e-4 -0.00208,-0.00196 -4.489e-4,-0.00116 -5.63e-4,-0.00271 -3.662e-4,-0.00472 z"
   id="path98"
   inkscape:connector-curvature="0"
   style="fill:#848688;fill-rule:nonzero" />
  <path
   class="fil2"
   d="M 3.18785,3.25409 C 3.1819,3.25163 3.176126,3.24922 3.170582,3.2469 c -0.00137,0.00427 -0.00274,0.00857 -0.00411,0.012677 0.00354,-6.181e-4 0.00669,-2.48e-4 0.00957,0.00102 0.0023,0.00102 0.00438,0.00247 0.00622,0.00435 0.00193,0.00198 0.00354,0.00424 0.00481,0.00679 0.00125,0.00251 0.00214,0.0053 0.0026,0.00824 4.488e-4,0.00288 4.37e-4,0.00583 -6.7e-5,0.00861 -7.362e-4,0.00406 -0.00215,0.00739 -0.00434,0.00983 -0.00216,0.00241 -0.00486,0.00369 -0.00815,0.00398 -0.00317,2.874e-4 -0.00653,-5.748e-4 -0.01022,-0.00267 -0.00389,-0.00221 -0.0069,-0.00487 -0.00906,-0.00794 -0.00211,-0.003 -0.00343,-0.00586 -0.00407,-0.00854 -6.536e-4,-0.00271 -8.386e-4,-0.00497 -6.063e-4,-0.00658 1.535e-4,-0.00104 6.22e-4,-0.00184 0.00146,-0.00238 8.228e-4,-5.315e-4 0.00172,-5.236e-4 0.00275,3.9e-6 0.00179,9.213e-4 0.00293,0.00291 0.00346,0.00592 4.921e-4,0.00281 0.0014,0.00526 0.00268,0.00738 0.00128,0.00211 0.00286,0.00365 0.00476,0.00468 0.00176,9.646e-4 0.00337,0.0013 0.00492,9.449e-4 0.00151,-3.504e-4 0.0028,-0.00125 0.00386,-0.00281 0.00105,-0.00154 0.0018,-0.00357 0.00219,-0.00596 4.37e-4,-0.00263 4.213e-4,-0.00509 -7.09e-5,-0.00743 -4.882e-4,-0.00232 -0.00129,-0.00426 -0.00248,-0.0058 -0.00122,-0.00157 -0.00265,-0.00277 -0.0043,-0.00355 -0.00203,-9.606e-4 -0.00344,-0.00128 -0.00438,-0.00111 -8.977e-4,1.693e-4 -0.00222,5.354e-4 -0.004,0.00122 -0.00176,6.772e-4 -0.00318,7.638e-4 -0.00414,2.796e-4 -0.00104,-5.237e-4 -0.00188,-0.00143 -0.00256,-0.00278 -6.693e-4,-0.00134 -8.74e-4,-0.00262 -6.968e-4,-0.00385 1.97e-5,-1.299e-4 2.559e-4,-9.606e-4 7.441e-4,-0.00254 0.00185,-0.00598 0.00376,-0.012169 0.00566,-0.018343 7.008e-4,-0.00228 0.00149,-0.00381 0.00254,-0.00457 0.00107,-7.716e-4 0.00257,-7.756e-4 0.00459,1.97e-5 0.00611,0.00242 0.012587,0.00495 0.019264,0.00748 0.00404,0.00154 0.00577,0.00417 0.00511,0.00779 -2.795e-4,0.00155 -9.685e-4,0.00261 -0.00211,0.00314 -0.00112,5.236e-4 -0.00265,4.291e-4 -0.00455,-3.583e-4 z"
   id="path100"
   inkscape:connector-curvature="0"
   style="fill:#848688;fill-rule:nonzero" />
  <path
   class="fil2"
   d="M 3.18785,3.25409 C 3.1819,3.25163 3.176126,3.24922 3.170582,3.2469 c -0.00137,0.00427 -0.00274,0.00857 -0.00411,0.012677 0.00354,-6.181e-4 0.00669,-2.48e-4 0.00957,0.00102 0.0023,0.00102 0.00438,0.00247 0.00622,0.00435 0.00193,0.00198 0.00354,0.00424 0.00481,0.00679 0.00125,0.00251 0.00214,0.0053 0.0026,0.00824 4.488e-4,0.00288 4.37e-4,0.00583 -6.7e-5,0.00861 -7.362e-4,0.00406 -0.00215,0.00739 -0.00434,0.00983 -0.00216,0.00241 -0.00486,0.00369 -0.00815,0.00398 -0.00317,2.874e-4 -0.00653,-5.748e-4 -0.01022,-0.00267 -0.00389,-0.00221 -0.0069,-0.00487 -0.00906,-0.00794 -0.00211,-0.003 -0.00343,-0.00586 -0.00407,-0.00854 -6.536e-4,-0.00271 -8.386e-4,-0.00497 -6.063e-4,-0.00658 1.535e-4,-0.00104 6.22e-4,-0.00184 0.00146,-0.00238 8.228e-4,-5.315e-4 0.00172,-5.236e-4 0.00275,3.9e-6 0.00179,9.213e-4 0.00293,0.00291 0.00346,0.00592 4.921e-4,0.00281 0.0014,0.00526 0.00268,0.00738 0.00128,0.00211 0.00286,0.00365 0.00476,0.00468 0.00176,9.646e-4 0.00337,0.0013 0.00492,9.449e-4 0.00151,-3.504e-4 0.0028,-0.00125 0.00386,-0.00281 0.00105,-0.00154 0.0018,-0.00357 0.00219,-0.00596 4.37e-4,-0.00263 4.213e-4,-0.00509 -7.09e-5,-0.00743 -4.882e-4,-0.00232 -0.00129,-0.00426 -0.00248,-0.0058 -0.00122,-0.00157 -0.00265,-0.00277 -0.0043,-0.00355 -0.00203,-9.606e-4 -0.00344,-0.00128 -0.00438,-0.00111 -8.977e-4,1.693e-4 -0.00222,5.354e-4 -0.004,0.00122 -0.00176,6.772e-4 -0.00318,7.638e-4 -0.00414,2.796e-4 -0.00104,-5.237e-4 -0.00188,-0.00143 -0.00256,-0.00278 -6.693e-4,-0.00134 -8.74e-4,-0.00262 -6.968e-4,-0.00385 1.97e-5,-1.299e-4 2.559e-4,-9.606e-4 7.441e-4,-0.00254 0.00185,-0.00598 0.00376,-0.012169 0.00566,-0.018343 7.008e-4,-0.00228 0.00149,-0.00381 0.00254,-0.00457 0.00107,-7.716e-4 0.00257,-7.756e-4 0.00459,1.97e-5 0.00611,0.00242 0.012587,0.00495 0.019264,0.00748 0.00404,0.00154 0.00577,0.00417 0.00511,0.00779 -2.795e-4,0.00155 -9.685e-4,0.00261 -0.00211,0.00314 -0.00112,5.236e-4 -0.00265,4.291e-4 -0.00455,-3.583e-4 z"
   id="path102"
   inkscape:connector-curvature="0"
   style="fill:#848688;fill-rule:nonzero" />
  <path
   class="fil2"
   d="M 3.18785,3.25409 C 3.1819,3.25163 3.176126,3.24922 3.170582,3.2469 c -0.00137,0.00427 -0.00274,0.00857 -0.00411,0.012677 0.00354,-6.181e-4 0.00669,-2.48e-4 0.00957,0.00102 0.0023,0.00102 0.00438,0.00247 0.00622,0.00435 0.00193,0.00198 0.00354,0.00424 0.00481,0.00679 0.00125,0.00251 0.00214,0.0053 0.0026,0.00824 4.488e-4,0.00288 4.37e-4,0.00583 -6.7e-5,0.00861 -7.362e-4,0.00406 -0.00215,0.00739 -0.00434,0.00983 -0.00216,0.00241 -0.00486,0.00369 -0.00815,0.00398 -0.00317,2.874e-4 -0.00653,-5.748e-4 -0.01022,-0.00267 -0.00389,-0.00221 -0.0069,-0.00487 -0.00906,-0.00794 -0.00211,-0.003 -0.00343,-0.00586 -0.00407,-0.00854 -6.536e-4,-0.00271 -8.386e-4,-0.00497 -6.063e-4,-0.00658 1.535e-4,-0.00104 6.22e-4,-0.00184 0.00146,-0.00238 8.228e-4,-5.315e-4 0.00172,-5.236e-4 0.00275,3.9e-6 0.00179,9.213e-4 0.00293,0.00291 0.00346,0.00592 4.921e-4,0.00281 0.0014,0.00526 0.00268,0.00738 0.00128,0.00211 0.00286,0.00365 0.00476,0.00468 0.00176,9.646e-4 0.00337,0.0013 0.00492,9.449e-4 0.00151,-3.504e-4 0.0028,-0.00125 0.00386,-0.00281 0.00105,-0.00154 0.0018,-0.00357 0.00219,-0.00596 4.37e-4,-0.00263 4.213e-4,-0.00509 -7.09e-5,-0.00743 -4.882e-4,-0.00232 -0.00129,-0.00426 -0.00248,-0.0058 -0.00122,-0.00157 -0.00265,-0.00277 -0.0043,-0.00355 -0.00203,-9.606e-4 -0.00344,-0.00128 -0.00438,-0.00111 -8.977e-4,1.693e-4 -0.00222,5.354e-4 -0.004,0.00122 -0.00176,6.772e-4 -0.00318,7.638e-4 -0.00414,2.796e-4 -0.00104,-5.237e-4 -0.00188,-0.00143 -0.00256,-0.00278 -6.693e-4,-0.00134 -8.74e-4,-0.00262 -6.968e-4,-0.00385 1.97e-5,-1.299e-4 2.559e-4,-9.606e-4 7.441e-4,-0.00254 0.00185,-0.00598 0.00376,-0.012169 0.00566,-0.018343 7.008e-4,-0.00228 0.00149,-0.00381 0.00254,-0.00457 0.00107,-7.716e-4 0.00257,-7.756e-4 0.00459,1.97e-5 0.00611,0.00242 0.012587,0.00495 0.019264,0.00748 0.00404,0.00154 0.00577,0.00417 0.00511,0.00779 -2.795e-4,0.00155 -9.685e-4,0.00261 -0.00211,0.00314 -0.00112,5.236e-4 -0.00265,4.291e-4 -0.00455,-3.583e-4 z"
   id="path104"
   inkscape:connector-curvature="0"
   style="fill:#848688;fill-rule:nonzero" />
  <path
   class="fil3"
   d="m 3.31999,3.33054 c 0.00393,-0.0018 0.00804,-0.0027 0.012449,-0.00273 0.00439,-2.76e-5 0.00902,8.543e-4 0.013969,0.00262 0.00497,0.00178 0.00956,0.00405 0.013437,0.007 0.00387,0.00294 0.00694,0.00633 0.00953,0.010063 0.00268,0.00387 0.00439,0.00796 0.00513,0.012122 7.481e-4,0.00428 5.355e-4,0.0082 -7.441e-4,0.012016 -0.00181,0.00539 -0.00529,0.00961 -0.010311,0.012468 -0.00497,0.00283 -0.010827,0.00406 -0.017413,0.00372 -0.00658,-3.347e-4 -0.013512,-0.00211 -0.020378,-0.00536 -0.00778,-0.00368 -0.013953,-0.00828 -0.018413,-0.013539 -0.0045,-0.00531 -0.00753,-0.011201 -0.00879,-0.018035 -0.00124,-0.00674 -6.732e-4,-0.014122 0.0015,-0.022217 0.00182,-0.00676 0.00423,-0.012484 0.00737,-0.017311 0.00316,-0.00487 0.00706,-0.00855 0.011461,-0.011039 0.0045,-0.00255 0.00946,-0.00412 0.014929,-0.00449 0.00584,-4.016e-4 0.012272,4.724e-4 0.019122,0.00252 0.00675,0.00202 0.012787,0.00488 0.01761,0.00861 0.00478,0.0037 0.00811,0.00759 0.010063,0.011524 0.00194,0.00392 0.00252,0.0073 0.00162,0.010138 -5.315e-4,0.00167 -0.00202,0.00288 -0.00434,0.00372 -0.00223,7.992e-4 -0.00486,7.204e-4 -0.00746,-1.811e-4 -0.00229,-7.914e-4 -0.00421,-0.00204 -0.00582,-0.00379 -0.00161,-0.00175 -0.0026,-0.00366 -0.00299,-0.00585 -5.04e-4,-0.00283 -0.00194,-0.00541 -0.00425,-0.00777 -0.00224,-0.00229 -0.00513,-0.00398 -0.0085,-0.00507 -0.00272,-8.74e-4 -0.00557,-0.00112 -0.00859,-8.268e-4 -0.00298,2.953e-4 -0.0057,0.00119 -0.00809,0.00263 -0.00464,0.00278 -0.00871,0.00929 -0.012087,0.019063 z m 0.00923,0.041622 c 0.00473,0.00213 0.0094,0.00255 0.013709,9.803e-4 0.00439,-0.00159 0.00731,-0.00489 0.00889,-0.00998 0.00106,-0.0034 0.00109,-0.00661 2.677e-4,-0.00977 -8.11e-4,-0.00311 -0.00236,-0.00594 -0.00486,-0.00834 -0.00248,-0.00238 -0.00526,-0.00411 -0.00844,-0.00534 -0.00306,-0.00118 -0.00616,-0.0017 -0.00925,-0.00152 -0.00311,1.811e-4 -0.00585,0.00107 -0.00817,0.00273 -0.00218,0.00156 -0.00368,0.00389 -0.00453,0.00688 -0.00137,0.00483 -0.00103,0.00954 0.00132,0.014126 0.00236,0.0046 0.0061,0.008 0.011051,0.010232 z"
   id="path106"
   inkscape:connector-curvature="0"
   style="fill:#fefefe;fill-rule:nonzero" />
  <path
   class="fil3"
   d="m 3.31999,3.33054 c 0.00393,-0.0018 0.00804,-0.0027 0.012449,-0.00273 0.00439,-2.76e-5 0.00902,8.543e-4 0.013969,0.00262 0.00497,0.00178 0.00956,0.00405 0.013437,0.007 0.00387,0.00294 0.00694,0.00633 0.00953,0.010063 0.00268,0.00387 0.00439,0.00796 0.00513,0.012122 7.481e-4,0.00428 5.355e-4,0.0082 -7.441e-4,0.012016 -0.00181,0.00539 -0.00529,0.00961 -0.010311,0.012468 -0.00497,0.00283 -0.010827,0.00406 -0.017413,0.00372 -0.00658,-3.347e-4 -0.013512,-0.00211 -0.020378,-0.00536 -0.00778,-0.00368 -0.013953,-0.00828 -0.018413,-0.013539 -0.0045,-0.00531 -0.00753,-0.011201 -0.00879,-0.018035 -0.00124,-0.00674 -6.732e-4,-0.014122 0.0015,-0.022217 0.00182,-0.00676 0.00423,-0.012484 0.00737,-0.017311 0.00316,-0.00487 0.00706,-0.00855 0.011461,-0.011039 0.0045,-0.00255 0.00946,-0.00412 0.014929,-0.00449 0.00584,-4.016e-4 0.012272,4.724e-4 0.019122,0.00252 0.00675,0.00202 0.012787,0.00488 0.01761,0.00861 0.00478,0.0037 0.00811,0.00759 0.010063,0.011524 0.00194,0.00392 0.00252,0.0073 0.00162,0.010138 -5.315e-4,0.00167 -0.00202,0.00288 -0.00434,0.00372 -0.00223,7.992e-4 -0.00486,7.204e-4 -0.00746,-1.811e-4 -0.00229,-7.914e-4 -0.00421,-0.00204 -0.00582,-0.00379 -0.00161,-0.00175 -0.0026,-0.00366 -0.00299,-0.00585 -5.04e-4,-0.00283 -0.00194,-0.00541 -0.00425,-0.00777 -0.00224,-0.00229 -0.00513,-0.00398 -0.0085,-0.00507 -0.00272,-8.74e-4 -0.00557,-0.00112 -0.00859,-8.268e-4 -0.00298,2.953e-4 -0.0057,0.00119 -0.00809,0.00263 -0.00464,0.00278 -0.00871,0.00929 -0.012087,0.019063 z m 0.00923,0.041622 c 0.00473,0.00213 0.0094,0.00255 0.013709,9.803e-4 0.00439,-0.00159 0.00731,-0.00489 0.00889,-0.00998 0.00106,-0.0034 0.00109,-0.00661 2.677e-4,-0.00977 -8.11e-4,-0.00311 -0.00236,-0.00594 -0.00486,-0.00834 -0.00248,-0.00238 -0.00526,-0.00411 -0.00844,-0.00534 -0.00306,-0.00118 -0.00616,-0.0017 -0.00925,-0.00152 -0.00311,1.811e-4 -0.00585,0.00107 -0.00817,0.00273 -0.00218,0.00156 -0.00368,0.00389 -0.00453,0.00688 -0.00137,0.00483 -0.00103,0.00954 0.00132,0.014126 0.00236,0.0046 0.0061,0.008 0.011051,0.010232 z"
   id="path108"
   inkscape:connector-curvature="0"
   style="fill:#fefefe;fill-rule:nonzero" />
  <path
   class="fil3"
   d="m 3.31999,3.33054 c 0.00393,-0.0018 0.00804,-0.0027 0.012449,-0.00273 0.00439,-2.76e-5 0.00902,8.543e-4 0.013969,0.00262 0.00497,0.00178 0.00956,0.00405 0.013437,0.007 0.00387,0.00294 0.00694,0.00633 0.00953,0.010063 0.00268,0.00387 0.00439,0.00796 0.00513,0.012122 7.481e-4,0.00428 5.355e-4,0.0082 -7.441e-4,0.012016 -0.00181,0.00539 -0.00529,0.00961 -0.010311,0.012468 -0.00497,0.00283 -0.010827,0.00406 -0.017413,0.00372 -0.00658,-3.347e-4 -0.013512,-0.00211 -0.020378,-0.00536 -0.00778,-0.00368 -0.013953,-0.00828 -0.018413,-0.013539 -0.0045,-0.00531 -0.00753,-0.011201 -0.00879,-0.018035 -0.00124,-0.00674 -6.732e-4,-0.014122 0.0015,-0.022217 0.00182,-0.00676 0.00423,-0.012484 0.00737,-0.017311 0.00316,-0.00487 0.00706,-0.00855 0.011461,-0.011039 0.0045,-0.00255 0.00946,-0.00412 0.014929,-0.00449 0.00584,-4.016e-4 0.012272,4.724e-4 0.019122,0.00252 0.00675,0.00202 0.012787,0.00488 0.01761,0.00861 0.00478,0.0037 0.00811,0.00759 0.010063,0.011524 0.00194,0.00392 0.00252,0.0073 0.00162,0.010138 -5.315e-4,0.00167 -0.00202,0.00288 -0.00434,0.00372 -0.00223,7.992e-4 -0.00486,7.204e-4 -0.00746,-1.811e-4 -0.00229,-7.914e-4 -0.00421,-0.00204 -0.00582,-0.00379 -0.00161,-0.00175 -0.0026,-0.00366 -0.00299,-0.00585 -5.04e-4,-0.00283 -0.00194,-0.00541 -0.00425,-0.00777 -0.00224,-0.00229 -0.00513,-0.00398 -0.0085,-0.00507 -0.00272,-8.74e-4 -0.00557,-0.00112 -0.00859,-8.268e-4 -0.00298,2.953e-4 -0.0057,0.00119 -0.00809,0.00263 -0.00464,0.00278 -0.00871,0.00929 -0.012087,0.019063 z m 0.00923,0.041622 c 0.00473,0.00213 0.0094,0.00255 0.013709,9.803e-4 0.00439,-0.00159 0.00731,-0.00489 0.00889,-0.00998 0.00106,-0.0034 0.00109,-0.00661 2.677e-4,-0.00977 -8.11e-4,-0.00311 -0.00236,-0.00594 -0.00486,-0.00834 -0.00248,-0.00238 -0.00526,-0.00411 -0.00844,-0.00534 -0.00306,-0.00118 -0.00616,-0.0017 -0.00925,-0.00152 -0.00311,1.811e-4 -0.00585,0.00107 -0.00817,0.00273 -0.00218,0.00156 -0.00368,0.00389 -0.00453,0.00688 -0.00137,0.00483 -0.00103,0.00954 0.00132,0.014126 0.00236,0.0046 0.0061,0.008 0.011051,0.010232 z"
   id="path110"
   inkscape:connector-curvature="0"
   style="fill:#fefefe;fill-rule:nonzero" />
  <path
   class="fil2"
   d="m 3.08563,3.24686 c 1.654e-4,-0.00195 3.465e-4,-0.00394 5.472e-4,-0.00593 -0.00336,-0.00194 -0.00664,-0.00388 -0.00981,-0.00575 -0.0012,-7.086e-4 -0.00205,-0.00168 -0.00254,-0.00292 -4.96e-4,-0.00125 -7.086e-4,-0.00261 -5.944e-4,-0.0041 3.15e-5,-4.173e-4 1.22e-4,-7.834e-4 2.322e-4,-0.00113 1.221e-4,-3.78e-4 2.914e-4,-7.205e-4 5.04e-4,-0.00106 2.204e-4,-3.583e-4 4.488e-4,-6.496e-4 6.653e-4,-9.685e-4 2.087e-4,-3.032e-4 4.646e-4,-6.89e-4 8.071e-4,-0.00117 0.00405,-0.0057 0.00828,-0.011528 0.012638,-0.017689 8.74e-4,-0.00124 0.00156,-0.00219 0.00211,-0.00269 5.512e-4,-4.961e-4 0.00117,-5.866e-4 0.00183,-3.032e-4 0.00222,9.725e-4 0.00309,0.0034 0.00268,0.00744 -8.937e-4,0.00878 -0.00173,0.017461 -0.00258,0.026028 2.678e-4,1.496e-4 5.63e-4,3.228e-4 8.78e-4,4.961e-4 0.0011,6.102e-4 0.002,0.00135 0.00262,0.00217 6.26e-4,8.228e-4 8.662e-4,0.00204 7.008e-4,0.0036 -1.338e-4,0.0013 -5.196e-4,0.00209 -0.00112,0.00234 -6.024e-4,2.559e-4 -0.00144,9.45e-5 -0.00253,-5.433e-4 -4.488e-4,-2.638e-4 -8.662e-4,-5.118e-4 -0.00128,-7.205e-4 -2.205e-4,0.00202 -4.174e-4,0.00401 -6.063e-4,0.00599 -1.575e-4,0.00165 -5.394e-4,0.00273 -0.00109,0.00325 -5.315e-4,4.921e-4 -0.00118,5.157e-4 -0.00196,3.14e-5 -7.717e-4,-4.724e-4 -0.00136,-0.00125 -0.00174,-0.00237 -3.858e-4,-0.00112 -4.921e-4,-0.00242 -3.543e-4,-0.00402 z M 3.07836,3.228962 c 0.00275,0.00154 0.00561,0.00313 0.00852,0.00477 5.945e-4,-0.00633 0.00123,-0.012697 0.00184,-0.019138 -0.00354,0.00491 -0.00704,0.0097 -0.010358,0.01437 z"
   id="path112"
   inkscape:connector-curvature="0"
   style="fill:#848688;fill-rule:nonzero" />
  <path
   class="fil2"
   d="m 3.08563,3.24686 c 1.654e-4,-0.00195 3.465e-4,-0.00394 5.472e-4,-0.00593 -0.00336,-0.00194 -0.00664,-0.00388 -0.00981,-0.00575 -0.0012,-7.086e-4 -0.00205,-0.00168 -0.00254,-0.00292 -4.96e-4,-0.00125 -7.086e-4,-0.00261 -5.944e-4,-0.0041 3.15e-5,-4.173e-4 1.22e-4,-7.834e-4 2.322e-4,-0.00113 1.221e-4,-3.78e-4 2.914e-4,-7.205e-4 5.04e-4,-0.00106 2.204e-4,-3.583e-4 4.488e-4,-6.496e-4 6.653e-4,-9.685e-4 2.087e-4,-3.032e-4 4.646e-4,-6.89e-4 8.071e-4,-0.00117 0.00405,-0.0057 0.00828,-0.011528 0.012638,-0.017689 8.74e-4,-0.00124 0.00156,-0.00219 0.00211,-0.00269 5.512e-4,-4.961e-4 0.00117,-5.866e-4 0.00183,-3.032e-4 0.00222,9.725e-4 0.00309,0.0034 0.00268,0.00744 -8.937e-4,0.00878 -0.00173,0.017461 -0.00258,0.026028 2.678e-4,1.496e-4 5.63e-4,3.228e-4 8.78e-4,4.961e-4 0.0011,6.102e-4 0.002,0.00135 0.00262,0.00217 6.26e-4,8.228e-4 8.662e-4,0.00204 7.008e-4,0.0036 -1.338e-4,0.0013 -5.196e-4,0.00209 -0.00112,0.00234 -6.024e-4,2.559e-4 -0.00144,9.45e-5 -0.00253,-5.433e-4 -4.488e-4,-2.638e-4 -8.662e-4,-5.118e-4 -0.00128,-7.205e-4 -2.205e-4,0.00202 -4.174e-4,0.00401 -6.063e-4,0.00599 -1.575e-4,0.00165 -5.394e-4,0.00273 -0.00109,0.00325 -5.315e-4,4.921e-4 -0.00118,5.157e-4 -0.00196,3.14e-5 -7.717e-4,-4.724e-4 -0.00136,-0.00125 -0.00174,-0.00237 -3.858e-4,-0.00112 -4.921e-4,-0.00242 -3.543e-4,-0.00402 z M 3.07836,3.228962 c 0.00275,0.00154 0.00561,0.00313 0.00852,0.00477 5.945e-4,-0.00633 0.00123,-0.012697 0.00184,-0.019138 -0.00354,0.00491 -0.00704,0.0097 -0.010358,0.01437 z"
   id="path114"
   inkscape:connector-curvature="0"
   style="fill:#848688;fill-rule:nonzero" />
  <path
   class="fil2"
   d="m 3.08563,3.24686 c 1.654e-4,-0.00195 3.465e-4,-0.00394 5.472e-4,-0.00593 -0.00336,-0.00194 -0.00664,-0.00388 -0.00981,-0.00575 -0.0012,-7.086e-4 -0.00205,-0.00168 -0.00254,-0.00292 -4.96e-4,-0.00125 -7.086e-4,-0.00261 -5.944e-4,-0.0041 3.15e-5,-4.173e-4 1.22e-4,-7.834e-4 2.322e-4,-0.00113 1.221e-4,-3.78e-4 2.914e-4,-7.205e-4 5.04e-4,-0.00106 2.204e-4,-3.583e-4 4.488e-4,-6.496e-4 6.653e-4,-9.685e-4 2.087e-4,-3.032e-4 4.646e-4,-6.89e-4 8.071e-4,-0.00117 0.00405,-0.0057 0.00828,-0.011528 0.012638,-0.017689 8.74e-4,-0.00124 0.00156,-0.00219 0.00211,-0.00269 5.512e-4,-4.961e-4 0.00117,-5.866e-4 0.00183,-3.032e-4 0.00222,9.725e-4 0.00309,0.0034 0.00268,0.00744 -8.937e-4,0.00878 -0.00173,0.017461 -0.00258,0.026028 2.678e-4,1.496e-4 5.63e-4,3.228e-4 8.78e-4,4.961e-4 0.0011,6.102e-4 0.002,0.00135 0.00262,0.00217 6.26e-4,8.228e-4 8.662e-4,0.00204 7.008e-4,0.0036 -1.338e-4,0.0013 -5.196e-4,0.00209 -0.00112,0.00234 -6.024e-4,2.559e-4 -0.00144,9.45e-5 -0.00253,-5.433e-4 -4.488e-4,-2.638e-4 -8.662e-4,-5.118e-4 -0.00128,-7.205e-4 -2.205e-4,0.00202 -4.174e-4,0.00401 -6.063e-4,0.00599 -1.575e-4,0.00165 -5.394e-4,0.00273 -0.00109,0.00325 -5.315e-4,4.921e-4 -0.00118,5.157e-4 -0.00196,3.14e-5 -7.717e-4,-4.724e-4 -0.00136,-0.00125 -0.00174,-0.00237 -3.858e-4,-0.00112 -4.921e-4,-0.00242 -3.543e-4,-0.00402 z M 3.07836,3.228962 c 0.00275,0.00154 0.00561,0.00313 0.00852,0.00477 5.945e-4,-0.00633 0.00123,-0.012697 0.00184,-0.019138 -0.00354,0.00491 -0.00704,0.0097 -0.010358,0.01437 z"
   id="path116"
   inkscape:connector-curvature="0"
   style="fill:#848688;fill-rule:nonzero" />
  <path
   class="fil2"
   d="M 3.14151,3.36337 C 3.1418289,3.36118 3.14269,3.3595 3.144,3.35833 3.14533,3.35714 3.14708,3.3567 3.14938,3.3571 c 0.0023,3.976e-4 0.00486,0.00167 0.00776,0.00387 0.00253,0.00191 0.00465,0.00393 0.00646,0.00612 0.00178,0.00216 0.00331,0.00443 0.00442,0.00672 0.00111,0.0023 0.00187,0.00453 0.00223,0.00665 3.7e-4,0.00215 3.858e-4,0.00406 7.08e-5,0.00589 -4.015e-4,0.0023 -0.00128,0.00392 -0.0027,0.00482 -0.00141,8.858e-4 -0.00329,0.00102 -0.00565,3.662e-4 0.00175,0.00224 0.00311,0.00443 0.0041,0.00666 9.921e-4,0.00221 0.00165,0.00441 0.00199,0.00652 3.346e-4,0.00213 3.425e-4,0.00418 7.9e-6,0.00611 -4.843e-4,0.00279 -0.00159,0.0048 -0.00324,0.00596 -0.00167,0.00117 -0.00384,0.0012 -0.00654,2.559e-4 -0.00261,-9.213e-4 -0.00551,-0.00284 -0.00868,-0.00569 -0.00322,-0.0029 -0.00579,-0.00604 -0.00785,-0.00926 -0.00204,-0.00318 -0.00339,-0.00626 -0.00416,-0.00939 -7.678e-4,-0.00312 -10e-4,-0.006 -6.3e-4,-0.00865 8.111e-4,-0.00574 0.00377,-0.00771 0.00892,-0.00583 -0.00361,-0.00534 -0.00504,-0.010272 -0.00438,-0.014846 z m 0.01785,0.03965 c 2.795e-4,-0.00166 1.968e-4,-0.00349 -2.323e-4,-0.00534 -4.37e-4,-0.00187 -0.00121,-0.00363 -0.0023,-0.00533 -0.00109,-0.00168 -0.00234,-0.00311 -0.00381,-0.00433 -0.00205,-0.0017 -0.00383,-0.00239 -0.00538,-0.00203 -0.00156,3.622e-4 -0.00257,0.00184 -0.00296,0.00446 -2.441e-4,0.00164 -1.378e-4,0.00344 2.913e-4,0.00525 4.291e-4,0.00182 0.00113,0.00355 0.00207,0.00515 9.724e-4,0.00167 0.0021,0.00308 0.00349,0.0043 0.00141,0.00124 0.00272,0.00204 0.00398,0.0023 0.00123,2.638e-4 0.00229,5.12e-5 0.00314,-6.968e-4 8.465e-4,-7.441e-4 0.00142,-0.00198 0.00171,-0.00373 z M 3.15627,3.367784 c -0.00194,-0.00149 -0.00356,-0.00202 -0.00489,-0.0016 -0.00135,4.213e-4 -0.00216,0.00167 -0.00249,0.00376 -2.953e-4,0.00187 3.15e-5,0.00395 0.00101,0.00615 9.803e-4,0.00221 0.00233,0.00407 0.00424,0.00561 9.645e-4,7.795e-4 0.00189,0.00136 0.00272,0.00167 8.543e-4,3.11e-4 0.00162,3.385e-4 0.00228,1.968e-4 6.89e-4,-1.535e-4 0.00125,-4.921e-4 0.00169,-0.00111 4.252e-4,-5.866e-4 7.481e-4,-0.00137 9.174e-4,-0.00239 2.283e-4,-0.00138 1.614e-4,-0.00282 -2.166e-4,-0.00432 -3.74e-4,-0.00148 -0.00105,-0.00298 -0.00196,-0.0044 -9.055e-4,-0.00142 -0.00197,-0.00257 -0.0033,-0.00358 z"
   id="path118"
   inkscape:connector-curvature="0"
   style="fill:#848688;fill-rule:nonzero" />
  <path
   class="fil2"
   d="M 3.14151,3.36337 C 3.1418289,3.36118 3.14269,3.3595 3.144,3.35833 3.14533,3.35714 3.14708,3.3567 3.14938,3.3571 c 0.0023,3.976e-4 0.00486,0.00167 0.00776,0.00387 0.00253,0.00191 0.00465,0.00393 0.00646,0.00612 0.00178,0.00216 0.00331,0.00443 0.00442,0.00672 0.00111,0.0023 0.00187,0.00453 0.00223,0.00665 3.7e-4,0.00215 3.858e-4,0.00406 7.08e-5,0.00589 -4.015e-4,0.0023 -0.00128,0.00392 -0.0027,0.00482 -0.00141,8.858e-4 -0.00329,0.00102 -0.00565,3.662e-4 0.00175,0.00224 0.00311,0.00443 0.0041,0.00666 9.921e-4,0.00221 0.00165,0.00441 0.00199,0.00652 3.346e-4,0.00213 3.425e-4,0.00418 7.9e-6,0.00611 -4.843e-4,0.00279 -0.00159,0.0048 -0.00324,0.00596 -0.00167,0.00117 -0.00384,0.0012 -0.00654,2.559e-4 -0.00261,-9.213e-4 -0.00551,-0.00284 -0.00868,-0.00569 -0.00322,-0.0029 -0.00579,-0.00604 -0.00785,-0.00926 -0.00204,-0.00318 -0.00339,-0.00626 -0.00416,-0.00939 -7.678e-4,-0.00312 -10e-4,-0.006 -6.3e-4,-0.00865 8.111e-4,-0.00574 0.00377,-0.00771 0.00892,-0.00583 -0.00361,-0.00534 -0.00504,-0.010272 -0.00438,-0.014846 z m 0.01785,0.03965 c 2.795e-4,-0.00166 1.968e-4,-0.00349 -2.323e-4,-0.00534 -4.37e-4,-0.00187 -0.00121,-0.00363 -0.0023,-0.00533 -0.00109,-0.00168 -0.00234,-0.00311 -0.00381,-0.00433 -0.00205,-0.0017 -0.00383,-0.00239 -0.00538,-0.00203 -0.00156,3.622e-4 -0.00257,0.00184 -0.00296,0.00446 -2.441e-4,0.00164 -1.378e-4,0.00344 2.913e-4,0.00525 4.291e-4,0.00182 0.00113,0.00355 0.00207,0.00515 9.724e-4,0.00167 0.0021,0.00308 0.00349,0.0043 0.00141,0.00124 0.00272,0.00204 0.00398,0.0023 0.00123,2.638e-4 0.00229,5.12e-5 0.00314,-6.968e-4 8.465e-4,-7.441e-4 0.00142,-0.00198 0.00171,-0.00373 z M 3.15627,3.367784 c -0.00194,-0.00149 -0.00356,-0.00202 -0.00489,-0.0016 -0.00135,4.213e-4 -0.00216,0.00167 -0.00249,0.00376 -2.953e-4,0.00187 3.15e-5,0.00395 0.00101,0.00615 9.803e-4,0.00221 0.00233,0.00407 0.00424,0.00561 9.645e-4,7.795e-4 0.00189,0.00136 0.00272,0.00167 8.543e-4,3.11e-4 0.00162,3.385e-4 0.00228,1.968e-4 6.89e-4,-1.535e-4 0.00125,-4.921e-4 0.00169,-0.00111 4.252e-4,-5.866e-4 7.481e-4,-0.00137 9.174e-4,-0.00239 2.283e-4,-0.00138 1.614e-4,-0.00282 -2.166e-4,-0.00432 -3.74e-4,-0.00148 -0.00105,-0.00298 -0.00196,-0.0044 -9.055e-4,-0.00142 -0.00197,-0.00257 -0.0033,-0.00358 z"
   id="path120"
   inkscape:connector-curvature="0"
   style="fill:#848688;fill-rule:nonzero" />
  <path
   class="fil2"
   d="M 3.14151,3.36337 C 3.1418289,3.36118 3.14269,3.3595 3.144,3.35833 3.14533,3.35714 3.14708,3.3567 3.14938,3.3571 c 0.0023,3.976e-4 0.00486,0.00167 0.00776,0.00387 0.00253,0.00191 0.00465,0.00393 0.00646,0.00612 0.00178,0.00216 0.00331,0.00443 0.00442,0.00672 0.00111,0.0023 0.00187,0.00453 0.00223,0.00665 3.7e-4,0.00215 3.858e-4,0.00406 7.08e-5,0.00589 -4.015e-4,0.0023 -0.00128,0.00392 -0.0027,0.00482 -0.00141,8.858e-4 -0.00329,0.00102 -0.00565,3.662e-4 0.00175,0.00224 0.00311,0.00443 0.0041,0.00666 9.921e-4,0.00221 0.00165,0.00441 0.00199,0.00652 3.346e-4,0.00213 3.425e-4,0.00418 7.9e-6,0.00611 -4.843e-4,0.00279 -0.00159,0.0048 -0.00324,0.00596 -0.00167,0.00117 -0.00384,0.0012 -0.00654,2.559e-4 -0.00261,-9.213e-4 -0.00551,-0.00284 -0.00868,-0.00569 -0.00322,-0.0029 -0.00579,-0.00604 -0.00785,-0.00926 -0.00204,-0.00318 -0.00339,-0.00626 -0.00416,-0.00939 -7.678e-4,-0.00312 -10e-4,-0.006 -6.3e-4,-0.00865 8.111e-4,-0.00574 0.00377,-0.00771 0.00892,-0.00583 -0.00361,-0.00534 -0.00504,-0.010272 -0.00438,-0.014846 z m 0.01785,0.03965 c 2.795e-4,-0.00166 1.968e-4,-0.00349 -2.323e-4,-0.00534 -4.37e-4,-0.00187 -0.00121,-0.00363 -0.0023,-0.00533 -0.00109,-0.00168 -0.00234,-0.00311 -0.00381,-0.00433 -0.00205,-0.0017 -0.00383,-0.00239 -0.00538,-0.00203 -0.00156,3.622e-4 -0.00257,0.00184 -0.00296,0.00446 -2.441e-4,0.00164 -1.378e-4,0.00344 2.913e-4,0.00525 4.291e-4,0.00182 0.00113,0.00355 0.00207,0.00515 9.724e-4,0.00167 0.0021,0.00308 0.00349,0.0043 0.00141,0.00124 0.00272,0.00204 0.00398,0.0023 0.00123,2.638e-4 0.00229,5.12e-5 0.00314,-6.968e-4 8.465e-4,-7.441e-4 0.00142,-0.00198 0.00171,-0.00373 z M 3.15627,3.367784 c -0.00194,-0.00149 -0.00356,-0.00202 -0.00489,-0.0016 -0.00135,4.213e-4 -0.00216,0.00167 -0.00249,0.00376 -2.953e-4,0.00187 3.15e-5,0.00395 0.00101,0.00615 9.803e-4,0.00221 0.00233,0.00407 0.00424,0.00561 9.645e-4,7.795e-4 0.00189,0.00136 0.00272,0.00167 8.543e-4,3.11e-4 0.00162,3.385e-4 0.00228,1.968e-4 6.89e-4,-1.535e-4 0.00125,-4.921e-4 0.00169,-0.00111 4.252e-4,-5.866e-4 7.481e-4,-0.00137 9.174e-4,-0.00239 2.283e-4,-0.00138 1.614e-4,-0.00282 -2.166e-4,-0.00432 -3.74e-4,-0.00148 -0.00105,-0.00298 -0.00196,-0.0044 -9.055e-4,-0.00142 -0.00197,-0.00257 -0.0033,-0.00358 z"
   id="path122"
   inkscape:connector-curvature="0"
   style="fill:#848688;fill-rule:nonzero" />
  <path
   class="fil2"
   d="M 3.30428,3.50855 C 3.30084,3.5087232 3.29727,3.5081051 3.29354,3.50671 3.29006,3.50541 3.28641,3.50327 3.282556,3.50032 3.278946,3.49755 3.275816,3.49456 3.273126,3.49125 3.270446,3.48795 3.268276,3.48458 3.266586,3.481104 c -0.00167,-0.00342 -0.00276,-0.00672 -0.00323,-0.00994 -4.685e-4,-0.00324 -3.228e-4,-0.00612 3.74e-4,-0.00878 7.559e-4,-0.00288 0.00203,-0.00511 0.00399,-0.0068 0.00198,-0.00171 0.0045,-0.00271 0.00757,-0.00296 0.00311,-2.519e-4 0.00661,3.307e-4 0.010398,0.00159 0.00393,0.00131 0.0083,0.00352 0.012909,0.00654 0.00537,0.00352 0.010063,0.00747 0.014087,0.011807 0.00402,0.00433 0.00709,0.00893 0.00931,0.013744 0.00226,0.00489 0.00368,0.00999 0.00404,0.015272 3.661e-4,0.00537 -3.15e-4,0.010634 -0.00202,0.015811 -0.00187,0.00569 -0.0044,0.010035 -0.00756,0.012968 -0.00313,0.00291 -0.00679,0.00445 -0.010846,0.00483 C 3.301688,3.5355482 3.297388,3.5347057 3.292825,3.532636 3.288215,3.530546 3.283585,3.527486 3.278664,3.523376 3.273774,3.519306 3.269884,3.515306 3.266857,3.511191 3.263857,3.507121 3.261717,3.503411 3.260467,3.49999 3.259227,3.49662 3.258877,3.49411 3.259347,3.49231 c 2.913e-4,-0.0011 0.00104,-0.00167 0.00237,-0.00169 0.00136,-1.97e-5 0.00289,7.086e-4 0.00458,0.00204 0.00162,0.00127 0.00293,0.00276 0.00398,0.00433 0.00109,0.00163 0.00178,0.00339 0.00205,0.00528 3.15e-4,0.00224 0.00127,0.00456 0.00289,0.00709 0.00163,0.00253 0.0037,0.00476 0.00612,0.00672 0.00217,0.00177 0.00435,0.00303 0.00648,0.00376 0.00219,7.481e-4 0.0043,0.001 0.00618,6.851e-4 0.00386,-6.575e-4 0.00728,-0.00465 0.010276,-0.011972 z M 3.307,3.494093 c 6.063e-4,-0.00199 7.913e-4,-0.0042 5.118e-4,-0.00641 -2.835e-4,-0.00225 -9.449e-4,-0.00449 -0.00206,-0.00674 -0.00111,-0.00226 -0.00245,-0.00438 -0.00413,-0.00642 -0.00168,-0.00205 -0.00367,-0.00376 -0.00588,-0.00526 -0.00393,-0.00267 -0.00756,-0.00369 -0.010823,-0.00308 -0.0031,5.787e-4 -0.00519,0.0027 -0.00624,0.00656 -0.00104,0.0038 -7.205e-4,0.00765 0.0011,0.011665 0.00185,0.0041 0.00491,0.00762 0.00885,0.010555 0.00245,0.00183 0.00487,0.00305 0.00739,0.00381 0.00257,7.835e-4 0.00494,8.347e-4 0.00701,1.181e-4 0.00203,-7.047e-4 0.00352,-0.00235 0.00426,-0.0048 z"
   id="path124"
   inkscape:connector-curvature="0"
   style="fill:#848688;fill-rule:nonzero" />
  <path
   class="fil2"
   d="M 3.30428,3.50855 C 3.30084,3.5087232 3.29727,3.5081051 3.29354,3.50671 3.29006,3.50541 3.28641,3.50327 3.282556,3.50032 3.278946,3.49755 3.275816,3.49456 3.273126,3.49125 3.270446,3.48795 3.268276,3.48458 3.266586,3.481104 c -0.00167,-0.00342 -0.00276,-0.00672 -0.00323,-0.00994 -4.685e-4,-0.00324 -3.228e-4,-0.00612 3.74e-4,-0.00878 7.559e-4,-0.00288 0.00203,-0.00511 0.00399,-0.0068 0.00198,-0.00171 0.0045,-0.00271 0.00757,-0.00296 0.00311,-2.519e-4 0.00661,3.307e-4 0.010398,0.00159 0.00393,0.00131 0.0083,0.00352 0.012909,0.00654 0.00537,0.00352 0.010063,0.00747 0.014087,0.011807 0.00402,0.00433 0.00709,0.00893 0.00931,0.013744 0.00226,0.00489 0.00368,0.00999 0.00404,0.015272 3.661e-4,0.00537 -3.15e-4,0.010634 -0.00202,0.015811 -0.00187,0.00569 -0.0044,0.010035 -0.00756,0.012968 -0.00313,0.00291 -0.00679,0.00445 -0.010846,0.00483 C 3.301688,3.5355482 3.297388,3.5347057 3.292825,3.532636 3.288215,3.530546 3.283585,3.527486 3.278664,3.523376 3.273774,3.519306 3.269884,3.515306 3.266857,3.511191 3.263857,3.507121 3.261717,3.503411 3.260467,3.49999 3.259227,3.49662 3.258877,3.49411 3.259347,3.49231 c 2.913e-4,-0.0011 0.00104,-0.00167 0.00237,-0.00169 0.00136,-1.97e-5 0.00289,7.086e-4 0.00458,0.00204 0.00162,0.00127 0.00293,0.00276 0.00398,0.00433 0.00109,0.00163 0.00178,0.00339 0.00205,0.00528 3.15e-4,0.00224 0.00127,0.00456 0.00289,0.00709 0.00163,0.00253 0.0037,0.00476 0.00612,0.00672 0.00217,0.00177 0.00435,0.00303 0.00648,0.00376 0.00219,7.481e-4 0.0043,0.001 0.00618,6.851e-4 0.00386,-6.575e-4 0.00728,-0.00465 0.010276,-0.011972 z M 3.307,3.494093 c 6.063e-4,-0.00199 7.913e-4,-0.0042 5.118e-4,-0.00641 -2.835e-4,-0.00225 -9.449e-4,-0.00449 -0.00206,-0.00674 -0.00111,-0.00226 -0.00245,-0.00438 -0.00413,-0.00642 -0.00168,-0.00205 -0.00367,-0.00376 -0.00588,-0.00526 -0.00393,-0.00267 -0.00756,-0.00369 -0.010823,-0.00308 -0.0031,5.787e-4 -0.00519,0.0027 -0.00624,0.00656 -0.00104,0.0038 -7.205e-4,0.00765 0.0011,0.011665 0.00185,0.0041 0.00491,0.00762 0.00885,0.010555 0.00245,0.00183 0.00487,0.00305 0.00739,0.00381 0.00257,7.835e-4 0.00494,8.347e-4 0.00701,1.181e-4 0.00203,-7.047e-4 0.00352,-0.00235 0.00426,-0.0048 z"
   id="path126"
   inkscape:connector-curvature="0"
   style="fill:#848688;fill-rule:nonzero" />
  <path
   class="fil2"
   d="M 3.30428,3.50855 C 3.30084,3.5087232 3.29727,3.5081051 3.29354,3.50671 3.29006,3.50541 3.28641,3.50327 3.282556,3.50032 3.278946,3.49755 3.275816,3.49456 3.273126,3.49125 3.270446,3.48795 3.268276,3.48458 3.266586,3.481104 c -0.00167,-0.00342 -0.00276,-0.00672 -0.00323,-0.00994 -4.685e-4,-0.00324 -3.228e-4,-0.00612 3.74e-4,-0.00878 7.559e-4,-0.00288 0.00203,-0.00511 0.00399,-0.0068 0.00198,-0.00171 0.0045,-0.00271 0.00757,-0.00296 0.00311,-2.519e-4 0.00661,3.307e-4 0.010398,0.00159 0.00393,0.00131 0.0083,0.00352 0.012909,0.00654 0.00537,0.00352 0.010063,0.00747 0.014087,0.011807 0.00402,0.00433 0.00709,0.00893 0.00931,0.013744 0.00226,0.00489 0.00368,0.00999 0.00404,0.015272 3.661e-4,0.00537 -3.15e-4,0.010634 -0.00202,0.015811 -0.00187,0.00569 -0.0044,0.010035 -0.00756,0.012968 -0.00313,0.00291 -0.00679,0.00445 -0.010846,0.00483 C 3.301688,3.5355482 3.297388,3.5347057 3.292825,3.532636 3.288215,3.530546 3.283585,3.527486 3.278664,3.523376 3.273774,3.519306 3.269884,3.515306 3.266857,3.511191 3.263857,3.507121 3.261717,3.503411 3.260467,3.49999 3.259227,3.49662 3.258877,3.49411 3.259347,3.49231 c 2.913e-4,-0.0011 0.00104,-0.00167 0.00237,-0.00169 0.00136,-1.97e-5 0.00289,7.086e-4 0.00458,0.00204 0.00162,0.00127 0.00293,0.00276 0.00398,0.00433 0.00109,0.00163 0.00178,0.00339 0.00205,0.00528 3.15e-4,0.00224 0.00127,0.00456 0.00289,0.00709 0.00163,0.00253 0.0037,0.00476 0.00612,0.00672 0.00217,0.00177 0.00435,0.00303 0.00648,0.00376 0.00219,7.481e-4 0.0043,0.001 0.00618,6.851e-4 0.00386,-6.575e-4 0.00728,-0.00465 0.010276,-0.011972 z M 3.307,3.494093 c 6.063e-4,-0.00199 7.913e-4,-0.0042 5.118e-4,-0.00641 -2.835e-4,-0.00225 -9.449e-4,-0.00449 -0.00206,-0.00674 -0.00111,-0.00226 -0.00245,-0.00438 -0.00413,-0.00642 -0.00168,-0.00205 -0.00367,-0.00376 -0.00588,-0.00526 -0.00393,-0.00267 -0.00756,-0.00369 -0.010823,-0.00308 -0.0031,5.787e-4 -0.00519,0.0027 -0.00624,0.00656 -0.00104,0.0038 -7.205e-4,0.00765 0.0011,0.011665 0.00185,0.0041 0.00491,0.00762 0.00885,0.010555 0.00245,0.00183 0.00487,0.00305 0.00739,0.00381 0.00257,7.835e-4 0.00494,8.347e-4 0.00701,1.181e-4 0.00203,-7.047e-4 0.00352,-0.00235 0.00426,-0.0048 z"
   id="path128"
   inkscape:connector-curvature="0"
   style="fill:#848688;fill-rule:nonzero" />
  <path
   class="fil2"
   d="m 3.07313,3.29576 c 0.00406,0.00328 0.00828,0.00665 0.012598,0.010134 0.00127,0.00102 0.00218,0.00203 0.00271,0.0031 5.236e-4,0.00106 6.969e-4,0.00229 5.63e-4,0.00363 -8.27e-5,8.189e-4 -5.394e-4,0.00166 -0.00136,0.00244 -8.267e-4,7.874e-4 -0.00171,0.00163 -0.00272,0.00254 -0.00101,9.055e-4 -0.00206,0.00216 -0.00316,0.00381 -0.00107,0.0016 -0.00217,0.0037 -0.00319,0.00643 -4.527e-4,0.00122 -7.953e-4,0.00226 -0.001,0.00311 -2.008e-4,8.031e-4 -4.449e-4,0.00193 -7.441e-4,0.0033 -3.071e-4,0.0014 -5.079e-4,0.00246 -6.851e-4,0.00313 -4.409e-4,0.00164 -9.291e-4,0.00257 -0.00144,0.00284 -5.197e-4,2.716e-4 -0.00118,5.11e-5 -0.00193,-6.733e-4 -7.402e-4,-7.126e-4 -0.0013,-0.00161 -0.00166,-0.00278 -3.543e-4,-0.00116 -4.724e-4,-0.00246 -3.307e-4,-0.00398 1.102e-4,-0.00113 4.331e-4,-0.00257 9.134e-4,-0.00427 4.842e-4,-0.0017 0.00122,-0.00362 0.00222,-0.00581 9.921e-4,-0.00216 0.00221,-0.00423 0.00361,-0.00631 0.00142,-0.00212 0.00308,-0.004 0.00497,-0.00574 -0.00343,-0.00282 -0.00671,-0.00557 -0.00995,-0.00827 -9.882e-4,-8.267e-4 -0.00173,-0.00174 -0.00217,-0.0027 -4.449e-4,-9.646e-4 -6.024e-4,-0.00211 -4.961e-4,-0.00333 1.102e-4,-0.00126 4.488e-4,-0.0019 9.921e-4,-0.00183 5.748e-4,6.3e-5 0.00129,4.528e-4 0.00225,0.00122 z"
   id="path130"
   inkscape:connector-curvature="0"
   style="fill:#848688;fill-rule:nonzero" />
  <path
   class="fil2"
   d="m 3.07313,3.29576 c 0.00406,0.00328 0.00828,0.00665 0.012598,0.010134 0.00127,0.00102 0.00218,0.00203 0.00271,0.0031 5.236e-4,0.00106 6.969e-4,0.00229 5.63e-4,0.00363 -8.27e-5,8.189e-4 -5.394e-4,0.00166 -0.00136,0.00244 -8.267e-4,7.874e-4 -0.00171,0.00163 -0.00272,0.00254 -0.00101,9.055e-4 -0.00206,0.00216 -0.00316,0.00381 -0.00107,0.0016 -0.00217,0.0037 -0.00319,0.00643 -4.527e-4,0.00122 -7.953e-4,0.00226 -0.001,0.00311 -2.008e-4,8.031e-4 -4.449e-4,0.00193 -7.441e-4,0.0033 -3.071e-4,0.0014 -5.079e-4,0.00246 -6.851e-4,0.00313 -4.409e-4,0.00164 -9.291e-4,0.00257 -0.00144,0.00284 -5.197e-4,2.716e-4 -0.00118,5.11e-5 -0.00193,-6.733e-4 -7.402e-4,-7.126e-4 -0.0013,-0.00161 -0.00166,-0.00278 -3.543e-4,-0.00116 -4.724e-4,-0.00246 -3.307e-4,-0.00398 1.102e-4,-0.00113 4.331e-4,-0.00257 9.134e-4,-0.00427 4.842e-4,-0.0017 0.00122,-0.00362 0.00222,-0.00581 9.921e-4,-0.00216 0.00221,-0.00423 0.00361,-0.00631 0.00142,-0.00212 0.00308,-0.004 0.00497,-0.00574 -0.00343,-0.00282 -0.00671,-0.00557 -0.00995,-0.00827 -9.882e-4,-8.267e-4 -0.00173,-0.00174 -0.00217,-0.0027 -4.449e-4,-9.646e-4 -6.024e-4,-0.00211 -4.961e-4,-0.00333 1.102e-4,-0.00126 4.488e-4,-0.0019 9.921e-4,-0.00183 5.748e-4,6.3e-5 0.00129,4.528e-4 0.00225,0.00122 z"
   id="path132"
   inkscape:connector-curvature="0"
   style="fill:#848688;fill-rule:nonzero" />
  <path
   class="fil2"
   d="m 3.07313,3.29576 c 0.00406,0.00328 0.00828,0.00665 0.012598,0.010134 0.00127,0.00102 0.00218,0.00203 0.00271,0.0031 5.236e-4,0.00106 6.969e-4,0.00229 5.63e-4,0.00363 -8.27e-5,8.189e-4 -5.394e-4,0.00166 -0.00136,0.00244 -8.267e-4,7.874e-4 -0.00171,0.00163 -0.00272,0.00254 -0.00101,9.055e-4 -0.00206,0.00216 -0.00316,0.00381 -0.00107,0.0016 -0.00217,0.0037 -0.00319,0.00643 -4.527e-4,0.00122 -7.953e-4,0.00226 -0.001,0.00311 -2.008e-4,8.031e-4 -4.449e-4,0.00193 -7.441e-4,0.0033 -3.071e-4,0.0014 -5.079e-4,0.00246 -6.851e-4,0.00313 -4.409e-4,0.00164 -9.291e-4,0.00257 -0.00144,0.00284 -5.197e-4,2.716e-4 -0.00118,5.11e-5 -0.00193,-6.733e-4 -7.402e-4,-7.126e-4 -0.0013,-0.00161 -0.00166,-0.00278 -3.543e-4,-0.00116 -4.724e-4,-0.00246 -3.307e-4,-0.00398 1.102e-4,-0.00113 4.331e-4,-0.00257 9.134e-4,-0.00427 4.842e-4,-0.0017 0.00122,-0.00362 0.00222,-0.00581 9.921e-4,-0.00216 0.00221,-0.00423 0.00361,-0.00631 0.00142,-0.00212 0.00308,-0.004 0.00497,-0.00574 -0.00343,-0.00282 -0.00671,-0.00557 -0.00995,-0.00827 -9.882e-4,-8.267e-4 -0.00173,-0.00174 -0.00217,-0.0027 -4.449e-4,-9.646e-4 -6.024e-4,-0.00211 -4.961e-4,-0.00333 1.102e-4,-0.00126 4.488e-4,-0.0019 9.921e-4,-0.00183 5.748e-4,6.3e-5 0.00129,4.528e-4 0.00225,0.00122 z"
   id="path134"
   inkscape:connector-curvature="0"
   style="fill:#848688;fill-rule:nonzero" />
  <path
   class="fil2"
   d="M 3.1529,3.49907 C 3.1523764,3.50214 3.15169,3.50459 3.15095,3.50633 3.1502059,3.50808 3.14921,3.50928 3.14793,3.50985 3.14631,3.5105626 3.1444,3.5101807 3.14219,3.5089878 c -0.00213,-0.00115 -0.00433,-0.00309 -0.00667,-0.0059 -0.00263,-0.00317 -0.00483,-0.00674 -0.00663,-0.010673 -0.0018,-0.00394 -0.00301,-0.00781 -0.00361,-0.011634 -3.188e-4,-0.00207 -4.409e-4,-0.00416 -4.133e-4,-0.0062 2.36e-5,-0.0021 1.22e-4,-0.00417 4.291e-4,-0.0063 3.937e-4,-0.00274 8.937e-4,-0.00507 0.00146,-0.00696 5.787e-4,-0.00189 0.00124,-0.0034 0.00207,-0.00439 0.00135,-0.00161 0.00314,-0.00205 0.00535,-0.00133 0.00221,7.165e-4 0.0047,0.00252 0.00754,0.00556 0.00193,0.00206 0.00363,0.00424 0.0051,0.0066 0.00143,0.0023 0.00274,0.00479 0.00377,0.00739 10e-4,0.00254 0.00181,0.00522 0.00233,0.00796 9.37e-4,0.0049 9.567e-4,0.010201 -2.36e-5,0.015957 z M 3.14515,3.48963 c 5.591e-4,-0.00341 7.914e-4,-0.00649 7.362e-4,-0.00915 -5.9e-5,-0.00268 -4.291e-4,-0.00509 -0.0012,-0.00727 -7.953e-4,-0.00224 -0.00204,-0.00426 -0.00375,-0.00611 -0.00239,-0.00259 -0.00418,-0.00308 -0.00548,-0.00154 -0.00127,0.0015 -0.0023,0.00475 -0.00306,0.00986 -5.158e-4,0.00342 -7.362e-4,0.00643 -6.85e-4,0.00903 5.51e-5,0.00265 4.724e-4,0.005 0.00119,0.00714 7.204e-4,0.00214 0.00183,0.00411 0.00342,0.00596 0.00164,0.00191 0.00299,0.00286 0.00411,0.00282 0.00109,-4.73e-5 0.00207,-9.764e-4 0.00276,-0.00267 7.481e-4,-0.00183 0.00136,-0.00444 0.00196,-0.00808 z"
   id="path136"
   inkscape:connector-curvature="0"
   style="fill:#848688;fill-rule:nonzero" />
  <path
   class="fil2"
   d="M 3.1529,3.49907 C 3.1523764,3.50214 3.15169,3.50459 3.15095,3.50633 3.1502059,3.50808 3.14921,3.50928 3.14793,3.50985 3.14631,3.5105626 3.1444,3.5101807 3.14219,3.5089878 c -0.00213,-0.00115 -0.00433,-0.00309 -0.00667,-0.0059 -0.00263,-0.00317 -0.00483,-0.00674 -0.00663,-0.010673 -0.0018,-0.00394 -0.00301,-0.00781 -0.00361,-0.011634 -3.188e-4,-0.00207 -4.409e-4,-0.00416 -4.133e-4,-0.0062 2.36e-5,-0.0021 1.22e-4,-0.00417 4.291e-4,-0.0063 3.937e-4,-0.00274 8.937e-4,-0.00507 0.00146,-0.00696 5.787e-4,-0.00189 0.00124,-0.0034 0.00207,-0.00439 0.00135,-0.00161 0.00314,-0.00205 0.00535,-0.00133 0.00221,7.165e-4 0.0047,0.00252 0.00754,0.00556 0.00193,0.00206 0.00363,0.00424 0.0051,0.0066 0.00143,0.0023 0.00274,0.00479 0.00377,0.00739 10e-4,0.00254 0.00181,0.00522 0.00233,0.00796 9.37e-4,0.0049 9.567e-4,0.010201 -2.36e-5,0.015957 z M 3.14515,3.48963 c 5.591e-4,-0.00341 7.914e-4,-0.00649 7.362e-4,-0.00915 -5.9e-5,-0.00268 -4.291e-4,-0.00509 -0.0012,-0.00727 -7.953e-4,-0.00224 -0.00204,-0.00426 -0.00375,-0.00611 -0.00239,-0.00259 -0.00418,-0.00308 -0.00548,-0.00154 -0.00127,0.0015 -0.0023,0.00475 -0.00306,0.00986 -5.158e-4,0.00342 -7.362e-4,0.00643 -6.85e-4,0.00903 5.51e-5,0.00265 4.724e-4,0.005 0.00119,0.00714 7.204e-4,0.00214 0.00183,0.00411 0.00342,0.00596 0.00164,0.00191 0.00299,0.00286 0.00411,0.00282 0.00109,-4.73e-5 0.00207,-9.764e-4 0.00276,-0.00267 7.481e-4,-0.00183 0.00136,-0.00444 0.00196,-0.00808 z"
   id="path138"
   inkscape:connector-curvature="0"
   style="fill:#848688;fill-rule:nonzero" />
  <path
   class="fil2"
   d="M 3.1529,3.49907 C 3.1523764,3.50214 3.15169,3.50459 3.15095,3.50633 3.1502059,3.50808 3.14921,3.50928 3.14793,3.50985 3.14631,3.5105626 3.1444,3.5101807 3.14219,3.5089878 c -0.00213,-0.00115 -0.00433,-0.00309 -0.00667,-0.0059 -0.00263,-0.00317 -0.00483,-0.00674 -0.00663,-0.010673 -0.0018,-0.00394 -0.00301,-0.00781 -0.00361,-0.011634 -3.188e-4,-0.00207 -4.409e-4,-0.00416 -4.133e-4,-0.0062 2.36e-5,-0.0021 1.22e-4,-0.00417 4.291e-4,-0.0063 3.937e-4,-0.00274 8.937e-4,-0.00507 0.00146,-0.00696 5.787e-4,-0.00189 0.00124,-0.0034 0.00207,-0.00439 0.00135,-0.00161 0.00314,-0.00205 0.00535,-0.00133 0.00221,7.165e-4 0.0047,0.00252 0.00754,0.00556 0.00193,0.00206 0.00363,0.00424 0.0051,0.0066 0.00143,0.0023 0.00274,0.00479 0.00377,0.00739 10e-4,0.00254 0.00181,0.00522 0.00233,0.00796 9.37e-4,0.0049 9.567e-4,0.010201 -2.36e-5,0.015957 z M 3.14515,3.48963 c 5.591e-4,-0.00341 7.914e-4,-0.00649 7.362e-4,-0.00915 -5.9e-5,-0.00268 -4.291e-4,-0.00509 -0.0012,-0.00727 -7.953e-4,-0.00224 -0.00204,-0.00426 -0.00375,-0.00611 -0.00239,-0.00259 -0.00418,-0.00308 -0.00548,-0.00154 -0.00127,0.0015 -0.0023,0.00475 -0.00306,0.00986 -5.158e-4,0.00342 -7.362e-4,0.00643 -6.85e-4,0.00903 5.51e-5,0.00265 4.724e-4,0.005 0.00119,0.00714 7.204e-4,0.00214 0.00183,0.00411 0.00342,0.00596 0.00164,0.00191 0.00299,0.00286 0.00411,0.00282 0.00109,-4.73e-5 0.00207,-9.764e-4 0.00276,-0.00267 7.481e-4,-0.00183 0.00136,-0.00444 0.00196,-0.00808 z"
   id="path140"
   inkscape:connector-curvature="0"
   style="fill:#848688;fill-rule:nonzero" />
  <path
   class="fil2"
   d="M 3.22886,3.60663 C 3.2298561,3.60528 3.23085,3.60393 3.23195,3.60259 3.22807,3.59808 3.22643,3.59467 3.22699,3.592429 c 2.717e-4,-0.00109 9.961e-4,-0.0014 0.00214,-9.646e-4 0.00112,4.252e-4 0.00269,0.00176 0.00462,0.00393 6.851e-4,7.677e-4 0.00138,0.00159 0.00212,0.0024 0.00169,-0.00217 0.00342,-0.0044 0.00517,-0.00665 -0.00162,-0.00178 -0.0032,-0.00352 -0.00478,-0.00524 -0.00189,-0.00206 -0.00333,-0.00402 -0.00415,-0.00581 -8.622e-4,-0.00187 -0.00112,-0.00329 -8.544e-4,-0.00432 2.796e-4,-0.00109 10e-4,-0.00142 0.00218,-0.00102 0.00117,3.897e-4 0.00276,0.00168 0.00475,0.00381 0.0023,0.00246 0.00463,0.00494 0.00697,0.00739 0.00141,-0.00181 0.00288,-0.00361 0.00434,-0.00548 7.441e-4,-9.449e-4 0.00136,-0.00162 0.00202,-0.00195 6.299e-4,-3.111e-4 0.00139,-2.52e-4 0.00226,1.22e-4 8.071e-4,3.465e-4 0.00196,0.00121 0.00325,0.00251 0.00178,0.0018 0.00305,0.00356 0.00378,0.00512 7.756e-4,0.00167 9.685e-4,0.00297 6.929e-4,0.00401 -4.72e-5,1.811e-4 -6.378e-4,0.00115 -0.00183,0.00266 -0.0012,0.00152 -0.0025,0.00298 -0.0037,0.00451 0.00359,0.0038 0.00723,0.00764 0.01098,0.011661 0.00163,-0.00184 0.00336,-0.00362 0.00501,-0.00547 7.362e-4,-8.189e-4 0.00141,-0.00148 0.00195,-0.00193 5.315e-4,-4.331e-4 0.00135,-4.37e-4 0.00234,-1.693e-4 0.00103,2.756e-4 0.00238,0.00135 0.00399,0.00297 0.00186,0.00187 0.00322,0.00372 0.00407,0.00544 8.78e-4,0.00176 0.00111,0.00317 7.677e-4,0.00425 -1.653e-4,5.197e-4 -3.701e-4,9.843e-4 -5.827e-4,0.00137 -2.322e-4,4.213e-4 -5.708e-4,7.087e-4 -8.661e-4,10e-4 -3.032e-4,2.953e-4 -4.37e-4,4.764e-4 -5.276e-4,5.748e-4 -0.00142,0.00156 -0.00286,0.00305 -0.00419,0.00465 0.00528,0.00563 0.00759,0.00974 0.00673,0.012323 -3.858e-4,0.00117 -0.00133,0.0015 -0.00287,7.874e-4 -0.00148,-6.771e-4 -0.00346,-0.00231 -0.0059,-0.00496 -8.78e-4,-9.528e-4 -0.00179,-0.00194 -0.00268,-0.00289 -0.00212,0.00226 -0.00419,0.0045 -0.00622,0.00661 0.0019,0.00213 0.00378,0.00429 0.0057,0.00641 0.00237,0.00261 0.00409,0.00503 0.0051,0.00708 0.00106,0.00217 0.00133,0.00373 9.646e-4,0.00489 -3.701e-4,0.00117 -0.00126,0.00139 -0.0027,7.086e-4 -0.00146,-6.85e-4 -0.00337,-0.00242 -0.00578,-0.00516 -0.00258,-0.00293 -0.00521,-0.00591 -0.0078,-0.00889 -0.00157,0.00163 -0.00307,0.00328 -0.00463,0.00486 -7.323e-4,7.402e-4 -0.00137,0.00126 -0.00183,0.00159 -4.764e-4,3.504e-4 -0.00119,3.267e-4 -0.00212,-1.496e-4 -9.489e-4,-4.843e-4 -0.00209,-0.0015 -0.00346,-0.00315 -0.00157,-0.00188 -0.00269,-0.00364 -0.00339,-0.00528 -7.322e-4,-0.0017 -9.921e-4,-0.00304 -7.086e-4,-0.004 2.519e-4,-8.543e-4 8.464e-4,-0.00161 0.00161,-0.00244 0.00122,-0.0013 0.00232,-0.00265 0.0035,-0.00404 -0.00352,-0.00402 -0.00701,-0.008 -0.010362,-0.011843 -0.00141,0.00162 -0.0028,0.00324 -0.00414,0.00482 -10e-4,0.00119 -0.00192,0.0018 -0.0027,0.00194 -7.559e-4,1.418e-4 -0.00209,-9.409e-4 -0.004,-0.00323 -0.00146,-0.00174 -0.00259,-0.00337 -0.00326,-0.00496 -6.496e-4,-0.00155 -8.346e-4,-0.00281 -5.866e-4,-0.00373 1.22e-4,-4.606e-4 3.149e-4,-8.976e-4 6.457e-4,-0.00136 2.913e-4,-4.055e-4 5.748e-4,-7.519e-4 8.228e-4,-0.00108 z M 3.262431,3.61437 C 3.258801,3.61042 3.255171,3.60647 3.251592,3.602575 c -0.00191,0.00228 -0.00379,0.00443 -0.00558,0.00656 0.00356,0.00402 0.00714,0.00798 0.010748,0.012059 0.00187,-0.0022 0.00377,-0.00447 0.00567,-0.00682 z"
   id="path142"
   inkscape:connector-curvature="0"
   style="fill:#848688;fill-rule:nonzero" />
  <path
   class="fil2"
   d="M 3.22886,3.60663 C 3.2298561,3.60528 3.23085,3.60393 3.23195,3.60259 3.22807,3.59808 3.22643,3.59467 3.22699,3.592429 c 2.717e-4,-0.00109 9.961e-4,-0.0014 0.00214,-9.646e-4 0.00112,4.252e-4 0.00269,0.00176 0.00462,0.00393 6.851e-4,7.677e-4 0.00138,0.00159 0.00212,0.0024 0.00169,-0.00217 0.00342,-0.0044 0.00517,-0.00665 -0.00162,-0.00178 -0.0032,-0.00352 -0.00478,-0.00524 -0.00189,-0.00206 -0.00333,-0.00402 -0.00415,-0.00581 -8.622e-4,-0.00187 -0.00112,-0.00329 -8.544e-4,-0.00432 2.796e-4,-0.00109 10e-4,-0.00142 0.00218,-0.00102 0.00117,3.897e-4 0.00276,0.00168 0.00475,0.00381 0.0023,0.00246 0.00463,0.00494 0.00697,0.00739 0.00141,-0.00181 0.00288,-0.00361 0.00434,-0.00548 7.441e-4,-9.449e-4 0.00136,-0.00162 0.00202,-0.00195 6.299e-4,-3.111e-4 0.00139,-2.52e-4 0.00226,1.22e-4 8.071e-4,3.465e-4 0.00196,0.00121 0.00325,0.00251 0.00178,0.0018 0.00305,0.00356 0.00378,0.00512 7.756e-4,0.00167 9.685e-4,0.00297 6.929e-4,0.00401 -4.72e-5,1.811e-4 -6.378e-4,0.00115 -0.00183,0.00266 -0.0012,0.00152 -0.0025,0.00298 -0.0037,0.00451 0.00359,0.0038 0.00723,0.00764 0.01098,0.011661 0.00163,-0.00184 0.00336,-0.00362 0.00501,-0.00547 7.362e-4,-8.189e-4 0.00141,-0.00148 0.00195,-0.00193 5.315e-4,-4.331e-4 0.00135,-4.37e-4 0.00234,-1.693e-4 0.00103,2.756e-4 0.00238,0.00135 0.00399,0.00297 0.00186,0.00187 0.00322,0.00372 0.00407,0.00544 8.78e-4,0.00176 0.00111,0.00317 7.677e-4,0.00425 -1.653e-4,5.197e-4 -3.701e-4,9.843e-4 -5.827e-4,0.00137 -2.322e-4,4.213e-4 -5.708e-4,7.087e-4 -8.661e-4,10e-4 -3.032e-4,2.953e-4 -4.37e-4,4.764e-4 -5.276e-4,5.748e-4 -0.00142,0.00156 -0.00286,0.00305 -0.00419,0.00465 0.00528,0.00563 0.00759,0.00974 0.00673,0.012323 -3.858e-4,0.00117 -0.00133,0.0015 -0.00287,7.874e-4 -0.00148,-6.771e-4 -0.00346,-0.00231 -0.0059,-0.00496 -8.78e-4,-9.528e-4 -0.00179,-0.00194 -0.00268,-0.00289 -0.00212,0.00226 -0.00419,0.0045 -0.00622,0.00661 0.0019,0.00213 0.00378,0.00429 0.0057,0.00641 0.00237,0.00261 0.00409,0.00503 0.0051,0.00708 0.00106,0.00217 0.00133,0.00373 9.646e-4,0.00489 -3.701e-4,0.00117 -0.00126,0.00139 -0.0027,7.086e-4 -0.00146,-6.85e-4 -0.00337,-0.00242 -0.00578,-0.00516 -0.00258,-0.00293 -0.00521,-0.00591 -0.0078,-0.00889 -0.00157,0.00163 -0.00307,0.00328 -0.00463,0.00486 -7.323e-4,7.402e-4 -0.00137,0.00126 -0.00183,0.00159 -4.764e-4,3.504e-4 -0.00119,3.267e-4 -0.00212,-1.496e-4 -9.489e-4,-4.843e-4 -0.00209,-0.0015 -0.00346,-0.00315 -0.00157,-0.00188 -0.00269,-0.00364 -0.00339,-0.00528 -7.322e-4,-0.0017 -9.921e-4,-0.00304 -7.086e-4,-0.004 2.519e-4,-8.543e-4 8.464e-4,-0.00161 0.00161,-0.00244 0.00122,-0.0013 0.00232,-0.00265 0.0035,-0.00404 -0.00352,-0.00402 -0.00701,-0.008 -0.010362,-0.011843 -0.00141,0.00162 -0.0028,0.00324 -0.00414,0.00482 -10e-4,0.00119 -0.00192,0.0018 -0.0027,0.00194 -7.559e-4,1.418e-4 -0.00209,-9.409e-4 -0.004,-0.00323 -0.00146,-0.00174 -0.00259,-0.00337 -0.00326,-0.00496 -6.496e-4,-0.00155 -8.346e-4,-0.00281 -5.866e-4,-0.00373 1.22e-4,-4.606e-4 3.149e-4,-8.976e-4 6.457e-4,-0.00136 2.913e-4,-4.055e-4 5.748e-4,-7.519e-4 8.228e-4,-0.00108 z M 3.262431,3.61437 C 3.258801,3.61042 3.255171,3.60647 3.251592,3.602575 c -0.00191,0.00228 -0.00379,0.00443 -0.00558,0.00656 0.00356,0.00402 0.00714,0.00798 0.010748,0.012059 0.00187,-0.0022 0.00377,-0.00447 0.00567,-0.00682 z"
   id="path144"
   inkscape:connector-curvature="0"
   style="fill:#848688;fill-rule:nonzero" />
  <path
   class="fil2"
   d="M 3.22886,3.60663 C 3.2298561,3.60528 3.23085,3.60393 3.23195,3.60259 3.22807,3.59808 3.22643,3.59467 3.22699,3.592429 c 2.717e-4,-0.00109 9.961e-4,-0.0014 0.00214,-9.646e-4 0.00112,4.252e-4 0.00269,0.00176 0.00462,0.00393 6.851e-4,7.677e-4 0.00138,0.00159 0.00212,0.0024 0.00169,-0.00217 0.00342,-0.0044 0.00517,-0.00665 -0.00162,-0.00178 -0.0032,-0.00352 -0.00478,-0.00524 -0.00189,-0.00206 -0.00333,-0.00402 -0.00415,-0.00581 -8.622e-4,-0.00187 -0.00112,-0.00329 -8.544e-4,-0.00432 2.796e-4,-0.00109 10e-4,-0.00142 0.00218,-0.00102 0.00117,3.897e-4 0.00276,0.00168 0.00475,0.00381 0.0023,0.00246 0.00463,0.00494 0.00697,0.00739 0.00141,-0.00181 0.00288,-0.00361 0.00434,-0.00548 7.441e-4,-9.449e-4 0.00136,-0.00162 0.00202,-0.00195 6.299e-4,-3.111e-4 0.00139,-2.52e-4 0.00226,1.22e-4 8.071e-4,3.465e-4 0.00196,0.00121 0.00325,0.00251 0.00178,0.0018 0.00305,0.00356 0.00378,0.00512 7.756e-4,0.00167 9.685e-4,0.00297 6.929e-4,0.00401 -4.72e-5,1.811e-4 -6.378e-4,0.00115 -0.00183,0.00266 -0.0012,0.00152 -0.0025,0.00298 -0.0037,0.00451 0.00359,0.0038 0.00723,0.00764 0.01098,0.011661 0.00163,-0.00184 0.00336,-0.00362 0.00501,-0.00547 7.362e-4,-8.189e-4 0.00141,-0.00148 0.00195,-0.00193 5.315e-4,-4.331e-4 0.00135,-4.37e-4 0.00234,-1.693e-4 0.00103,2.756e-4 0.00238,0.00135 0.00399,0.00297 0.00186,0.00187 0.00322,0.00372 0.00407,0.00544 8.78e-4,0.00176 0.00111,0.00317 7.677e-4,0.00425 -1.653e-4,5.197e-4 -3.701e-4,9.843e-4 -5.827e-4,0.00137 -2.322e-4,4.213e-4 -5.708e-4,7.087e-4 -8.661e-4,10e-4 -3.032e-4,2.953e-4 -4.37e-4,4.764e-4 -5.276e-4,5.748e-4 -0.00142,0.00156 -0.00286,0.00305 -0.00419,0.00465 0.00528,0.00563 0.00759,0.00974 0.00673,0.012323 -3.858e-4,0.00117 -0.00133,0.0015 -0.00287,7.874e-4 -0.00148,-6.771e-4 -0.00346,-0.00231 -0.0059,-0.00496 -8.78e-4,-9.528e-4 -0.00179,-0.00194 -0.00268,-0.00289 -0.00212,0.00226 -0.00419,0.0045 -0.00622,0.00661 0.0019,0.00213 0.00378,0.00429 0.0057,0.00641 0.00237,0.00261 0.00409,0.00503 0.0051,0.00708 0.00106,0.00217 0.00133,0.00373 9.646e-4,0.00489 -3.701e-4,0.00117 -0.00126,0.00139 -0.0027,7.086e-4 -0.00146,-6.85e-4 -0.00337,-0.00242 -0.00578,-0.00516 -0.00258,-0.00293 -0.00521,-0.00591 -0.0078,-0.00889 -0.00157,0.00163 -0.00307,0.00328 -0.00463,0.00486 -7.323e-4,7.402e-4 -0.00137,0.00126 -0.00183,0.00159 -4.764e-4,3.504e-4 -0.00119,3.267e-4 -0.00212,-1.496e-4 -9.489e-4,-4.843e-4 -0.00209,-0.0015 -0.00346,-0.00315 -0.00157,-0.00188 -0.00269,-0.00364 -0.00339,-0.00528 -7.322e-4,-0.0017 -9.921e-4,-0.00304 -7.086e-4,-0.004 2.519e-4,-8.543e-4 8.464e-4,-0.00161 0.00161,-0.00244 0.00122,-0.0013 0.00232,-0.00265 0.0035,-0.00404 -0.00352,-0.00402 -0.00701,-0.008 -0.010362,-0.011843 -0.00141,0.00162 -0.0028,0.00324 -0.00414,0.00482 -10e-4,0.00119 -0.00192,0.0018 -0.0027,0.00194 -7.559e-4,1.418e-4 -0.00209,-9.409e-4 -0.004,-0.00323 -0.00146,-0.00174 -0.00259,-0.00337 -0.00326,-0.00496 -6.496e-4,-0.00155 -8.346e-4,-0.00281 -5.866e-4,-0.00373 1.22e-4,-4.606e-4 3.149e-4,-8.976e-4 6.457e-4,-0.00136 2.913e-4,-4.055e-4 5.748e-4,-7.519e-4 8.228e-4,-0.00108 z M 3.262431,3.61437 C 3.258801,3.61042 3.255171,3.60647 3.251592,3.602575 c -0.00191,0.00228 -0.00379,0.00443 -0.00558,0.00656 0.00356,0.00402 0.00714,0.00798 0.010748,0.012059 0.00187,-0.0022 0.00377,-0.00447 0.00567,-0.00682 z"
   id="path146"
   inkscape:connector-curvature="0"
   style="fill:#848688;fill-rule:nonzero" />
  <path
   class="fil2"
   d="m 3.06955,3.40243 c 7.795e-4,3.701e-4 0.00153,6.693e-4 0.00226,9.803e-4 7.559e-4,2.835e-4 0.00133,5.433e-4 0.00178,7.717e-4 4.213e-4,2.283e-4 7.795e-4,5.078e-4 0.00102,7.716e-4 4.291e-4,4.725e-4 7.598e-4,0.00107 0.00102,0.00178 2.834e-4,7.599e-4 3.504e-4,0.00141 2.953e-4,0.00196 -3.15e-5,3.701e-4 -1.496e-4,6.063e-4 -3.229e-4,7.874e-4 -1.89e-4,2.047e-4 -3.464e-4,2.756e-4 -5.275e-4,1.969e-4 -0.0016,-9.213e-4 -0.00331,-0.00221 -0.00512,-0.00388 2.834e-4,7.874e-4 6.063e-4,0.00179 0.00102,0.00302 4.134e-4,0.00125 6.181e-4,0.00193 6.378e-4,0.00202 1.535e-4,5.197e-4 3.543e-4,0.0012 6.22e-4,0.00211 2.441e-4,8.465e-4 4.449e-4,0.0015 5.473e-4,0.00193 7.87e-5,3.976e-4 1.141e-4,8.189e-4 6.69e-5,0.00122 -5.91e-5,5.119e-4 -2.284e-4,8.268e-4 -5.433e-4,8.859e-4 -3.229e-4,5.9e-5 -7.047e-4,-1.811e-4 -0.00113,-6.929e-4 -4.449e-4,-5.315e-4 -9.016e-4,-0.00153 -0.00134,-0.00313 -4.37e-4,-0.00162 -9.567e-4,-0.00408 -0.00159,-0.00755 -0.00104,0.00125 -0.00175,0.00203 -0.0021,0.00238 -3.779e-4,3.662e-4 -6.811e-4,5.985e-4 -9.646e-4,6.536e-4 -3.11e-4,5.9e-5 -6.417e-4,-1.457e-4 -9.566e-4,-5.236e-4 -4.174e-4,-4.961e-4 -7.166e-4,-0.00109 -9.449e-4,-0.00179 -2.048e-4,-7.086e-4 -3.071e-4,-0.00132 -2.756e-4,-0.00174 3.15e-5,-4.213e-4 1.338e-4,-7.244e-4 2.638e-4,-8.032e-4 0.00117,-8.543e-4 0.00235,-0.00141 0.00361,-0.00155 -9.488e-4,-0.00133 -0.00172,-0.00248 -0.00242,-0.00356 -6.969e-4,-0.00108 -0.00143,-0.00237 -0.00219,-0.00378 -1.26e-4,-2.481e-4 -2.244e-4,-6.221e-4 -3.189e-4,-0.00112 -8.66e-5,-4.448e-4 -1.22e-4,-8.425e-4 -9.84e-5,-0.00115 3.54e-5,-5.59e-4 2.086e-4,-8.74e-4 5.315e-4,-9.37e-4 3.11e-4,-6.3e-5 6.417e-4,1.181e-4 0.00101,5.315e-4 2.481e-4,2.913e-4 5.748e-4,7.835e-4 9.37e-4,0.0015 3.701e-4,6.653e-4 8.347e-4,0.00156 0.0014,0.00272 5.669e-4,0.00112 0.00124,0.00243 0.00198,0.00388 -5.52e-5,-0.00117 -6.7e-5,-0.00248 -3.15e-5,-0.00394 3.15e-5,-0.00142 6.3e-5,-0.0024 9.84e-5,-0.00286 5.12e-5,-6.063e-4 2.402e-4,-0.00101 5.394e-4,-0.00115 3.031e-4,-1.142e-4 6.732e-4,5.51e-5 0.00109,5e-4 4.33e-4,4.646e-4 7.401e-4,0.00105 9.449e-4,0.0018 2.322e-4,7.441e-4 3.07e-4,0.0015 2.519e-4,0.00219 -1.97e-5,2.165e-4 -6.69e-5,5.629e-4 -1.85e-4,0.00109 -6.69e-5,5.787e-4 -2.008e-4,0.0012 -3.543e-4,0.00194 -1.496e-4,7.638e-4 -3.111e-4,0.0016 -5.158e-4,0.00254 z"
   id="path148"
   inkscape:connector-curvature="0"
   style="fill:#848688;fill-rule:nonzero" />
  <path
   class="fil2"
   d="m 3.06955,3.40243 c 7.795e-4,3.701e-4 0.00153,6.693e-4 0.00226,9.803e-4 7.559e-4,2.835e-4 0.00133,5.433e-4 0.00178,7.717e-4 4.213e-4,2.283e-4 7.795e-4,5.078e-4 0.00102,7.716e-4 4.291e-4,4.725e-4 7.598e-4,0.00107 0.00102,0.00178 2.834e-4,7.599e-4 3.504e-4,0.00141 2.953e-4,0.00196 -3.15e-5,3.701e-4 -1.496e-4,6.063e-4 -3.229e-4,7.874e-4 -1.89e-4,2.047e-4 -3.464e-4,2.756e-4 -5.275e-4,1.969e-4 -0.0016,-9.213e-4 -0.00331,-0.00221 -0.00512,-0.00388 2.834e-4,7.874e-4 6.063e-4,0.00179 0.00102,0.00302 4.134e-4,0.00125 6.181e-4,0.00193 6.378e-4,0.00202 1.535e-4,5.197e-4 3.543e-4,0.0012 6.22e-4,0.00211 2.441e-4,8.465e-4 4.449e-4,0.0015 5.473e-4,0.00193 7.87e-5,3.976e-4 1.141e-4,8.189e-4 6.69e-5,0.00122 -5.91e-5,5.119e-4 -2.284e-4,8.268e-4 -5.433e-4,8.859e-4 -3.229e-4,5.9e-5 -7.047e-4,-1.811e-4 -0.00113,-6.929e-4 -4.449e-4,-5.315e-4 -9.016e-4,-0.00153 -0.00134,-0.00313 -4.37e-4,-0.00162 -9.567e-4,-0.00408 -0.00159,-0.00755 -0.00104,0.00125 -0.00175,0.00203 -0.0021,0.00238 -3.779e-4,3.662e-4 -6.811e-4,5.985e-4 -9.646e-4,6.536e-4 -3.11e-4,5.9e-5 -6.417e-4,-1.457e-4 -9.566e-4,-5.236e-4 -4.174e-4,-4.961e-4 -7.166e-4,-0.00109 -9.449e-4,-0.00179 -2.048e-4,-7.086e-4 -3.071e-4,-0.00132 -2.756e-4,-0.00174 3.15e-5,-4.213e-4 1.338e-4,-7.244e-4 2.638e-4,-8.032e-4 0.00117,-8.543e-4 0.00235,-0.00141 0.00361,-0.00155 -9.488e-4,-0.00133 -0.00172,-0.00248 -0.00242,-0.00356 -6.969e-4,-0.00108 -0.00143,-0.00237 -0.00219,-0.00378 -1.26e-4,-2.481e-4 -2.244e-4,-6.221e-4 -3.189e-4,-0.00112 -8.66e-5,-4.448e-4 -1.22e-4,-8.425e-4 -9.84e-5,-0.00115 3.54e-5,-5.59e-4 2.086e-4,-8.74e-4 5.315e-4,-9.37e-4 3.11e-4,-6.3e-5 6.417e-4,1.181e-4 0.00101,5.315e-4 2.481e-4,2.913e-4 5.748e-4,7.835e-4 9.37e-4,0.0015 3.701e-4,6.653e-4 8.347e-4,0.00156 0.0014,0.00272 5.669e-4,0.00112 0.00124,0.00243 0.00198,0.00388 -5.52e-5,-0.00117 -6.7e-5,-0.00248 -3.15e-5,-0.00394 3.15e-5,-0.00142 6.3e-5,-0.0024 9.84e-5,-0.00286 5.12e-5,-6.063e-4 2.402e-4,-0.00101 5.394e-4,-0.00115 3.031e-4,-1.142e-4 6.732e-4,5.51e-5 0.00109,5e-4 4.33e-4,4.646e-4 7.401e-4,0.00105 9.449e-4,0.0018 2.322e-4,7.441e-4 3.07e-4,0.0015 2.519e-4,0.00219 -1.97e-5,2.165e-4 -6.69e-5,5.629e-4 -1.85e-4,0.00109 -6.69e-5,5.787e-4 -2.008e-4,0.0012 -3.543e-4,0.00194 -1.496e-4,7.638e-4 -3.111e-4,0.0016 -5.158e-4,0.00254 z"
   id="path150"
   inkscape:connector-curvature="0"
   style="fill:#848688;fill-rule:nonzero" />
  <path
   class="fil2"
   d="m 3.06955,3.40243 c 7.795e-4,3.701e-4 0.00153,6.693e-4 0.00226,9.803e-4 7.559e-4,2.835e-4 0.00133,5.433e-4 0.00178,7.717e-4 4.213e-4,2.283e-4 7.795e-4,5.078e-4 0.00102,7.716e-4 4.291e-4,4.725e-4 7.598e-4,0.00107 0.00102,0.00178 2.834e-4,7.599e-4 3.504e-4,0.00141 2.953e-4,0.00196 -3.15e-5,3.701e-4 -1.496e-4,6.063e-4 -3.229e-4,7.874e-4 -1.89e-4,2.047e-4 -3.464e-4,2.756e-4 -5.275e-4,1.969e-4 -0.0016,-9.213e-4 -0.00331,-0.00221 -0.00512,-0.00388 2.834e-4,7.874e-4 6.063e-4,0.00179 0.00102,0.00302 4.134e-4,0.00125 6.181e-4,0.00193 6.378e-4,0.00202 1.535e-4,5.197e-4 3.543e-4,0.0012 6.22e-4,0.00211 2.441e-4,8.465e-4 4.449e-4,0.0015 5.473e-4,0.00193 7.87e-5,3.976e-4 1.141e-4,8.189e-4 6.69e-5,0.00122 -5.91e-5,5.119e-4 -2.284e-4,8.268e-4 -5.433e-4,8.859e-4 -3.229e-4,5.9e-5 -7.047e-4,-1.811e-4 -0.00113,-6.929e-4 -4.449e-4,-5.315e-4 -9.016e-4,-0.00153 -0.00134,-0.00313 -4.37e-4,-0.00162 -9.567e-4,-0.00408 -0.00159,-0.00755 -0.00104,0.00125 -0.00175,0.00203 -0.0021,0.00238 -3.779e-4,3.662e-4 -6.811e-4,5.985e-4 -9.646e-4,6.536e-4 -3.11e-4,5.9e-5 -6.417e-4,-1.457e-4 -9.566e-4,-5.236e-4 -4.174e-4,-4.961e-4 -7.166e-4,-0.00109 -9.449e-4,-0.00179 -2.048e-4,-7.086e-4 -3.071e-4,-0.00132 -2.756e-4,-0.00174 3.15e-5,-4.213e-4 1.338e-4,-7.244e-4 2.638e-4,-8.032e-4 0.00117,-8.543e-4 0.00235,-0.00141 0.00361,-0.00155 -9.488e-4,-0.00133 -0.00172,-0.00248 -0.00242,-0.00356 -6.969e-4,-0.00108 -0.00143,-0.00237 -0.00219,-0.00378 -1.26e-4,-2.481e-4 -2.244e-4,-6.221e-4 -3.189e-4,-0.00112 -8.66e-5,-4.448e-4 -1.22e-4,-8.425e-4 -9.84e-5,-0.00115 3.54e-5,-5.59e-4 2.086e-4,-8.74e-4 5.315e-4,-9.37e-4 3.11e-4,-6.3e-5 6.417e-4,1.181e-4 0.00101,5.315e-4 2.481e-4,2.913e-4 5.748e-4,7.835e-4 9.37e-4,0.0015 3.701e-4,6.653e-4 8.347e-4,0.00156 0.0014,0.00272 5.669e-4,0.00112 0.00124,0.00243 0.00198,0.00388 -5.52e-5,-0.00117 -6.7e-5,-0.00248 -3.15e-5,-0.00394 3.15e-5,-0.00142 6.3e-5,-0.0024 9.84e-5,-0.00286 5.12e-5,-6.063e-4 2.402e-4,-0.00101 5.394e-4,-0.00115 3.031e-4,-1.142e-4 6.732e-4,5.51e-5 0.00109,5e-4 4.33e-4,4.646e-4 7.401e-4,0.00105 9.449e-4,0.0018 2.322e-4,7.441e-4 3.07e-4,0.0015 2.519e-4,0.00219 -1.97e-5,2.165e-4 -6.69e-5,5.629e-4 -1.85e-4,0.00109 -6.69e-5,5.787e-4 -2.008e-4,0.0012 -3.543e-4,0.00194 -1.496e-4,7.638e-4 -3.111e-4,0.0016 -5.158e-4,0.00254 z"
   id="path152"
   inkscape:connector-curvature="0"
   style="fill:#848688;fill-rule:nonzero" />
 </g>
</svg>