<?xml version="1.0" encoding="UTF-8" standalone="no"?>
<!-- Created with Inkscape (http://www.inkscape.org/) -->

<svg
   xmlns:dc="http://purl.org/dc/elements/1.1/"
   xmlns:cc="http://creativecommons.org/ns#"
   xmlns:rdf="http://www.w3.org/1999/02/22-rdf-syntax-ns#"
   xmlns:svg="http://www.w3.org/2000/svg"
   xmlns="http://www.w3.org/2000/svg"
   xmlns:sodipodi="http://sodipodi.sourceforge.net/DTD/sodipodi-0.dtd"
   xmlns:inkscape="http://www.inkscape.org/namespaces/inkscape"
   width="48"
   height="48"
   id="svg2"
   version="1.1"
   inkscape:version="0.48.2 r9819"
   sodipodi:docname="Nouveau document 1">
  <defs
     id="defs4" />
  <sodipodi:namedview
     id="base"
     pagecolor="#ffffff"
     bordercolor="#666666"
     borderopacity="1.0"
     inkscape:pageopacity="0.0"
     inkscape:pageshadow="2"
     inkscape:zoom="3.959798"
     inkscape:cx="97.691353"
     inkscape:cy="4.0397657"
     inkscape:document-units="px"
     inkscape:current-layer="g3026"
     showgrid="false"
     fit-margin-top="0"
     fit-margin-left="0"
     fit-margin-right="0"
     fit-margin-bottom="0"
     inkscape:window-width="1600"
     inkscape:window-height="845"
     inkscape:window-x="0"
     inkscape:window-y="27"
     inkscape:window-maximized="1" />
  <metadata
     id="metadata7">
    <rdf:RDF>
      <cc:Work
         rdf:about="">
        <dc:format>image/svg+xml</dc:format>
        <dc:type
           rdf:resource="http://purl.org/dc/dcmitype/StillImage" />
        <dc:title></dc:title>
      </cc:Work>
    </rdf:RDF>
  </metadata>
  <g
     inkscape:label="Calque 1"
     inkscape:groupmode="layer"
     id="layer1"
     transform="translate(-653.89606,-236.78021)">
    <g
       id="g3026"
       transform="translate(35.860415,31.819805)">
      <path
         style="fill:#16a0cf"
         d="m 622.12753,251.24583 c -0.26904,-0.7011 -0.36741,-11.56995 -0.21861,-23.38135 l 0.14427,-21.60154 12.91388,-0.15389 c 10.87838,-0.12963 13.4419,0.009 17.16566,1.65646 2.40792,1.06514 5.2035,3.19642 6.21239,4.73618 1.02434,1.56335 1.83434,4.6069 1.83434,6.89251 0,3.28411 -0.74106,4.95871 -3.75,8.47398 -2.0625,2.40956 -3.75,4.90528 -3.75,5.54604 0,0.64076 0.9492,2.02226 2.10934,3.07 2.67042,2.41171 8.1554,13.54642 7.3661,14.82354 -0.32641,0.52814 -2.75623,0.58145 -5.3996,0.58145 -3.24708,0 -5.60845,0.1265 -7.27947,-1.18793 -1.36035,-1.07004 -3.93291,-6.18024 -5.71681,-10.43003 -3.52524,-8.39815 -3.51739,-8.48133 1.44185,-15.27992 1.36322,-1.86884 2.47859,-4.35621 2.47859,-5.5275 0,-4.88385 -5.70909,-9.18771 -10.5694,-7.96785 l -2.4306,0.61005 0,18.3098 c 0,10.07039 -0.27315,19.77922 -0.60699,20.6492 -0.45027,1.17338 -2.00753,0.82418 -6.03138,0.82418 -3.47315,0 -5.60036,0.17281 -5.91356,-0.64338 z"
         id="path3028"
         inkscape:connector-curvature="0"
         sodipodi:nodetypes="sscscsssssssssssscssss" />
    </g>
  </g>
</svg>
