<?xml version="1.0" encoding="UTF-8" standalone="no"?>
<svg
   xmlns:dc="http://purl.org/dc/elements/1.1/"
   xmlns:cc="http://creativecommons.org/ns#"
   xmlns:rdf="http://www.w3.org/1999/02/22-rdf-syntax-ns#"
   xmlns:svg="http://www.w3.org/2000/svg"
   xmlns="http://www.w3.org/2000/svg"
   xmlns:sodipodi="http://sodipodi.sourceforge.net/DTD/sodipodi-0.dtd"
   xmlns:inkscape="http://www.inkscape.org/namespaces/inkscape"
   version="1.1"
   width="48"
   height="48"
   xml:space="preserve"
   id="svg2"
   inkscape:version="0.48.2 r9819"
   sodipodi:docname="ic_wizard_freephonie.svg"
   inkscape:export-filename="/home/r3gis3r/workspaceandroid2/CSipSimple/res/drawable-xhdpi/ic_wizard_freephonie.png"
   inkscape:export-xdpi="14.4"
   inkscape:export-ydpi="14.4"><metadata
   id="metadata8"><rdf:RDF><cc:Work
       rdf:about=""><dc:format>image/svg+xml</dc:format><dc:type
         rdf:resource="http://purl.org/dc/dcmitype/StillImage" /><dc:title /></cc:Work></rdf:RDF></metadata><sodipodi:namedview
   pagecolor="#ffffff"
   bordercolor="#666666"
   borderopacity="1"
   objecttolerance="10"
   gridtolerance="10"
   guidetolerance="10"
   inkscape:pageopacity="0"
   inkscape:pageshadow="2"
   inkscape:window-width="1440"
   inkscape:window-height="850"
   id="namedview6"
   showgrid="false"
   inkscape:zoom="2.7388603"
   inkscape:cx="54.725368"
   inkscape:cy="53.446173"
   inkscape:window-x="0"
   inkscape:window-y="23"
   inkscape:window-maximized="1"
   inkscape:current-layer="svg2" /><defs
   id="defs6" />
 
<path
   id="free"
   d="m 14.557274,15.490652 c -1.254707,0.001 -2.610035,0.411837 -3.495657,0.822957 l 0,-0.002 c -1.482681,0.677213 -2.4494407,1.37686 -3.1705704,2.146365 -0.6929267,0.739147 -1.1556011,1.53646 -1.6433381,2.422445 l -2.6804306,0 c -0.077687,0 -0.1478566,0.04425 -0.1831695,0.113518 l -0.3508496,0.686048 c -0.032638,0.06407 -0.029752,0.140041 0.00767,0.201236 0.037454,0.06102 0.1062456,0.09812 0.1780052,0.09812 l 2.5385346,0 -4.76749448,10.13607 c -0.0363663,0.0771 -0.020434,0.170548 0.038724,0.23219 l 0.095459,0.09812 c 0.046772,0.04893 0.1137662,0.07225 0.1805895,0.06188 l 1.9451838,-0.302078 c 0.064716,-0.01048 0.121983,-0.0503 0.1522114,-0.108383 l 5.2602391,-10.118013 3.3460106,0 c 0.07492,0 0.143952,-0.04034 0.180592,-0.105821 l 0.381804,-0.686229 c 0.03551,-0.06378 0.03429,-0.140847 -0.002,-0.203795 -0.03688,-0.06305 -0.1049,-0.103242 -0.17801,-0.103242 l -3.173165,0 0.970006,-1.996772 0.002,-0.002 c 0.22138,-0.475716 0.466548,-0.969488 0.871991,-1.33892 0.202978,-0.185228 0.444857,-0.341667 0.753297,-0.454045 0.308332,-0.11227 0.684793,-0.180486 1.150592,-0.180592 0.334661,-3.31e-4 0.668072,0.07861 1.000975,0.162531 0.332898,0.08289 0.662798,0.172018 1.003535,0.172845 0.17781,1.64e-4 0.340652,-0.04542 0.477278,-0.116083 0.205763,-0.106779 0.356629,-0.266346 0.459204,-0.425674 0.05137,-0.07999 0.09089,-0.159635 0.118665,-0.237337 0.02759,-0.07822 0.04323,-0.153657 0.04395,-0.232185 1.63e-4,-0.07877 -0.01703,-0.15572 -0.04908,-0.224445 -0.0566,-0.121052 -0.152409,-0.208139 -0.257975,-0.273459 -0.159743,-0.09805 -0.350341,-0.153962 -0.557245,-0.190905 -0.206906,-0.03638 -0.428759,-0.05157 -0.647534,-0.05162 z m 17.037082,4.321179 c -2.353006,6.71e-4 -4.679064,0.737624 -6.428891,1.813612 -0.87486,0.538662 -1.606826,1.164011 -2.125762,1.831662 -0.518039,0.667038 -0.82494,1.3813 -0.82556,2.099969 -1.57e-4,0.306189 0.06928,0.619644 0.22447,0.910675 0.232571,0.437321 0.655878,0.820782 1.29246,1.088678 0.637314,0.268581 1.489688,0.425476 2.608207,0.425672 2.849959,3.32e-4 5.213187,-0.952271 7.331822,-2.161885 0.0629,-0.03578 0.104402,-0.103102 0.105806,-0.175426 0.001,-0.07225 -0.03663,-0.142168 -0.09812,-0.180587 l -0.446299,-0.27862 c -0.06071,-0.03805 -0.137028,-0.04247 -0.20122,-0.01081 -1.798561,0.896208 -3.650227,1.509788 -5.451139,1.50919 -0.728049,6.71e-4 -1.35606,-0.111277 -1.780072,-0.306995 -0.212388,-0.09721 -0.373253,-0.212793 -0.474686,-0.337959 -0.101154,-0.126202 -0.148601,-0.256858 -0.149627,-0.415345 3.14e-4,-0.368966 0.04796,-0.712462 0.188329,-1.068049 1.702925,-0.08812 4.01143,-0.321129 5.933554,-0.807477 0.985596,-0.250144 1.868509,-0.564775 2.523067,-0.972589 0.327116,-0.204426 0.600149,-0.432585 0.794556,-0.696549 0.194332,-0.262932 0.307633,-0.568074 0.307013,-0.895192 3.46e-4,-0.145197 -0.03414,-0.283475 -0.09812,-0.405035 -0.112444,-0.214021 -0.302874,-0.371701 -0.528859,-0.495326 -0.340539,-0.184917 -0.775288,-0.29874 -1.246051,-0.37149 -0.470663,-0.07199 -0.975993,-0.100608 -1.455019,-0.100688 z m 12.107038,0 c -2.352867,6.71e-4 -4.676146,0.737624 -6.426299,1.813612 -0.874967,0.538662 -1.606719,1.164011 -2.125752,1.831662 -0.518156,0.667038 -0.82751,1.3813 -0.828135,2.099969 -1.57e-4,0.306189 0.06928,0.619644 0.224438,0.910675 0.232603,0.437321 0.65599,0.820782 1.292497,1.088678 0.637309,0.268581 1.489683,0.425476 2.608202,0.425672 2.850878,3.32e-4 5.213155,-0.952355 7.331805,-2.161885 0.063,-0.03578 0.104332,-0.103091 0.105813,-0.175426 0.001,-0.0722 -0.03668,-0.142093 -0.09813,-0.180587 l -0.446268,-0.27862 c -0.06071,-0.038 -0.137064,-0.04247 -0.201257,-0.01081 -1.799555,0.896208 -3.651253,1.509788 -5.451134,1.50919 -0.728022,6.71e-4 -1.356033,-0.111277 -1.780077,-0.306995 -0.212351,-0.09721 -0.370656,-0.212793 -0.472089,-0.337959 -0.101154,-0.126202 -0.151198,-0.256858 -0.152219,-0.415345 3.46e-4,-0.368604 0.04831,-0.712054 0.188326,-1.068049 1.703122,-0.08806 4.010885,-0.320943 5.933589,-0.807477 0.985484,-0.250144 1.868584,-0.564775 2.523035,-0.972589 0.327036,-0.204426 0.600176,-0.432585 0.794588,-0.696549 0.19422,-0.262932 0.307708,-0.568181 0.307008,-0.895192 3.14e-4,-0.145197 -0.03414,-0.283475 -0.09813,-0.405035 -0.112434,-0.213913 -0.302867,-0.371701 -0.528849,-0.495326 -0.340443,-0.184917 -0.775503,-0.29874 -1.246061,-0.37149 -0.470243,-0.07199 -0.976712,-0.100608 -1.455008,-0.100688 z m -26.110255,0.196067 c -0.425145,6.68e-4 -0.889213,0.107392 -1.364732,0.270884 -0.712761,0.245698 -1.451615,0.621737 -2.089655,0.995806 -0.638127,0.374486 -1.173597,0.745565 -1.480797,0.980327 -0.05274,0.04019 -0.08203,0.104206 -0.07984,0.17027 0.0015,0.066 0.03531,0.128192 0.09043,0.165107 l 0.415342,0.278613 c 0.06819,0.04572 0.157888,0.04694 0.227026,0.002 0.249419,-0.160665 0.696448,-0.432164 1.181552,-0.660427 0.242402,-0.114093 0.494086,-0.217944 0.732665,-0.291521 0.238274,-0.07401 0.463442,-0.116352 0.647535,-0.116083 0.166863,6.68e-4 0.266446,0.04644 0.325058,0.09556 0.05924,0.04913 0.07596,0.105885 0.07472,0.123805 3.35e-4,0.03108 -0.0091,0.09213 -0.02825,0.162537 -0.06026,0.214328 -0.212988,0.518642 -0.325046,0.701705 l -0.002,0.004 -2.510162,4.524989 c -0.01651,0.02568 -0.03709,0.057 -0.05675,0.09812 -0.01905,0.04064 -0.03825,0.09415 -0.03882,0.16253 -7.9e-5,0.04455 0.0124,0.08605 0.02824,0.118664 0.0313,0.06148 0.07052,0.09726 0.108382,0.126408 0.06703,0.04928 0.139208,0.08056 0.221864,0.110943 0.123237,0.0444 0.267584,0.08041 0.417931,0.105811 0.150251,0.0252 0.306381,0.04126 0.448884,0.04136 0.289149,-8.4e-5 0.562197,-0.003 0.781685,-0.02306 0.110225,-0.01056 0.206075,-0.02368 0.291522,-0.04649 0.04298,-0.01171 0.08436,-0.02657 0.126404,-0.04908 0.0408,-0.02276 0.08918,-0.05396 0.126404,-0.118662 l 0.002,-0.002 0.572715,-1.049987 c 0.52162,-0.831425 1.342027,-2.032475 2.293459,-3.018379 0.477064,-0.494806 0.985484,-0.934197 1.501448,-1.246049 0.516282,-0.312672 1.036371,-0.495731 1.534985,-0.495326 0.359943,-6.67e-4 0.77323,0.06351 1.178973,0.06447 0.276045,1.69e-4 0.514318,-0.05837 0.714611,-0.157368 0.301328,-0.148186 0.509879,-0.379436 0.639804,-0.611414 0.06524,-0.116353 0.11102,-0.232804 0.141883,-0.343117 0.03063,-0.110435 0.04644,-0.215054 0.04649,-0.309576 3.31e-4,-0.120275 -0.02739,-0.239195 -0.08785,-0.343117 -0.04512,-0.07798 -0.107379,-0.14663 -0.180585,-0.201224 -0.110296,-0.08195 -0.244047,-0.134974 -0.397297,-0.170267 -0.153432,-0.03521 -0.32671,-0.05157 -0.526284,-0.05162 -0.551554,0.001 -1.14038,0.195652 -1.733638,0.48758 -0.889103,0.439188 -1.790987,1.106533 -2.556575,1.743959 -0.339091,0.282456 -0.645406,0.554367 -0.915835,0.802319 l 0.670744,-1.248629 0.002,-0.002 c 0.09805,-0.185951 0.179352,-0.358487 0.239923,-0.515966 0.03023,-0.07888 0.0569,-0.155714 0.07472,-0.227022 0.01768,-0.07161 0.02809,-0.139308 0.02821,-0.208963 0.001,-0.150348 -0.04634,-0.293582 -0.134148,-0.407608 -0.06539,-0.08584 -0.150149,-0.154999 -0.245081,-0.208969 -0.142817,-0.08086 -0.310819,-0.131573 -0.500488,-0.165107 -0.18956,-0.03312 -0.402032,-0.04898 -0.634632,-0.04908 z m 13.270551,0.742988 c 0.390577,-6.72e-4 0.687261,0.06842 0.864237,0.167687 0.08919,0.04928 0.147356,0.103732 0.183169,0.157368 0.03561,0.05411 0.0509,0.107468 0.05162,0.175427 -3.46e-4,0.186781 -0.04943,0.355086 -0.144478,0.521123 -0.165319,0.289663 -0.484377,0.564567 -0.920985,0.802323 -0.653635,0.357872 -1.559962,0.63401 -2.538551,0.822963 -0.851302,0.164967 -1.757804,0.267377 -2.605606,0.312151 0.127605,-0.187884 0.299299,-0.402415 0.508228,-0.624314 0.503985,-0.537014 1.218087,-1.126653 2.025162,-1.576264 0.807152,-0.450538 1.706801,-0.759187 2.577226,-0.758464 z m 12.107044,0 c 0.390598,-6.72e-4 0.687795,0.0685 0.864231,0.167687 0.08863,0.04923 0.147463,0.103647 0.183164,0.157368 0.03546,0.05411 0.05127,0.107381 0.05162,0.175427 -3.28e-4,0.186879 -0.04938,0.355086 -0.144479,0.521123 -0.165197,0.289663 -0.484469,0.564567 -0.920997,0.802323 -0.65339,0.357872 -1.557579,0.63401 -2.535956,0.822963 -0.852063,0.165128 -1.759678,0.267448 -2.60817,0.312151 0.127568,-0.187884 0.299269,-0.402415 0.508222,-0.624314 0.504103,-0.537014 1.220551,-1.126653 2.027734,-1.576264 0.80737,-0.450538 1.703797,-0.759187 2.574653,-0.758464 z"
   style="fill:#cd1e25;fill-opacity:1;fill-rule:nonzero;stroke:none"
   inkscape:connector-curvature="0" />

</svg>