<?xml version="1.0" encoding="UTF-8" standalone="no"?>
<!-- Generator: Adobe Illustrator 15.1.0, SVG Export Plug-In  -->

<svg
   xmlns:dc="http://purl.org/dc/elements/1.1/"
   xmlns:cc="http://creativecommons.org/ns#"
   xmlns:rdf="http://www.w3.org/1999/02/22-rdf-syntax-ns#"
   xmlns:svg="http://www.w3.org/2000/svg"
   xmlns="http://www.w3.org/2000/svg"
   xmlns:sodipodi="http://sodipodi.sourceforge.net/DTD/sodipodi-0.dtd"
   xmlns:inkscape="http://www.inkscape.org/namespaces/inkscape"
   version="1.1"
   x="0px"
   y="0px"
   width="96px"
   height="96px"
   viewBox="0 0 96 96"
   enable-background="new 0 0 96 96"
   xml:space="preserve"
   id="svg2"
   inkscape:version="0.48.3.1 r9886"
   sodipodi:docname="smart-logo-96-96.svg"><metadata
   id="metadata53"><rdf:RDF><cc:Work
       rdf:about=""><dc:format>image/svg+xml</dc:format><dc:type
         rdf:resource="http://purl.org/dc/dcmitype/StillImage" /><dc:title></dc:title></cc:Work></rdf:RDF></metadata><sodipodi:namedview
   pagecolor="#ffffff"
   bordercolor="#666666"
   borderopacity="1"
   objecttolerance="10"
   gridtolerance="10"
   guidetolerance="10"
   inkscape:pageopacity="0"
   inkscape:pageshadow="2"
   inkscape:window-width="930"
   inkscape:window-height="681"
   id="namedview51"
   showgrid="true"
   inkscape:zoom="4.9166667"
   inkscape:cx="36.111247"
   inkscape:cy="58.296749"
   inkscape:window-x="0"
   inkscape:window-y="27"
   inkscape:window-maximized="0"
   inkscape:current-layer="svg2"><inkscape:grid
     type="xygrid"
     id="grid3030" /></sodipodi:namedview>
<defs
   id="defs4">
</defs>
<path
   fill="#FFFFFF"
   d="M21.158,35.79h-1.729v1.495h1.737v0.638h-1.737v2.195h-0.75v-4.974h2.479V35.79z"
   id="path6" />
<path
   fill="#FFFFFF"
   d="M24.492,39.568c0.187,0,0.357-0.029,0.511-0.087c0.154-0.058,0.285-0.144,0.394-0.257  c0.109-0.114,0.193-0.258,0.253-0.431s0.091-0.375,0.091-0.605v-3.044h0.749v2.952c0,0.351-0.047,0.658-0.142,0.922  c-0.095,0.264-0.232,0.483-0.411,0.659c-0.179,0.176-0.397,0.308-0.653,0.396c-0.257,0.088-0.544,0.133-0.865,0.133  c-0.305,0-0.58-0.043-0.825-0.128c-0.245-0.086-0.454-0.214-0.626-0.384c-0.173-0.171-0.306-0.383-0.4-0.636  c-0.093-0.254-0.14-0.548-0.14-0.884v-3.029h0.757v2.998c0,0.236,0.031,0.443,0.092,0.621c0.062,0.178,0.15,0.327,0.264,0.446  c0.114,0.119,0.251,0.208,0.411,0.269C24.112,39.538,24.292,39.568,24.492,39.568z"
   id="path8" />
<path
   fill="#FFFFFF"
   d="M30.813,38.727c0,0.202-0.035,0.392-0.105,0.57s-0.174,0.333-0.312,0.465  c-0.137,0.132-0.308,0.236-0.511,0.311c-0.204,0.076-0.44,0.113-0.709,0.113c-0.13,0-0.261-0.008-0.39-0.025  c-0.13-0.017-0.253-0.041-0.37-0.073c-0.116-0.032-0.225-0.069-0.324-0.111c-0.1-0.042-0.188-0.088-0.262-0.137v-0.769  c0.082,0.059,0.179,0.118,0.291,0.175c0.111,0.058,0.229,0.109,0.352,0.154c0.123,0.045,0.245,0.081,0.367,0.109  c0.122,0.028,0.231,0.042,0.329,0.042c0.148,0,0.278-0.019,0.39-0.056c0.112-0.037,0.205-0.09,0.281-0.16  c0.076-0.068,0.132-0.151,0.169-0.247c0.037-0.097,0.055-0.202,0.055-0.317c0-0.131-0.023-0.241-0.071-0.331  c-0.048-0.089-0.115-0.168-0.202-0.234c-0.087-0.067-0.192-0.127-0.315-0.181c-0.123-0.054-0.26-0.11-0.411-0.169  c-0.208-0.083-0.392-0.165-0.554-0.249c-0.161-0.083-0.297-0.178-0.408-0.284c-0.11-0.107-0.194-0.229-0.251-0.37  c-0.057-0.139-0.086-0.305-0.086-0.497c0-0.21,0.042-0.401,0.126-0.571s0.2-0.315,0.346-0.434c0.146-0.119,0.317-0.212,0.513-0.277  s0.406-0.098,0.628-0.098c0.238,0,0.454,0.022,0.646,0.065c0.192,0.044,0.368,0.099,0.526,0.166v0.692  c-0.075-0.036-0.16-0.071-0.257-0.104s-0.2-0.063-0.307-0.09c-0.108-0.027-0.216-0.049-0.323-0.065  c-0.108-0.017-0.21-0.025-0.308-0.025c-0.136,0-0.256,0.017-0.361,0.052c-0.105,0.035-0.194,0.083-0.268,0.144  c-0.073,0.062-0.128,0.136-0.166,0.222c-0.037,0.085-0.055,0.18-0.055,0.282c0,0.116,0.024,0.215,0.073,0.298  c0.049,0.084,0.118,0.158,0.208,0.223c0.089,0.066,0.198,0.126,0.325,0.181c0.126,0.055,0.268,0.113,0.424,0.175  c0.2,0.08,0.378,0.162,0.536,0.248s0.291,0.185,0.4,0.296c0.109,0.111,0.193,0.239,0.252,0.384  C30.783,38.366,30.813,38.534,30.813,38.727z"
   id="path10" />
<path
   fill="#FFFFFF"
   d="M32.844,40.118h-0.757v-4.974h0.757V40.118z"
   id="path12" />
<path
   fill="#FFFFFF"
   d="M38.895,37.565c0,0.402-0.054,0.766-0.163,1.089c-0.109,0.324-0.265,0.6-0.469,0.827  c-0.204,0.227-0.451,0.401-0.744,0.523c-0.292,0.122-0.623,0.182-0.992,0.182c-0.354,0-0.674-0.06-0.961-0.179  c-0.287-0.119-0.532-0.288-0.734-0.507c-0.202-0.219-0.359-0.482-0.469-0.79c-0.11-0.308-0.165-0.649-0.165-1.026  c0-0.395,0.055-0.753,0.164-1.075s0.267-0.595,0.475-0.822s0.46-0.402,0.759-0.525c0.298-0.122,0.637-0.184,1.017-0.184  c0.346,0,0.659,0.061,0.941,0.181c0.282,0.121,0.522,0.291,0.721,0.509c0.199,0.219,0.352,0.481,0.459,0.786  C38.841,36.86,38.895,37.197,38.895,37.565z M38.119,37.646c0-0.303-0.034-0.574-0.1-0.813c-0.067-0.24-0.166-0.443-0.296-0.609  c-0.13-0.167-0.292-0.294-0.484-0.382c-0.192-0.089-0.414-0.133-0.665-0.133c-0.24,0-0.458,0.047-0.655,0.141  c-0.196,0.093-0.363,0.225-0.501,0.394c-0.138,0.169-0.246,0.372-0.321,0.609c-0.076,0.237-0.113,0.499-0.113,0.786  c0,0.287,0.036,0.548,0.108,0.784c0.071,0.236,0.175,0.438,0.309,0.604c0.135,0.167,0.297,0.295,0.488,0.388  c0.19,0.092,0.404,0.138,0.64,0.138c0.251,0,0.476-0.043,0.673-0.129c0.197-0.086,0.364-0.21,0.5-0.373  c0.136-0.163,0.24-0.363,0.312-0.6C38.083,38.215,38.119,37.946,38.119,37.646z"
   id="path14" />
<path
   fill="#FFFFFF"
   d="M44.581,40.118h-0.742l-2.433-3.229c-0.018-0.021-0.048-0.062-0.091-0.125  c-0.042-0.063-0.087-0.131-0.134-0.206s-0.093-0.147-0.136-0.219c-0.043-0.072-0.076-0.127-0.096-0.166v3.943h-0.7v-4.974h0.796  l2.321,3.117c0.039,0.054,0.083,0.119,0.134,0.194c0.052,0.076,0.102,0.153,0.15,0.231c0.048,0.078,0.094,0.153,0.136,0.223  c0.042,0.07,0.075,0.128,0.098,0.171v-3.936h0.696V40.118z"
   id="path16" />
<path
   fill="#FFFFFF"
   d="M48.809,40.118h-0.757v-4.974h0.757V40.118z"
   id="path18" />
<path
   fill="#FFFFFF"
   d="M53.423,36.505c0,0.235-0.047,0.451-0.141,0.647c-0.094,0.196-0.234,0.365-0.421,0.508  c-0.187,0.142-0.421,0.252-0.704,0.33c-0.282,0.078-0.611,0.119-0.988,0.121v2.006h-0.757v-4.974h1.015  c0.292,0,0.56,0.023,0.803,0.067c0.244,0.044,0.454,0.121,0.631,0.227c0.177,0.106,0.314,0.246,0.414,0.419  C53.373,36.03,53.423,36.246,53.423,36.505z M52.642,36.543c0-0.13-0.022-0.243-0.067-0.338c-0.045-0.095-0.116-0.173-0.214-0.234  c-0.097-0.062-0.222-0.107-0.375-0.137c-0.152-0.029-0.336-0.044-0.551-0.044H51.17v1.667h0.242c0.387,0,0.689-0.077,0.905-0.232  S52.642,36.843,52.642,36.543z"
   id="path20" />
<path
   fill="#FFFFFF"
   d="M56.318,38.765H54.5v-0.653h1.818V38.765z"
   id="path22" />
<path
   fill="#FFFFFF"
   d="M60.751,36.505c0,0.235-0.047,0.451-0.14,0.647c-0.094,0.196-0.234,0.365-0.421,0.508  c-0.187,0.142-0.421,0.252-0.703,0.33c-0.282,0.078-0.611,0.119-0.988,0.121v2.006h-0.757v-4.974h1.015  c0.292,0,0.56,0.023,0.803,0.067c0.243,0.044,0.453,0.121,0.63,0.227c0.177,0.106,0.315,0.246,0.414,0.419  C60.702,36.03,60.751,36.246,60.751,36.505z M59.971,36.543c0-0.13-0.022-0.243-0.067-0.338c-0.045-0.095-0.116-0.173-0.214-0.234  c-0.097-0.062-0.222-0.107-0.375-0.137c-0.152-0.029-0.336-0.044-0.551-0.044h-0.266v1.667h0.242c0.387,0,0.689-0.077,0.905-0.232  S59.971,36.843,59.971,36.543z"
   id="path24" />
<path
   fill="#FFFFFF"
   d="M64.766,40.118h-0.742v-1.953c0-0.223-0.045-0.394-0.137-0.513c-0.09-0.119-0.229-0.179-0.413-0.179  c-0.09,0-0.175,0.011-0.256,0.033c-0.081,0.021-0.156,0.05-0.225,0.086c-0.07,0.036-0.132,0.076-0.188,0.12  c-0.057,0.043-0.106,0.087-0.15,0.13v2.275h-0.738v-4.974h0.738v1.603c0,0.031-0.001,0.068-0.002,0.112  c-0.001,0.043-0.002,0.089-0.004,0.137c-0.001,0.047-0.002,0.093-0.004,0.138c-0.001,0.045-0.003,0.085-0.005,0.122  c0.053-0.046,0.116-0.091,0.188-0.135c0.071-0.043,0.15-0.083,0.234-0.117c0.085-0.035,0.173-0.063,0.267-0.083  c0.093-0.02,0.189-0.03,0.286-0.03c0.393,0,0.682,0.108,0.869,0.323c0.187,0.215,0.28,0.522,0.28,0.922V40.118z"
   id="path26" />
<path
   fill="#FFFFFF"
   d="M69.229,38.527c0,0.248-0.04,0.475-0.119,0.68c-0.08,0.205-0.192,0.38-0.338,0.524  c-0.146,0.145-0.324,0.257-0.532,0.336c-0.209,0.079-0.444,0.119-0.705,0.119c-0.251,0-0.479-0.038-0.683-0.115  c-0.204-0.078-0.377-0.185-0.521-0.325c-0.144-0.14-0.254-0.31-0.333-0.51c-0.078-0.2-0.117-0.423-0.117-0.668  c0-0.264,0.04-0.5,0.119-0.708c0.08-0.207,0.194-0.384,0.345-0.528c0.149-0.145,0.331-0.255,0.545-0.331  c0.214-0.076,0.456-0.114,0.725-0.114c0.258,0,0.488,0.037,0.688,0.111c0.2,0.074,0.369,0.182,0.506,0.323  c0.137,0.141,0.242,0.312,0.313,0.515C69.194,38.041,69.229,38.27,69.229,38.527z M68.488,38.527c0-0.349-0.077-0.612-0.23-0.788  c-0.154-0.177-0.378-0.266-0.672-0.266c-0.297,0-0.529,0.091-0.696,0.273c-0.167,0.182-0.25,0.447-0.25,0.796  c0,0.167,0.021,0.316,0.066,0.447c0.043,0.132,0.106,0.244,0.188,0.334c0.082,0.091,0.181,0.161,0.297,0.21  c0.117,0.048,0.248,0.073,0.395,0.073c0.294,0,0.519-0.092,0.672-0.277C68.411,39.145,68.488,38.878,68.488,38.527z"
   id="path28" />
<path
   fill="#FFFFFF"
   d="M73.274,40.118h-0.741v-1.953c0-0.223-0.045-0.394-0.137-0.513c-0.091-0.119-0.229-0.179-0.413-0.179  c-0.083,0-0.163,0.01-0.241,0.031c-0.078,0.021-0.152,0.048-0.221,0.082c-0.069,0.035-0.134,0.074-0.194,0.116  c-0.061,0.042-0.115,0.086-0.163,0.133v2.283h-0.738v-3.156h0.714l0.023,0.315c0.054-0.051,0.114-0.1,0.18-0.146  c0.066-0.046,0.141-0.087,0.221-0.123c0.081-0.036,0.167-0.065,0.262-0.086c0.093-0.022,0.192-0.033,0.298-0.033  c0.392,0,0.682,0.105,0.869,0.315c0.187,0.21,0.28,0.515,0.28,0.915V40.118z"
   id="path30" />
<path
   fill="#FFFFFF"
   d="M74.399,38.519c0-0.244,0.04-0.466,0.119-0.667c0.079-0.202,0.192-0.373,0.336-0.515  c0.145-0.142,0.318-0.252,0.521-0.331c0.202-0.078,0.428-0.117,0.676-0.117c0.243,0,0.457,0.035,0.64,0.106  c0.184,0.07,0.337,0.171,0.463,0.301c0.125,0.131,0.219,0.291,0.283,0.48c0.063,0.189,0.094,0.404,0.094,0.642v0.315h-2.414  c0.013,0.131,0.046,0.251,0.102,0.363c0.055,0.112,0.129,0.207,0.223,0.287c0.094,0.079,0.204,0.142,0.331,0.186  c0.127,0.045,0.268,0.067,0.421,0.067c0.089,0,0.185-0.008,0.286-0.025c0.102-0.017,0.205-0.041,0.312-0.073  c0.106-0.032,0.212-0.071,0.319-0.118c0.106-0.046,0.208-0.1,0.306-0.161v0.58c-0.195,0.11-0.401,0.196-0.617,0.256  s-0.463,0.09-0.74,0.09c-0.256,0-0.487-0.038-0.692-0.113c-0.206-0.075-0.379-0.185-0.522-0.328  c-0.144-0.144-0.254-0.319-0.331-0.525C74.438,39.014,74.399,38.78,74.399,38.519z M76.044,37.465c-0.247,0-0.447,0.063-0.602,0.187  c-0.155,0.124-0.258,0.305-0.31,0.544h1.668c-0.013-0.239-0.084-0.42-0.215-0.544C76.455,37.528,76.274,37.465,76.044,37.465z"
   id="path32" />
<path
   fill="#FFFFFF"
   d="M14.625,52.786c0,0.962-0.168,1.866-0.502,2.713c-0.335,0.847-0.828,1.583-1.479,2.21  c-0.651,0.627-1.461,1.12-2.429,1.479c-0.968,0.359-2.091,0.539-3.37,0.539c-0.621,0-1.24-0.039-1.854-0.118  c-0.615-0.08-1.199-0.195-1.753-0.347c-0.554-0.152-1.068-0.329-1.543-0.529c-0.476-0.201-0.889-0.417-1.242-0.648V54.43  c0.39,0.28,0.85,0.557,1.379,0.831c0.53,0.274,1.086,0.518,1.671,0.73c0.584,0.214,1.166,0.387,1.744,0.521  c0.578,0.134,1.099,0.201,1.562,0.201c0.706,0,1.324-0.089,1.854-0.266c0.529-0.176,0.974-0.429,1.333-0.757  c0.359-0.329,0.627-0.722,0.804-1.178c0.176-0.457,0.264-0.959,0.264-1.507c0-0.622-0.112-1.145-0.338-1.571  c-0.226-0.427-0.545-0.798-0.958-1.114c-0.415-0.317-0.914-0.603-1.498-0.858c-0.585-0.256-1.236-0.524-1.955-0.804  c-0.986-0.39-1.863-0.782-2.63-1.179c-0.768-0.395-1.412-0.846-1.937-1.351c-0.523-0.505-0.922-1.089-1.196-1.753  C0.277,43.712,0.14,42.923,0.14,42.01c0-0.999,0.201-1.902,0.603-2.712c0.401-0.81,0.95-1.498,1.644-2.064  c0.694-0.566,1.507-1.005,2.438-1.315c0.932-0.311,1.927-0.465,2.986-0.465c1.132,0,2.155,0.103,3.068,0.31  c0.914,0.207,1.747,0.468,2.502,0.785v3.288c-0.353-0.17-0.761-0.335-1.224-0.494c-0.463-0.157-0.95-0.301-1.461-0.429  c-0.512-0.128-1.023-0.231-1.535-0.311c-0.512-0.079-0.999-0.119-1.461-0.119c-0.646,0-1.218,0.083-1.717,0.247  c-0.5,0.164-0.922,0.392-1.269,0.685c-0.347,0.292-0.609,0.643-0.786,1.051c-0.176,0.408-0.264,0.855-0.264,1.342  c0,0.547,0.116,1.02,0.347,1.416c0.231,0.396,0.56,0.749,0.986,1.059c0.426,0.311,0.94,0.597,1.543,0.858  c0.603,0.262,1.275,0.539,2.018,0.832c0.95,0.378,1.799,0.77,2.548,1.178c0.749,0.408,1.382,0.877,1.899,1.407  c0.517,0.53,0.916,1.139,1.196,1.826C14.484,51.073,14.625,51.873,14.625,52.786z"
   id="path34" />
<path
   fill="#FFFFFF"
   d="M32.949,60L32.45,49.375c-0.008-0.098-0.014-0.401-0.019-0.571l-0.024-1.197  c-0.004-0.187-0.006-0.382-0.006-0.505l-0.107-0.035c-0.049,0.187-0.103,0.374-0.164,0.58c-0.061,0.208-0.198,0.648-0.198,0.648  L31.8,48.713c-0.044,0.142-0.079,0.583-0.102,0.646L27.728,60h-2.076l-4.043-10.642c-0.033-0.081-0.075-0.362-0.127-0.504  c-0.053-0.142-0.107-0.389-0.164-0.572l-0.177-0.616c-0.061-0.198-0.111-0.411-0.151-0.597l-0.107,0.001  c0,0.137-0.002,0.292-0.006,0.476s-0.01,0.369-0.018,0.564c0,0-0.041,1.249-0.048,1.389L20.151,60h-2.115l1.093-17h2.49  l4.544,11.931c0.04,0.114,0.085,0.4,0.133,0.549c0.048,0.149,0.092,0.384,0.133,0.546c0.041,0.161,0.079,0.349,0.116,0.512  C26.583,56.699,26.613,57,26.637,57h0.106c0.025,0,0.057-0.266,0.098-0.436c0.041-0.171,0.083-0.335,0.128-0.506  c0.044-0.171,0.091-0.329,0.14-0.483c0.048-0.153,0.093-0.591,0.134-0.695L31.761,43h2.587l0.716,17H32.949z"
   id="path36" />
<path
   fill="#FFFFFF"
   d="M50.092,60l-1.772-5H42.16l-1.649,5H38.05l6.091-17h2.248l6.164,17H50.092z M45.15,46.115  c-0.04,0.249-0.091,0.517-0.151,0.73c-0.061,0.214-0.12,0.514-0.176,0.658L42.879,53h4.761l-2.03-5.552  c-0.041-0.112-0.091-0.327-0.151-0.542c-0.061-0.212-0.111-0.532-0.151-0.766L45.298,46h-0.092L45.15,46.115z"
   id="path38" />
<path
   fill="#FFFFFF"
   d="M62.904,60l-4.029-7.291L58,52.345V60h-2V43h2.579c0.831,0,1.618,0.377,2.336,0.51  c0.714,0.133,1.344,0.516,1.87,0.832c0.523,0.316,0.94,0.817,1.239,1.335s0.451,1.218,0.451,2.002c0,0.577-0.103,1.127-0.307,1.598  c-0.204,0.473-0.476,0.902-0.809,1.254c-0.333,0.353-0.721,0.656-1.153,0.892c-0.434,0.238-0.886,0.413-1.343,0.517l-0.076,0.356  L65.638,60H62.904z M58,51h0.579c1.114,0,1.983-0.491,2.581-0.966c0.601-0.477,0.906-1.271,0.906-2.117  c0-0.773-0.282-1.19-0.838-1.544C60.68,46.022,59.83,46,58.701,46H58V51z"
   id="path40" />
<polygon
   fill="#FFFFFF"
   points="73,60 73,46 69,46 69,43 79,43 79,46 75,46 75,60 "
   id="polygon42" />
<rect
   x="83"
   y="52"
   fill="#0771DB"
   width="2"
   height="8"
   id="rect44" />
<rect
   x="88"
   y="48"
   fill="#0771DB"
   width="2"
   height="12"
   id="rect46" />
<rect
   x="94"
   y="43"
   fill="#0771DB"
   width="2"
   height="17"
   id="rect48" />
<rect
   id="_x3C_スライス_x3E__1_"
   fill="none"
   width="96"
   height="96" />
</svg>