<?xml version="1.0" encoding="UTF-8" standalone="no"?>
<!-- Generator: Adobe Illustrator 16.0.0, SVG Export Plug-In . SVG Version: 6.00 Build 0)  -->

<svg
   xmlns:dc="http://purl.org/dc/elements/1.1/"
   xmlns:cc="http://creativecommons.org/ns#"
   xmlns:rdf="http://www.w3.org/1999/02/22-rdf-syntax-ns#"
   xmlns:svg="http://www.w3.org/2000/svg"
   xmlns="http://www.w3.org/2000/svg"
   xmlns:sodipodi="http://sodipodi.sourceforge.net/DTD/sodipodi-0.dtd"
   xmlns:inkscape="http://www.inkscape.org/namespaces/inkscape"
   version="1.1"
   id="Capa_1"
   x="0px"
   y="0px"
   width="96px"
   height="96px"
   viewBox="0 0 96 96"
   enable-background="new 0 0 96 96"
   xml:space="preserve"
   inkscape:version="0.48.4 r9939"
   sodipodi:docname="logo-adiptel.svg"><metadata
     id="metadata21"><rdf:RDF><cc:Work
         rdf:about=""><dc:format>image/svg+xml</dc:format><dc:type
           rdf:resource="http://purl.org/dc/dcmitype/StillImage" /><dc:title></dc:title></cc:Work></rdf:RDF></metadata><defs
     id="defs19" /><sodipodi:namedview
     pagecolor="#ffffff"
     bordercolor="#666666"
     borderopacity="1"
     objecttolerance="10"
     gridtolerance="10"
     guidetolerance="10"
     inkscape:pageopacity="0"
     inkscape:pageshadow="2"
     inkscape:window-width="640"
     inkscape:window-height="480"
     id="namedview17"
     showgrid="false"
     inkscape:zoom="2.4583333"
     inkscape:cx="48"
     inkscape:cy="48"
     inkscape:window-x="0"
     inkscape:window-y="27"
     inkscape:window-maximized="0"
     inkscape:current-layer="g3" /><g
     id="g3"><path
       fill="#E80000"
       d="M42.027,14.908c0,8.23-7.077,14.897-15.804,14.897s-15.801-6.667-15.801-14.897   C10.422,6.672,17.496,0,26.223,0S42.027,6.672,42.027,14.908z"
       id="path5" /><ellipse
       fill="#FF0000"
       cx="73.137"
       cy="23.42"
       rx="16.473"
       ry="11.034"
       id="ellipse7" /><path
       fill="#FF6600"
       d="M95.859,55.739c0,5.985-6.998,10.838-15.631,10.838c-8.627,0-15.627-4.853-15.627-10.838   c0-5.981,7-10.836,15.627-10.836C88.861,44.903,95.859,49.758,95.859,55.739z"
       id="path9" /><path
       fill="#FF6600"
       d="M81.273,82.646c0,5.658-5.598,10.258-12.502,10.258c-6.906,0-12.506-4.6-12.506-10.258   c0-5.668,5.6-10.263,12.506-10.263C75.676,72.385,81.273,76.979,81.273,82.646z"
       id="path11" /><path
       fill="#FF9900"
       d="M48.329,86.509c0,5.241-4.521,9.491-10.097,9.491c-5.577,0-10.096-4.25-10.096-9.491   c0-5.234,4.519-9.479,10.096-9.479C43.808,77.029,48.329,81.273,48.329,86.509z"
       id="path13" /><path
       fill="#FFCC00"
       d="M21.883,57.288c0,6.847-4.898,12.388-10.94,12.388C4.9,69.676,0,64.135,0,57.288   c0-6.841,4.899-12.385,10.943-12.385C16.985,44.903,21.883,50.447,21.883,57.288z"
       id="path15" /></g></svg>