<?xml version="1.0" encoding="UTF-8" standalone="no"?>
<!-- Created with Inkscape (http://www.inkscape.org/) -->

<svg
   xmlns:dc="http://purl.org/dc/elements/1.1/"
   xmlns:cc="http://creativecommons.org/ns#"
   xmlns:rdf="http://www.w3.org/1999/02/22-rdf-syntax-ns#"
   xmlns:svg="http://www.w3.org/2000/svg"
   xmlns="http://www.w3.org/2000/svg"
   xmlns:sodipodi="http://sodipodi.sourceforge.net/DTD/sodipodi-0.dtd"
   xmlns:inkscape="http://www.inkscape.org/namespaces/inkscape"
   id="svg2"
   version="1.1"
   inkscape:version="0.48.2 r9819"
   width="48"
   height="48"
   xml:space="preserve"
   sodipodi:docname="VoIPBel.eps"><metadata
     id="metadata8"><rdf:RDF><cc:Work
         rdf:about=""><dc:format>image/svg+xml</dc:format><dc:type
           rdf:resource="http://purl.org/dc/dcmitype/StillImage" /><dc:title></dc:title></cc:Work></rdf:RDF></metadata><defs
     id="defs6" /><sodipodi:namedview
     pagecolor="#ffffff"
     bordercolor="#666666"
     borderopacity="1"
     objecttolerance="10"
     gridtolerance="10"
     guidetolerance="10"
     inkscape:pageopacity="0"
     inkscape:pageshadow="2"
     inkscape:window-width="1600"
     inkscape:window-height="841"
     id="namedview4"
     showgrid="false"
     inkscape:zoom="9.7157987"
     inkscape:cx="35.305587"
     inkscape:cy="22.68689"
     inkscape:window-x="0"
     inkscape:window-y="27"
     inkscape:window-maximized="1"
     inkscape:current-layer="g40" /><g
     id="g10"
     inkscape:groupmode="layer"
     inkscape:label="ink_ext_XXXXXX"
     transform="matrix(1.25,0,0,-1.25,0,48.00001)"><g
       id="g12"
       transform="matrix(0.1,0,0,0.1,-0.00200195,208.1949)"><g
         id="g40"
         transform="scale(10,10)"><g
           id="g3034"
           transform="matrix(0.0675145,0,0,0.0675145,0.07851982,-194.06206)"><path
             inkscape:connector-curvature="0"
             id="path14"
             style="fill:#100f0d;fill-opacity:1;fill-rule:nonzero;stroke:none"
             d="m 3400,133.031 2230,0 0,1235 -2230,0 0,-1235 z"
             transform="matrix(0.1,0,0,0.1,0,-4e-6)" /><path
             inkscape:connector-curvature="0"
             id="path16"
             style="fill:none;stroke:#100f0d;stroke-width:10;stroke-linecap:butt;stroke-linejoin:miter;stroke-miterlimit:10;stroke-opacity:1;stroke-dasharray:none"
             d="m 3400,1368.03 2230,0 0,-1234.999 -2230,0"
             transform="matrix(0.1,0,0,0.1,0,-4e-6)" /><g
             transform="translate(0,-4e-6)"
             id="g18"><text
               id="text20"
               transform="matrix(1,0,0,-0.99951024,352.001,34.652)"><tspan
                 id="tspan22"
                 sodipodi:role="line"
                 y="0"
                 x="0 87.090813 163.01556"
                 style="font-size:114.33399963px;font-variant:normal;font-weight:bold;writing-mode:lr-tb;fill:#211c1d;fill-opacity:1;fill-rule:nonzero;stroke:none;font-family:Verdana;-inkscape-font-specification:Verdana-Bold">Bel</tspan></text>
</g><path
             inkscape:connector-curvature="0"
             id="path24"
             style="fill:none;stroke:#100f0d;stroke-width:30;stroke-linecap:butt;stroke-linejoin:miter;stroke-miterlimit:10;stroke-opacity:1;stroke-dasharray:none"
             d="m 15,133.031 5635,0 0,1235 -5635,0 0,-1235 z"
             transform="matrix(0.1,0,0,0.1,0,-4e-6)" /><path
             inkscape:connector-curvature="0"
             id="path26"
             style="fill:#100f0d;fill-opacity:1;fill-rule:nonzero;stroke:none"
             d="m 180,1153.03 300,-819.999 237.5,0 302.5,819.999 -217.5,0 L 600,570.531 397.5,1153.03 l -217.5,0"
             transform="matrix(0.1,0,0,0.1,0,-4e-6)" /><path
             inkscape:connector-curvature="0"
             id="path28"
             style="fill:none;stroke:#100f0d;stroke-width:10;stroke-linecap:butt;stroke-linejoin:miter;stroke-miterlimit:10;stroke-opacity:1;stroke-dasharray:none"
             d="m 180,1153.03 300,-819.999 237.5,0 302.5,819.999 -217.5,0 L 600,570.531 397.5,1153.03 l -217.5,0 z"
             transform="matrix(0.1,0,0,0.1,0,-4e-6)" /><path
             inkscape:connector-curvature="0"
             id="path30"
             style="fill:#ffffff;fill-opacity:1;fill-rule:nonzero;stroke:none"
             d="m 23.3398,158.031 3363.33,0 0,1196.66 -3363.33,0 0,-1196.66 z"
             transform="matrix(0.1,0,0,0.1,0,-4e-6)" /><g
             transform="translate(0,-4e-6)"
             id="g32"><text
               id="text34"
               transform="matrix(1,0,0,-0.99951024,353.335,35.318)"><tspan
                 id="tspan36"
                 sodipodi:role="line"
                 y="0"
                 x="0 87.640907 164.04546"
                 style="font-size:115.05635071px;font-variant:normal;font-weight:bold;writing-mode:lr-tb;fill:#ffffff;fill-opacity:1;fill-rule:nonzero;stroke:none;font-family:Verdana;-inkscape-font-specification:Verdana-Bold">Bel</tspan><tspan
                 id="tspan38"
                 sodipodi:role="line"
                 y="-0.33414766"
                 x="0 87.640907 164.04546"
                 style="font-size:115.05635071px;font-variant:normal;font-weight:bold;writing-mode:lr-tb;fill:#ffffff;fill-opacity:1;fill-rule:nonzero;stroke:none;font-family:Verdana;-inkscape-font-specification:Verdana-Bold">Bel</tspan></text>
</g><text
             id="text42"
             transform="matrix(1,0,0,-1,10.0004,35.6512)"><tspan
               id="tspan44"
               sodipodi:role="line"
               y="0"
               x="0 87.860001 166.86501 229.655"
               style="font-size:115px;font-variant:normal;font-weight:bold;writing-mode:lr-tb;fill:#100f0d;fill-opacity:1;fill-rule:nonzero;stroke:none;font-family:Verdana;-inkscape-font-specification:Verdana-Bold">VoIP</tspan></text>
</g></g></g></g></svg>