<?xml version="1.0" encoding="UTF-8" standalone="no"?>
<!-- Generator: Adobe Illustrator 16.2.0, SVG Export Plug-In . SVG Version: 6.00 Build 0)  -->

<svg
   xmlns:dc="http://purl.org/dc/elements/1.1/"
   xmlns:cc="http://creativecommons.org/ns#"
   xmlns:rdf="http://www.w3.org/1999/02/22-rdf-syntax-ns#"
   xmlns:svg="http://www.w3.org/2000/svg"
   xmlns="http://www.w3.org/2000/svg"
   xmlns:sodipodi="http://sodipodi.sourceforge.net/DTD/sodipodi-0.dtd"
   xmlns:inkscape="http://www.inkscape.org/namespaces/inkscape"
   version="1.1"
   x="0px"
   y="0px"
   width="96"
   height="96"
   viewBox="0 0 95.999999 95.999999"
   enable-background="new 0 0 198.425 56.693"
   xml:space="preserve"
   id="svg2"
   inkscape:version="0.48.3.1 r9886"
   sodipodi:docname="logo_DigiTel.svg"><metadata
   id="metadata47"><rdf:RDF><cc:Work
       rdf:about=""><dc:format>image/svg+xml</dc:format><dc:type
         rdf:resource="http://purl.org/dc/dcmitype/StillImage" /><dc:title></dc:title></cc:Work></rdf:RDF></metadata><defs
   id="defs45" /><sodipodi:namedview
   pagecolor="#ffffff"
   bordercolor="#666666"
   borderopacity="1"
   objecttolerance="10"
   gridtolerance="10"
   guidetolerance="10"
   inkscape:pageopacity="0"
   inkscape:pageshadow="2"
   inkscape:window-width="1258"
   inkscape:window-height="813"
   id="namedview43"
   showgrid="false"
   inkscape:zoom="3.0338919"
   inkscape:cx="95.7595"
   inkscape:cy="32.975613"
   inkscape:window-x="0"
   inkscape:window-y="24"
   inkscape:window-maximized="0"
   inkscape:current-layer="logo" />
<g
   id="ombra"
   transform="translate(0,39.306999)">
</g>
<g
   id="base"
   transform="translate(0,39.306999)">
</g>
<g
   id="logo"
   transform="translate(0,39.306999)">
	<path
   d="m 37.250048,12.073514 c 1.290697,-1.787425 1.798896,-4.1688293 1.643294,-6.6569613 -0.17156,-2.7325056 -1.438817,-5.43010146 -4.085044,-6.34476031 -1.467743,-0.50620399 -3.222751,-0.46431169 -4.968782,-0.46431169 -1.745533,0 -3.490566,0 -5.235101,0 -0.08977,0.51767555 -0.17954,1.03535047 -0.266318,1.55202797 -0.180538,1.20491563 -0.361575,2.41033063 -0.540616,3.61474763 -0.56705,3.8162322 -1.133599,7.6314667 -1.700648,11.4476987 1.916096,0 3.829698,0 5.745295,0 3.816232,4.99e-4 7.256427,-0.170064 9.40792,-3.148441 z M 29.195663,2.6665916 c 1.2114,0 2.548976,-0.1157039 3.417752,0.5336343 1.72309,1.2916937 0.998445,5.4685028 -0.160089,6.8514631 -0.465309,0.555079 -0.991463,0.706193 -1.615864,0.955554 -0.04488,0.008 -0.08877,0.01446 -0.133658,0.02244 -0.04439,0.008 -0.08828,0.01446 -0.132661,0.02145 -0.06683,0.009 -0.133159,0.01546 -0.200487,0.02344 -0.08079,0.008 -0.161586,0.01347 -0.242878,0.02145 -0.126177,0.008 -0.252355,0.01446 -0.37903,0.02244 -0.590987,0 -1.181974,0 -1.772962,0 0.406958,-2.8177875 0.812919,-5.6345782 1.219877,-8.451867 z"
   id="path7"
   inkscape:connector-curvature="0"
   style="fill:#000080" />
	<path
   d="m 77.466616,2.823191 c 0.243373,-1.4049041 0.48725,-2.8108062 0.732619,-4.2152116 -4.837117,0 -9.672741,0 -14.508862,0 -0.235899,1.4133828 -0.47329,2.8247701 -0.710183,4.2361574 1.568985,0 3.137472,0 4.703963,0 -0.606947,4.1269374 -1.212898,8.2523782 -1.820342,12.3783172 0.684744,0 4.983247,0.121689 5.237595,-0.05735 0.02745,-0.04787 0.05337,-0.09625 0.07979,-0.144131 0.59298,-4.059111 1.18846,-8.1167246 1.782435,-12.176833 1.501162,0 3.002317,0 4.502981,0 0,-0.00698 0,-0.013966 0,-0.020943 z"
   id="path9"
   inkscape:connector-curvature="0"
   style="fill:#000080" />
	<path
   d="m 62.027628,2.9772962 c 0,-0.00698 0,-0.014464 0,-0.021945 0.133657,-1.0203879 0.265822,-2.04127517 0.398483,-3.06116496 -0.557075,0.0887729 -4.057119,-0.0962536 -4.208728,0.10523097082 C 57.998939,0.28668178 57.805437,2.4481498 57.724642,2.9553512 c 0.007,0 0.01449,0 0.02143,0 1.426348,0.00748 2.854693,0.014464 4.281539,0.021945 z"
   id="path11"
   inkscape:connector-curvature="0"
   style="fill:#000080" />
	<path
   d="m 44.745364,-0.08337006 c -1.420365,0 -2.838734,0 -4.2586,0 -0.156101,1.02038849 -0.310705,2.04027836 -0.465808,3.06116496 1.427347,0 2.854195,0 4.28204,0 0.147123,-1.0208866 0.294746,-2.04077647 0.442368,-3.06116496 z"
   id="path13"
   inkscape:connector-curvature="0"
   style="fill:#000080" />
	<path
   d="m 90.703231,15.160114 c 0.02346,-0.04589 0.0449,-0.09276 0.06932,-0.138147 0.66829,-4.915917 1.33359,-9.8333305 2.000879,-14.75024542 -1.405399,0 -2.810307,0 -4.215706,0 C 87.869985,5.248483 87.182243,10.224746 86.496498,15.200511 c -0.008,0 -0.01548,0 -0.02346,0 0,0.008 0,0.01546 0,0.02244 0.544105,-5e-4 4.044149,0.08428 4.23017,-0.06284 z"
   id="path15"
   inkscape:connector-curvature="0"
   style="fill:#000080" />
	<path
   d="m 81.117267,12.021647 c -0.236893,0.182034 -0.505705,0.218939 -0.78798,0.320679 -0.07282,0.007 -0.146125,0.01247 -0.220938,0.02145 -1.467743,0 -2.108101,-0.824889 -2.108101,-2.261711 2.685623,0 5.368261,0 8.052385,0 0,-0.7829959 0.0818,-1.5829483 -0.03194,-2.3504839 C 85.514994,4.377218 83.068254,3.246612 79.710846,3.246612 c -0.11221,0.014961 -0.222927,0.029425 -0.334142,0.043889 -0.07282,0.00898 -0.14812,0.014464 -0.220937,0.022442 -0.05085,0.00798 -0.105227,0.015459 -0.156099,0.022442 -0.0519,0.00798 -0.104232,0.014464 -0.156099,0.022442 -0.04588,0.00698 -0.08877,0.014961 -0.132662,0.021945 -0.581513,0 -1.258279,0.3022265 -1.735561,0.5485962 -3.030243,1.5530247 -4.552845,6.3183278 -2.265699,9.1585588 2.061228,2.55895 7.169152,2.667173 9.563521,0.555079 0.721656,-0.638865 1.001437,-1.342065 1.402911,-2.143015 0,-0.01446 0,-0.03042 0,-0.04488 -1.343066,0.01047 -2.685629,0.02045 -4.029684,0.03142 -0.205479,0.05486 -0.351603,0.398979 -0.529149,0.536128 z M 79.997134,5.9072966 c 1.059791,0 1.748527,0.4812685 1.933553,1.4861964 0.02045,0.105729 0.0778,0.3870091 -0.01548,0.4692987 -0.147126,0.1296678 -3.240708,0.064336 -3.713998,0.064336 0,-0.00798 0,-0.014464 0,-0.022939 -0.008,0 -0.01449,0 -0.02242,0 0,-1.0772428 0.897703,-1.7500209 1.818345,-1.9968893 z"
   id="path17"
   inkscape:connector-curvature="0"
   style="fill:#000080" />
	<path
   d="m 56.525213,4.1981712 c -0.499718,0 -3.46164,-0.1102175 -3.647164,0.076804 -0.156603,0.1556013 -0.230912,1.1345956 -0.25734,1.4093924 -0.0061,0 -0.01345,0 -0.02242,0 C 52.486082,5.5292643 52.372374,5.3741617 52.262154,5.2185597 51.389386,4.1283499 50.205919,3.8201389 48.73917,3.8201389 c -0.08079,0.014961 -0.162584,0.029923 -0.243375,0.043889 -0.06085,0.00848 -0.119195,0.015459 -0.178543,0.022442 -0.608941,0 -1.281719,0.3461143 -1.749023,0.6503356 -3.316512,2.1504958 -4.265083,9.5645195 0.509197,10.5026185 1.607383,0.314694 2.766418,-0.197495 3.902514,-1.081234 0.01443,-0.007 0.0304,-0.01346 0.04385,-0.02244 0,0.963534 -0.263825,2.359959 -0.989467,2.958428 -0.231907,0.191011 -0.488251,0.236893 -0.762548,0.346613 -0.774517,0 -1.283713,-0.0379 -1.641797,-0.709186 -0.147123,-0.007 -0.295742,-0.01446 -0.443365,-0.02244 -0.851321,0 -1.701644,0 -2.550971,0 -0.399477,0.01546 -0.798955,0.03042 -1.198931,0.04389 0,1.17649 0.874262,2.080675 1.837298,2.538503 1.248803,0.59398 2.896087,0.716167 4.442128,0.59398 5.488953,-0.436383 5.28996,-4.26259 5.912371,-8.830897 0.299233,-2.218322 0.59747,-4.4376416 0.896703,-6.6564626 z m -5.315891,7.1107998 c -0.296247,0.348608 -0.609944,0.471293 -1.007426,0.631384 -0.04287,0.008 -0.08777,0.01446 -0.131661,0.02244 -0.471293,0 -0.905681,-0.02045 -1.257284,-0.259835 -1.197932,-0.819403 -0.867278,-3.257163 0.03489,-4.1593541 0.286267,-0.2877633 0.592986,-0.4099504 0.978996,-0.5057053 0.573535,0 1.064777,0.08179 1.452285,0.432393 0.930617,0.8463337 0.65632,2.9863564 -0.06982,3.8386744 z"
   id="path19"
   inkscape:connector-curvature="0"
   style="fill:#000080" />
	<path
   d="m 44.191282,4.1981712 c -1.419367,0 -2.839233,0 -4.259099,0 -0.538621,3.6750935 -1.078739,7.3501868 -1.619355,11.0242828 1.420365,0 2.84023,0 4.259099,0 0,-0.006 0,-0.01446 0,-0.02244 0.540117,-3.659633 1.079736,-7.3202635 1.619355,-10.9798969 0,-0.00748 0,-0.014464 0,-0.021945 z"
   id="path21"
   inkscape:connector-curvature="0"
   style="fill:#000080" />
	<path
   d="m 57.656819,4.1981712 c -0.546604,3.6596334 -1.094701,7.3202638 -1.641304,10.9808948 0,0.01546 0,0.02942 0,0.04389 0.532637,0 4.057119,0.0768 4.22369,-0.06433 0.02641,-0.05835 0.05435,-0.118696 0.0808,-0.179042 0.526151,-3.5943 1.048317,-7.1876027 1.573972,-10.7809059 -1.413384,-4.987e-4 -2.824771,-4.987e-4 -4.237153,-4.987e-4 z"
   id="path23"
   inkscape:connector-curvature="0"
   style="fill:#000080" />
	<path
   d="m 55.925747,15.910194 c 0,0.008 0,0.01446 0,0.02244 -0.169568,1.132102 -0.341126,2.262709 -0.509195,3.394811 0.25734,0 0.852316,0.08977 1.029364,-0.06533 0.203477,-0.183032 0.527153,-2.917533 0.546598,-3.373366 -0.008,0 -0.01443,0 -0.02346,0 -0.347611,0.006 -0.694221,0.01347 -1.043331,0.02145 z"
   id="path25"
   inkscape:connector-curvature="0"
   style="fill:#000080" />
	<path
   d="m 61.382781,15.978519 c -0.154109,0.129668 -0.157597,0.549593 -0.177048,0.753073 -0.0061,0 -0.01345,0 -0.02242,0 0,0.008 0,0.01446 0,0.02244 0.319685,0 0.635875,0 0.954558,0 -0.117701,0.858303 -0.235899,1.715109 -0.354594,2.573413 0.282281,0 0.812419,0.0798 1.024874,-0.05735 0.155104,-0.101241 0.384517,-2.150994 0.417934,-2.494614 0.007,0 0.01247,0 0.02144,0 0.08877,-0.007 0.178043,-0.01446 0.26482,-0.02244 0.72165,0 0.777509,-0.170564 0.777509,-0.86379 -0.477779,0.07431 -2.687121,-0.09376 -2.907058,0.08927 z"
   id="path27"
   inkscape:connector-curvature="0"
   style="fill:#000080" />
	<path
   d="m 69.571821,15.959069 c -0.315692,0.154106 -1.37149,2.826765 -1.711621,3.323493 0.09625,0.01446 0.194006,0.02842 0.289258,0.04189 0.219937,0.004 0.639867,0.05835 0.794971,-0.07132 0.08777,-0.102239 0.174548,-0.205474 0.260828,-0.309707 0.336138,-0.01247 0.672282,-0.02543 1.006424,-0.0379 0,0.007 0,0.01446 0,0.02145 0.02242,0.133658 0.0449,0.266817 0.06833,0.400475 0.341126,0 0.678762,0 1.019888,0 -0.236894,-1.146566 -0.47329,-2.293131 -0.709183,-3.438699 -0.34013,0.02344 -0.68026,0.04688 -1.018892,0.07032 z m -0.1571,2.257721 c 0.160589,-0.412943 0.323173,-0.827881 0.488749,-1.240824 0.07282,0.420922 0.146124,0.842344 0.218941,1.264264 -0.234898,-0.007 -0.471791,-0.01546 -0.70769,-0.02344 z"
   id="path29"
   inkscape:connector-curvature="0"
   style="fill:#000080" />
	<path
   d="m 77.198798,15.888749 c -0.0049,0 -0.01345,0 -0.02242,0 -0.251357,0.0399 -0.797961,-0.07481 -0.988472,0.08478 -0.19849,0.161586 -0.535629,2.911548 -0.562063,3.353915 0.871773,0 1.744541,0 2.616307,0 0,-0.008 0,-0.01546 0,-0.02244 0.04588,-0.288262 0.08977,-0.576524 0.133657,-0.865784 -0.509194,0 -1.020888,0 -1.529088,0 0.117203,-0.849824 0.233903,-1.700148 0.352101,-2.550472 z"
   id="path31"
   inkscape:connector-curvature="0"
   style="fill:#000080" />
	<path
   d="m 83.100692,15.910194 c -0.176551,1.12512 -0.35559,2.248246 -0.532638,3.372368 0,0.007 0,0.01446 0,0.02244 0.008,0 0.01646,0 0.02242,0 0.356591,0.007 0.710184,0.01346 1.065773,0.02244 0,-0.008 0,-0.01546 0,-0.02244 0.170563,-1.138586 0.34013,-2.278168 0.510195,-3.416256 -0.007,0 -0.01548,0 -0.02242,0 -0.34911,0.006 -0.695719,0.01347 -1.04333,0.02145 z"
   id="path33"
   inkscape:connector-curvature="0"
   style="fill:#000080" />
	<path
   d="m 90.775046,15.888749 c -0.282275,0.04488 -0.785984,-0.07032 -1.021883,0.0768 -0.205472,0.125679 -1.524598,2.927008 -1.660749,3.316512 -0.008,0 -0.01548,0 -0.02346,0 0,0.01546 0,0.02942 0,0.04488 0.362572,0 0.724641,0 1.089209,0 0,-0.532637 1.226361,-0.675272 1.307156,-0.02244 0.009,0 0.01345,0 0.02143,0 0.332146,0.007 0.66729,0.01347 0.999442,0.02244 0,-0.008 0,-0.01546 0,-0.02244 0.007,0 0.01449,0 0.02045,0 -0.226919,-1.138586 -0.45683,-2.278169 -0.687741,-3.416256 -0.01449,4.98e-4 -0.02893,4.98e-4 -0.04391,4.98e-4 z m -0.551087,2.289141 c -0.206473,0.01346 -0.414937,0.02643 -0.624401,0.0389 0.172558,-0.420923 0.341125,-0.841846 0.51119,-1.263267 0.0409,0.153607 0.234898,1.135594 0.113211,1.224367 z"
   id="path35"
   inkscape:connector-curvature="0"
   style="fill:#000080" />
	<path
   d="m 21.94173,16.309672 c -0.139643,1.013904 -0.28128,2.026313 -0.421421,3.040218 6.795606,0 13.590215,0 20.385822,0 0,-0.008 0,-0.01546 0,-0.02244 0.149617,-1.013905 0.295743,-2.026812 0.444363,-3.040218 -6.788126,0 -13.576252,0 -20.364876,0 -0.01346,0.008 -0.02942,0.01446 -0.04389,0.02244 z"
   id="path37"
   inkscape:connector-curvature="0"
   style="fill:#000080" />
	<path
   d="M 16.903625,0.14005835 C 15.457327,-1.3990025 13.684864,-2.312664 11.44011,-2.312664 c -0.112213,0.015459 -0.221933,0.03042 -0.332151,0.043889 -0.07531,0.00798 -0.148619,0.014961 -0.223427,0.022442 -0.05087,0.00798 -0.102738,0.014464 -0.154605,0.022442 -1.0413339,0 -2.4198061,0.782497 -3.1928275,1.37897059 C 2.1952722,3.275533 1.9204754,13.310348 6.9760355,17.77143 c 1.3754796,1.212895 3.0511905,2.042772 5.0849845,1.914101 1.869715,-0.119694 3.441192,-0.987473 4.709945,-2.296622 4.234661,-4.372808 4.300991,-12.81071 0.13266,-17.24885065 z M 15.454335,15.654848 c 0,0.02244 0,0.04488 0,0.06633 -0.360078,0.119693 -0.723149,0.238888 -1.08622,0.356587 -0.709185,0.185026 -1.419367,0.369056 -2.129549,0.553085 -0.08079,0.01546 -0.162085,0.03042 -0.244874,0.04389 -0.04239,0.009 -0.08728,0.01546 -0.131662,0.02344 -0.04589,0.007 -0.08977,0.01446 -0.133658,0.02145 -0.04488,0.009 -0.08877,0.01446 -0.134157,0.02244 -0.05187,0.008 -0.102737,0.01446 -0.154604,0.02244 -0.05187,0.007 -0.102737,0.01446 -0.156101,0.02145 -0.06633,0.009 -0.132162,0.01546 -0.199489,0.02244 -0.564057,0 -0.545604,0.77751 -1.020388,0.888227 0,-0.01546 0,-0.03042 0,-0.04488 0.155102,-0.251356 0.310704,-0.50371 0.466306,-0.755067 0.0075,-0.01446 0.01397,-0.02942 0.02145,-0.04389 -1.0378439,0 -2.0028735,-0.01846 -2.8098079,-0.482265 C 3.480487,13.919797 10.602758,3.5852487 12.060027,1.0357742 c 0.0085,-0.013463 0.01546,-0.029425 0.02294,-0.043889 -0.148619,0.00798 -0.295245,0.014464 -0.443864,0.021945 -0.09675,0.00848 -0.19151,0.014961 -0.288761,0.021945 -0.07331,0.00848 -0.147622,0.015459 -0.220935,0.022442 -0.06783,0.00798 -0.133657,0.014464 -0.199987,0.022442 -0.05935,0.00748 -0.119195,0.014961 -0.178544,0.021944 -0.05137,0.00848 -0.103235,0.014961 -0.155602,0.021945 -0.04389,0.00848 -0.08777,0.015459 -0.132161,0.022442 -0.05187,0.00798 -0.103735,0.014464 -0.154604,0.022939 -0.04488,0.00748 -0.09027,0.013966 -0.134157,0.021944 -0.117699,0.021945 -0.2358959,0.043889 -0.3540939,0.06633 -0.6877392,0.1635813 -1.37498,0.3251678 -2.0632188,0.4887491 -0.00748,0 -0.014961,0 -0.021447,0 0,-0.00848 0,-0.014464 0,-0.023437 -0.00848,0 -0.014961,0 -0.023941,0 0,-0.00698 0,-0.013966 0,-0.021447 0.28926,-0.1062284 0.5750284,-0.2114588 0.8642878,-0.3176871 0.870272,-0.2603336 1.7525139,-0.48525817 2.6696659,-0.67227947 0.36756,-0.06234 0.735119,-0.1246807 1.102179,-0.18752 0.214452,-0.27230267 0.429402,-0.54660077 0.643354,-0.81990144 0,-0.006983 0,-0.0144638 0,-0.0219445 0.0384,0 0.07531,0 0.112213,0 0,0.007481 0,0.0139663 0,0.0219445 0.007,0 0.01446,0 0.02194,0 -0.163082,0.26681744 -0.324669,0.53263685 -0.489248,0.79895494 -0.006,0 -0.01347,0 -0.02145,0 0,0.014961 0,0.029923 0,0.044884 0.896705,0 1.743537,-0.00997 2.490625,0.3077129 C 19.39474,2.6785672 14.078845,11.473556 12.722317,13.769679 c -0.538621,0.864787 -1.077242,1.731069 -1.614866,2.594859 -0.0075,0 -0.01646,0 -0.02344,0 0,0.01446 0,0.03042 0,0.04488 1.583946,4.98e-4 2.936484,-0.530143 4.370314,-0.754569 z"
   id="path39"
   inkscape:connector-curvature="0"
   style="fill:#000080;stroke:#ffffff;stroke-width:0.24936175;stroke-linecap:round;stroke-linejoin:bevel" />
	<path
   d="M 15.595972,2.242178 C 14.856366,1.2287714 13.604071,1.0108294 12.326839,0.97043273 10.551883,3.7119163 2.9732807,15.280805 9.9369571,16.352562 c 0.3057169,0.04688 0.8213969,0.149118 1.0178949,-0.119694 1.760992,-2.415817 6.808573,-11.0202928 4.64112,-13.99069 z"
   id="path41"
   inkscape:connector-curvature="0"
   style="fill:#000080;stroke:#ffffff;stroke-width:0.49872351" />
</g>
</svg>