<?xml version="1.0" encoding="UTF-8" standalone="no"?>
<!-- Created with Inkscape (http://www.inkscape.org/) -->

<svg
   xmlns:dc="http://purl.org/dc/elements/1.1/"
   xmlns:cc="http://creativecommons.org/ns#"
   xmlns:rdf="http://www.w3.org/1999/02/22-rdf-syntax-ns#"
   xmlns:svg="http://www.w3.org/2000/svg"
   xmlns="http://www.w3.org/2000/svg"
   xmlns:sodipodi="http://sodipodi.sourceforge.net/DTD/sodipodi-0.dtd"
   xmlns:inkscape="http://www.inkscape.org/namespaces/inkscape"
   width="96"
   height="96"
   id="svg3035"
   version="1.1"
   inkscape:version="0.48.4 r9939"
   sodipodi:docname="Nouveau document 3">
  <defs
     id="defs3037" />
  <sodipodi:namedview
     id="base"
     pagecolor="#ffffff"
     bordercolor="#666666"
     borderopacity="1.0"
     inkscape:pageopacity="0.0"
     inkscape:pageshadow="2"
     inkscape:zoom="0.98975522"
     inkscape:cx="133.18453"
     inkscape:cy="17.767162"
     inkscape:current-layer="layer1"
     showgrid="true"
     inkscape:grid-bbox="true"
     inkscape:document-units="px"
     fit-margin-top="0"
     fit-margin-left="0"
     fit-margin-right="0"
     fit-margin-bottom="0"
     inkscape:window-width="1122"
     inkscape:window-height="727"
     inkscape:window-x="228"
     inkscape:window-y="138"
     inkscape:window-maximized="0" />
  <metadata
     id="metadata3040">
    <rdf:RDF>
      <cc:Work
         rdf:about="">
        <dc:format>image/svg+xml</dc:format>
        <dc:type
           rdf:resource="http://purl.org/dc/dcmitype/StillImage" />
        <dc:title></dc:title>
      </cc:Work>
    </rdf:RDF>
  </metadata>
  <g
     id="layer1"
     inkscape:label="Layer 1"
     inkscape:groupmode="layer"
     transform="translate(137.3142,-71.7061)">
    <path
       d="m -137.3142,167.70611 96.200521,0 0,-96.200125 -96.200521,0 0,96.200125 z"
       inkscape:connector-curvature="0"
       id="path8"
       style="fill:#e21c2a;fill-rule:evenodd;stroke:none" />
    <path
       d="m -132.93042,150.66981 5.06869,7.02799 c 1.01785,1.41177 12.5092,4.16287 21.43354,-12.52543 1.60101,-2.99418 4.08567,-10.94382 11.756595,-13.98788 9.308757,-3.69413 11.945836,-6.57706 11.888035,-7.67765 -4.287579,1.57686 -9.113184,1.58913 -13.359193,4.28599 -5.453497,3.46332 -16.501837,21.79698 -22.547597,24.246 -6.26667,2.53929 -10.95214,1.45374 -14.24007,-1.36902 z"
       inkscape:connector-curvature="0"
       id="path12"
       style="fill:#ffffff;fill-rule:evenodd;stroke:none" />
    <path
       d="m -109.49442,158.91004 7.43814,-13.25388 2.774449,0 2.876993,13.25388 -2.647372,0 -0.602557,-2.79306 -5.443203,0 -1.54717,2.79306 -2.84928,0 z m 9.33963,-5.2599 -1.00993,-4.73495 -2.58522,4.73495 3.59515,0 z"
       inkscape:connector-curvature="0"
       id="path16"
       style="fill:#ffffff;fill-rule:evenodd;stroke:none" />
    <path
       d="m -95.537029,158.91004 2.569776,-13.25388 3.914643,0 c 1.096638,0 1.957717,0.28227 2.581653,0.84801 0.624727,0.56257 0.938675,1.32982 0.938675,2.30215 0,0.72094 -0.192802,1.35476 -0.578012,1.8924 -0.385209,0.54039 -0.96322,0.99092 -1.733639,1.34803 0.559009,0.27989 0.984996,0.67144 1.279939,1.17462 0.295341,0.50319 0.441032,1.09031 0.441032,1.75542 0,0.61523 -0.13619,1.19007 -0.409756,1.73047 -0.273565,0.54041 -0.658774,1.00044 -1.155626,1.38248 -0.394711,0.29851 -0.845243,0.50991 -1.357932,0.63423 -0.509521,0.12431 -1.270833,0.18607 -2.283541,0.18607 l -4.207212,0 z m 3.013975,-2.14656 1.084364,0 c 0.947385,0 1.618829,-0.17419 2.016311,-0.52536 0.397877,-0.34799 0.596619,-0.92878 0.596619,-1.74274 0,-0.59345 -0.1738,-1.01943 -0.521794,-1.27677 -0.351162,-0.25813 -0.941447,-0.38878 -1.771249,-0.38878 -0.171028,0 -0.298112,0 -0.382042,0.003 -0.0871,0.003 -0.170633,0.0127 -0.258126,0.025 l -0.764083,3.90552 z m 1.165128,-5.98124 c 0.183301,0.0186 0.316718,0.0313 0.406983,0.0344 0.0871,0.003 0.167861,0.003 0.239519,0.003 0.79536,0 1.407418,-0.15559 1.833009,-0.46597 0.428362,-0.30761 0.642939,-0.74904 0.642939,-1.32072 0,-0.45963 -0.167465,-0.79852 -0.506354,-1.00954 -0.335722,-0.21457 -0.867017,-0.32028 -1.597054,-0.32028 -0.04672,0 -0.117977,0.003 -0.211409,0.01 -0.0962,0.006 -0.167861,0.01 -0.214181,0.01 l -0.593452,3.0603 z"
       inkscape:connector-curvature="0"
       id="path20"
       style="fill:#ffffff;fill-rule:evenodd;stroke:none" />
    <path
       d="m -86.688305,158.91004 7.438137,-13.25388 2.774456,0 2.876993,13.25388 -2.646976,0 -0.602954,-2.79306 -5.443205,0 -1.547171,2.79306 -2.84928,0 z m 9.339637,-5.2599 -1.00954,-4.73495 -2.585612,4.73495 3.595152,0 z"
       inkscape:connector-curvature="0"
       id="path24"
       style="fill:#ffffff;fill-rule:evenodd;stroke:none" />
    <path
       d="m -53.50886,158.817 2.71507,-12.95735 2.528207,0 -2.706361,12.95735 -2.536916,0 z"
       inkscape:connector-curvature="0"
       id="path28"
       style="fill:#ffffff;fill-rule:evenodd;stroke:none" />
    <path
       d="m -56.270251,153.36232 c 0.0059,-0.11164 0.0059,-0.19597 0.0059,-0.25615 0,-0.694 -0.154004,-1.21581 -0.467556,-1.56261 -0.31078,-0.34721 -0.730036,-0.52219 -1.254997,-0.52219 -0.524961,0 -0.992517,0.19597 -1.409002,0.59147 -0.41609,0.39511 -0.696781,0.98025 -0.844452,1.74948 l 3.970069,0 z m 2.139039,1.54796 -6.365649,0 c -0.0059,0.0994 -0.0092,0.17776 -0.0092,0.22922 0,0.62433 0.178154,1.12832 0.534067,1.51155 0.35908,0.38283 0.79338,0.57603 1.306068,0.57603 0.842076,0 1.499663,-0.43747 1.970386,-1.30924 l 2.271269,0.38006 c -0.443406,0.91414 -1.031711,1.59904 -1.773625,2.05432 -0.739141,0.45885 -1.568944,0.68491 -2.485845,0.68491 -1.261332,0 -2.286708,-0.39828 -3.077317,-1.1976 -0.787441,-0.79654 -1.182548,-1.8524 -1.182548,-3.16758 0,-1.28549 0.355913,-2.42883 1.067737,-3.43046 0.971534,-1.35437 2.359158,-2.03333 4.163267,-2.03333 1.149688,0 2.063818,0.35631 2.739616,1.06496 0.67857,0.71222 1.016667,1.70474 1.016667,2.98389 0,0.61245 -0.05741,1.16434 -0.174987,1.65327 z"
       inkscape:connector-curvature="0"
       id="path32"
       style="fill:#ffffff;fill-rule:evenodd;stroke:none" />
    <path
       d="m -65.636808,158.817 -2.669938,0 2.262558,-10.79139 -3.798248,0 0.449345,-2.16596 10.209029,0 -0.449345,2.16596 -3.749948,0 -2.253453,10.79139 z"
       inkscape:connector-curvature="0"
       id="path36"
       style="fill:#ffffff;fill-rule:evenodd;stroke:none" />
  </g>
</svg>
