<?xml version="1.0" encoding="UTF-8" standalone="no"?>
<!-- Created with Inkscape (http://www.inkscape.org/) -->

<svg
   xmlns:dc="http://purl.org/dc/elements/1.1/"
   xmlns:cc="http://creativecommons.org/ns#"
   xmlns:rdf="http://www.w3.org/1999/02/22-rdf-syntax-ns#"
   xmlns:svg="http://www.w3.org/2000/svg"
   xmlns="http://www.w3.org/2000/svg"
   xmlns:sodipodi="http://sodipodi.sourceforge.net/DTD/sodipodi-0.dtd"
   xmlns:inkscape="http://www.inkscape.org/namespaces/inkscape"
   width="96"
   height="96"
   id="svg2"
   version="1.1"
   inkscape:version="0.48.2 r9819"
   sodipodi:docname="ic_wizard_congstar.svg">
  <defs
     id="defs4" />
  <sodipodi:namedview
     id="base"
     pagecolor="#ffffff"
     bordercolor="#666666"
     borderopacity="1.0"
     inkscape:pageopacity="0.0"
     inkscape:pageshadow="2"
     inkscape:zoom="2.8"
     inkscape:cx="80.485032"
     inkscape:cy="65.522243"
     inkscape:document-units="px"
     inkscape:current-layer="layer1"
     showgrid="false"
     fit-margin-top="0"
     fit-margin-left="0"
     fit-margin-right="0"
     fit-margin-bottom="0"
     inkscape:window-width="1561"
     inkscape:window-height="660"
     inkscape:window-x="2"
     inkscape:window-y="83"
     inkscape:window-maximized="0">
    <inkscape:grid
       type="xygrid"
       id="grid2998"
       empspacing="5"
       visible="true"
       enabled="true"
       snapvisiblegridlinesonly="true" />
  </sodipodi:namedview>
  <metadata
     id="metadata7">
    <rdf:RDF>
      <cc:Work
         rdf:about="">
        <dc:format>image/svg+xml</dc:format>
        <dc:type
           rdf:resource="http://purl.org/dc/dcmitype/StillImage" />
        <dc:title></dc:title>
      </cc:Work>
    </rdf:RDF>
  </metadata>
  <g
     inkscape:label="Calque 1"
     inkscape:groupmode="layer"
     id="layer1"
     transform="translate(-260,-483.50504)">
    <path
       style="fill:#000000"
       d=""
       id="path3013"
       inkscape:connector-curvature="0" />
    <path
       style="fill:#ffffff;fill-opacity:1;stroke:#000000;stroke-width:0.35206327;stroke-opacity:1"
       d="m 298.95376,576.03571 c -0.90258,-0.3923 -1.14306,-0.70536 -1.1388,-1.48248 0.01,-1.81172 0.32024,-1.95959 3.55788,-1.69534 2.70494,0.22078 3.01568,0.17873 3.74203,-0.50642 0.43569,-0.41097 0.7912,-0.78063 0.79002,-0.82149 -0.001,-0.0409 -0.84891,-0.0862 -1.88387,-0.10051 -2.4491,-0.0342 -4.39256,-1.0434 -5.43322,-2.82137 -1.05833,-1.80811 -0.98134,-5.56638 0.1452,-7.0869 1.61311,-2.17733 2.67564,-2.56371 7.05008,-2.56371 l 3.99667,0 0,6.63384 c 0,6.2225 -0.0496,6.72773 -0.80093,8.14837 -1.14541,2.16604 -2.56603,2.82423 -6.05882,2.80717 -1.6256,-0.008 -3.30708,-0.22462 -3.96621,-0.5111 z m 6.88284,-8.69917 c 0.23919,-0.2392 0.42248,-1.38479 0.42248,-2.64048 l 0,-2.218 -1.52292,0 c -2.10758,0 -3.28986,1.31147 -3.09445,3.43261 0.13375,1.45161 3.14545,2.4753 4.19489,1.42587 z m -39.61589,3.95332 c -2.98916,-0.71018 -4.3184,-2.62 -4.32028,-6.20728 -0.003,-4.38201 2.02713,-6.21663 6.68788,-6.04587 l 2.64047,0.0967 0.11197,1.16719 c 0.15538,1.61935 -0.43266,2.17741 -2.29462,2.17741 -1.26392,0 -1.76795,0.1997 -2.59737,1.0291 -0.56601,0.56601 -1.02909,1.29112 -1.02909,1.61138 0,0.32023 0.46308,1.04535 1.02909,1.61136 0.76076,0.76074 1.36354,1.0291 2.31156,1.0291 1.93097,0 2.64442,0.52244 2.64442,1.93635 0,0.83345 -0.21093,1.32033 -0.68098,1.5719 -0.77153,0.4129 -2.81718,0.42318 -4.50313,0.0226 z m 9.05679,0.10561 c -2.46625,-1.0101 -3.87549,-3.32464 -3.86689,-6.35099 0.0111,-3.96731 2.46608,-6.42211 6.43339,-6.43339 4.0641,-0.0111 6.30553,2.05354 6.52943,6.01571 0.15907,2.81537 -0.50157,4.47762 -2.33553,5.87647 -1.03744,0.79129 -1.64247,0.95754 -3.73514,1.02636 -1.37343,0.0452 -2.73479,-0.0159 -3.02526,-0.13423 z m 4.4168,-4.14862 c 1.45271,-1.4527 1.07479,-3.72081 -0.78499,-4.71134 -1.0808,-0.57565 -1.32524,-0.52751 -2.5486,0.50187 -1.41799,1.19318 -1.47889,2.82161 -0.15507,4.14546 1.16032,1.16032 2.37014,1.18252 3.48863,0.0641 z m 6.3463,3.83154 c -0.45806,-0.45804 -0.55325,-1.54846 -0.55325,-6.33713 l 0,-5.7839 3.90639,0 c 4.5643,0 5.57165,0.40154 6.66298,2.65592 0.56001,1.15681 0.69665,2.172 0.69665,5.17548 0,4.05585 -0.31469,4.84288 -1.93634,4.84288 -1.59263,0 -1.93636,-0.80721 -1.93636,-4.5474 0,-3.88229 -0.37785,-4.60624 -2.40415,-4.60624 l -1.11648,0 0,4.02357 c 0,4.36336 -0.28939,5.13007 -1.93635,5.13007 -0.45642,0 -1.07882,-0.24896 -1.38309,-0.55325 z m 26.31948,0.28029 c -0.84304,-0.53627 -0.9224,-2.08913 -0.14647,-2.8651 0.6142,-0.6142 1.16751,-0.73464 3.37512,-0.73464 1.45226,0 2.64047,-0.13709 2.64047,-0.30475 0,-0.16762 -1.1405,-0.38636 -2.53444,-0.4861 -2.28753,-0.16368 -2.63051,-0.28887 -3.52063,-1.28508 -0.80493,-0.90087 -0.9862,-1.43125 -0.9862,-2.88558 0,-1.50456 0.16198,-1.94382 1.04079,-2.82263 l 1.04078,-1.04078 3.97612,0.0997 3.97612,0.0997 0.11196,1.16719 c 0.17743,1.84834 -0.35145,2.17741 -3.49974,2.17741 -1.61422,0 -2.7734,0.14711 -2.7734,0.35206 0,0.19362 0.67333,0.35295 1.49627,0.35403 3.51469,0.005 5.07664,1.09581 5.43934,3.80002 0.24444,1.8224 -0.64268,3.49864 -2.19482,4.14718 -1.26237,0.52744 -6.70806,0.69384 -7.44136,0.22739 z m 13.00286,-0.11975 c -2.017,-0.58264 -2.23277,-1.51677 -2.12442,-9.19824 l 0.0956,-6.77997 1.58428,0 1.58428,0 0.10592,1.83265 0.10592,1.83265 2.35859,0.10369 2.35856,0.10369 0.11197,1.16719 c 0.16681,1.73788 -0.40063,2.17741 -2.81105,2.17741 l -2.0847,0 0.10337,2.55245 0.10337,2.55247 1.93634,0.17972 c 1.065,0.0989 2.13439,0.30625 2.37643,0.46086 0.71766,0.45844 0.54639,2.62235 -0.24091,3.04369 -0.82445,0.44123 -3.99404,0.42512 -5.5637,-0.0283 z m 10.24578,0.0334 c -2.71473,-0.58853 -4.35315,-2.84972 -4.35315,-6.00782 0,-2.51308 1.02231,-4.55224 2.77645,-5.53813 1.1785,-0.66236 1.91053,-0.76894 5.28093,-0.76894 l 3.91277,0 0,5.94197 c 0,4.33586 -0.11896,6.0347 -0.44007,6.28507 -0.49923,0.38923 -5.5042,0.45051 -7.17693,0.0878 z m 3.41538,-3.87775 c 0.56548,-0.30263 0.68098,-0.75056 0.68098,-2.64048 l 0,-2.27603 -1.5229,0 c -2.37316,0 -3.85419,1.98472 -2.88279,3.86319 0.72814,1.40805 2.25505,1.83985 3.72471,1.05332 z m 6.51518,3.68389 c -0.45804,-0.45805 -0.55324,-1.54847 -0.55324,-6.33714 l 0,-5.78389 3.18605,0 c 4.83651,0 6.13792,1.05626 5.90097,4.7894 -0.10592,1.66865 -0.1468,1.72735 -1.27661,1.83581 -1.37082,0.13153 -2.17739,-0.42148 -2.17739,-1.49299 0,-0.85789 -0.60921,-1.61159 -1.30265,-1.61159 -0.34883,0 -0.45767,0.9569 -0.45767,4.02358 0,4.36336 -0.2894,5.13006 -1.93634,5.13006 -0.45644,0 -1.07883,-0.24896 -1.38312,-0.55324 z m -44.34757,-28.64965 c -3.27397,-0.71433 -7.85005,-2.70642 -10.69077,-4.65397 -10.35111,-7.09651 -14.61413,-20.59356 -10.32908,-32.70263 1.45237,-4.10426 3.02615,-6.49301 6.72289,-10.20439 2.72935,-2.74013 3.92898,-3.65751 6.51402,-4.98135 5.18755,-2.6566 7.26622,-3.17233 13.55443,-3.36284 4.73335,-0.14345 5.87716,-0.0652 8.62556,0.58928 3.82783,0.91162 7.99979,2.87565 11.08999,5.22079 2.56142,1.94388 4.92888,4.41432 4.92888,5.14326 0,0.59339 -13.41003,5.51902 -14.99863,5.50916 -1.58495,-0.01 -2.71146,-0.96154 -8.44683,-7.13606 -2.83285,-3.04974 -5.29626,-5.54499 -5.47425,-5.54499 -0.72095,0 -0.63006,1.22855 0.56216,7.59903 1.48538,7.93688 1.53105,8.92553 0.45654,9.88346 -0.43567,0.3884 -4.00031,1.87612 -7.92142,3.30605 -4.3018,1.56874 -7.12929,2.7821 -7.12929,3.05938 0,0.65178 0.69877,0.894 8.97259,3.1101 7.84017,2.09994 9.09998,2.57507 9.67452,3.6486 0.19838,0.37068 1.06183,4.32447 1.91877,8.78623 0.85695,4.46175 1.65925,8.27597 1.78291,8.47604 0.5792,0.93719 1.30088,-0.0953 4.35996,-6.2374 1.80823,-3.63066 3.53391,-6.87844 3.83483,-7.2173 0.36814,-0.41456 1.06575,-0.61611 2.1325,-0.61611 1.63891,0 12.29741,2.66295 12.90963,3.22538 0.98794,0.9076 -4.31441,7.39604 -8.46356,10.35682 -2.61904,1.86891 -5.84027,3.37868 -9.37028,4.39181 -3.82217,1.09696 -11.03603,1.26368 -15.21607,0.35165 z"
       id="path3098"
       inkscape:connector-curvature="0"
       sodipodi:nodetypes="sssscsssscsscssscsssccscssssssssccsssssssssssssscsssssscssssssssssscccssssssscscccccccsscccsssccsssscssssscssssscsssssssssssssssssssssssssssssssssss" />
  </g>
</svg>
