<?xml version="1.0" encoding="UTF-8" standalone="no"?>
<!-- Generator: Adobe Illustrator 16.0.0, SVG Export Plug-In . SVG Version: 6.00 Build 0)  -->

<svg
   xmlns:dc="http://purl.org/dc/elements/1.1/"
   xmlns:cc="http://creativecommons.org/ns#"
   xmlns:rdf="http://www.w3.org/1999/02/22-rdf-syntax-ns#"
   xmlns:svg="http://www.w3.org/2000/svg"
   xmlns="http://www.w3.org/2000/svg"
   xmlns:sodipodi="http://sodipodi.sourceforge.net/DTD/sodipodi-0.dtd"
   xmlns:inkscape="http://www.inkscape.org/namespaces/inkscape"
   version="1.1"
   x="0px"
   y="0px"
   width="96"
   height="96"
   viewBox="0 0 96 96"
   enable-background="new 0 0 800 800"
   xml:space="preserve"
   id="svg2"
   inkscape:version="0.48.3.1 r9886"
   sodipodi:docname="pbxes_cube.svg"><metadata
   id="metadata82"><rdf:RDF><cc:Work
       rdf:about=""><dc:format>image/svg+xml</dc:format><dc:type
         rdf:resource="http://purl.org/dc/dcmitype/StillImage" /><dc:title></dc:title></cc:Work></rdf:RDF></metadata><defs
   id="defs80" /><sodipodi:namedview
   pagecolor="#ffffff"
   bordercolor="#666666"
   borderopacity="1"
   objecttolerance="10"
   gridtolerance="10"
   guidetolerance="10"
   inkscape:pageopacity="0"
   inkscape:pageshadow="2"
   inkscape:window-width="1536"
   inkscape:window-height="777"
   id="namedview78"
   showgrid="false"
   inkscape:zoom="2.36"
   inkscape:cx="16.621333"
   inkscape:cy="70.486242"
   inkscape:window-x="0"
   inkscape:window-y="27"
   inkscape:window-maximized="0"
   inkscape:current-layer="Layer_2" />
<g
   id="Layer_1"
   display="none"
   style="display:none"
   transform="translate(0,-704)">
</g>
<g
   id="Layer_2"
   transform="translate(0,-704)">
	<path
   style="color:#000000;fill:#ffffff;fill-opacity:1;fill-rule:nonzero;stroke:#ffffff;stroke-width:0.11957008;stroke-linecap:butt;stroke-linejoin:miter;stroke-miterlimit:4;stroke-opacity:1;stroke-dasharray:none;stroke-dashoffset:0;marker:none;visibility:visible;display:inline;overflow:visible;enable-background:accumulate"
   d="m 34.469627,705.90563 0.250354,1.82718 c 0.816183,5.89779 1.634877,11.79484 2.451186,17.69264 0.81149,5.86395 1.620974,11.72782 2.432503,17.59174 0.683851,0.11671 1.367508,0.23456 2.051368,0.35124 3.775939,0.64431 7.549591,1.2876 11.32553,1.9318 1.481507,-1.60409 2.961201,-3.20858 4.442776,-4.81269 l 15.230243,-16.48946 c 2.849432,-3.08489 5.699736,-6.17049 8.549255,-9.25547 -4.229688,-0.79973 -8.459812,-1.59925 -12.689373,-2.39888 -7.547623,-1.42695 -15.095963,-2.85515 -22.643586,-4.2821 -3.799594,-0.71837 -7.600497,-1.43765 -11.400256,-2.156 z m -0.829513,0.48202 c -1.856573,1.88431 -3.714708,3.76476 -5.571223,5.64968 -5.320627,5.40182 -10.64197,10.80354 -15.962606,16.20548 -2.8332126,2.87653 -5.6674429,5.7546 -8.5006843,8.63146 5.1230882,0.874 10.2492693,1.74897 15.3722313,2.62308 6.569054,1.12073 13.137799,2.24177 19.70664,3.3629 -0.139777,-1.00992 -0.278711,-2.02043 -0.418489,-3.03035 -1.045403,-7.55419 -2.089584,-15.10807 -3.134978,-22.66227 z m 48.179259,9.00885 c -1.340159,1.4512 -2.680134,2.90183 -4.020535,4.3531 l -15.230244,16.48946 c -2.982791,3.22926 -5.966105,6.45955 -8.949071,9.68891 0.08173,0.48843 0.164819,0.97639 0.246612,1.46474 0.786421,4.69659 1.571454,9.3939 2.357778,14.09058 1.0674,0.18193 2.134848,0.36354 3.202229,0.54554 7.544394,1.28622 15.087984,2.57353 22.632378,3.85988 3.563307,0.60768 7.126866,1.21587 10.690308,1.82343 -0.128095,-0.61407 -0.256598,-1.22801 -0.384868,-1.84212 -1.254642,-6.00553 -2.512048,-12.00833 -3.766458,-18.01398 l -4.666964,-22.34092 c -0.70454,-3.37306 -1.406529,-6.74566 -2.111165,-10.11862 z M 3.2020513,737.71127 c 0.094135,0.71863 0.1898309,1.43728 0.2839853,2.15599 0.8032791,6.13216 1.6068103,12.26308 2.4100798,18.39511 0.9878943,7.54057 1.9752069,15.0806 2.9631012,22.62117 0.4401661,3.35993 0.8788392,6.72135 1.3190054,10.08125 2.021664,-2.08333 4.042726,-4.1684 6.064448,-6.25128 5.302691,-5.46339 10.603734,-10.92517 15.906552,-16.38857 2.935103,-3.02407 5.86818,-6.04842 8.803341,-9.07237 l -0.239138,-1.7263 c -0.633497,-4.5777 -1.264618,-9.15791 -1.898173,-13.73561 -0.655194,-0.1118 -1.310222,-0.2245 -1.965435,-0.33629 -7.559334,-1.28969 -15.117989,-2.5814 -22.677206,-3.87108 -3.656482,-0.62394 -7.3139722,-1.24821 -10.9705607,-1.87202 z m 36.5323997,6.23633 c 0.190984,1.38 0.380718,2.7601 0.571693,4.14011 0.504655,3.64643 1.008651,7.29433 1.513306,10.94066 0.322502,0.0552 0.645227,0.10936 0.967768,0.16441 4.168534,0.71087 8.337591,1.41936 12.50629,2.12985 -0.234146,-1.39854 -0.468349,-2.79763 -0.702475,-4.19617 -0.611858,-3.65407 -1.222931,-7.30531 -1.834654,-10.95934 -0.126379,-0.0215 -0.254756,-0.042 -0.381135,-0.0635 -4.213711,-0.71885 -8.427267,-1.43698 -12.640793,-2.15599 z m 1.849593,15.94392 c -2.181169,2.24727 -4.361544,4.4936 -6.542724,6.74076 -5.302691,5.4634 -10.603744,10.92518 -15.906551,16.38858 -2.778079,2.86228 -5.557835,5.72445 -8.336273,8.58661 0.09084,0.0116 0.181881,0.0219 0.272769,0.0336 5.56084,0.71432 11.122912,1.43048 16.683762,2.14479 7.591859,0.9751 15.182497,1.95064 22.774356,2.92574 3.640864,0.46768 7.281224,0.93727 10.921981,1.40495 -0.06166,-0.3663 -0.121891,-0.73309 -0.183093,-1.09856 -0.965772,-5.7677 -1.930185,-11.53247 -2.89584,-17.30029 -0.974245,-5.81944 -1.947713,-11.6415 -2.921996,-17.46097 -0.922834,-0.15726 -1.846026,-0.31347 -2.768792,-0.47081 -3.698954,-0.63081 -7.398509,-1.26359 -11.097599,-1.89443 z m 14.796796,2.52591 c 0.127194,0.75973 0.253941,1.51958 0.381135,2.27931 1.260508,7.52933 2.52089,15.0582 3.781398,22.58753 0.582241,3.47731 1.162892,6.95514 1.744978,10.43249 1.668701,-1.61779 3.338313,-3.23612 5.006995,-4.8538 5.411387,-5.24625 10.823997,-10.49227 16.235375,-15.73841 2.948239,-2.85825 5.896323,-5.71355 8.844446,-8.57168 -0.139516,-0.0235 -0.278954,-0.0472 -0.418489,-0.071 -5.546143,-0.9458 -11.092664,-1.89411 -16.638924,-2.8398 -6.311409,-1.076 -12.624826,-2.14917 -18.936914,-3.22465 z"
   id="rect3858"
   inkscape:connector-curvature="0"
   sodipodi:nodetypes="cccccccccsscccsccccccccccccccccccccscscccccccccccccccccccccccccccsccccscccscccc" /><g
   id="g6"
   style="color:#000000;fill:#787878;fill-opacity:1;fill-rule:nonzero;stroke-width:1;stroke-linecap:butt;stroke-linejoin:miter;stroke-miterlimit:4;stroke-opacity:1;stroke-dasharray:none;stroke-dashoffset:0;marker:none;visibility:visible;display:inline;overflow:visible;enable-background:accumulate">
		<g
   id="g8"
   style="color:#000000;fill:#787878;fill-opacity:1;fill-rule:nonzero;stroke-width:1;stroke-linecap:butt;stroke-linejoin:miter;stroke-miterlimit:4;stroke-opacity:1;stroke-dasharray:none;stroke-dashoffset:0;marker:none;visibility:visible;display:inline;overflow:visible;enable-background:accumulate">
			
		</g>
	</g>
	<g
   id="g12">
		<g
   id="g14">
			
		</g>
	</g>
	<g
   id="g18">
		<g
   id="g20">
			
		</g>
	</g>
	<g
   id="g24">
		<g
   id="g26">
			
		</g>
	</g>
	<g
   id="g30">
		<g
   id="g32">
			
		</g>
	</g>
	<g
   id="g36">
		<g
   id="g38">
			
		</g>
	</g>
	<g
   id="g42">
		<g
   id="g44">
			
		</g>
	</g>
	<g
   id="g48">
		<g
   id="g50">
			
		</g>
	</g>
	<g
   id="g54">
		<g
   id="g56">
			
		</g>
	</g>
	<g
   id="g60">
		<g
   id="g62">
			
		</g>
	</g>
	<g
   id="g66">
		<g
   id="g68">
			
		</g>
	</g>
	<g
   id="g72">
		<g
   id="g74">
			
		</g>
	</g>
<path
   inkscape:connector-curvature="0"
   style="color:#000000;fill:#787878;fill-opacity:1;fill-rule:nonzero;stroke-width:1;stroke-linecap:butt;stroke-linejoin:miter;stroke-miterlimit:4;stroke-opacity:1;stroke-dasharray:none;stroke-dashoffset:0;marker:none;visibility:visible;display:inline;overflow:visible;enable-background:accumulate"
   d="m 34.021123,704.91566 c -0.110218,-0.008 -0.22351,0.0314 -0.325081,0.13453 -3.035287,3.08167 -6.07072,6.16257 -9.106008,9.24425 -5.320626,5.40194 -10.641979,10.80367 -15.9626057,16.20549 -2.0617802,2.09332 -4.1221449,4.18793 -6.1840123,6.28116 -0.1382263,0.0581 -0.2358611,0.18919 -0.2092493,0.39234 9.695e-4,0.005 0.00291,0.01 0.00388,0.0149 0.00194,0.0137 0.00194,0.0274 0.00388,0.0411 0,0.0423 0.00291,0.0841 0.01493,0.1233 0.4747566,3.62385 0.9526058,7.24582 1.4273721,10.86967 0.9878846,7.54057 1.9752069,15.0806 2.9630915,22.62116 0.8032792,6.13203 1.6068201,12.2667 2.4100895,18.39885 0.1176542,0.89809 0.2335731,1.79609 0.3512371,2.69406 0.00291,0.0204 0.010179,0.0371 0.01493,0.056 0.036452,0.20209 0.2138446,0.37157 0.4147662,0.38861 0.00291,3.5e-4 0.00485,-3.6e-4 0.00776,0 0.00388,5.9e-4 0.00679,0.003 0.011149,0.004 3.8201472,0.49072 7.6399062,0.98149 11.4600432,1.4722 7.591869,0.9751 15.186239,1.9469 22.778099,2.922 5.56085,0.71431 11.119179,1.43047 16.680029,2.14479 0.346322,0.0446 0.692615,0.0901 1.038762,0.13452 0.038,0.0109 0.07891,0.0152 0.119574,0.0149 0.01871,0.002 0.03732,0.005 0.05603,0.008 0.201736,0.0259 0.333603,-0.0688 0.392342,-0.2055 3.132806,-3.03716 6.264527,-6.07244 9.397459,-9.10975 5.411378,-5.24614 10.823987,-10.49215 16.235375,-15.73841 1.873539,-1.81627 3.746244,-3.63526 5.619793,-5.45165 0.12129,-0.11756 0.152982,-0.25205 0.127039,-0.37739 -4.75e-4,-0.003 6.01e-4,-0.005 0,-0.008 -0.0019,-0.0531 -0.01231,-0.10564 -0.03364,-0.15319 -0.754554,-3.61209 -1.506131,-7.22395 -2.260617,-10.83604 L 86.80056,734.86061 c -1.254409,-6.00564 -2.511805,-12.01218 -3.766448,-18.01772 -0.171983,-0.82335 -0.343675,-1.64639 -0.515648,-2.46986 -4.85e-4,-0.002 4.75e-4,-0.005 0,-0.008 -0.0058,-0.0752 -0.03529,-0.14675 -0.08221,-0.20551 -0.01561,-0.0196 -0.0317,-0.0397 -0.05225,-0.056 -0.0029,-0.002 -0.0048,-0.006 -0.0078,-0.008 -0.0087,-0.007 -0.01706,-0.0125 -0.02618,-0.0187 -0.0058,-0.003 -0.01299,-0.004 -0.01871,-0.008 -0.01706,-0.0103 -0.03393,-0.0188 -0.05235,-0.0262 -0.02676,-0.0108 -0.05351,-0.0176 -0.08221,-0.0224 -0.0029,-5.1e-4 -0.0048,-0.003 -0.0078,-0.004 -9.69e-4,-1.9e-4 -0.0029,1.6e-4 -0.0039,0 -0.03926,-0.013 -0.08192,-0.022 -0.123316,-0.0224 -3.947671,-0.74635 -7.893499,-1.49184 -11.841179,-2.2382 -7.547613,-1.42695 -15.095953,-2.85515 -22.643576,-4.2821 -4.457696,-0.84273 -8.915479,-1.68307 -13.373165,-2.52592 -0.02463,-0.005 -0.05022,-0.0103 -0.07475,-0.0149 -0.0087,-0.002 -0.01755,-0.002 -0.02618,-0.004 -0.0087,-0.002 -0.01764,-0.002 -0.02618,-0.004 -0.01842,-0.004 -0.03723,-0.01 -0.05603,-0.0113 z m 0.448388,0.9902 c 3.799749,0.71834 7.600652,1.43763 11.400256,2.156 7.547623,1.42694 15.095963,2.85515 22.643585,4.2821 4.229562,0.79962 8.459686,1.59915 12.689373,2.39887 -2.849528,3.08498 -5.699822,6.17059 -8.549264,9.25547 l -15.230233,16.48946 c -1.481585,1.60412 -2.961279,3.2086 -4.442776,4.8127 -3.77594,-0.6442 -7.549601,-1.28749 -11.32553,-1.93181 -0.683861,-0.11667 -1.367518,-0.23453 -2.051368,-0.35124 -0.81153,-5.86391 -1.621013,-11.72779 -2.432504,-17.59174 -0.816309,-5.8978 -1.635002,-11.79484 -2.451195,-17.69263 l -0.250344,-1.82718 z m -0.829523,0.48201 1.490891,10.78 c 1.045403,7.55419 2.089575,15.10806 3.134978,22.66225 0.139787,1.00992 0.278721,2.02044 0.418499,3.03036 -6.568842,-1.12113 -13.137586,-2.24217 -19.706641,-3.36291 -5.122971,-0.87411 -10.2491425,-1.74907 -15.3722307,-2.62306 2.8332415,-2.87687 5.6674621,-5.75495 8.5006837,-8.63147 5.320627,-5.40193 10.64198,-10.80366 15.962606,-16.20548 1.856516,-1.88492 3.71464,-3.76537 5.571214,-5.64969 z m 48.179268,9.00886 c 0.704637,3.37296 1.406626,6.74555 2.111155,10.11862 l 4.666975,22.34092 c 1.25441,6.00565 2.511806,12.00845 3.766458,18.01398 0.12827,0.61411 0.256763,1.22804 0.384868,1.84212 -3.563443,-0.60756 -7.127001,-1.21576 -10.690318,-1.82344 -7.544394,-1.28633 -15.087974,-2.57366 -22.632368,-3.85987 -1.067391,-0.182 -2.134839,-0.36361 -3.202239,-0.54554 -0.786324,-4.69669 -1.571357,-9.39399 -2.357768,-14.09059 -0.08182,-0.48834 -0.164848,-0.97631 -0.246612,-1.46473 2.982956,-3.22937 5.96627,-6.45966 8.949071,-9.68891 l 15.230234,-16.48946 c 1.340401,-1.45127 2.680385,-2.9019 4.020544,-4.3531 z M 3.2019349,737.71149 c 3.6565788,0.62383 7.3140691,1.24809 10.9705511,1.87202 7.559227,1.28969 15.117872,2.58141 22.677216,3.87108 0.655203,0.1118 1.310241,0.22449 1.965434,0.33629 0.633555,4.5777 1.264677,9.15793 1.898174,13.73562 l 0.239138,1.72629 c -2.935162,3.02395 -5.868239,6.04831 -8.803342,9.07238 -5.302817,5.4634 -10.60387,10.92518 -15.906561,16.38858 -2.021712,2.08286 -4.042775,4.16794 -6.064438,6.25126 C 9.7379308,787.60512 9.2992577,784.24369 8.8590916,780.88376 7.871207,773.34319 6.8838846,765.80317 5.896,758.2626 5.0927306,752.13057 4.2891897,745.99964 3.4859106,739.8675 3.3917755,739.14877 3.2960894,738.43012 3.2019349,737.71149 z m 36.5323901,6.23633 c 4.213526,0.71901 8.427092,1.43714 12.640803,2.156 0.126379,0.0216 0.254756,0.042 0.381125,0.0635 0.611723,3.65404 1.222806,7.30528 1.834654,10.95935 0.234136,1.39855 0.468339,2.79763 0.702474,4.19616 -4.168688,-0.71048 -8.337746,-1.41897 -12.506279,-2.12985 -0.322541,-0.0551 -0.645276,-0.10922 -0.967769,-0.1644 -0.504664,-3.64634 -1.00865,-7.29422 -1.513305,-10.94066 -0.190975,-1.38001 -0.380719,-2.76012 -0.571703,-4.14012 z m 1.849603,15.94392 c 3.69909,0.63084 7.398645,1.26362 11.097599,1.89444 0.922766,0.15733 1.845948,0.31355 2.768791,0.47081 0.974283,5.81946 1.947742,11.64152 2.921996,17.46097 0.965645,5.76782 1.930069,11.53259 2.89584,17.30029 0.06117,0.36547 0.121397,0.73226 0.183093,1.09855 -3.640767,-0.46768 -7.281116,-0.93726 -10.92198,-1.40495 -7.591869,-0.9751 -15.182497,-1.95064 -22.774366,-2.92573 -5.560841,-0.71431 -11.122912,-1.43047 -16.683762,-2.14479 -0.09084,-0.0117 -0.181891,-0.0219 -0.272769,-0.0336 2.778447,-2.86216 5.558194,-5.72433 8.336282,-8.58663 5.302808,-5.4634 10.603861,-10.92518 15.906552,-16.38858 2.181179,-2.24715 4.361554,-4.49349 6.542724,-6.74076 z m 14.796796,2.52593 c 6.312088,1.07547 12.625495,2.14864 18.936914,3.22465 5.54625,0.94567 11.092781,1.89398 16.638914,2.83978 0.139545,0.0239 0.278973,0.0475 0.418499,0.071 -2.948123,2.85814 -5.896207,5.71342 -8.844447,8.57168 -5.411387,5.24614 -10.823987,10.49216 -16.235374,15.73841 -1.668682,1.61767 -3.338294,3.236 -5.006995,4.85379 -0.582096,-3.47735 -1.162738,-6.95518 -1.744979,-10.43248 -1.260508,-7.52933 -2.520899,-15.05821 -3.781397,-22.58754 -0.127194,-0.75973 -0.253942,-1.51957 -0.381135,-2.27929 z"
   id="path10" /></g>
</svg>