<?xml version="1.0" encoding="UTF-8" standalone="no"?>
<!-- Created with Inkscape (http://www.inkscape.org/) -->

<svg
   xmlns:dc="http://purl.org/dc/elements/1.1/"
   xmlns:cc="http://creativecommons.org/ns#"
   xmlns:rdf="http://www.w3.org/1999/02/22-rdf-syntax-ns#"
   xmlns:svg="http://www.w3.org/2000/svg"
   xmlns="http://www.w3.org/2000/svg"
   xmlns:sodipodi="http://sodipodi.sourceforge.net/DTD/sodipodi-0.dtd"
   xmlns:inkscape="http://www.inkscape.org/namespaces/inkscape"
   width="48"
   height="48"
   id="svg2"
   version="1.1"
   inkscape:version="0.48.2 r9819"
   sodipodi:docname="ic_wizard_congstar.svg">
  <defs
     id="defs4" />
  <sodipodi:namedview
     id="base"
     pagecolor="#ffffff"
     bordercolor="#666666"
     borderopacity="1.0"
     inkscape:pageopacity="0.0"
     inkscape:pageshadow="2"
     inkscape:zoom="2.8"
     inkscape:cx="2.2707463"
     inkscape:cy="65.522243"
     inkscape:document-units="px"
     inkscape:current-layer="layer1"
     showgrid="false"
     fit-margin-top="0"
     fit-margin-left="0"
     fit-margin-right="0"
     fit-margin-bottom="0"
     inkscape:window-width="1561"
     inkscape:window-height="660"
     inkscape:window-x="2"
     inkscape:window-y="83"
     inkscape:window-maximized="0">
    <inkscape:grid
       type="xygrid"
       id="grid2998"
       empspacing="5"
       visible="true"
       enabled="true"
       snapvisiblegridlinesonly="true" />
  </sodipodi:namedview>
  <metadata
     id="metadata7">
    <rdf:RDF>
      <cc:Work
         rdf:about="">
        <dc:format>image/svg+xml</dc:format>
        <dc:type
           rdf:resource="http://purl.org/dc/dcmitype/StillImage" />
        <dc:title />
      </cc:Work>
    </rdf:RDF>
  </metadata>
  <g
     inkscape:label="Calque 1"
     inkscape:groupmode="layer"
     id="layer1"
     transform="translate(-260,-531.50504)">
    <path
       style="fill:#000000"
       d=""
       id="path3013"
       inkscape:connector-curvature="0" />
    <path
       style="fill:#ffffff;fill-opacity:1;stroke:#000000;stroke-width:0.16865695;stroke-opacity:1"
       d="m 279.66637,576.83758 c -0.43238,-0.18793 -0.54758,-0.33791 -0.54554,-0.71019 0.005,-0.86791 0.15341,-0.93875 1.70441,-0.81216 1.29581,0.10577 1.44467,0.0856 1.79263,-0.2426 0.20872,-0.19687 0.37903,-0.37396 0.37846,-0.39354 -4.8e-4,-0.0196 -0.40667,-0.0413 -0.90247,-0.0481 -1.17325,-0.0164 -2.10427,-0.49985 -2.6028,-1.35159 -0.507,-0.86618 -0.47012,-2.66659 0.0696,-3.395 0.77276,-1.04306 1.28177,-1.22815 3.37736,-1.22815 l 1.91461,0 0,3.17796 c 0,2.9809 -0.0238,3.22294 -0.38368,3.9035 -0.54872,1.03765 -1.22927,1.35295 -2.9025,1.34478 -0.77875,-0.004 -1.58427,-0.1076 -1.90002,-0.24484 z m 3.29725,-4.16736 c 0.11458,-0.11459 0.20239,-0.66339 0.20239,-1.26493 l 0,-1.06254 -0.72956,0 c -1.00964,0 -1.57602,0.62826 -1.48241,1.6444 0.0641,0.6954 1.50684,1.1858 2.00958,0.68307 z m -18.97811,1.89384 c -1.43197,-0.34021 -2.06874,-1.25511 -2.06964,-2.97361 -10e-4,-2.09922 0.9711,-2.9781 3.20384,-2.89629 l 1.26493,0.0463 0.0536,0.55915 c 0.0744,0.77575 -0.20727,1.04309 -1.09925,1.04309 -0.60548,0 -0.84694,0.0957 -1.24427,0.493 -0.27115,0.27114 -0.49299,0.61851 -0.49299,0.77193 0,0.15341 0.22184,0.50078 0.49299,0.77193 0.36444,0.36443 0.6532,0.49299 1.10736,0.49299 0.92503,0 1.26681,0.25028 1.26681,0.92762 0,0.39926 -0.10104,0.6325 -0.32622,0.75302 -0.36961,0.1978 -1.34958,0.20272 -2.15724,0.0108 z m 4.33868,0.0506 c -1.18146,-0.48389 -1.85657,-1.59268 -1.85245,-3.04246 0.005,-1.90055 1.18139,-3.07653 3.08194,-3.08194 1.94692,-0.005 3.02068,0.98376 3.12794,2.88185 0.0762,1.34871 -0.24028,2.14501 -1.11884,2.81514 -0.49699,0.37907 -0.78683,0.45871 -1.78933,0.49168 -0.65795,0.0217 -1.31011,-0.008 -1.44926,-0.0643 z m 2.11588,-1.98741 c 0.69593,-0.69592 0.51488,-1.78247 -0.37605,-2.25698 -0.51776,-0.27577 -0.63486,-0.25271 -1.22092,0.24042 -0.67929,0.5716 -0.70846,1.3517 -0.0743,1.98589 0.55585,0.55586 1.13542,0.56649 1.67124,0.0307 z m 3.04021,1.83551 c -0.21943,-0.21943 -0.26503,-0.7418 -0.26503,-3.03582 l 0,-2.7708 1.87137,0 c 2.18654,0 2.66911,0.19236 3.19192,1.27233 0.26827,0.55417 0.33373,1.0405 0.33373,2.47933 0,1.94297 -0.15075,2.32 -0.92761,2.32 -0.76295,0 -0.92762,-0.3867 -0.92762,-2.17845 0,-1.85982 -0.18101,-2.20663 -1.15171,-2.20663 l -0.53486,0 0,1.9275 c 0,2.09028 -0.13863,2.45758 -0.92761,2.45758 -0.21865,0 -0.51681,-0.11927 -0.66258,-0.26504 z m 12.60843,0.13427 c -0.40386,-0.2569 -0.44188,-1.0008 -0.0702,-1.37253 0.29424,-0.29424 0.5593,-0.35193 1.61686,-0.35193 0.69571,0 1.26493,-0.0657 1.26493,-0.14599 0,-0.0803 -0.54636,-0.18509 -1.21413,-0.23287 -1.09585,-0.0784 -1.26016,-0.13839 -1.68657,-0.61562 -0.38561,-0.43157 -0.47244,-0.68565 -0.47244,-1.38235 0,-0.72076 0.0776,-0.93119 0.49859,-1.35219 l 0.49859,-0.49859 1.90477,0.0478 1.90477,0.0478 0.0536,0.55914 c 0.085,0.88545 -0.16837,1.0431 -1.67656,1.0431 -0.7733,0 -1.32861,0.0705 -1.32861,0.16865 0,0.0928 0.32256,0.16908 0.71679,0.1696 1.68373,0.002 2.43198,0.52495 2.60574,1.82041 0.1171,0.87303 -0.30788,1.67604 -1.05144,1.98672 -0.60474,0.25267 -3.21351,0.33239 -3.5648,0.10893 z m 6.22906,-0.0574 c -0.96625,-0.27912 -1.06962,-0.72662 -1.01771,-4.40645 l 0.0458,-3.24796 0.75896,0 0.75895,0 0.0507,0.87793 0.0507,0.87794 1.12988,0.0497 1.12988,0.0497 0.0536,0.55914 c 0.0799,0.83254 -0.19192,1.0431 -1.34664,1.0431 l -0.99868,0 0.0495,1.22276 0.0495,1.22276 0.9276,0.0861 c 0.5102,0.0474 1.02249,0.14671 1.13844,0.22078 0.3438,0.21961 0.26175,1.25624 -0.11541,1.45808 -0.39495,0.21138 -1.91335,0.20366 -2.6653,-0.0136 z m 4.90827,0.016 c -1.3005,-0.28194 -2.08539,-1.36517 -2.08539,-2.87807 0,-1.2039 0.48974,-2.18076 1.33007,-2.65305 0.56456,-0.31731 0.91524,-0.36837 2.52984,-0.36837 l 1.87442,0 0,2.84652 c 0,2.07711 -0.057,2.89094 -0.21081,3.01088 -0.23916,0.18646 -2.63681,0.21582 -3.43813,0.0421 z m 1.63615,-1.85765 c 0.27089,-0.14498 0.32622,-0.35956 0.32622,-1.26493 l 0,-1.09034 -0.72955,0 c -1.13687,0 -1.84636,0.95079 -1.38101,1.85067 0.34882,0.67453 1.08029,0.88139 1.78434,0.5046 z m 3.12111,1.76478 c -0.21942,-0.21943 -0.26503,-0.7418 -0.26503,-3.03583 l 0,-2.77079 1.52629,0 c 2.31694,0 2.94039,0.50601 2.82687,2.29438 -0.0507,0.79937 -0.0703,0.82749 -0.61156,0.87945 -0.65669,0.063 -1.04308,-0.20191 -1.04308,-0.71522 0,-0.41098 -0.29185,-0.77204 -0.62404,-0.77204 -0.16711,0 -0.21925,0.45841 -0.21925,1.92751 0,2.09028 -0.13864,2.45757 -0.92761,2.45757 -0.21866,0 -0.51682,-0.11927 -0.66259,-0.26503 z m -21.24483,-13.7247 c -1.56841,-0.3422 -3.76059,-1.29652 -5.12145,-2.2295 -4.95873,-3.3996 -7.00094,-9.8654 -4.94817,-15.66629 0.69576,-1.96616 1.44968,-3.1105 3.22062,-4.88844 1.3075,-1.31267 1.88219,-1.75214 3.12056,-2.38633 2.48511,-1.27266 3.4809,-1.51972 6.49329,-1.61098 2.26752,-0.0687 2.81547,-0.0312 4.1321,0.28229 1.83373,0.43672 3.83232,1.37759 5.31269,2.50104 1.22706,0.93122 2.36119,2.11469 2.36119,2.46389 0,0.28427 -6.42411,2.64391 -7.18513,2.63918 -0.75928,-0.005 -1.29894,-0.46063 -4.04648,-3.41855 -1.35709,-1.46099 -2.53719,-2.65634 -2.62246,-2.65634 -0.34537,0 -0.30183,0.58854 0.26931,3.64034 0.71157,3.80218 0.73345,4.2758 0.2187,4.7347 -0.20871,0.18606 -1.91636,0.89876 -3.79478,1.58377 -2.06079,0.75151 -3.4153,1.33277 -3.4153,1.4656 0,0.31224 0.33474,0.42828 4.29834,1.48991 3.75586,1.00598 4.35937,1.23359 4.63461,1.74787 0.095,0.17757 0.50867,2.07165 0.91919,4.20907 0.41053,2.13741 0.79487,3.96463 0.85411,4.06047 0.27747,0.44896 0.62319,-0.0457 2.08865,-2.98804 0.86624,-1.73928 1.69293,-3.29514 1.83709,-3.45747 0.17636,-0.1986 0.51055,-0.29515 1.02158,-0.29515 0.78512,0 5.89111,1.27569 6.18439,1.54513 0.47328,0.43478 -2.06683,3.54309 -4.05449,4.96146 -1.25466,0.89531 -2.7978,1.61857 -4.48886,2.10391 -1.83102,0.5255 -5.28684,0.60537 -7.2893,0.16846 z"
       id="path3098"
       inkscape:connector-curvature="0"
       sodipodi:nodetypes="sssscsssscsscssscsssccscssssssssccsssssssssssssscsssssscssssssssssscccssssssscscccccccsscccsssccsssscssssscssssscsssssssssssssssssssssssssssssssssss" />
  </g>
</svg>
