<?xml version="1.0" encoding="UTF-8" standalone="no"?>
<!-- Generator: Adobe Illustrator 12.0.0, SVG Export Plug-In . SVG Version: 6.00 Build 51448)  -->

<svg
   xmlns:dc="http://purl.org/dc/elements/1.1/"
   xmlns:cc="http://creativecommons.org/ns#"
   xmlns:rdf="http://www.w3.org/1999/02/22-rdf-syntax-ns#"
   xmlns:svg="http://www.w3.org/2000/svg"
   xmlns="http://www.w3.org/2000/svg"
   xmlns:sodipodi="http://sodipodi.sourceforge.net/DTD/sodipodi-0.dtd"
   xmlns:inkscape="http://www.inkscape.org/namespaces/inkscape"
   version="1.1"
   id="svg2008"
   sodipodi:version="0.32"
   inkscape:version="0.48.3.1 r9886"
   sodipodi:docname="ic_wizard_t_online.svg"
   width="48"
   height="48"
   viewBox="44 334 47.999998 47.999998"
   overflow="visible"
   enable-background="new 44 334 523 123"
   xml:space="preserve"
   style="overflow:visible"><metadata
   id="metadata27"><rdf:RDF><cc:Work
       rdf:about=""><dc:format>image/svg+xml</dc:format><dc:type
         rdf:resource="http://purl.org/dc/dcmitype/StillImage" /></cc:Work></rdf:RDF></metadata><defs
   id="defs25" />
<sodipodi:namedview
   units="px"
   inkscape:cy="84.675481"
   borderopacity="1.0"
   pagecolor="#ffffff"
   inkscape:zoom="3.959798"
   inkscape:cx="19.647768"
   id="base"
   inkscape:window-x="0"
   inkscape:window-y="27"
   inkscape:current-layer="g4"
   inkscape:window-width="1600"
   inkscape:window-height="842"
   inkscape:pageshadow="2"
   inkscape:pageopacity="0.0"
   bordercolor="#666666"
   width="186.67mm"
   height="27.6mm"
   inkscape:document-units="px"
   showgrid="false"
   inkscape:window-maximized="1">
	</sodipodi:namedview>
<g
   id="g4"
   transform="translate(0,-74.999996)">
	<path
   id="path18"
   d="m 49.054622,430.96667 h 9.334615 v 9.52586 h -9.334615 v -9.52586 z"
   inkscape:connector-curvature="0"
   style="fill:#999b9e" />
	<path
   id="path20"
   d="m 71.47288,411.95262 h 1.107499 c 7.153233,0 10.487315,3.82669 11.880522,14.03177 l 2.214996,-0.0979 -0.295567,-16.19113 H 49.980723 l -0.358734,16.19113 2.13154,0.0979 c 0.369164,-3.82669 0.811932,-5.88754 1.772806,-7.94836 1.698625,-3.82727 5.243657,-6.08341 9.600625,-6.08341 h 1.550842 v 35.22661 c 0,3.72875 -0.221384,4.90637 -1.106917,5.78958 -0.738911,0.68676 -2.216157,0.98116 -3.915359,0.98116 h -1.698624 v 2.35467 h 20.236875 v -2.35467 h -1.709056 c -1.688194,0 -3.175868,-0.29499 -3.903767,-0.98116 -0.886111,-0.88321 -1.107495,-2.06141 -1.107495,-5.78958 v -35.22662"
   inkscape:connector-curvature="0"
   style="fill:#ed008c" />
	<path
   id="path22"
   d="m 77.610765,430.96667 h 9.334611 v 9.52586 h -9.334611 v -9.52586 z"
   inkscape:connector-curvature="0"
   style="fill:#999b9e" />
	
	
	
	
	
	
	
	
	
	
</g>
</svg>