<?xml version="1.0" encoding="UTF-8" standalone="no"?>
<!-- Generator: Adobe Illustrator 15.1.0, SVG Export Plug-In  -->

<svg
   xmlns:dc="http://purl.org/dc/elements/1.1/"
   xmlns:cc="http://creativecommons.org/ns#"
   xmlns:rdf="http://www.w3.org/1999/02/22-rdf-syntax-ns#"
   xmlns:svg="http://www.w3.org/2000/svg"
   xmlns="http://www.w3.org/2000/svg"
   xmlns:sodipodi="http://sodipodi.sourceforge.net/DTD/sodipodi-0.dtd"
   xmlns:inkscape="http://www.inkscape.org/namespaces/inkscape"
   version="1.1"
   x="0px"
   y="0px"
   width="48"
   height="48"
   viewBox="0 0 48 48"
   enable-background="new 0 0 96 96"
   xml:space="preserve"
   id="svg2"
   inkscape:version="0.48.3.1 r9886"
   sodipodi:docname="ic_wizard_fusion.svg"><metadata
   id="metadata53"><rdf:RDF><cc:Work
       rdf:about=""><dc:format>image/svg+xml</dc:format><dc:type
         rdf:resource="http://purl.org/dc/dcmitype/StillImage" /><dc:title /></cc:Work></rdf:RDF></metadata><sodipodi:namedview
   pagecolor="#ffffff"
   bordercolor="#666666"
   borderopacity="1"
   objecttolerance="10"
   gridtolerance="10"
   guidetolerance="10"
   inkscape:pageopacity="0"
   inkscape:pageshadow="2"
   inkscape:window-width="1487"
   inkscape:window-height="820"
   id="namedview51"
   showgrid="true"
   inkscape:zoom="4.9166667"
   inkscape:cx="37.121467"
   inkscape:cy="47.402428"
   inkscape:window-x="0"
   inkscape:window-y="27"
   inkscape:window-maximized="0"
   inkscape:current-layer="svg2"><inkscape:grid
     type="xygrid"
     id="grid3030"
     empspacing="5"
     visible="true"
     enabled="true"
     snapvisiblegridlinesonly="true" /></sodipodi:namedview>
<defs
   id="defs4">
</defs>
<path
   d="m 11.138208,18.149375 h -0.828479 v 0.716354 h 0.832313 v 0.305708 h -0.832313 v 1.051771 H 9.950354 v -2.383375 h 1.187854 v 0.309542 z"
   id="path6"
   inkscape:connector-curvature="0"
   style="fill:#ffffff" />
<path
   d="m 12.73575,19.959667 c 0.0896,0 0.171062,-0.0139 0.244854,-0.04169 0.07379,-0.02779 0.136563,-0.069 0.188792,-0.123146 0.05223,-0.05462 0.09248,-0.123625 0.121229,-0.206521 0.02875,-0.0829 0.0436,-0.179687 0.0436,-0.289895 v -1.458584 h 0.358896 v 1.4145 c 0,0.168188 -0.02252,0.315292 -0.06804,0.441792 -0.04552,0.1265 -0.111166,0.231437 -0.196937,0.315771 -0.08577,0.08433 -0.190229,0.147583 -0.312896,0.18975 -0.123146,0.04217 -0.260667,0.06373 -0.414479,0.06373 -0.146146,0 -0.277917,-0.0206 -0.395313,-0.06133 -0.117396,-0.04121 -0.217541,-0.102542 -0.299958,-0.184 -0.0829,-0.08194 -0.146625,-0.183521 -0.191667,-0.30475 -0.04456,-0.121709 -0.06708,-0.262584 -0.06708,-0.423584 v -1.451396 h 0.362729 v 1.436542 c 0,0.113083 0.01485,0.212271 0.04408,0.297563 0.02971,0.08529 0.07187,0.156687 0.1265,0.213708 0.05463,0.05702 0.120271,0.09967 0.196938,0.128896 0.07667,0.02827 0.162917,0.04265 0.25875,0.04265 z"
   id="path8"
   inkscape:connector-curvature="0"
   style="fill:#ffffff" />
<path
   d="m 15.764562,19.556687 c 0,0.09679 -0.01677,0.187834 -0.05031,0.273125 -0.03354,0.08529 -0.08337,0.159563 -0.1495,0.222813 -0.06565,0.06325 -0.147583,0.113083 -0.244854,0.149021 -0.09775,0.03642 -0.210834,0.05415 -0.339729,0.05415 -0.06229,0 -0.125063,-0.0038 -0.186875,-0.01198 -0.06229,-0.0081 -0.12123,-0.01964 -0.177292,-0.03498 -0.05558,-0.01533 -0.107813,-0.03306 -0.15525,-0.05319 -0.04792,-0.02013 -0.09008,-0.04217 -0.125542,-0.06565 v -0.368479 c 0.03929,0.02827 0.08577,0.05654 0.139438,0.08385 0.05319,0.02779 0.109729,0.05223 0.168666,0.07379 0.05894,0.02156 0.117396,0.03881 0.175855,0.05223 0.05846,0.01342 0.110687,0.02013 0.157645,0.02013 0.07092,0 0.133209,-0.0091 0.186876,-0.02683 0.05367,-0.01773 0.09823,-0.04313 0.134645,-0.07667 0.03642,-0.03258 0.06325,-0.07235 0.08098,-0.118354 0.01773,-0.04648 0.02636,-0.09679 0.02636,-0.151896 0,-0.06277 -0.01102,-0.115479 -0.03402,-0.158604 -0.023,-0.04265 -0.0551,-0.0805 -0.09679,-0.112125 -0.04169,-0.03211 -0.092,-0.06085 -0.150937,-0.08673 -0.05894,-0.02587 -0.124584,-0.05271 -0.196938,-0.08098 -0.09967,-0.03977 -0.187833,-0.07906 -0.265458,-0.119312 -0.07715,-0.03977 -0.142313,-0.08529 -0.1955,-0.136083 -0.05271,-0.05127 -0.09296,-0.10973 -0.120271,-0.177292 -0.02731,-0.0666 -0.04121,-0.146146 -0.04121,-0.238146 0,-0.100625 0.02013,-0.192146 0.06038,-0.273604 0.04025,-0.08146 0.09583,-0.150938 0.165791,-0.207958 0.06996,-0.05702 0.151896,-0.101584 0.245813,-0.13273 0.09392,-0.03115 0.194541,-0.04696 0.300917,-0.04696 0.114041,0 0.217541,0.01054 0.309541,0.03115 0.092,0.02108 0.176333,0.04744 0.252042,0.07954 v 0.331583 c -0.03594,-0.01725 -0.07667,-0.03402 -0.123146,-0.04983 -0.04648,-0.01581 -0.09583,-0.03019 -0.147104,-0.04313 -0.05175,-0.01294 -0.1035,-0.02348 -0.154771,-0.03115 -0.05175,-0.0081 -0.100625,-0.01198 -0.147583,-0.01198 -0.06517,0 -0.122667,0.0081 -0.17298,0.02492 -0.05031,0.01677 -0.09296,0.03977 -0.128416,0.069 -0.03498,0.02971 -0.06133,0.06517 -0.07954,0.106375 -0.01773,0.04073 -0.02635,0.08625 -0.02635,0.135125 0,0.05558 0.0115,0.103021 0.03498,0.142792 0.02348,0.04025 0.05654,0.07571 0.09967,0.106854 0.04265,0.03162 0.09488,0.06038 0.155729,0.08673 0.06038,0.02635 0.128417,0.05415 0.203167,0.08385 0.09583,0.03833 0.181125,0.07762 0.256833,0.118834 0.07571,0.04121 0.139437,0.08865 0.191667,0.141833 0.05223,0.05319 0.09248,0.114521 0.12075,0.184 0.02827,0.06996 0.04265,0.150458 0.04265,0.242937 z"
   id="path10"
   inkscape:connector-curvature="0"
   style="fill:#ffffff" />
<path
   d="m 16.73775,20.223208 h -0.362729 v -2.383375 h 0.362729 v 2.383375 z"
   id="path12"
   inkscape:connector-curvature="0"
   style="fill:#ffffff" />
<path
   d="m 19.637188,18.999896 c 0,0.192625 -0.02588,0.367041 -0.07811,0.521812 -0.05223,0.15525 -0.126979,0.2875 -0.224729,0.396271 -0.09775,0.108771 -0.216104,0.192146 -0.3565,0.250604 -0.139916,0.05846 -0.298521,0.08721 -0.475333,0.08721 -0.169625,0 -0.322958,-0.02875 -0.460479,-0.08577 -0.137521,-0.05702 -0.254917,-0.138 -0.351709,-0.242938 -0.09679,-0.104937 -0.17202,-0.230958 -0.224729,-0.378541 -0.05271,-0.147584 -0.07906,-0.31098 -0.07906,-0.491625 0,-0.189271 0.02635,-0.360813 0.07858,-0.515105 0.05223,-0.154291 0.127938,-0.285104 0.227604,-0.393875 0.09967,-0.10877 0.220417,-0.192625 0.363688,-0.251562 0.142791,-0.05846 0.305229,-0.08817 0.487312,-0.08817 0.165792,0 0.315771,0.02923 0.450896,0.08673 0.135125,0.05798 0.250125,0.139438 0.345479,0.243896 0.09535,0.104938 0.168667,0.230479 0.219938,0.376625 0.05127,0.146625 0.07715,0.308104 0.07715,0.484438 z m -0.371834,0.03881 c 0,-0.145187 -0.01629,-0.275041 -0.04792,-0.389562 -0.03211,-0.115 -0.07954,-0.212271 -0.141834,-0.291813 -0.06229,-0.08002 -0.139917,-0.140875 -0.231916,-0.183041 -0.092,-0.04265 -0.198375,-0.06373 -0.318646,-0.06373 -0.115,0 -0.219459,0.02252 -0.313855,0.06756 -0.09392,0.04456 -0.173937,0.107812 -0.240062,0.188792 -0.06612,0.08098 -0.117875,0.17825 -0.153813,0.291812 -0.03642,0.113563 -0.05414,0.239104 -0.05414,0.376625 0,0.137521 0.01725,0.262583 0.05175,0.375667 0.03402,0.113083 0.08385,0.209875 0.148062,0.289416 0.06469,0.08002 0.142313,0.141355 0.233833,0.185917 0.09104,0.04408 0.193584,0.06612 0.306667,0.06612 0.120271,0 0.228083,-0.0206 0.322479,-0.06181 0.0944,-0.04121 0.174417,-0.100625 0.239584,-0.17873 0.06517,-0.0781 0.115,-0.173937 0.1495,-0.2875 0.03306,-0.113083 0.05031,-0.241979 0.05031,-0.385729 z"
   id="path14"
   inkscape:connector-curvature="0"
   style="fill:#ffffff" />
<path
   d="m 22.361729,20.223208 h -0.355541 l -1.165813,-1.547229 c -0.0086,-0.01006 -0.023,-0.02971 -0.0436,-0.0599 -0.02013,-0.03019 -0.04169,-0.06277 -0.06421,-0.09871 -0.02252,-0.03594 -0.04456,-0.07044 -0.06517,-0.104938 -0.0206,-0.0345 -0.03642,-0.06085 -0.046,-0.07954 v 1.889354 H 20.285978 V 17.83887 h 0.381417 l 1.112146,1.493562 c 0.01869,0.02587 0.03977,0.05702 0.06421,0.09296 0.02492,0.03642 0.04888,0.07331 0.07187,0.110687 0.023,0.03738 0.04504,0.07331 0.06517,0.106854 0.02013,0.03354 0.03594,0.06133 0.04696,0.08194 v -1.886 h 0.3335 v 2.384333 z"
   id="path16"
   inkscape:connector-curvature="0"
   style="fill:#ffffff" />
<path
   d="m 24.387646,20.223208 h -0.362729 v -2.383375 h 0.362729 v 2.383375 z"
   id="path18"
   inkscape:connector-curvature="0"
   style="fill:#ffffff" />
<path
   d="m 26.598521,18.491979 c 0,0.112604 -0.02252,0.216104 -0.06756,0.310021 -0.04504,0.09392 -0.112125,0.174896 -0.201729,0.243417 -0.0896,0.06804 -0.201729,0.12075 -0.337333,0.158125 -0.135125,0.03738 -0.292771,0.05702 -0.473417,0.05798 V 20.22273 H 25.15575 v -2.383375 h 0.486354 c 0.139917,0 0.268333,0.01102 0.384771,0.0321 0.116917,0.02108 0.217542,0.05798 0.302354,0.108771 0.08481,0.05079 0.150458,0.117875 0.198375,0.200771 0.04696,0.08338 0.07092,0.186875 0.07092,0.310979 z m -0.374229,0.01821 c 0,-0.06229 -0.01054,-0.116437 -0.0321,-0.161958 -0.02156,-0.04552 -0.05558,-0.0829 -0.102542,-0.112125 -0.04648,-0.02971 -0.106375,-0.05127 -0.179688,-0.06565 -0.07283,-0.0139 -0.161,-0.02108 -0.26402,-0.02108 h -0.12698 v 0.798771 h 0.115959 c 0.185437,0 0.330146,-0.0369 0.433645,-0.111167 0.1035,-0.07427 0.15573,-0.183042 0.15573,-0.326792 z"
   id="path20"
   inkscape:connector-curvature="0"
   style="fill:#ffffff" />
<path
   d="M 27.985708,19.574896 H 27.114583 V 19.262 h 0.871125 v 0.312896 z"
   id="path22"
   inkscape:connector-curvature="0"
   style="fill:#ffffff" />
<path
   d="m 30.109854,18.491979 c 0,0.112604 -0.02252,0.216104 -0.06708,0.310021 -0.04504,0.09392 -0.112125,0.174896 -0.201729,0.243417 -0.0896,0.06804 -0.20173,0.12075 -0.336855,0.158125 -0.135125,0.03738 -0.29277,0.05702 -0.473416,0.05798 v 0.961208 h -0.362729 v -2.383375 h 0.486354 c 0.139916,0 0.268333,0.01102 0.384771,0.0321 0.116437,0.02108 0.217062,0.05798 0.301875,0.108771 0.08481,0.05079 0.150937,0.117875 0.198375,0.200771 0.04696,0.08338 0.07044,0.186875 0.07044,0.310979 z m -0.37375,0.01821 c 0,-0.06229 -0.01054,-0.116437 -0.0321,-0.161958 -0.02156,-0.04552 -0.05558,-0.0829 -0.102542,-0.112125 -0.04648,-0.02971 -0.106375,-0.05127 -0.179687,-0.06565 -0.07283,-0.0139 -0.161,-0.02108 -0.264021,-0.02108 h -0.127458 v 0.798771 h 0.115958 c 0.185437,0 0.330146,-0.0369 0.433646,-0.111167 0.1035,-0.07427 0.156208,-0.183042 0.156208,-0.326792 z"
   id="path24"
   inkscape:connector-curvature="0"
   style="fill:#ffffff" />
<path
   d="m 32.033708,20.223208 h -0.355541 v -0.935812 c 0,-0.106854 -0.02156,-0.188792 -0.06565,-0.245813 -0.04313,-0.05702 -0.109729,-0.08577 -0.197896,-0.08577 -0.04313,0 -0.08385,0.0053 -0.122667,0.01581 -0.03881,0.01006 -0.07475,0.02396 -0.107812,0.04121 -0.03354,0.01725 -0.06325,0.03642 -0.09008,0.0575 -0.02731,0.0206 -0.05079,0.04169 -0.07187,0.06229 v 1.090104 h -0.353625 v -2.383375 h 0.353625 v 0.768104 c 0,0.01485 -4.79e-4,0.03258 -9.58e-4,0.05367 -4.79e-4,0.0206 -9.58e-4,0.04265 -0.0019,0.06565 -4.79e-4,0.02252 -9.58e-4,0.04456 -0.0019,0.06612 -4.79e-4,0.02156 -0.0014,0.04073 -0.0024,0.05846 0.0254,-0.02204 0.05558,-0.0436 0.09008,-0.06469 0.03402,-0.0206 0.07187,-0.03977 0.112125,-0.05606 0.04073,-0.01677 0.0829,-0.03019 0.127938,-0.03977 0.04456,-0.0096 0.09056,-0.01438 0.137042,-0.01438 0.188312,0 0.326791,0.05175 0.416395,0.154771 0.0896,0.103021 0.134167,0.250125 0.134167,0.441792 v 0.950187 z"
   id="path26"
   inkscape:connector-curvature="0"
   style="fill:#ffffff" />
<path
   d="m 34.172229,19.460854 c 0,0.118833 -0.01917,0.227604 -0.05702,0.325833 -0.03833,0.09823 -0.092,0.182084 -0.161958,0.251084 -0.06996,0.06948 -0.15525,0.123146 -0.254917,0.161 -0.100146,0.03785 -0.21275,0.05702 -0.337812,0.05702 -0.120271,0 -0.229521,-0.01821 -0.327271,-0.0551 -0.09775,-0.03738 -0.180646,-0.08864 -0.249646,-0.155729 -0.069,-0.06708 -0.121708,-0.148541 -0.159562,-0.244375 -0.03738,-0.09583 -0.05606,-0.202687 -0.05606,-0.320083 0,-0.1265 0.01917,-0.239583 0.05702,-0.33925 0.03833,-0.09919 0.09296,-0.184 0.165312,-0.253 0.0714,-0.06948 0.158605,-0.122188 0.261146,-0.158604 0.102542,-0.03642 0.2185,-0.05463 0.347396,-0.05463 0.123625,0 0.233833,0.01773 0.329667,0.05319 0.09583,0.03546 0.176812,0.08721 0.242458,0.154771 0.06565,0.06756 0.115959,0.1495 0.149979,0.246771 0.0345,0.09823 0.05127,0.207958 0.05127,0.331104 z m -0.355062,0 c 0,-0.167229 -0.0369,-0.29325 -0.110209,-0.377583 -0.07379,-0.08481 -0.181125,-0.127459 -0.322,-0.127459 -0.142312,0 -0.253479,0.0436 -0.3335,0.130813 -0.08002,0.08721 -0.119791,0.214188 -0.119791,0.381417 0,0.08002 0.01006,0.151416 0.03163,0.214187 0.0206,0.06325 0.05079,0.116917 0.09008,0.160042 0.03929,0.0436 0.08673,0.07715 0.142313,0.100625 0.05606,0.023 0.118833,0.03498 0.18927,0.03498 0.140875,0 0.248688,-0.04408 0.322,-0.132729 0.07331,-0.08817 0.110209,-0.216104 0.110209,-0.384292 z"
   id="path28"
   inkscape:connector-curvature="0"
   style="fill:#ffffff" />
<path
   d="m 36.110458,20.223208 h -0.355062 v -0.935812 c 0,-0.106854 -0.02156,-0.188792 -0.06565,-0.245813 -0.0436,-0.05702 -0.109729,-0.08577 -0.197896,-0.08577 -0.03977,0 -0.0781,0.0048 -0.115479,0.01485 -0.03738,0.01006 -0.07283,0.023 -0.105896,0.03929 -0.03306,0.01677 -0.06421,0.03546 -0.09296,0.05558 -0.02923,0.02013 -0.0551,0.04121 -0.0781,0.06373 V 20.2232 H 34.74579 v -1.51225 h 0.342125 l 0.01102,0.150938 c 0.02587,-0.02444 0.05463,-0.04792 0.08625,-0.06996 0.03163,-0.02204 0.06756,-0.04169 0.105896,-0.05894 0.03881,-0.01725 0.08002,-0.03115 0.125542,-0.04121 0.04456,-0.01054 0.092,-0.01581 0.142792,-0.01581 0.187833,0 0.326791,0.05031 0.416396,0.150938 0.0896,0.100625 0.134166,0.24677 0.134166,0.438437 v 0.957854 z"
   id="path30"
   inkscape:connector-curvature="0"
   style="fill:#ffffff" />
<path
   d="m 36.649521,19.457021 c 0,-0.116917 0.01917,-0.223292 0.05702,-0.319604 0.03785,-0.09679 0.092,-0.17873 0.161,-0.246771 0.06948,-0.06804 0.152375,-0.12075 0.249645,-0.158604 0.09679,-0.03737 0.205084,-0.05606 0.323917,-0.05606 0.116438,0 0.218979,0.01677 0.306667,0.05079 0.08817,0.03354 0.161479,0.08194 0.221854,0.144229 0.0599,0.06277 0.104937,0.139437 0.135604,0.23 0.03019,0.09056 0.04504,0.193583 0.04504,0.307625 v 0.150937 h -1.156709 c 0.0062,0.06277 0.02204,0.120271 0.04888,0.173938 0.02636,0.05367 0.06181,0.09919 0.106855,0.137521 0.04504,0.03785 0.09775,0.06804 0.158604,0.08913 0.06085,0.02156 0.128416,0.0321 0.201729,0.0321 0.04265,0 0.08865,-0.0038 0.137042,-0.01198 0.04888,-0.0081 0.09823,-0.01965 0.1495,-0.03498 0.05079,-0.01533 0.101583,-0.03402 0.152854,-0.05654 0.05079,-0.02204 0.09967,-0.04792 0.146625,-0.07715 v 0.277917 c -0.09344,0.05271 -0.192146,0.09392 -0.295646,0.122666 -0.1035,0.02875 -0.221854,0.04313 -0.354583,0.04313 -0.122667,0 -0.233354,-0.01821 -0.331584,-0.05415 -0.09871,-0.03594 -0.181604,-0.08865 -0.250125,-0.157167 -0.069,-0.069 -0.121708,-0.152854 -0.158604,-0.251563 -0.0369,-0.09823 -0.05558,-0.210354 -0.05558,-0.335416 z m 0.788229,-0.505042 c -0.118354,0 -0.214188,0.03019 -0.288458,0.0896 -0.07427,0.05942 -0.123625,0.146146 -0.148542,0.260667 H 37.8 c -0.0062,-0.114521 -0.04025,-0.20125 -0.103021,-0.260667 -0.06229,-0.05942 -0.149021,-0.0896 -0.259229,-0.0896 z"
   id="path32"
   inkscape:connector-curvature="0"
   style="fill:#ffffff" />
<path
   d="m 8.007812,26.293292 c 0,0.460958 -0.0805,0.894125 -0.240541,1.299979 -0.160521,0.405854 -0.39675,0.758521 -0.708688,1.058958 -0.311937,0.300438 -0.700062,0.536667 -1.163895,0.708688 -0.463834,0.17202 -1.001938,0.25827 -1.614792,0.25827 -0.297563,0 -0.594167,-0.01869 -0.888375,-0.05654 C 3.096833,29.524317 2.817,29.469207 2.551542,29.396376 2.286083,29.323546 2.039792,29.23873 1.812188,29.142897 1.584104,29.046587 1.386208,28.943084 1.217062,28.832397 v -1.751354 c 0.186876,0.134166 0.407292,0.266895 0.660771,0.398187 0.253959,0.131292 0.520375,0.248208 0.800688,0.349792 0.279833,0.102541 0.558708,0.185437 0.835667,0.249646 0.276958,0.06421 0.526604,0.09631 0.748458,0.09631 0.338291,0 0.634417,-0.04265 0.888375,-0.127458 C 5.4045,27.96319 5.617729,27.841957 5.78975,27.684791 5.961771,27.527145 6.090188,27.338832 6.175,27.120332 6.25933,26.901353 6.3015,26.660811 6.3015,26.398228 6.3015,26.100187 6.24783,25.849582 6.139542,25.645457 6.03125,25.440853 5.878396,25.263082 5.6805,25.111666 5.481646,24.95977 5.242542,24.822728 4.962708,24.700541 4.682396,24.577874 4.370458,24.449457 4.025938,24.315291 3.553479,24.128416 3.13325,23.940582 2.765729,23.750353 2.397729,23.561082 2.089146,23.344978 1.837583,23.102999 1.586979,22.86102 1.395792,22.581186 1.2645,22.26302 1.132729,21.945332 1.067083,21.56727 1.067083,21.129791 c 0,-0.478688 0.09631,-0.911375 0.288938,-1.2995 0.192146,-0.388125 0.455208,-0.717792 0.78775,-0.989 0.332542,-0.271209 0.722104,-0.481563 1.168208,-0.630105 0.446584,-0.14902 0.923354,-0.222812 1.430792,-0.222812 0.542417,0 1.032604,0.04935 1.470083,0.148542 0.437958,0.09919 0.837104,0.22425 1.198875,0.376145 v 1.5755 C 7.242583,20.007101 7.047083,19.928041 6.825229,19.851853 6.603375,19.776623 6.370021,19.707624 6.125167,19.646291 5.879833,19.584961 5.634979,19.535603 5.389646,19.49727 5.144313,19.45942 4.910958,19.44025 4.689583,19.44025 c -0.309541,0 -0.583625,0.03977 -0.822729,0.118354 -0.239583,0.07858 -0.441791,0.187833 -0.608062,0.328229 -0.166271,0.139917 -0.291813,0.308104 -0.376625,0.503604 -0.08433,0.1955 -0.1265,0.409688 -0.1265,0.643042 0,0.262104 0.05558,0.48875 0.166271,0.6785 0.110687,0.18975 0.268333,0.358896 0.472458,0.507438 0.204125,0.14902 0.450417,0.286062 0.739354,0.411125 0.288938,0.125541 0.610938,0.25827 0.966958,0.398666 0.455209,0.181125 0.862021,0.368959 1.220917,0.564459 0.358896,0.1955 0.662208,0.420229 0.909938,0.674187 0.247729,0.253958 0.438916,0.545771 0.573083,0.874958 0.135604,0.329667 0.203166,0.713 0.203166,1.15048 z"
   id="path34"
   inkscape:connector-curvature="0"
   style="fill:#ffffff" />
<path
   d="m 16.788062,29.75 -0.239104,-5.091146 c -0.0038,-0.04696 -0.0067,-0.192146 -0.0091,-0.273604 l -0.0115,-0.573563 c -0.0019,-0.0896 -0.0029,-0.183041 -0.0029,-0.241979 l -0.05127,-0.01677 c -0.02348,0.0896 -0.04935,0.179209 -0.07858,0.277917 -0.02923,0.09967 -0.09488,0.3105 -0.09488,0.3105 l -0.06325,0.200292 c -0.02108,0.06804 -0.03785,0.279354 -0.04887,0.309541 L 14.286333,29.75 h -0.99475 l -1.93727,-5.099292 c -0.01581,-0.03881 -0.03594,-0.173458 -0.06085,-0.2415 -0.0254,-0.06804 -0.05127,-0.186396 -0.07858,-0.274083 l -0.08481,-0.295167 c -0.02923,-0.09488 -0.05319,-0.196937 -0.07235,-0.286062 l -0.05127,4.79e-4 c 0,0.06565 -9.59e-4,0.139917 -0.0029,0.228083 -0.0019,0.08817 -0.0048,0.176813 -0.0086,0.27025 0,0 -0.01965,0.598479 -0.023,0.665563 L 10.655687,29.75 H 9.64225 l 0.523729,-8.145833 h 1.193125 l 2.177334,5.716937 c 0.01917,0.05463 0.04073,0.191667 0.06373,0.263063 0.023,0.0714 0.04408,0.184 0.06373,0.261625 0.01965,0.07714 0.03785,0.167229 0.05558,0.245333 0.01821,0.07715 0.03258,0.221375 0.04408,0.221375 h 0.05079 c 0.01198,0 0.02731,-0.127458 0.04696,-0.208917 0.01964,-0.08194 0.03977,-0.160521 0.06133,-0.242458 0.02108,-0.08194 0.0436,-0.157646 0.06708,-0.231438 0.023,-0.07331 0.04456,-0.283187 0.06421,-0.33302 l 2.164874,-5.6925 h 1.239605 L 17.8015,29.75 h -1.013438 z"
   id="path36"
   inkscape:connector-curvature="0"
   style="fill:#ffffff" />
<path
   d="M 25.002417,29.75 24.153333,27.354167 H 21.201667 L 20.411521,29.75 h -1.179229 l 2.918604,-8.145833 h 1.077166 L 26.181646,29.75 h -1.179229 z m -2.368042,-6.653229 c -0.01917,0.119312 -0.0436,0.247729 -0.07235,0.349791 -0.02923,0.102542 -0.0575,0.246292 -0.08433,0.315292 l -0.931499,2.633979 H 23.8275 L 22.854792,23.7355 c -0.01965,-0.05367 -0.0436,-0.156688 -0.07236,-0.259708 -0.02923,-0.101584 -0.05319,-0.254917 -0.07235,-0.367042 l -0.0048,-0.06708 h -0.04408 l -0.02683,0.0551 z"
   id="path38"
   inkscape:connector-curvature="0"
   style="fill:#ffffff" />
<path
   d="m 31.1415,29.75 -1.930563,-3.493604 -0.41927,-0.174417 V 29.75 h -0.958334 v -8.145833 h 1.235771 c 0.398188,0 0.775292,0.180645 1.119333,0.244375 0.342126,0.06373 0.644,0.24725 0.896042,0.398666 0.250604,0.151417 0.450417,0.391479 0.593688,0.639688 0.143271,0.248208 0.216104,0.583625 0.216104,0.959291 0,0.27648 -0.04935,0.540021 -0.147104,0.765709 -0.09775,0.226646 -0.228084,0.432208 -0.387646,0.600875 -0.159563,0.169146 -0.345479,0.314333 -0.552479,0.427416 -0.207959,0.114042 -0.424542,0.197896 -0.643521,0.24773 L 30.127104,26.0585 32.451542,29.75 H 31.1415 z m -2.349833,-4.3125 h 0.277437 c 0.533792,0 0.950188,-0.235271 1.236729,-0.462875 0.287979,-0.228563 0.434125,-0.609021 0.434125,-1.014396 0,-0.370396 -0.135125,-0.570208 -0.401541,-0.739833 -0.262584,-0.168188 -0.669875,-0.178729 -1.210855,-0.178729 H 28.791667 V 25.4375 z"
   id="path40"
   inkscape:connector-curvature="0"
   style="fill:#ffffff" />
<polygon
   points="73,46 69,46 69,43 79,43 79,46 75,46 75,60 73,60 "
   id="polygon42"
   transform="matrix(0.47916667,0,0,0.47916667,1,1)"
   style="fill:#ffffff" />
<rect
   x="40.770836"
   y="25.916668"
   width="0.95833331"
   height="3.8333333"
   id="rect44"
   style="fill:#0771db" />
<rect
   x="43.166664"
   y="24"
   width="0.95833331"
   height="5.75"
   id="rect46"
   style="fill:#0771db" />
<rect
   x="46.041664"
   y="21.604168"
   width="0.95833331"
   height="8.145833"
   id="rect48"
   style="fill:#0771db" />
<rect
   id="_x3C_スライス_x3E__1_"
   width="46"
   height="46"
   x="1"
   y="1"
   style="fill:none" />
</svg>