<?xml version="1.0" encoding="UTF-8" standalone="no"?>
<!-- Creator: CorelDRAW X6 -->

<svg
   xmlns:dc="http://purl.org/dc/elements/1.1/"
   xmlns:cc="http://creativecommons.org/ns#"
   xmlns:rdf="http://www.w3.org/1999/02/22-rdf-syntax-ns#"
   xmlns:svg="http://www.w3.org/2000/svg"
   xmlns="http://www.w3.org/2000/svg"
   xmlns:sodipodi="http://sodipodi.sourceforge.net/DTD/sodipodi-0.dtd"
   xmlns:inkscape="http://www.inkscape.org/namespaces/inkscape"
   xml:space="preserve"
   width="96"
   height="96"
   version="1.1"
   style="fill-rule:evenodd"
   viewBox="0 0 2709.3333 2709.3334"
   id="svg2"
   inkscape:version="0.48.4 r9939"
   sodipodi:docname="csipsimple3.svg"><metadata
     id="metadata32"><rdf:RDF><cc:Work
         rdf:about=""><dc:format>image/svg+xml</dc:format><dc:type
           rdf:resource="http://purl.org/dc/dcmitype/StillImage" /></cc:Work></rdf:RDF></metadata><sodipodi:namedview
     pagecolor="#ffffff"
     bordercolor="#666666"
     borderopacity="1"
     objecttolerance="10"
     gridtolerance="10"
     guidetolerance="10"
     inkscape:pageopacity="0"
     inkscape:pageshadow="2"
     inkscape:window-width="1600"
     inkscape:window-height="838"
     id="namedview30"
     showgrid="false"
     fit-margin-top="5"
     fit-margin-left="5"
     fit-margin-right="5"
     fit-margin-bottom="5"
     inkscape:zoom="1.7940591"
     inkscape:cx="211.95"
     inkscape:cy="-21.336347"
     inkscape:window-x="0"
     inkscape:window-y="27"
     inkscape:window-maximized="1"
     inkscape:current-layer="svg2" /><defs
     id="defs4"><style
       type="text/css"
       id="style6">
    .fil2 {fill:#EFBA2B;fill-rule:nonzero}
    .fil1 {fill:url(#id0);fill-rule:nonzero}
    .fil0 {fill:url(#id1);fill-rule:nonzero}
   </style><radialGradient
       id="id0"
       gradientUnits="userSpaceOnUse"
       cx="9793.1064"
       cy="6081.3921"
       r="2093.0332"
       fx="9793.1064"
       fy="6081.3921"
       gradientTransform="scale(0.9224455,1.0840749)"><stop
         offset="0"
         style="stop-color:#45B653"
         id="stop9" /><stop
         offset="0.321569"
         style="stop-color:#45B653"
         id="stop11" /><stop
         offset="1"
         style="stop-color:#257347"
         id="stop13" /></radialGradient><radialGradient
       id="id1"
       gradientUnits="userSpaceOnUse"
       cx="8376.3975"
       cy="12387.695"
       r="1578.3743"
       fx="8376.3975"
       fy="12387.695"
       gradientTransform="scale(1.2877327,0.7765587)"><stop
         offset="0"
         style="stop-color:#00AFEF"
         id="stop16" /><stop
         offset="0.301961"
         style="stop-color:#00AFEF"
         id="stop18" /><stop
         offset="1"
         style="stop-color:#317ABE"
         id="stop20" /></radialGradient></defs><g
     id="Camada_x0020_1"
     transform="matrix(0.41142383,0,0,0.41142383,-2958.1976,-2537.3206)"><metadata
       id="CorelCorpID_0Corel-Layer" /><path
       class="fil0"
       d="m 12336,10545 c -822,572 -1976,1111 -3499,1643 80,43 163,82 248,117 1447,599 3105,-88 3704,-1535 102,-246 166,-498 196,-750 -187,179 -403,354 -649,525 z"
       id="path24"
       inkscape:connector-curvature="0"
       style="fill:url(#id1);fill-rule:nonzero" /><path
       class="fil1"
       d="m 8242,11766 c 100,-65 213,-140 336,-223 446,-301 1017,-710 1512,-1145 330,-290 625,-592 825,-873 114,-160 196,-313 240,-446 23,-71 36,-136 39,-195 1,-24 2,-47 2,-70 0,-180 -34,-342 -98,-492 -64,-149 -159,-286 -284,-411 -250,-249 -627,-447 -1103,-564 -286,-70 -606,-111 -954,-119 -524,301 -957,771 -1206,1373 -467,1127 -152,2382 693,3165 z"
       id="path26"
       inkscape:connector-curvature="0"
       style="fill:url(#id0);fill-rule:nonzero" /><path
       class="fil2"
       d="m 13629,8299 c 71,-1465 -1792,-2249 -4162,-1751 -184,39 -366,84 -545,135 2182,-339 3842,436 3775,1821 -51,1041 -1066,2146 -2499,2878 1252,-725 2112,-1736 2159,-2693 71,-1465 -1792,-2249 -4162,-1750 -184,39 -366,84 -544,135 2182,-339 3842,436 3775,1821 -66,1351 -3617,3392 -3489,3350 3858,-1239 5621,-2488 5693,-3946 z"
       id="path28"
       inkscape:connector-curvature="0"
       style="fill:#efba2b;fill-rule:nonzero" /></g></svg>